999
dxflib 3.17.0.0
  0
SECTION
  2
HEADER
  9
$ACADVER
  1
AC1015
  9
$HANDSEED
  5
FFFF
  9
$INSUNITS
 70
4
  9
$EXTMIN
 10
32.7486400000000017
 20
-104.120199999999997
  9
$EXTMAX
 10
151.7129799999999875
 20
-45.183959999999999
  9
$LIMMIN
 10
0.0
 20
-118.9907400000000024
  9
$LIMMAX
 10
166.5835199999999929
 20
0.0
  9
$DIMEXE
 40
1.25
  9
$TEXTSTYLE
  7
Standard
  9
$ENDCAPS
280
1
  9
$ANGDIR
 70
0
  0
ENDSEC
  0
SECTION
  2
TABLES
  0
TABLE
  2
VPORT
  5
8
100
AcDbSymbolTable
 70
1
  0
VPORT
  5
30
100
AcDbSymbolTableRecord
100
AcDbViewportTableRecord
  2
*Active
 70
0
 10
0.0
 20
0.0
 11
1.0
 21
1.0
 12
286.3055555555554861
 22
148.5
 13
0.0
 23
0.0
 14
10.0
 24
10.0
 15
10.0
 25
10.0
 16
0.0
 26
0.0
 36
1.0
 17
0.0
 27
0.0
 37
0.0
 40
297.0
 41
1.92798353909465
 42
50.0
 43
0.0
 44
0.0
 50
0.0
 51
0.0
 71
0
 72
100
 73
1
 74
3
 75
1
 76
1
 77
0
 78
0
281
0
 65
1
110
0.0
120
0.0
130
0.0
111
1.0
121
0.0
131
0.0
112
0.0
122
1.0
132
0.0
 79
0
146
0.0
  0
ENDTAB
  0
TABLE
  2
LTYPE
  5
5
100
AcDbSymbolTable
 70
3
  0
LTYPE
  5
14
100
AcDbSymbolTableRecord
100
AcDbLinetypeTableRecord
  2
BYBLOCK
 70
0
  3

 72
65
 73
0
 40
0.0
  0
LTYPE
  5
15
100
AcDbSymbolTableRecord
100
AcDbLinetypeTableRecord
  2
BYLAYER
 70
0
  3

 72
65
 73
0
 40
0.0
  0
LTYPE
  5
16
100
AcDbSymbolTableRecord
100
AcDbLinetypeTableRecord
  2
CONTINUOUS
 70
0
  3
Solid line
 72
65
 73
0
 40
0.0
  0
ENDTAB
  0
TABLE
  2
LAYER
  5
2
100
AcDbSymbolTable
 70
2
  0
LAYER
  5
10
100
AcDbSymbolTableRecord
100
AcDbLayerTableRecord
  2
0
 70
0
 62
3
  6
CONTINUOUS
370
100
390
F
  0
LAYER
  5
31
100
AcDbSymbolTableRecord
100
AcDbLayerTableRecord
  2
Aniversario-PCBWAY-B_Paste.gbr
 70
0
 62
8
  6
CONTINUOUS
370
100
390
F
  0
ENDTAB
  0
TABLE
  2
STYLE
  5
3
100
AcDbSymbolTable
 70
1
  0
STYLE
  5
32
100
AcDbSymbolTableRecord
100
AcDbTextStyleTableRecord
  2
Standard
 70
0
 40
0.0
 41
1.0
 50
0.0
 71
0
 42
2.5
  3

  4

1001
ACAD
1000
txt
1071
0
  0
ENDTAB
  0
TABLE
  2
VIEW
  5
6
100
AcDbSymbolTable
 70
0
  0
ENDTAB
  0
TABLE
  2
UCS
  5
7
100
AcDbSymbolTable
 70
0
  0
ENDTAB
  0
TABLE
  2
APPID
  5
9
100
AcDbSymbolTable
 70
1
  0
APPID
  5
12
100
AcDbSymbolTableRecord
100
AcDbRegAppTableRecord
  2
ACAD
 70
0
  0
ENDTAB
  0
TABLE
  2
DIMSTYLE
  5
A
100
AcDbSymbolTable
 70
1
100
AcDbDimStyleTable
 71
0
  0
DIMSTYLE
105
27
100
AcDbSymbolTableRecord
100
AcDbDimStyleTableRecord
  2
Standard
 41
10.0
 42
0.0
 43
3.75
 44
1.0
 70
0
 73
0
 74
0
 77
1
 78
8
140
20.0
141
2.5
143
0.03937007874016
147
20.0
171
3
172
1
271
2
272
2
274
3
278
44
283
0
284
8
340
32
  0
ENDTAB
  0
TABLE
  2
BLOCK_RECORD
  5
1
100
AcDbSymbolTable
 70
1
  0
BLOCK_RECORD
  5
1F
100
AcDbSymbolTableRecord
100
AcDbBlockTableRecord
  2
*Model_Space
340
22
  0
BLOCK_RECORD
  5
1B
100
AcDbSymbolTableRecord
100
AcDbBlockTableRecord
  2
*Paper_Space
340
1E
  0
BLOCK_RECORD
  5
23
100
AcDbSymbolTableRecord
100
AcDbBlockTableRecord
  2
*Paper_Space0
340
26
  0
BLOCK_RECORD
  5
33
100
AcDbSymbolTableRecord
100
AcDbBlockTableRecord
  2
D13
340
0
  0
BLOCK_RECORD
  5
34
100
AcDbSymbolTableRecord
100
AcDbBlockTableRecord
  2
D14
340
0
  0
BLOCK_RECORD
  5
35
100
AcDbSymbolTableRecord
100
AcDbBlockTableRecord
  2
D16
340
0
  0
BLOCK_RECORD
  5
36
100
AcDbSymbolTableRecord
100
AcDbBlockTableRecord
  2
D17
340
0
  0
BLOCK_RECORD
  5
37
100
AcDbSymbolTableRecord
100
AcDbBlockTableRecord
  2
D18
340
0
  0
BLOCK_RECORD
  5
38
100
AcDbSymbolTableRecord
100
AcDbBlockTableRecord
  2
D21
340
0
  0
BLOCK_RECORD
  5
39
100
AcDbSymbolTableRecord
100
AcDbBlockTableRecord
  2
D22
340
0
  0
BLOCK_RECORD
  5
3A
100
AcDbSymbolTableRecord
100
AcDbBlockTableRecord
  2
D23
340
0
  0
BLOCK_RECORD
  5
3B
100
AcDbSymbolTableRecord
100
AcDbBlockTableRecord
  2
D24
340
0
  0
BLOCK_RECORD
  5
3C
100
AcDbSymbolTableRecord
100
AcDbBlockTableRecord
  2
D25
340
0
  0
BLOCK_RECORD
  5
3D
100
AcDbSymbolTableRecord
100
AcDbBlockTableRecord
  2
D26
340
0
  0
BLOCK_RECORD
  5
3E
100
AcDbSymbolTableRecord
100
AcDbBlockTableRecord
  2
D27
340
0
  0
BLOCK_RECORD
  5
3F
100
AcDbSymbolTableRecord
100
AcDbBlockTableRecord
  2
D28
340
0
  0
BLOCK_RECORD
  5
40
100
AcDbSymbolTableRecord
100
AcDbBlockTableRecord
  2
D29
340
0
  0
BLOCK_RECORD
  5
41
100
AcDbSymbolTableRecord
100
AcDbBlockTableRecord
  2
D30
340
0
  0
BLOCK_RECORD
  5
42
100
AcDbSymbolTableRecord
100
AcDbBlockTableRecord
  2
D31
340
0
  0
BLOCK_RECORD
  5
43
100
AcDbSymbolTableRecord
100
AcDbBlockTableRecord
  2
D101
340
0
  0
ENDTAB
  0
ENDSEC
  0
SECTION
  2
BLOCKS
  0
BLOCK
  5
20
100
AcDbEntity
  8
0
100
AcDbBlockBegin
  2
*Model_Space
 70
0
 10
0.0
 20
0.0
 30
0.0
  3
*Model_Space
  1

  0
ENDBLK
  5
21
100
AcDbEntity
  8
0
100
AcDbBlockEnd
  0
BLOCK
  5
1C
100
AcDbEntity
 67
1
  8
0
100
AcDbBlockBegin
  2
*Paper_Space
 70
0
 10
0.0
 20
0.0
 30
0.0
  3
*Paper_Space
  1

  0
ENDBLK
  5
1D
100
AcDbEntity
 67
1
  8
0
100
AcDbBlockEnd
  0
BLOCK
  5
24
100
AcDbEntity
  8
0
100
AcDbBlockBegin
  2
*Paper_Space0
 70
0
 10
0.0
 20
0.0
 30
0.0
  3
*Paper_Space0
  1

  0
ENDBLK
  5
25
100
AcDbEntity
  8
0
100
AcDbBlockEnd
  0
BLOCK
  5
44
100
AcDbEntity
  8
0
100
AcDbBlockBegin
  2
D13
 70
0
 10
0.0
 20
0.0
 30
0.0
  3
D13
  1

  0
HATCH
  5
45
100
AcDbEntity
  8
0
 62
256
370
0
 48
1.0
  6
BYLAYER
100
AcDbHatch
 10
0.0
 20
0.0
 30
0.0
210
0.0
220
0.0
230
1.0
  2
SOLID
 70
1
 71
0
 91
1
 92
1
 93
8
 72
2
 10
0.25
 20
0.475
 40
0.25
 50
0.0
 51
90.0
 73
1
 72
1
 10
0.25
 20
0.725
 11
-0.25
 21
0.725
 72
2
 10
-0.25
 20
0.475
 40
0.25
 50
90.0
 51
180.0
 73
1
 72
1
 10
-0.5
 20
0.475
 11
-0.5
 21
-0.475
 72
2
 10
-0.25
 20
-0.475
 40
0.25
 50
180.0
 51
-90.0
 73
1
 72
1
 10
-0.25
 20
-0.725
 11
0.25
 21
-0.725
 72
2
 10
0.25
 20
-0.475
 40
0.25
 50
-90.0
 51
0.0
 73
1
 72
1
 10
0.5
 20
-0.475
 11
0.5
 21
0.475
 97
0
 75
0
 76
1
 98
0
1001
ACAD
1010
0.0
1020
0.0
1030
0
  0
ENDBLK
  5
46
100
AcDbEntity
  8
0
100
AcDbBlockEnd
  0
BLOCK
  5
47
100
AcDbEntity
  8
0
100
AcDbBlockBegin
  2
D14
 70
0
 10
0.0
 20
0.0
 30
0.0
  3
D14
  1

  0
HATCH
  5
48
100
AcDbEntity
  8
0
 62
256
370
0
 48
1.0
  6
BYLAYER
100
AcDbHatch
 10
0.0
 20
0.0
 30
0.0
210
0.0
220
0.0
230
1.0
  2
SOLID
 70
1
 71
0
 91
1
 92
1
 93
8
 72
2
 10
0.475
 20
0.25
 40
0.25
 50
0.0
 51
90.0
 73
1
 72
1
 10
0.475
 20
0.5
 11
-0.475
 21
0.5
 72
2
 10
-0.475
 20
0.25
 40
0.25
 50
90.0
 51
180.0
 73
1
 72
1
 10
-0.725
 20
0.25
 11
-0.725
 21
-0.25
 72
2
 10
-0.475
 20
-0.25
 40
0.25
 50
180.0
 51
-90.0
 73
1
 72
1
 10
-0.475
 20
-0.5
 11
0.475
 21
-0.5
 72
2
 10
0.475
 20
-0.25
 40
0.25
 50
-90.0
 51
0.0
 73
1
 72
1
 10
0.725
 20
-0.25
 11
0.725
 21
0.25
 97
0
 75
0
 76
1
 98
0
1001
ACAD
1010
0.0
1020
0.0
1030
0
  0
ENDBLK
  5
49
100
AcDbEntity
  8
0
100
AcDbBlockEnd
  0
BLOCK
  5
4A
100
AcDbEntity
  8
0
100
AcDbBlockBegin
  2
D16
 70
0
 10
0.0
 20
0.0
 30
0.0
  3
D16
  1

  0
HATCH
  5
4B
100
AcDbEntity
  8
0
 62
256
370
0
 48
1.0
  6
BYLAYER
100
AcDbHatch
 10
0.0
 20
0.0
 30
0.0
210
0.0
220
0.0
230
1.0
  2
SOLID
 70
1
 71
0
 91
1
 92
1
 93
8
 72
2
 10
0.5875
 20
0.15
 40
0.15
 50
0.0
 51
90.0
 73
1
 72
1
 10
0.5875
 20
0.3
 11
-0.5875
 21
0.3
 72
2
 10
-0.5875
 20
0.15
 40
0.15
 50
90.0
 51
180.0
 73
1
 72
1
 10
-0.7375
 20
0.15
 11
-0.7375
 21
-0.15
 72
2
 10
-0.5875
 20
-0.15
 40
0.15
 50
180.0
 51
-90.0
 73
1
 72
1
 10
-0.5875
 20
-0.3
 11
0.5875
 21
-0.3
 72
2
 10
0.5875
 20
-0.15
 40
0.15
 50
-90.0
 51
0.0
 73
1
 72
1
 10
0.7375
 20
-0.15
 11
0.7375
 21
0.15
 97
0
 75
0
 76
1
 98
0
1001
ACAD
1010
0.0
1020
0.0
1030
0
  0
ENDBLK
  5
4C
100
AcDbEntity
  8
0
100
AcDbBlockEnd
  0
BLOCK
  5
4D
100
AcDbEntity
  8
0
100
AcDbBlockBegin
  2
D17
 70
0
 10
0.0
 20
0.0
 30
0.0
  3
D17
  1

  0
HATCH
  5
4E
100
AcDbEntity
  8
0
 62
256
370
0
 48
1.0
  6
BYLAYER
100
AcDbHatch
 10
0.0
 20
0.0
 30
0.0
210
0.0
220
0.0
230
1.0
  2
SOLID
 70
1
 71
0
 91
1
 92
1
 93
8
 72
2
 10
0.45
 20
0.2625
 40
0.25
 50
0.0
 51
90.0
 73
1
 72
1
 10
0.45
 20
0.5125
 11
-0.45
 21
0.5125
 72
2
 10
-0.45
 20
0.2625
 40
0.25
 50
90.0
 51
180.0
 73
1
 72
1
 10
-0.7
 20
0.2625
 11
-0.7
 21
-0.2625
 72
2
 10
-0.45
 20
-0.2625
 40
0.25
 50
180.0
 51
-90.0
 73
1
 72
1
 10
-0.45
 20
-0.5125
 11
0.45
 21
-0.5125
 72
2
 10
0.45
 20
-0.2625
 40
0.25
 50
-90.0
 51
0.0
 73
1
 72
1
 10
0.7
 20
-0.2625
 11
0.7
 21
0.2625
 97
0
 75
0
 76
1
 98
0
1001
ACAD
1010
0.0
1020
0.0
1030
0
  0
ENDBLK
  5
4F
100
AcDbEntity
  8
0
100
AcDbBlockEnd
  0
BLOCK
  5
50
100
AcDbEntity
  8
0
100
AcDbBlockBegin
  2
D18
 70
0
 10
0.0
 20
0.0
 30
0.0
  3
D18
  1

  0
HATCH
  5
51
100
AcDbEntity
  8
0
 62
256
370
0
 48
1.0
  6
BYLAYER
100
AcDbHatch
 10
0.0
 20
0.0
 30
0.0
210
0.0
220
0.0
230
1.0
  2
SOLID
 70
1
 71
0
 91
1
 92
1
 93
8
 72
2
 10
0.24378
 20
0.45628
 40
0.24372
 50
0.0
 51
90.0
 73
1
 72
1
 10
0.24378
 20
0.7
 11
-0.24378
 21
0.7
 72
2
 10
-0.24378
 20
0.45628
 40
0.24372
 50
90.0
 51
180.0
 73
1
 72
1
 10
-0.4875
 20
0.45628
 11
-0.4875
 21
-0.45628
 72
2
 10
-0.24378
 20
-0.45628
 40
0.24372
 50
180.0
 51
-90.0
 73
1
 72
1
 10
-0.24378
 20
-0.7
 11
0.24378
 21
-0.7
 72
2
 10
0.24378
 20
-0.45628
 40
0.24372
 50
-90.0
 51
0.0
 73
1
 72
1
 10
0.4875
 20
-0.45628
 11
0.4875
 21
0.45628
 97
0
 75
0
 76
1
 98
0
1001
ACAD
1010
0.0
1020
0.0
1030
0
  0
ENDBLK
  5
52
100
AcDbEntity
  8
0
100
AcDbBlockEnd
  0
BLOCK
  5
53
100
AcDbEntity
  8
0
100
AcDbBlockBegin
  2
D21
 70
0
 10
0.0
 20
0.0
 30
0.0
  3
D21
  1

  0
SOLID
  5
54
100
AcDbEntity
  8
0
 62
256
370
0
 48
1.0
  6
BYLAYER
100
AcDbTrace
 10
-1.0
 20
-0.75
 30
0.0
 11
1.0
 21
-0.75
 31
0.0
 12
-1.0
 22
0.75
 32
0.0
 13
1.0
 23
0.75
 33
0.0
 39
0.0
  0
ENDBLK
  5
55
100
AcDbEntity
  8
0
100
AcDbBlockEnd
  0
BLOCK
  5
56
100
AcDbEntity
  8
0
100
AcDbBlockBegin
  2
D22
 70
0
 10
0.0
 20
0.0
 30
0.0
  3
D22
  1

  0
SOLID
  5
57
100
AcDbEntity
  8
0
 62
256
370
0
 48
1.0
  6
BYLAYER
100
AcDbTrace
 10
-1.0
 20
-1.8999999999999999
 30
0.0
 11
1.0
 21
-1.8999999999999999
 31
0.0
 12
-1.0
 22
1.8999999999999999
 32
0.0
 13
1.0
 23
1.8999999999999999
 33
0.0
 39
0.0
  0
ENDBLK
  5
58
100
AcDbEntity
  8
0
100
AcDbBlockEnd
  0
BLOCK
  5
59
100
AcDbEntity
  8
0
100
AcDbBlockBegin
  2
D23
 70
0
 10
0.0
 20
0.0
 30
0.0
  3
D23
  1

  0
SOLID
  5
5A
100
AcDbEntity
  8
0
 62
256
370
0
 48
1.0
  6
BYLAYER
100
AcDbTrace
 10
-0.75
 20
-0.45
 30
0.0
 11
0.75
 21
-0.45
 31
0.0
 12
-0.75
 22
0.45
 32
0.0
 13
0.75
 23
0.45
 33
0.0
 39
0.0
  0
ENDBLK
  5
5B
100
AcDbEntity
  8
0
100
AcDbBlockEnd
  0
BLOCK
  5
5C
100
AcDbEntity
  8
0
100
AcDbBlockBegin
  2
D24
 70
0
 10
0.0
 20
0.0
 30
0.0
  3
D24
  1

  0
SOLID
  5
5D
100
AcDbEntity
  8
0
 62
256
370
0
 48
1.0
  6
BYLAYER
100
AcDbTrace
 10
-0.45
 20
-0.75
 30
0.0
 11
0.45
 21
-0.75
 31
0.0
 12
-0.45
 22
0.75
 32
0.0
 13
0.45
 23
0.75
 33
0.0
 39
0.0
  0
ENDBLK
  5
5E
100
AcDbEntity
  8
0
100
AcDbBlockEnd
  0
BLOCK
  5
5F
100
AcDbEntity
  8
0
100
AcDbBlockBegin
  2
D25
 70
0
 10
0.0
 20
0.0
 30
0.0
  3
D25
  1

  0
SOLID
  5
60
100
AcDbEntity
  8
0
 62
256
370
0
 48
1.0
  6
BYLAYER
100
AcDbTrace
 10
-0.45
 20
-0.45
 30
0.0
 11
0.45
 21
-0.45
 31
0.0
 12
-0.45
 22
0.45
 32
0.0
 13
0.45
 23
0.45
 33
0.0
 39
0.0
  0
ENDBLK
  5
61
100
AcDbEntity
  8
0
100
AcDbBlockEnd
  0
BLOCK
  5
62
100
AcDbEntity
  8
0
100
AcDbBlockBegin
  2
D26
 70
0
 10
0.0
 20
0.0
 30
0.0
  3
D26
  1

  0
HATCH
  5
63
100
AcDbEntity
  8
0
 62
256
370
0
 48
1.0
  6
BYLAYER
100
AcDbHatch
 10
0.0
 20
0.0
 30
0.0
210
0.0
220
0.0
230
1.0
  2
SOLID
 70
1
 71
0
 91
1
 92
1
 93
8
 72
2
 10
0.425
 20
0.15
 40
0.15
 50
0.0
 51
90.0
 73
1
 72
1
 10
0.425
 20
0.3
 11
-0.425
 21
0.3
 72
2
 10
-0.425
 20
0.15
 40
0.15
 50
90.0
 51
180.0
 73
1
 72
1
 10
-0.575
 20
0.15
 11
-0.575
 21
-0.15
 72
2
 10
-0.425
 20
-0.15
 40
0.15
 50
180.0
 51
-90.0
 73
1
 72
1
 10
-0.425
 20
-0.3
 11
0.425
 21
-0.3
 72
2
 10
0.425
 20
-0.15
 40
0.15
 50
-90.0
 51
0.0
 73
1
 72
1
 10
0.575
 20
-0.15
 11
0.575
 21
0.15
 97
0
 75
0
 76
1
 98
0
1001
ACAD
1010
0.0
1020
0.0
1030
0
  0
ENDBLK
  5
64
100
AcDbEntity
  8
0
100
AcDbBlockEnd
  0
BLOCK
  5
65
100
AcDbEntity
  8
0
100
AcDbBlockBegin
  2
D27
 70
0
 10
0.0
 20
0.0
 30
0.0
  3
D27
  1

  0
HATCH
  5
66
100
AcDbEntity
  8
0
 62
256
370
0
 48
1.0
  6
BYLAYER
100
AcDbHatch
 10
0.0
 20
0.0
 30
0.0
210
0.0
220
0.0
230
1.0
  2
SOLID
 70
1
 71
0
 91
1
 92
1
 93
8
 72
2
 10
0.5
 20
0.075
 40
0.075
 50
0.0
 51
90.0
 73
1
 72
1
 10
0.5
 20
0.15
 11
-0.5
 21
0.15
 72
2
 10
-0.5
 20
0.075
 40
0.075
 50
90.0
 51
180.0
 73
1
 72
1
 10
-0.575
 20
0.075
 11
-0.575
 21
-0.075
 72
2
 10
-0.5
 20
-0.075
 40
0.075
 50
180.0
 51
-90.0
 73
1
 72
1
 10
-0.5
 20
-0.15
 11
0.5
 21
-0.15
 72
2
 10
0.5
 20
-0.075
 40
0.075
 50
-90.0
 51
0.0
 73
1
 72
1
 10
0.575
 20
-0.075
 11
0.575
 21
0.075
 97
0
 75
0
 76
1
 98
0
1001
ACAD
1010
0.0
1020
0.0
1030
0
  0
ENDBLK
  5
67
100
AcDbEntity
  8
0
100
AcDbBlockEnd
  0
BLOCK
  5
68
100
AcDbEntity
  8
0
100
AcDbBlockBegin
  2
D28
 70
0
 10
0.0
 20
0.0
 30
0.0
  3
D28
  1

  0
HATCH
  5
69
100
AcDbEntity
  8
0
 62
256
370
0
 48
1.0
  6
BYLAYER
100
AcDbHatch
 10
0.0
 20
0.0
 30
0.0
210
0.0
220
0.0
230
1.0
  2
SOLID
 70
1
 71
0
 91
1
 92
1
 93
8
 72
2
 10
0.75
 20
0.84
 40
0.25
 50
0.0
 51
90.0
 73
1
 72
1
 10
0.75
 20
1.0900000000000001
 11
-0.75
 21
1.0900000000000001
 72
2
 10
-0.75
 20
0.84
 40
0.25
 50
90.0
 51
180.0
 73
1
 72
1
 10
-1.0
 20
0.84
 11
-1.0
 21
-0.84
 72
2
 10
-0.75
 20
-0.84
 40
0.25
 50
180.0
 51
-90.0
 73
1
 72
1
 10
-0.75
 20
-1.0900000000000001
 11
0.75
 21
-1.0900000000000001
 72
2
 10
0.75
 20
-0.84
 40
0.25
 50
-90.0
 51
0.0
 73
1
 72
1
 10
1.0
 20
-0.84
 11
1.0
 21
0.84
 97
0
 75
0
 76
1
 98
0
1001
ACAD
1010
0.0
1020
0.0
1030
0
  0
ENDBLK
  5
6A
100
AcDbEntity
  8
0
100
AcDbBlockEnd
  0
BLOCK
  5
6B
100
AcDbEntity
  8
0
100
AcDbBlockBegin
  2
D29
 70
0
 10
0.0
 20
0.0
 30
0.0
  3
D29
  1

  0
SOLID
  5
6C
100
AcDbEntity
  8
0
 62
256
370
0
 48
1.0
  6
BYLAYER
100
AcDbTrace
 10
-0.625
 20
-0.5
 30
0.0
 11
0.625
 21
-0.5
 31
0.0
 12
-0.625
 22
0.5
 32
0.0
 13
0.625
 23
0.5
 33
0.0
 39
0.0
  0
ENDBLK
  5
6D
100
AcDbEntity
  8
0
100
AcDbBlockEnd
  0
BLOCK
  5
6E
100
AcDbEntity
  8
0
100
AcDbBlockBegin
  2
D30
 70
0
 10
0.0
 20
0.0
 30
0.0
  3
D30
  1

  0
SOLID
  5
6F
100
AcDbEntity
  8
0
 62
256
370
0
 48
1.0
  6
BYLAYER
100
AcDbTrace
 10
-0.495
 20
-0.135
 30
0.0
 11
0.495
 21
-0.135
 31
0.0
 12
-0.495
 22
0.135
 32
0.0
 13
0.495
 23
0.135
 33
0.0
 39
0.0
  0
ENDBLK
  5
70
100
AcDbEntity
  8
0
100
AcDbBlockEnd
  0
BLOCK
  5
71
100
AcDbEntity
  8
0
100
AcDbBlockBegin
  2
D31
 70
0
 10
0.0
 20
0.0
 30
0.0
  3
D31
  1

  0
SOLID
  5
72
100
AcDbEntity
  8
0
 62
256
370
0
 48
1.0
  6
BYLAYER
100
AcDbTrace
 10
-0.135
 20
-0.495
 30
0.0
 11
0.135
 21
-0.495
 31
0.0
 12
-0.135
 22
0.495
 32
0.0
 13
0.135
 23
0.495
 33
0.0
 39
0.0
  0
ENDBLK
  5
73
100
AcDbEntity
  8
0
100
AcDbBlockEnd
  0
BLOCK
  5
74
100
AcDbEntity
  8
0
100
AcDbBlockBegin
  2
D101
 70
0
 10
0.0
 20
0.0
 30
0.0
  3
D101
  1

  0
HATCH
  5
75
100
AcDbEntity
  8
0
 62
256
370
0
 48
1.0
  6
BYLAYER
100
AcDbHatch
 10
0.0
 20
0.0
 30
0.0
210
0.0
220
0.0
230
1.0
  2
SOLID
 70
1
 71
0
 91
1
 92
1
 93
8
 72
2
 10
0.2625
 20
0.45
 40
0.25
 50
0.0
 51
90.0
 73
1
 72
1
 10
0.2625
 20
0.7
 11
-0.2625
 21
0.7
 72
2
 10
-0.2625
 20
0.45
 40
0.25
 50
90.0
 51
180.0
 73
1
 72
1
 10
-0.5125
 20
0.45
 11
-0.5125
 21
-0.45
 72
2
 10
-0.2625
 20
-0.45
 40
0.25
 50
180.0
 51
-90.0
 73
1
 72
1
 10
-0.2625
 20
-0.7
 11
0.2625
 21
-0.7
 72
2
 10
0.2625
 20
-0.45
 40
0.25
 50
-90.0
 51
0.0
 73
1
 72
1
 10
0.5125
 20
-0.45
 11
0.5125
 21
0.45
 97
0
 75
0
 76
1
 98
0
1001
ACAD
1010
0.0
1020
0.0
1030
0
  0
ENDBLK
  5
76
100
AcDbEntity
  8
0
100
AcDbBlockEnd
  0
ENDSEC
  0
SECTION
  2
ENTITIES
  0
LWPOLYLINE
  5
77
100
AcDbEntity
  8
Aniversario-PCBWAY-B_Paste.gbr
 62
256
370
0
 48
1.0
  6
BYLAYER
100
AcDbPolyline
 90
2
 70
0
 43
1.45
 10
35.4736400000000032
 20
-101.620199999999997
 30
0.0
 10
148.9879799999999932
 20
-101.620199999999997
 30
0.0
  0
LWPOLYLINE
  5
78
100
AcDbEntity
  8
Aniversario-PCBWAY-B_Paste.gbr
 62
256
370
0
 48
1.0
  6
BYLAYER
100
AcDbPolyline
 90
2
 70
1
 43
0.725
 10
35.8361400000000003
 20
-101.620199999999997
 30
0.0
 42
1.0
 10
35.1111399999999989
 20
-101.620199999999997
 30
0.0
 42
1.0
  0
LWPOLYLINE
  5
79
100
AcDbEntity
  8
Aniversario-PCBWAY-B_Paste.gbr
 62
256
370
0
 48
1.0
  6
BYLAYER
100
AcDbPolyline
 90
2
 70
1
 43
0.725
 10
149.3504800000000046
 20
-101.620199999999997
 30
0.0
 42
1.0
 10
148.6254800000000103
 20
-101.620199999999997
 30
0.0
 42
1.0
  0
LWPOLYLINE
  5
7A
100
AcDbEntity
  8
Aniversario-PCBWAY-B_Paste.gbr
 62
256
370
0
 48
1.0
  6
BYLAYER
100
AcDbPolyline
 90
2
 70
0
 43
1.45
 10
148.9879799999999932
 20
-101.620199999999997
 30
0.0
 10
148.9879799999999932
 20
-47.683959999999999
 30
0.0
  0
LWPOLYLINE
  5
7B
100
AcDbEntity
  8
Aniversario-PCBWAY-B_Paste.gbr
 62
256
370
0
 48
1.0
  6
BYLAYER
100
AcDbPolyline
 90
2
 70
1
 43
0.725
 10
149.3504800000000046
 20
-101.620199999999997
 30
0.0
 42
1.0
 10
148.6254800000000103
 20
-101.620199999999997
 30
0.0
 42
1.0
  0
LWPOLYLINE
  5
7C
100
AcDbEntity
  8
Aniversario-PCBWAY-B_Paste.gbr
 62
256
370
0
 48
1.0
  6
BYLAYER
100
AcDbPolyline
 90
2
 70
1
 43
0.725
 10
149.3504800000000046
 20
-47.683959999999999
 30
0.0
 42
1.0
 10
148.6254800000000103
 20
-47.683959999999999
 30
0.0
 42
1.0
  0
LWPOLYLINE
  5
7D
100
AcDbEntity
  8
Aniversario-PCBWAY-B_Paste.gbr
 62
256
370
0
 48
1.0
  6
BYLAYER
100
AcDbPolyline
 90
2
 70
0
 43
1.45
 10
148.9879799999999932
 20
-47.683959999999999
 30
0.0
 10
35.4736400000000032
 20
-47.683959999999999
 30
0.0
  0
LWPOLYLINE
  5
7E
100
AcDbEntity
  8
Aniversario-PCBWAY-B_Paste.gbr
 62
256
370
0
 48
1.0
  6
BYLAYER
100
AcDbPolyline
 90
2
 70
1
 43
0.725
 10
149.3504800000000046
 20
-47.683959999999999
 30
0.0
 42
1.0
 10
148.6254800000000103
 20
-47.683959999999999
 30
0.0
 42
1.0
  0
LWPOLYLINE
  5
7F
100
AcDbEntity
  8
Aniversario-PCBWAY-B_Paste.gbr
 62
256
370
0
 48
1.0
  6
BYLAYER
100
AcDbPolyline
 90
2
 70
1
 43
0.725
 10
35.8361400000000003
 20
-47.683959999999999
 30
0.0
 42
1.0
 10
35.1111399999999989
 20
-47.683959999999999
 30
0.0
 42
1.0
  0
LWPOLYLINE
  5
80
100
AcDbEntity
  8
Aniversario-PCBWAY-B_Paste.gbr
 62
256
370
0
 48
1.0
  6
BYLAYER
100
AcDbPolyline
 90
2
 70
0
 43
1.45
 10
35.4736400000000032
 20
-47.683959999999999
 30
0.0
 10
35.4736400000000032
 20
-101.620199999999997
 30
0.0
  0
LWPOLYLINE
  5
81
100
AcDbEntity
  8
Aniversario-PCBWAY-B_Paste.gbr
 62
256
370
0
 48
1.0
  6
BYLAYER
100
AcDbPolyline
 90
2
 70
1
 43
0.725
 10
35.8361400000000003
 20
-47.683959999999999
 30
0.0
 42
1.0
 10
35.1111399999999989
 20
-47.683959999999999
 30
0.0
 42
1.0
  0
LWPOLYLINE
  5
82
100
AcDbEntity
  8
Aniversario-PCBWAY-B_Paste.gbr
 62
256
370
0
 48
1.0
  6
BYLAYER
100
AcDbPolyline
 90
2
 70
1
 43
0.725
 10
35.8361400000000003
 20
-101.620199999999997
 30
0.0
 42
1.0
 10
35.1111399999999989
 20
-101.620199999999997
 30
0.0
 42
1.0
  0
INSERT
  5
83
100
AcDbEntity
  8
Aniversario-PCBWAY-B_Paste.gbr
 62
256
370
0
 48
1.0
  6
BYLAYER
100
AcDbBlockReference
  2
D31
 10
131.6400600000000054
 20
-66.3212800000000016
 30
0.0
  0
INSERT
  5
84
100
AcDbEntity
  8
Aniversario-PCBWAY-B_Paste.gbr
 62
256
370
0
 48
1.0
  6
BYLAYER
100
AcDbBlockReference
  2
D31
 10
131.1400600000000054
 20
-66.3212800000000016
 30
0.0
  0
INSERT
  5
85
100
AcDbEntity
  8
Aniversario-PCBWAY-B_Paste.gbr
 62
256
370
0
 48
1.0
  6
BYLAYER
100
AcDbBlockReference
  2
D31
 10
130.6400600000000054
 20
-66.3212800000000016
 30
0.0
  0
INSERT
  5
86
100
AcDbEntity
  8
Aniversario-PCBWAY-B_Paste.gbr
 62
256
370
0
 48
1.0
  6
BYLAYER
100
AcDbBlockReference
  2
D31
 10
130.1400600000000054
 20
-66.3212800000000016
 30
0.0
  0
INSERT
  5
87
100
AcDbEntity
  8
Aniversario-PCBWAY-B_Paste.gbr
 62
256
370
0
 48
1.0
  6
BYLAYER
100
AcDbBlockReference
  2
D31
 10
129.6400600000000054
 20
-66.3212800000000016
 30
0.0
  0
INSERT
  5
88
100
AcDbEntity
  8
Aniversario-PCBWAY-B_Paste.gbr
 62
256
370
0
 48
1.0
  6
BYLAYER
100
AcDbBlockReference
  2
D31
 10
129.1400600000000054
 20
-66.3212800000000016
 30
0.0
  0
INSERT
  5
89
100
AcDbEntity
  8
Aniversario-PCBWAY-B_Paste.gbr
 62
256
370
0
 48
1.0
  6
BYLAYER
100
AcDbBlockReference
  2
D31
 10
128.6400600000000054
 20
-66.3212800000000016
 30
0.0
  0
INSERT
  5
8A
100
AcDbEntity
  8
Aniversario-PCBWAY-B_Paste.gbr
 62
256
370
0
 48
1.0
  6
BYLAYER
100
AcDbBlockReference
  2
D31
 10
128.6400600000000054
 20
-61.6012800000000027
 30
0.0
  0
INSERT
  5
8B
100
AcDbEntity
  8
Aniversario-PCBWAY-B_Paste.gbr
 62
256
370
0
 48
1.0
  6
BYLAYER
100
AcDbBlockReference
  2
D31
 10
129.1400600000000054
 20
-61.6012800000000027
 30
0.0
  0
INSERT
  5
8C
100
AcDbEntity
  8
Aniversario-PCBWAY-B_Paste.gbr
 62
256
370
0
 48
1.0
  6
BYLAYER
100
AcDbBlockReference
  2
D31
 10
129.6400600000000054
 20
-61.6012800000000027
 30
0.0
  0
INSERT
  5
8D
100
AcDbEntity
  8
Aniversario-PCBWAY-B_Paste.gbr
 62
256
370
0
 48
1.0
  6
BYLAYER
100
AcDbBlockReference
  2
D31
 10
130.1400600000000054
 20
-61.6012800000000027
 30
0.0
  0
INSERT
  5
8E
100
AcDbEntity
  8
Aniversario-PCBWAY-B_Paste.gbr
 62
256
370
0
 48
1.0
  6
BYLAYER
100
AcDbBlockReference
  2
D31
 10
130.6400600000000054
 20
-61.6012800000000027
 30
0.0
  0
INSERT
  5
8F
100
AcDbEntity
  8
Aniversario-PCBWAY-B_Paste.gbr
 62
256
370
0
 48
1.0
  6
BYLAYER
100
AcDbBlockReference
  2
D31
 10
131.1400600000000054
 20
-61.6012800000000027
 30
0.0
  0
INSERT
  5
90
100
AcDbEntity
  8
Aniversario-PCBWAY-B_Paste.gbr
 62
256
370
0
 48
1.0
  6
BYLAYER
100
AcDbBlockReference
  2
D31
 10
131.6400600000000054
 20
-61.6012800000000027
 30
0.0
  0
INSERT
  5
91
100
AcDbEntity
  8
Aniversario-PCBWAY-B_Paste.gbr
 62
256
370
0
 48
1.0
  6
BYLAYER
100
AcDbBlockReference
  2
D30
 10
127.780060000000006
 20
-65.4612800000000021
 30
0.0
  0
INSERT
  5
92
100
AcDbEntity
  8
Aniversario-PCBWAY-B_Paste.gbr
 62
256
370
0
 48
1.0
  6
BYLAYER
100
AcDbBlockReference
  2
D30
 10
127.780060000000006
 20
-64.9612800000000021
 30
0.0
  0
INSERT
  5
93
100
AcDbEntity
  8
Aniversario-PCBWAY-B_Paste.gbr
 62
256
370
0
 48
1.0
  6
BYLAYER
100
AcDbBlockReference
  2
D30
 10
127.780060000000006
 20
-64.4612800000000021
 30
0.0
  0
INSERT
  5
94
100
AcDbEntity
  8
Aniversario-PCBWAY-B_Paste.gbr
 62
256
370
0
 48
1.0
  6
BYLAYER
100
AcDbBlockReference
  2
D30
 10
127.780060000000006
 20
-63.9612800000000021
 30
0.0
  0
INSERT
  5
95
100
AcDbEntity
  8
Aniversario-PCBWAY-B_Paste.gbr
 62
256
370
0
 48
1.0
  6
BYLAYER
100
AcDbBlockReference
  2
D30
 10
127.780060000000006
 20
-63.4612800000000021
 30
0.0
  0
INSERT
  5
96
100
AcDbEntity
  8
Aniversario-PCBWAY-B_Paste.gbr
 62
256
370
0
 48
1.0
  6
BYLAYER
100
AcDbBlockReference
  2
D30
 10
127.780060000000006
 20
-62.9612800000000021
 30
0.0
  0
INSERT
  5
97
100
AcDbEntity
  8
Aniversario-PCBWAY-B_Paste.gbr
 62
256
370
0
 48
1.0
  6
BYLAYER
100
AcDbBlockReference
  2
D30
 10
127.780060000000006
 20
-62.4612800000000021
 30
0.0
  0
INSERT
  5
98
100
AcDbEntity
  8
Aniversario-PCBWAY-B_Paste.gbr
 62
256
370
0
 48
1.0
  6
BYLAYER
100
AcDbBlockReference
  2
D30
 10
132.5000599999999906
 20
-62.4612800000000021
 30
0.0
  0
INSERT
  5
99
100
AcDbEntity
  8
Aniversario-PCBWAY-B_Paste.gbr
 62
256
370
0
 48
1.0
  6
BYLAYER
100
AcDbBlockReference
  2
D30
 10
132.5000599999999906
 20
-62.9612800000000021
 30
0.0
  0
INSERT
  5
9A
100
AcDbEntity
  8
Aniversario-PCBWAY-B_Paste.gbr
 62
256
370
0
 48
1.0
  6
BYLAYER
100
AcDbBlockReference
  2
D30
 10
132.5000599999999906
 20
-63.4612800000000021
 30
0.0
  0
INSERT
  5
9B
100
AcDbEntity
  8
Aniversario-PCBWAY-B_Paste.gbr
 62
256
370
0
 48
1.0
  6
BYLAYER
100
AcDbBlockReference
  2
D30
 10
132.5000599999999906
 20
-63.9612800000000021
 30
0.0
  0
INSERT
  5
9C
100
AcDbEntity
  8
Aniversario-PCBWAY-B_Paste.gbr
 62
256
370
0
 48
1.0
  6
BYLAYER
100
AcDbBlockReference
  2
D30
 10
132.5000599999999906
 20
-64.4612800000000021
 30
0.0
  0
INSERT
  5
9D
100
AcDbEntity
  8
Aniversario-PCBWAY-B_Paste.gbr
 62
256
370
0
 48
1.0
  6
BYLAYER
100
AcDbBlockReference
  2
D30
 10
132.5000599999999906
 20
-64.9612800000000021
 30
0.0
  0
INSERT
  5
9E
100
AcDbEntity
  8
Aniversario-PCBWAY-B_Paste.gbr
 62
256
370
0
 48
1.0
  6
BYLAYER
100
AcDbBlockReference
  2
D30
 10
132.5000599999999906
 20
-65.4612800000000021
 30
0.0
  0
INSERT
  5
9F
100
AcDbEntity
  8
Aniversario-PCBWAY-B_Paste.gbr
 62
256
370
0
 48
1.0
  6
BYLAYER
100
AcDbBlockReference
  2
D29
 10
95.2650600000000054
 20
-79.8112799999999964
 30
0.0
  0
INSERT
  5
A0
100
AcDbEntity
  8
Aniversario-PCBWAY-B_Paste.gbr
 62
256
370
0
 48
1.0
  6
BYLAYER
100
AcDbBlockReference
  2
D29
 10
103.0150600000000054
 20
-79.8112799999999964
 30
0.0
  0
INSERT
  5
A1
100
AcDbEntity
  8
Aniversario-PCBWAY-B_Paste.gbr
 62
256
370
0
 48
1.0
  6
BYLAYER
100
AcDbBlockReference
  2
D29
 10
105.5150600000000054
 20
-79.8112799999999964
 30
0.0
  0
INSERT
  5
A2
100
AcDbEntity
  8
Aniversario-PCBWAY-B_Paste.gbr
 62
256
370
0
 48
1.0
  6
BYLAYER
100
AcDbBlockReference
  2
D29
 10
113.2650600000000054
 20
-79.8112799999999964
 30
0.0
  0
INSERT
  5
A3
100
AcDbEntity
  8
Aniversario-PCBWAY-B_Paste.gbr
 62
256
370
0
 48
1.0
  6
BYLAYER
100
AcDbBlockReference
  2
D28
 10
142.715059999999994
 20
-54.451279999999997
 30
0.0
  0
INSERT
  5
A4
100
AcDbEntity
  8
Aniversario-PCBWAY-B_Paste.gbr
 62
256
370
0
 48
1.0
  6
BYLAYER
100
AcDbBlockReference
  2
D28
 10
142.715059999999994
 20
-64.6712799999999959
 30
0.0
  0
INSERT
  5
A5
100
AcDbEntity
  8
Aniversario-PCBWAY-B_Paste.gbr
 62
256
370
0
 48
1.0
  6
BYLAYER
100
AcDbBlockReference
  2
D28
 10
138.7850599999999872
 20
-54.451279999999997
 30
0.0
  0
INSERT
  5
A6
100
AcDbEntity
  8
Aniversario-PCBWAY-B_Paste.gbr
 62
256
370
0
 48
1.0
  6
BYLAYER
100
AcDbBlockReference
  2
D28
 10
138.7850599999999872
 20
-64.6712799999999959
 30
0.0
  0
INSERT
  5
A7
100
AcDbEntity
  8
Aniversario-PCBWAY-B_Paste.gbr
 62
256
370
0
 48
1.0
  6
BYLAYER
100
AcDbBlockReference
  2
D27
 10
138.2100599999999986
 20
-61.3112799999999964
 30
0.0
  0
INSERT
  5
A8
100
AcDbEntity
  8
Aniversario-PCBWAY-B_Paste.gbr
 62
256
370
0
 48
1.0
  6
BYLAYER
100
AcDbBlockReference
  2
D27
 10
138.2100599999999986
 20
-60.3112799999999964
 30
0.0
  0
INSERT
  5
A9
100
AcDbEntity
  8
Aniversario-PCBWAY-B_Paste.gbr
 62
256
370
0
 48
1.0
  6
BYLAYER
100
AcDbBlockReference
  2
D27
 10
138.2100599999999986
 20
-58.8112799999999964
 30
0.0
  0
INSERT
  5
AA
100
AcDbEntity
  8
Aniversario-PCBWAY-B_Paste.gbr
 62
256
370
0
 48
1.0
  6
BYLAYER
100
AcDbBlockReference
  2
D27
 10
138.2100599999999986
 20
-57.8112799999999964
 30
0.0
  0
INSERT
  5
AB
100
AcDbEntity
  8
Aniversario-PCBWAY-B_Paste.gbr
 62
256
370
0
 48
1.0
  6
BYLAYER
100
AcDbBlockReference
  2
D27
 10
138.2100599999999986
 20
-58.3112799999999964
 30
0.0
  0
INSERT
  5
AC
100
AcDbEntity
  8
Aniversario-PCBWAY-B_Paste.gbr
 62
256
370
0
 48
1.0
  6
BYLAYER
100
AcDbBlockReference
  2
D27
 10
138.2100599999999986
 20
-59.3112799999999964
 30
0.0
  0
INSERT
  5
AD
100
AcDbEntity
  8
Aniversario-PCBWAY-B_Paste.gbr
 62
256
370
0
 48
1.0
  6
BYLAYER
100
AcDbBlockReference
  2
D27
 10
138.2100599999999986
 20
-59.8112799999999964
 30
0.0
  0
INSERT
  5
AE
100
AcDbEntity
  8
Aniversario-PCBWAY-B_Paste.gbr
 62
256
370
0
 48
1.0
  6
BYLAYER
100
AcDbBlockReference
  2
D27
 10
138.2100599999999986
 20
-60.8112799999999964
 30
0.0
  0
INSERT
  5
AF
100
AcDbEntity
  8
Aniversario-PCBWAY-B_Paste.gbr
 62
256
370
0
 48
1.0
  6
BYLAYER
100
AcDbBlockReference
  2
D26
 10
138.2100599999999986
 20
-62.7612799999999993
 30
0.0
  0
INSERT
  5
B0
100
AcDbEntity
  8
Aniversario-PCBWAY-B_Paste.gbr
 62
256
370
0
 48
1.0
  6
BYLAYER
100
AcDbBlockReference
  2
D26
 10
138.2100599999999986
 20
-61.9612800000000021
 30
0.0
  0
INSERT
  5
B1
100
AcDbEntity
  8
Aniversario-PCBWAY-B_Paste.gbr
 62
256
370
0
 48
1.0
  6
BYLAYER
100
AcDbBlockReference
  2
D26
 10
138.2100599999999986
 20
-57.1612799999999979
 30
0.0
  0
INSERT
  5
B2
100
AcDbEntity
  8
Aniversario-PCBWAY-B_Paste.gbr
 62
256
370
0
 48
1.0
  6
BYLAYER
100
AcDbBlockReference
  2
D26
 10
138.2100599999999986
 20
-56.3612800000000007
 30
0.0
  0
INSERT
  5
B3
100
AcDbEntity
  8
Aniversario-PCBWAY-B_Paste.gbr
 62
256
370
0
 48
1.0
  6
BYLAYER
100
AcDbBlockReference
  2
D26
 10
138.2100599999999986
 20
-57.1612799999999979
 30
0.0
  0
INSERT
  5
B4
100
AcDbEntity
  8
Aniversario-PCBWAY-B_Paste.gbr
 62
256
370
0
 48
1.0
  6
BYLAYER
100
AcDbBlockReference
  2
D26
 10
138.2100599999999986
 20
-61.9612800000000021
 30
0.0
  0
INSERT
  5
B5
100
AcDbEntity
  8
Aniversario-PCBWAY-B_Paste.gbr
 62
256
370
0
 48
1.0
  6
BYLAYER
100
AcDbBlockReference
  2
D26
 10
138.2100599999999986
 20
-62.7612799999999993
 30
0.0
  0
INSERT
  5
B6
100
AcDbEntity
  8
Aniversario-PCBWAY-B_Paste.gbr
 62
256
370
0
 48
1.0
  6
BYLAYER
100
AcDbBlockReference
  2
D25
 10
103.5400599999999969
 20
-62.3812799999999967
 30
0.0
  0
INSERT
  5
B7
100
AcDbEntity
  8
Aniversario-PCBWAY-B_Paste.gbr
 62
256
370
0
 48
1.0
  6
BYLAYER
100
AcDbBlockReference
  2
D25
 10
103.5400599999999969
 20
-63.7812800000000024
 30
0.0
  0
INSERT
  5
B8
100
AcDbEntity
  8
Aniversario-PCBWAY-B_Paste.gbr
 62
256
370
0
 48
1.0
  6
BYLAYER
100
AcDbBlockReference
  2
D25
 10
103.5400599999999969
 20
-65.181280000000001
 30
0.0
  0
INSERT
  5
B9
100
AcDbEntity
  8
Aniversario-PCBWAY-B_Paste.gbr
 62
256
370
0
 48
1.0
  6
BYLAYER
100
AcDbBlockReference
  2
D25
 10
102.1400600000000054
 20
-62.3812799999999967
 30
0.0
  0
INSERT
  5
BA
100
AcDbEntity
  8
Aniversario-PCBWAY-B_Paste.gbr
 62
256
370
0
 48
1.0
  6
BYLAYER
100
AcDbBlockReference
  2
D25
 10
102.1400600000000054
 20
-63.7812800000000024
 30
0.0
  0
INSERT
  5
BB
100
AcDbEntity
  8
Aniversario-PCBWAY-B_Paste.gbr
 62
256
370
0
 48
1.0
  6
BYLAYER
100
AcDbBlockReference
  2
D25
 10
102.1400600000000054
 20
-65.181280000000001
 30
0.0
  0
INSERT
  5
BC
100
AcDbEntity
  8
Aniversario-PCBWAY-B_Paste.gbr
 62
256
370
0
 48
1.0
  6
BYLAYER
100
AcDbBlockReference
  2
D25
 10
100.7400599999999997
 20
-62.3812799999999967
 30
0.0
  0
INSERT
  5
BD
100
AcDbEntity
  8
Aniversario-PCBWAY-B_Paste.gbr
 62
256
370
0
 48
1.0
  6
BYLAYER
100
AcDbBlockReference
  2
D25
 10
100.7400599999999997
 20
-63.7812800000000024
 30
0.0
  0
INSERT
  5
BE
100
AcDbEntity
  8
Aniversario-PCBWAY-B_Paste.gbr
 62
256
370
0
 48
1.0
  6
BYLAYER
100
AcDbBlockReference
  2
D25
 10
100.7400599999999997
 20
-65.181280000000001
 30
0.0
  0
INSERT
  5
BF
100
AcDbEntity
  8
Aniversario-PCBWAY-B_Paste.gbr
 62
256
370
0
 48
1.0
  6
BYLAYER
100
AcDbBlockReference
  2
D24
 10
110.6250600000000048
 20
-73.8212800000000016
 30
0.0
  0
INSERT
  5
C0
100
AcDbEntity
  8
Aniversario-PCBWAY-B_Paste.gbr
 62
256
370
0
 48
1.0
  6
BYLAYER
100
AcDbBlockReference
  2
D24
 10
109.3550599999999946
 20
-73.8212800000000016
 30
0.0
  0
INSERT
  5
C1
100
AcDbEntity
  8
Aniversario-PCBWAY-B_Paste.gbr
 62
256
370
0
 48
1.0
  6
BYLAYER
100
AcDbBlockReference
  2
D24
 10
108.0850599999999986
 20
-73.8212800000000016
 30
0.0
  0
INSERT
  5
C2
100
AcDbEntity
  8
Aniversario-PCBWAY-B_Paste.gbr
 62
256
370
0
 48
1.0
  6
BYLAYER
100
AcDbBlockReference
  2
D24
 10
106.8150600000000026
 20
-73.8212800000000016
 30
0.0
  0
INSERT
  5
C3
100
AcDbEntity
  8
Aniversario-PCBWAY-B_Paste.gbr
 62
256
370
0
 48
1.0
  6
BYLAYER
100
AcDbBlockReference
  2
D24
 10
105.5450600000000065
 20
-73.8212800000000016
 30
0.0
  0
INSERT
  5
C4
100
AcDbEntity
  8
Aniversario-PCBWAY-B_Paste.gbr
 62
256
370
0
 48
1.0
  6
BYLAYER
100
AcDbBlockReference
  2
D24
 10
104.2750599999999963
 20
-73.8212800000000016
 30
0.0
  0
INSERT
  5
C5
100
AcDbEntity
  8
Aniversario-PCBWAY-B_Paste.gbr
 62
256
370
0
 48
1.0
  6
BYLAYER
100
AcDbBlockReference
  2
D24
 10
103.0050600000000003
 20
-73.8212800000000016
 30
0.0
  0
INSERT
  5
C6
100
AcDbEntity
  8
Aniversario-PCBWAY-B_Paste.gbr
 62
256
370
0
 48
1.0
  6
BYLAYER
100
AcDbBlockReference
  2
D24
 10
101.7350600000000043
 20
-73.8212800000000016
 30
0.0
  0
INSERT
  5
C7
100
AcDbEntity
  8
Aniversario-PCBWAY-B_Paste.gbr
 62
256
370
0
 48
1.0
  6
BYLAYER
100
AcDbBlockReference
  2
D24
 10
100.465059999999994
 20
-73.8212800000000016
 30
0.0
  0
INSERT
  5
C8
100
AcDbEntity
  8
Aniversario-PCBWAY-B_Paste.gbr
 62
256
370
0
 48
1.0
  6
BYLAYER
100
AcDbBlockReference
  2
D24
 10
99.195059999999998
 20
-73.8212800000000016
 30
0.0
  0
INSERT
  5
C9
100
AcDbEntity
  8
Aniversario-PCBWAY-B_Paste.gbr
 62
256
370
0
 48
1.0
  6
BYLAYER
100
AcDbBlockReference
  2
D24
 10
97.925060000000002
 20
-73.8212800000000016
 30
0.0
  0
INSERT
  5
CA
100
AcDbEntity
  8
Aniversario-PCBWAY-B_Paste.gbr
 62
256
370
0
 48
1.0
  6
BYLAYER
100
AcDbBlockReference
  2
D24
 10
96.655060000000006
 20
-73.8212800000000016
 30
0.0
  0
INSERT
  5
CB
100
AcDbEntity
  8
Aniversario-PCBWAY-B_Paste.gbr
 62
256
370
0
 48
1.0
  6
BYLAYER
100
AcDbBlockReference
  2
D23
 10
112.3900600000000054
 20
-56.0612799999999964
 30
0.0
  0
INSERT
  5
CC
100
AcDbEntity
  8
Aniversario-PCBWAY-B_Paste.gbr
 62
256
370
0
 48
1.0
  6
BYLAYER
100
AcDbBlockReference
  2
D23
 10
112.3900600000000054
 20
-57.3312799999999996
 30
0.0
  0
INSERT
  5
CD
100
AcDbEntity
  8
Aniversario-PCBWAY-B_Paste.gbr
 62
256
370
0
 48
1.0
  6
BYLAYER
100
AcDbBlockReference
  2
D23
 10
112.3900600000000054
 20
-58.6012800000000027
 30
0.0
  0
INSERT
  5
CE
100
AcDbEntity
  8
Aniversario-PCBWAY-B_Paste.gbr
 62
256
370
0
 48
1.0
  6
BYLAYER
100
AcDbBlockReference
  2
D23
 10
112.3900600000000054
 20
-59.8712799999999987
 30
0.0
  0
INSERT
  5
CF
100
AcDbEntity
  8
Aniversario-PCBWAY-B_Paste.gbr
 62
256
370
0
 48
1.0
  6
BYLAYER
100
AcDbBlockReference
  2
D23
 10
112.3900600000000054
 20
-61.1412800000000018
 30
0.0
  0
INSERT
  5
D0
100
AcDbEntity
  8
Aniversario-PCBWAY-B_Paste.gbr
 62
256
370
0
 48
1.0
  6
BYLAYER
100
AcDbBlockReference
  2
D23
 10
112.3900600000000054
 20
-62.4112799999999979
 30
0.0
  0
INSERT
  5
D1
100
AcDbEntity
  8
Aniversario-PCBWAY-B_Paste.gbr
 62
256
370
0
 48
1.0
  6
BYLAYER
100
AcDbBlockReference
  2
D23
 10
112.3900600000000054
 20
-63.681280000000001
 30
0.0
  0
INSERT
  5
D2
100
AcDbEntity
  8
Aniversario-PCBWAY-B_Paste.gbr
 62
256
370
0
 48
1.0
  6
BYLAYER
100
AcDbBlockReference
  2
D23
 10
112.3900600000000054
 20
-64.951279999999997
 30
0.0
  0
INSERT
  5
D3
100
AcDbEntity
  8
Aniversario-PCBWAY-B_Paste.gbr
 62
256
370
0
 48
1.0
  6
BYLAYER
100
AcDbBlockReference
  2
D23
 10
112.3900600000000054
 20
-66.221279999999993
 30
0.0
  0
INSERT
  5
D4
100
AcDbEntity
  8
Aniversario-PCBWAY-B_Paste.gbr
 62
256
370
0
 48
1.0
  6
BYLAYER
100
AcDbBlockReference
  2
D23
 10
112.3900600000000054
 20
-67.4912800000000033
 30
0.0
  0
INSERT
  5
D5
100
AcDbEntity
  8
Aniversario-PCBWAY-B_Paste.gbr
 62
256
370
0
 48
1.0
  6
BYLAYER
100
AcDbBlockReference
  2
D23
 10
112.3900600000000054
 20
-68.7612799999999993
 30
0.0
  0
INSERT
  5
D6
100
AcDbEntity
  8
Aniversario-PCBWAY-B_Paste.gbr
 62
256
370
0
 48
1.0
  6
BYLAYER
100
AcDbBlockReference
  2
D23
 10
112.3900600000000054
 20
-70.0312799999999953
 30
0.0
  0
INSERT
  5
D7
100
AcDbEntity
  8
Aniversario-PCBWAY-B_Paste.gbr
 62
256
370
0
 48
1.0
  6
BYLAYER
100
AcDbBlockReference
  2
D23
 10
112.3900600000000054
 20
-71.3012800000000055
 30
0.0
  0
INSERT
  5
D8
100
AcDbEntity
  8
Aniversario-PCBWAY-B_Paste.gbr
 62
256
370
0
 48
1.0
  6
BYLAYER
100
AcDbBlockReference
  2
D23
 10
112.3900600000000054
 20
-72.5712800000000016
 30
0.0
  0
INSERT
  5
D9
100
AcDbEntity
  8
Aniversario-PCBWAY-B_Paste.gbr
 62
256
370
0
 48
1.0
  6
BYLAYER
100
AcDbBlockReference
  2
D23
 10
94.8900600000000054
 20
-72.5712800000000016
 30
0.0
  0
INSERT
  5
DA
100
AcDbEntity
  8
Aniversario-PCBWAY-B_Paste.gbr
 62
256
370
0
 48
1.0
  6
BYLAYER
100
AcDbBlockReference
  2
D23
 10
94.8900600000000054
 20
-71.3012800000000055
 30
0.0
  0
INSERT
  5
DB
100
AcDbEntity
  8
Aniversario-PCBWAY-B_Paste.gbr
 62
256
370
0
 48
1.0
  6
BYLAYER
100
AcDbBlockReference
  2
D23
 10
94.8900600000000054
 20
-70.0312799999999953
 30
0.0
  0
INSERT
  5
DC
100
AcDbEntity
  8
Aniversario-PCBWAY-B_Paste.gbr
 62
256
370
0
 48
1.0
  6
BYLAYER
100
AcDbBlockReference
  2
D23
 10
94.8900600000000054
 20
-68.7612799999999993
 30
0.0
  0
INSERT
  5
DD
100
AcDbEntity
  8
Aniversario-PCBWAY-B_Paste.gbr
 62
256
370
0
 48
1.0
  6
BYLAYER
100
AcDbBlockReference
  2
D23
 10
94.8900600000000054
 20
-67.4912800000000033
 30
0.0
  0
INSERT
  5
DE
100
AcDbEntity
  8
Aniversario-PCBWAY-B_Paste.gbr
 62
256
370
0
 48
1.0
  6
BYLAYER
100
AcDbBlockReference
  2
D23
 10
94.8900600000000054
 20
-66.221279999999993
 30
0.0
  0
INSERT
  5
DF
100
AcDbEntity
  8
Aniversario-PCBWAY-B_Paste.gbr
 62
256
370
0
 48
1.0
  6
BYLAYER
100
AcDbBlockReference
  2
D23
 10
94.8900600000000054
 20
-64.951279999999997
 30
0.0
  0
INSERT
  5
E0
100
AcDbEntity
  8
Aniversario-PCBWAY-B_Paste.gbr
 62
256
370
0
 48
1.0
  6
BYLAYER
100
AcDbBlockReference
  2
D23
 10
94.8900600000000054
 20
-63.681280000000001
 30
0.0
  0
INSERT
  5
E1
100
AcDbEntity
  8
Aniversario-PCBWAY-B_Paste.gbr
 62
256
370
0
 48
1.0
  6
BYLAYER
100
AcDbBlockReference
  2
D23
 10
94.8900600000000054
 20
-62.4112799999999979
 30
0.0
  0
INSERT
  5
E2
100
AcDbEntity
  8
Aniversario-PCBWAY-B_Paste.gbr
 62
256
370
0
 48
1.0
  6
BYLAYER
100
AcDbBlockReference
  2
D23
 10
94.8900600000000054
 20
-61.1412800000000018
 30
0.0
  0
INSERT
  5
E3
100
AcDbEntity
  8
Aniversario-PCBWAY-B_Paste.gbr
 62
256
370
0
 48
1.0
  6
BYLAYER
100
AcDbBlockReference
  2
D23
 10
94.8900600000000054
 20
-59.8712799999999987
 30
0.0
  0
INSERT
  5
E4
100
AcDbEntity
  8
Aniversario-PCBWAY-B_Paste.gbr
 62
256
370
0
 48
1.0
  6
BYLAYER
100
AcDbBlockReference
  2
D23
 10
94.8900600000000054
 20
-58.6012800000000027
 30
0.0
  0
INSERT
  5
E5
100
AcDbEntity
  8
Aniversario-PCBWAY-B_Paste.gbr
 62
256
370
0
 48
1.0
  6
BYLAYER
100
AcDbBlockReference
  2
D23
 10
94.8900600000000054
 20
-57.3312799999999996
 30
0.0
  0
INSERT
  5
E6
100
AcDbEntity
  8
Aniversario-PCBWAY-B_Paste.gbr
 62
256
370
0
 48
1.0
  6
BYLAYER
100
AcDbBlockReference
  2
D23
 10
94.8900600000000054
 20
-56.0612799999999964
 30
0.0
  0
INSERT
  5
E7
100
AcDbEntity
  8
Aniversario-PCBWAY-B_Paste.gbr
 62
256
370
0
 48
1.0
  6
BYLAYER
100
AcDbBlockReference
  2
D22
 10
134.7900600000000111
 20
-53.8112799999999964
 30
0.0
  0
INSERT
  5
E8
100
AcDbEntity
  8
Aniversario-PCBWAY-B_Paste.gbr
 62
256
370
0
 48
1.0
  6
BYLAYER
100
AcDbBlockReference
  2
D21
 10
128.4900599999999997
 20
-56.1112800000000007
 30
0.0
  0
INSERT
  5
E9
100
AcDbEntity
  8
Aniversario-PCBWAY-B_Paste.gbr
 62
256
370
0
 48
1.0
  6
BYLAYER
100
AcDbBlockReference
  2
D21
 10
128.4900599999999997
 20
-53.8112799999999964
 30
0.0
  0
INSERT
  5
EA
100
AcDbEntity
  8
Aniversario-PCBWAY-B_Paste.gbr
 62
256
370
0
 48
1.0
  6
BYLAYER
100
AcDbBlockReference
  2
D21
 10
128.4900599999999997
 20
-51.5112799999999993
 30
0.0
  0
INSERT
  5
EB
100
AcDbEntity
  8
Aniversario-PCBWAY-B_Paste.gbr
 62
256
370
0
 48
1.0
  6
BYLAYER
100
AcDbBlockReference
  2
D18
 10
121.777559999999994
 20
-53.5612799999999964
 30
0.0
  0
INSERT
  5
EC
100
AcDbEntity
  8
Aniversario-PCBWAY-B_Paste.gbr
 62
256
370
0
 48
1.0
  6
BYLAYER
100
AcDbBlockReference
  2
D18
 10
119.902559999999994
 20
-53.5612799999999964
 30
0.0
  0
INSERT
  5
ED
100
AcDbEntity
  8
Aniversario-PCBWAY-B_Paste.gbr
 62
256
370
0
 48
1.0
  6
BYLAYER
100
AcDbBlockReference
  2
D17
 10
122.840059999999994
 20
-71.8737799999999964
 30
0.0
  0
INSERT
  5
EE
100
AcDbEntity
  8
Aniversario-PCBWAY-B_Paste.gbr
 62
256
370
0
 48
1.0
  6
BYLAYER
100
AcDbBlockReference
  2
D17
 10
122.840059999999994
 20
-70.0487799999999936
 30
0.0
  0
INSERT
  5
EF
100
AcDbEntity
  8
Aniversario-PCBWAY-B_Paste.gbr
 62
256
370
0
 48
1.0
  6
BYLAYER
100
AcDbBlockReference
  2
D17
 10
124.3025599999999997
 20
-59.7987800000000007
 30
0.0
  0
INSERT
  5
F0
100
AcDbEntity
  8
Aniversario-PCBWAY-B_Paste.gbr
 62
256
370
0
 48
1.0
  6
BYLAYER
100
AcDbBlockReference
  2
D17
 10
124.3025599999999997
 20
-61.6237799999999964
 30
0.0
  0
INSERT
  5
F1
100
AcDbEntity
  8
Aniversario-PCBWAY-B_Paste.gbr
 62
256
370
0
 48
1.0
  6
BYLAYER
100
AcDbBlockReference
  2
D17
 10
124.3025599999999997
 20
-63.9987799999999964
 30
0.0
  0
INSERT
  5
F2
100
AcDbEntity
  8
Aniversario-PCBWAY-B_Paste.gbr
 62
256
370
0
 48
1.0
  6
BYLAYER
100
AcDbBlockReference
  2
D17
 10
124.3025599999999997
 20
-65.8237799999999993
 30
0.0
  0
INSERT
  5
F3
100
AcDbEntity
  8
Aniversario-PCBWAY-B_Paste.gbr
 62
256
370
0
 48
1.0
  6
BYLAYER
100
AcDbBlockReference
  2
D17
 10
135.7400599999999997
 20
-62.1487800000000021
 30
0.0
  0
INSERT
  5
F4
100
AcDbEntity
  8
Aniversario-PCBWAY-B_Paste.gbr
 62
256
370
0
 48
1.0
  6
BYLAYER
100
AcDbBlockReference
  2
D17
 10
135.7400599999999997
 20
-63.9737799999999979
 30
0.0
  0
INSERT
  5
F5
100
AcDbEntity
  8
Aniversario-PCBWAY-B_Paste.gbr
 62
256
370
0
 48
1.0
  6
BYLAYER
100
AcDbBlockReference
  2
D16
 10
121.5775600000000054
 20
-64.9612800000000021
 30
0.0
  0
INSERT
  5
F6
100
AcDbEntity
  8
Aniversario-PCBWAY-B_Paste.gbr
 62
256
370
0
 48
1.0
  6
BYLAYER
100
AcDbBlockReference
  2
D16
 10
119.7025600000000054
 20
-65.911280000000005
 30
0.0
  0
INSERT
  5
F7
100
AcDbEntity
  8
Aniversario-PCBWAY-B_Paste.gbr
 62
256
370
0
 48
1.0
  6
BYLAYER
100
AcDbBlockReference
  2
D16
 10
119.7025600000000054
 20
-64.0112799999999993
 30
0.0
  0
INSERT
  5
F8
100
AcDbEntity
  8
Aniversario-PCBWAY-B_Paste.gbr
 62
256
370
0
 48
1.0
  6
BYLAYER
100
AcDbBlockReference
  2
D16
 10
119.7025600000000054
 20
-60.7112800000000021
 30
0.0
  0
INSERT
  5
F9
100
AcDbEntity
  8
Aniversario-PCBWAY-B_Paste.gbr
 62
256
370
0
 48
1.0
  6
BYLAYER
100
AcDbBlockReference
  2
D16
 10
121.5775600000000054
 20
-59.7612799999999993
 30
0.0
  0
INSERT
  5
FA
100
AcDbEntity
  8
Aniversario-PCBWAY-B_Paste.gbr
 62
256
370
0
 48
1.0
  6
BYLAYER
100
AcDbBlockReference
  2
D16
 10
121.5775600000000054
 20
-61.6612799999999979
 30
0.0
  0
INSERT
  5
FB
100
AcDbEntity
  8
Aniversario-PCBWAY-B_Paste.gbr
 62
256
370
0
 48
1.0
  6
BYLAYER
100
AcDbBlockReference
  2
D14
 10
130.840059999999994
 20
-70.911280000000005
 30
0.0
  0
INSERT
  5
FC
100
AcDbEntity
  8
Aniversario-PCBWAY-B_Paste.gbr
 62
256
370
0
 48
1.0
  6
BYLAYER
100
AcDbBlockReference
  2
D14
 10
133.2400599999999997
 20
-70.911280000000005
 30
0.0
  0
INSERT
  5
FD
100
AcDbEntity
  8
Aniversario-PCBWAY-B_Paste.gbr
 62
256
370
0
 48
1.0
  6
BYLAYER
100
AcDbBlockReference
  2
D14
 10
133.2400599999999997
 20
-72.8112799999999964
 30
0.0
  0
INSERT
  5
FE
100
AcDbEntity
  8
Aniversario-PCBWAY-B_Paste.gbr
 62
256
370
0
 48
1.0
  6
BYLAYER
100
AcDbBlockReference
  2
D14
 10
92.0400599999999969
 20
-55.2112800000000021
 30
0.0
  0
INSERT
  5
FF
100
AcDbEntity
  8
Aniversario-PCBWAY-B_Paste.gbr
 62
256
370
0
 48
1.0
  6
BYLAYER
100
AcDbBlockReference
  2
D14
 10
92.0400599999999969
 20
-57.1112800000000007
 30
0.0
  0
INSERT
  5
100
100
AcDbEntity
  8
Aniversario-PCBWAY-B_Paste.gbr
 62
256
370
0
 48
1.0
  6
BYLAYER
100
AcDbBlockReference
  2
D14
 10
120.2400599999999997
 20
-71.911280000000005
 30
0.0
  0
INSERT
  5
101
100
AcDbEntity
  8
Aniversario-PCBWAY-B_Paste.gbr
 62
256
370
0
 48
1.0
  6
BYLAYER
100
AcDbBlockReference
  2
D14
 10
120.2400599999999997
 20
-70.0112799999999993
 30
0.0
  0
INSERT
  5
102
100
AcDbEntity
  8
Aniversario-PCBWAY-B_Paste.gbr
 62
256
370
0
 48
1.0
  6
BYLAYER
100
AcDbBlockReference
  2
D14
 10
92.0400599999999969
 20
-60.7112800000000021
 30
0.0
  0
INSERT
  5
103
100
AcDbEntity
  8
Aniversario-PCBWAY-B_Paste.gbr
 62
256
370
0
 48
1.0
  6
BYLAYER
100
AcDbBlockReference
  2
D14
 10
92.0400599999999969
 20
-58.8112799999999964
 30
0.0
  0
INSERT
  5
104
100
AcDbEntity
  8
Aniversario-PCBWAY-B_Paste.gbr
 62
256
370
0
 48
1.0
  6
BYLAYER
100
AcDbBlockReference
  2
D13
 10
129.090059999999994
 20
-58.9612800000000021
 30
0.0
  0
INSERT
  5
105
100
AcDbEntity
  8
Aniversario-PCBWAY-B_Paste.gbr
 62
256
370
0
 48
1.0
  6
BYLAYER
100
AcDbBlockReference
  2
D13
 10
130.9900599999999997
 20
-58.9612800000000021
 30
0.0
  0
INSERT
  5
106
100
AcDbEntity
  8
Aniversario-PCBWAY-B_Paste.gbr
 62
256
370
0
 48
1.0
  6
BYLAYER
100
AcDbBlockReference
  2
D13
 10
123.6900600000000026
 20
-55.9612800000000021
 30
0.0
  0
INSERT
  5
107
100
AcDbEntity
  8
Aniversario-PCBWAY-B_Paste.gbr
 62
256
370
0
 48
1.0
  6
BYLAYER
100
AcDbBlockReference
  2
D13
 10
125.590059999999994
 20
-55.9612800000000021
 30
0.0
  0
INSERT
  5
108
100
AcDbEntity
  8
Aniversario-PCBWAY-B_Paste.gbr
 62
256
370
0
 48
1.0
  6
BYLAYER
100
AcDbBlockReference
  2
D13
 10
108.4900599999999997
 20
-83.5612799999999964
 30
0.0
  0
INSERT
  5
109
100
AcDbEntity
  8
Aniversario-PCBWAY-B_Paste.gbr
 62
256
370
0
 48
1.0
  6
BYLAYER
100
AcDbBlockReference
  2
D13
 10
110.3900600000000054
 20
-83.5612799999999964
 30
0.0
  0
INSERT
  5
10A
100
AcDbEntity
  8
Aniversario-PCBWAY-B_Paste.gbr
 62
256
370
0
 48
1.0
  6
BYLAYER
100
AcDbBlockReference
  2
D13
 10
136.2900600000000111
 20
-66.161280000000005
 30
0.0
  0
INSERT
  5
10B
100
AcDbEntity
  8
Aniversario-PCBWAY-B_Paste.gbr
 62
256
370
0
 48
1.0
  6
BYLAYER
100
AcDbBlockReference
  2
D13
 10
134.3900600000000054
 20
-66.161280000000005
 30
0.0
  0
INSERT
  5
10C
100
AcDbEntity
  8
Aniversario-PCBWAY-B_Paste.gbr
 62
256
370
0
 48
1.0
  6
BYLAYER
100
AcDbBlockReference
  2
D13
 10
121.7900599999999969
 20
-55.9612800000000021
 30
0.0
  0
INSERT
  5
10D
100
AcDbEntity
  8
Aniversario-PCBWAY-B_Paste.gbr
 62
256
370
0
 48
1.0
  6
BYLAYER
100
AcDbBlockReference
  2
D13
 10
119.8900600000000054
 20
-55.9612800000000021
 30
0.0
  0
INSERT
  5
10E
100
AcDbEntity
  8
Aniversario-PCBWAY-B_Paste.gbr
 62
256
370
0
 48
1.0
  6
BYLAYER
100
AcDbBlockReference
  2
D13
 10
134.9900599999999997
 20
-58.9612800000000021
 30
0.0
  0
INSERT
  5
10F
100
AcDbEntity
  8
Aniversario-PCBWAY-B_Paste.gbr
 62
256
370
0
 48
1.0
  6
BYLAYER
100
AcDbBlockReference
  2
D13
 10
133.090059999999994
 20
-58.9612800000000021
 30
0.0
  0
INSERT
  5
110
100
AcDbEntity
  8
Aniversario-PCBWAY-B_Paste.gbr
 62
256
370
0
 48
1.0
  6
BYLAYER
100
AcDbBlockReference
  2
D13
 10
101.9900599999999997
 20
-83.9612800000000021
 30
0.0
  0
INSERT
  5
111
100
AcDbEntity
  8
Aniversario-PCBWAY-B_Paste.gbr
 62
256
370
0
 48
1.0
  6
BYLAYER
100
AcDbBlockReference
  2
D13
 10
100.090059999999994
 20
-83.9612800000000021
 30
0.0
  0
INSERT
  5
112
100
AcDbEntity
  8
Aniversario-PCBWAY-B_Paste.gbr
 62
256
370
0
 48
1.0
  6
BYLAYER
100
AcDbBlockReference
  2
D101
 10
123.7275599999999969
 20
-53.5612799999999964
 30
0.0
  0
INSERT
  5
113
100
AcDbEntity
  8
Aniversario-PCBWAY-B_Paste.gbr
 62
256
370
0
 48
1.0
  6
BYLAYER
100
AcDbBlockReference
  2
D101
 10
125.5525599999999997
 20
-53.5612799999999964
 30
0.0
  0
INSERT
  5
114
100
AcDbEntity
  8
Aniversario-PCBWAY-B_Paste.gbr
 62
256
370
0
 48
1.0
  6
BYLAYER
100
AcDbBlockReference
  2
D101
 10
96.527559999999994
 20
-83.9612800000000021
 30
0.0
  0
INSERT
  5
115
100
AcDbEntity
  8
Aniversario-PCBWAY-B_Paste.gbr
 62
256
370
0
 48
1.0
  6
BYLAYER
100
AcDbBlockReference
  2
D101
 10
98.3525599999999969
 20
-83.9612800000000021
 30
0.0
  0
HATCH
  5
116
100
AcDbEntity
  8
Aniversario-PCBWAY-B_Paste.gbr
 62
256
370
0
 48
1.0
  6
BYLAYER
100
AcDbHatch
 10
0.0
 20
0.0
 30
0.0
210
0.0
220
0.0
230
1.0
  2
SOLID
 70
1
 71
0
 91
1
 92
1
 93
4
 72
1
 10
129.1123200000000111
 20
-64.9890199999999965
 11
131.1677999999999997
 21
-64.9890199999999965
 72
1
 10
131.1677999999999997
 20
-64.9890199999999965
 11
131.1677999999999997
 21
-62.9335400000000007
 72
1
 10
131.1677999999999997
 20
-62.9335400000000007
 11
129.1123200000000111
 21
-62.9335400000000007
 72
1
 10
129.1123200000000111
 20
-62.9335400000000007
 11
129.1123200000000111
 21
-64.9890199999999965
 97
0
 75
0
 76
1
 98
0
1001
ACAD
1010
0.0
1020
0.0
1030
0
  0
LWPOLYLINE
  5
117
100
AcDbEntity
  8
Aniversario-PCBWAY-B_Paste.gbr
 62
256
370
0
 48
1.0
  6
BYLAYER
100
AcDbPolyline
 90
2
 70
0
 43
0.01
 10
129.1123200000000111
 20
-62.9335400000000007
 30
0.0
 10
129.1123200000000111
 20
-64.9890199999999965
 30
0.0
  0
LWPOLYLINE
  5
118
100
AcDbEntity
  8
Aniversario-PCBWAY-B_Paste.gbr
 62
256
370
0
 48
1.0
  6
BYLAYER
100
AcDbPolyline
 90
2
 70
1
 43
0.005
 10
129.1148200000000088
 20
-62.9335400000000007
 30
0.0
 42
1.0
 10
129.1098200000000134
 20
-62.9335400000000007
 30
0.0
 42
1.0
  0
LWPOLYLINE
  5
119
100
AcDbEntity
  8
Aniversario-PCBWAY-B_Paste.gbr
 62
256
370
0
 48
1.0
  6
BYLAYER
100
AcDbPolyline
 90
2
 70
1
 43
0.005
 10
129.1148200000000088
 20
-64.9890199999999965
 30
0.0
 42
1.0
 10
129.1098200000000134
 20
-64.9890199999999965
 30
0.0
 42
1.0
  0
LWPOLYLINE
  5
11A
100
AcDbEntity
  8
Aniversario-PCBWAY-B_Paste.gbr
 62
256
370
0
 48
1.0
  6
BYLAYER
100
AcDbPolyline
 90
2
 70
0
 43
0.01
 10
131.1677999999999997
 20
-62.9335400000000007
 30
0.0
 10
129.1123200000000111
 20
-62.9335400000000007
 30
0.0
  0
LWPOLYLINE
  5
11B
100
AcDbEntity
  8
Aniversario-PCBWAY-B_Paste.gbr
 62
256
370
0
 48
1.0
  6
BYLAYER
100
AcDbPolyline
 90
2
 70
1
 43
0.005
 10
131.1702999999999975
 20
-62.9335400000000007
 30
0.0
 42
1.0
 10
131.165300000000002
 20
-62.9335400000000007
 30
0.0
 42
1.0
  0
LWPOLYLINE
  5
11C
100
AcDbEntity
  8
Aniversario-PCBWAY-B_Paste.gbr
 62
256
370
0
 48
1.0
  6
BYLAYER
100
AcDbPolyline
 90
2
 70
1
 43
0.005
 10
129.1148200000000088
 20
-62.9335400000000007
 30
0.0
 42
1.0
 10
129.1098200000000134
 20
-62.9335400000000007
 30
0.0
 42
1.0
  0
LWPOLYLINE
  5
11D
100
AcDbEntity
  8
Aniversario-PCBWAY-B_Paste.gbr
 62
256
370
0
 48
1.0
  6
BYLAYER
100
AcDbPolyline
 90
2
 70
0
 43
0.01
 10
131.1677999999999997
 20
-64.9890199999999965
 30
0.0
 10
131.1677999999999997
 20
-62.9335400000000007
 30
0.0
  0
LWPOLYLINE
  5
11E
100
AcDbEntity
  8
Aniversario-PCBWAY-B_Paste.gbr
 62
256
370
0
 48
1.0
  6
BYLAYER
100
AcDbPolyline
 90
2
 70
1
 43
0.005
 10
131.1702999999999975
 20
-64.9890199999999965
 30
0.0
 42
1.0
 10
131.165300000000002
 20
-64.9890199999999965
 30
0.0
 42
1.0
  0
LWPOLYLINE
  5
11F
100
AcDbEntity
  8
Aniversario-PCBWAY-B_Paste.gbr
 62
256
370
0
 48
1.0
  6
BYLAYER
100
AcDbPolyline
 90
2
 70
1
 43
0.005
 10
131.1702999999999975
 20
-62.9335400000000007
 30
0.0
 42
1.0
 10
131.165300000000002
 20
-62.9335400000000007
 30
0.0
 42
1.0
  0
LWPOLYLINE
  5
120
100
AcDbEntity
  8
Aniversario-PCBWAY-B_Paste.gbr
 62
256
370
0
 48
1.0
  6
BYLAYER
100
AcDbPolyline
 90
2
 70
0
 43
0.01
 10
129.1123200000000111
 20
-64.9890199999999965
 30
0.0
 10
131.1677999999999997
 20
-64.9890199999999965
 30
0.0
  0
LWPOLYLINE
  5
121
100
AcDbEntity
  8
Aniversario-PCBWAY-B_Paste.gbr
 62
256
370
0
 48
1.0
  6
BYLAYER
100
AcDbPolyline
 90
2
 70
1
 43
0.005
 10
129.1148200000000088
 20
-64.9890199999999965
 30
0.0
 42
1.0
 10
129.1098200000000134
 20
-64.9890199999999965
 30
0.0
 42
1.0
  0
LWPOLYLINE
  5
122
100
AcDbEntity
  8
Aniversario-PCBWAY-B_Paste.gbr
 62
256
370
0
 48
1.0
  6
BYLAYER
100
AcDbPolyline
 90
2
 70
1
 43
0.005
 10
131.1702999999999975
 20
-64.9890199999999965
 30
0.0
 42
1.0
 10
131.165300000000002
 20
-64.9890199999999965
 30
0.0
 42
1.0
  0
INSERT
  5
123
100
AcDbEntity
  8
Aniversario-PCBWAY-B_Paste.gbr
 62
256
370
0
 48
1.0
  6
BYLAYER
100
AcDbBlockReference
  2
D14
 10
130.840059999999994
 20
-72.8112799999999964
 30
0.0
  0
ENDSEC
  0
SECTION
  2
OBJECTS
  0
DICTIONARY
  5
C
100
AcDbDictionary
280
0
281
1
  3
ACAD_GROUP
350
D
  3
ACAD_LAYOUT
350
1A
  3
ACAD_MLINESTYLE
350
17
  3
ACAD_PLOTSETTINGS
350
19
  3
ACAD_PLOTSTYLENAME
350
E
  3
AcDbVariableDictionary
350
124
  0
DICTIONARY
  5
D
100
AcDbDictionary
280
0
281
1
  0
ACDBDICTIONARYWDFLT
  5
E
100
AcDbDictionary
281
1
  3
Normal
350
F
100
AcDbDictionaryWithDefault
340
F
  0
ACDBPLACEHOLDER
  5
F
  0
DICTIONARY
  5
17
100
AcDbDictionary
280
0
281
1
  3
Standard
350
18
  0
MLINESTYLE
  5
18
100
AcDbMlineStyle
  2
STANDARD
 70
0
  3

 62
256
 51
90.0
 52
90.0
 71
2
 49
0.5
 62
256
  6
BYLAYER
 49
-0.5
 62
256
  6
BYLAYER
  0
DICTIONARY
  5
19
100
AcDbDictionary
280
0
281
1
  0
DICTIONARY
  5
1A
100
AcDbDictionary
281
1
  3
Layout1
350
1E
  3
Layout2
350
26
  3
Model
350
22
  0
LAYOUT
  5
1E
100
AcDbPlotSettings
  1

  2
none_device
  4

  6

 40
0.0
 41
0.0
 42
0.0
 43
0.0
 44
0.0
 45
0.0
 46
0.0
 47
0.0
 48
0.0
 49
0.0
140
0.0
141
0.0
142
1.0
143
1.0
 70
688
 72
0
 73
0
 74
5
  7

 75
16
147
1.0
148
0.0
149
0.0
100
AcDbLayout
  1
Layout1
 70
1
 71
1
 10
0.0
 20
0.0
 11
420.0
 21
297.0
 12
0.0
 22
0.0
 32
0.0
 14
100000000000000000000.0
 24
100000000000000000000.0
 34
100000000000000000000.0
 15
-100000000000000000000.0
 25
-100000000000000000000.0
 35
-100000000000000000000.0
146
0.0
 13
0.0
 23
0.0
 33
0.0
 16
1.0
 26
0.0
 36
0.0
 17
0.0
 27
1.0
 37
0.0
 76
0
330
1B
  0
LAYOUT
  5
22
100
AcDbPlotSettings
  1

  2
none_device
  4

  6

 40
0.0
 41
0.0
 42
0.0
 43
0.0
 44
0.0
 45
0.0
 46
0.0
 47
0.0
 48
0.0
 49
0.0
140
0.0
141
0.0
142
1.0
143
1.0
 70
1712
 72
0
 73
0
 74
0
  7

 75
0
147
1.0
148
0.0
149
0.0
100
AcDbLayout
  1
Model
 70
1
 71
0
 10
0.0
 20
0.0
 11
12.0
 21
9.0
 12
0.0
 22
0.0
 32
0.0
 14
0.0
 24
0.0
 34
0.0
 15
0.0
 25
0.0
 35
0.0
146
0.0
 13
0.0
 23
0.0
 33
0.0
 16
1.0
 26
0.0
 36
0.0
 17
0.0
 27
1.0
 37
0.0
 76
0
330
1F
  0
LAYOUT
  5
26
100
AcDbPlotSettings
  1

  2
none_device
  4

  6

 40
0.0
 41
0.0
 42
0.0
 43
0.0
 44
0.0
 45
0.0
 46
0.0
 47
0.0
 48
0.0
 49
0.0
140
0.0
141
0.0
142
1.0
143
1.0
 70
688
 72
0
 73
0
 74
5
  7

 75
16
147
1.0
148
0.0
149
0.0
100
AcDbLayout
  1
Layout2
 70
1
 71
2
 10
0.0
 20
0.0
 11
12.0
 21
9.0
 12
0.0
 22
0.0
 32
0.0
 14
0.0
 24
0.0
 34
0.0
 15
0.0
 25
0.0
 35
0.0
146
0.0
 13
0.0
 23
0.0
 33
0.0
 16
1.0
 26
0.0
 36
0.0
 17
0.0
 27
1.0
 37
0.0
 76
0
330
23
  0
DICTIONARY
  5
124
100
AcDbDictionary
281
1
  3
DIMASSOC
350
126
  3
HIDETEXT
350
125
  0
DICTIONARYVAR
  5
125
100
DictionaryVariables
280
0
  1
2
  0
DICTIONARYVAR
  5
126
100
DictionaryVariables
280
0
  1
1
  0
ENDSEC
  0
EOF
