%TF.GenerationSoftware,KiCad,Pcbnew,7.0.9*%
%TF.CreationDate,2024-04-10T17:12:23-05:00*%
%TF.ProjectId,Aniversario-PCBWAY,416e6976-6572-4736-9172-696f2d504342,rev?*%
%TF.SameCoordinates,Original*%
%TF.FileFunction,Drillmap*%
%TF.FilePolarity,Positive*%
%FSLAX45Y45*%
G04 Gerber Fmt 4.5, Leading zero omitted, Abs format (unit mm)*
G04 Created by KiCad (PCBNEW 7.0.9) date 2024-04-10 17:12:23*
%MOMM*%
%LPD*%
G01*
G04 APERTURE LIST*
%ADD10C,0.100000*%
%ADD11C,0.200000*%
G04 APERTURE END LIST*
D10*
X9000000Y-4800000D02*
G75*
G03*
X8800000Y-4600000I-200000J0D01*
G01*
X8800000Y-4600000D02*
X3700000Y-4600000D01*
X3700000Y-4600000D02*
G75*
G03*
X3500000Y-4800000I0J-200000D01*
G01*
X3700000Y-10100000D02*
X8800000Y-10100000D01*
X3500000Y-4800000D02*
X3500000Y-9900000D01*
X3500000Y-9900000D02*
G75*
G03*
X3700000Y-10100000I200000J0D01*
G01*
X9000000Y-9900000D02*
X9000000Y-4800000D01*
X8800000Y-10100000D02*
G75*
G03*
X9000000Y-9900000I0J200000D01*
G01*
D11*
D10*
X3580000Y-7005000D02*
X3620000Y-7045000D01*
X3620000Y-7005000D02*
X3580000Y-7045000D01*
X3887500Y-6085000D02*
X3927500Y-6125000D01*
X3927500Y-6085000D02*
X3887500Y-6125000D01*
X3887500Y-8487500D02*
X3927500Y-8527500D01*
X3927500Y-8487500D02*
X3887500Y-8527500D01*
X3887500Y-9087500D02*
X3927500Y-9127500D01*
X3927500Y-9087500D02*
X3887500Y-9127500D01*
X3890000Y-5780000D02*
X3930000Y-5820000D01*
X3930000Y-5780000D02*
X3890000Y-5820000D01*
X3980000Y-5580000D02*
X4020000Y-5620000D01*
X4020000Y-5580000D02*
X3980000Y-5620000D01*
X4030000Y-9892500D02*
X4070000Y-9932500D01*
X4070000Y-9892500D02*
X4030000Y-9932500D01*
X4280000Y-6590000D02*
X4320000Y-6630000D01*
X4320000Y-6590000D02*
X4280000Y-6630000D01*
X4370000Y-7170000D02*
X4410000Y-7210000D01*
X4410000Y-7170000D02*
X4370000Y-7210000D01*
X4371500Y-4991500D02*
X4411500Y-5031500D01*
X4411500Y-4991500D02*
X4371500Y-5031500D01*
X4580000Y-5680000D02*
X4620000Y-5720000D01*
X4620000Y-5680000D02*
X4580000Y-5720000D01*
X4790000Y-5782500D02*
X4830000Y-5822500D01*
X4830000Y-5782500D02*
X4790000Y-5822500D01*
X4880000Y-5975000D02*
X4920000Y-6015000D01*
X4920000Y-5975000D02*
X4880000Y-6015000D01*
X4980000Y-6280000D02*
X5020000Y-6320000D01*
X5020000Y-6280000D02*
X4980000Y-6320000D01*
X5177500Y-5517550D02*
X5217500Y-5557550D01*
X5217500Y-5517550D02*
X5177500Y-5557550D01*
X5180000Y-5701907D02*
X5220000Y-5741907D01*
X5220000Y-5701907D02*
X5180000Y-5741907D01*
X5475000Y-6549950D02*
X5515000Y-6589950D01*
X5515000Y-6549950D02*
X5475000Y-6589950D01*
X5502500Y-6777500D02*
X5542500Y-6817500D01*
X5542500Y-6777500D02*
X5502500Y-6817500D01*
X6080000Y-7300000D02*
X6120000Y-7340000D01*
X6120000Y-7300000D02*
X6080000Y-7340000D01*
X6170000Y-5075000D02*
X6210000Y-5115000D01*
X6210000Y-5075000D02*
X6170000Y-5115000D01*
X6470000Y-4780000D02*
X6510000Y-4820000D01*
X6510000Y-4780000D02*
X6470000Y-4820000D01*
X6595000Y-5485000D02*
X6635000Y-5525000D01*
X6635000Y-5485000D02*
X6595000Y-5525000D01*
X6890000Y-7880000D02*
X6930000Y-7920000D01*
X6930000Y-7880000D02*
X6890000Y-7920000D01*
X7370000Y-9570000D02*
X7410000Y-9610000D01*
X7410000Y-9570000D02*
X7370000Y-9610000D01*
X7487500Y-6085000D02*
X7527500Y-6125000D01*
X7527500Y-6085000D02*
X7487500Y-6125000D01*
X7873450Y-6601750D02*
X7913450Y-6641750D01*
X7913450Y-6601750D02*
X7873450Y-6641750D01*
X8387500Y-5485000D02*
X8427500Y-5525000D01*
X8427500Y-5485000D02*
X8387500Y-5525000D01*
X8607550Y-9480000D02*
X8647550Y-9520000D01*
X8647550Y-9480000D02*
X8607550Y-9520000D01*
X8732550Y-6700000D02*
X8772550Y-6740000D01*
X8772550Y-6700000D02*
X8732550Y-6740000D01*
X8750000Y-5080000D02*
X8790000Y-5120000D01*
X8790000Y-5080000D02*
X8750000Y-5120000D01*
X8830000Y-5447500D02*
X8870000Y-5487500D01*
X8870000Y-5447500D02*
X8830000Y-5487500D01*
X8830000Y-6180000D02*
X8870000Y-6220000D01*
X8870000Y-6180000D02*
X8830000Y-6220000D01*
X8835000Y-6000000D02*
X8875000Y-6040000D01*
X8875000Y-6000000D02*
X8835000Y-6040000D01*
X8870000Y-9160000D02*
X8910000Y-9200000D01*
X8910000Y-9160000D02*
X8870000Y-9200000D01*
X8877500Y-9477500D02*
X8917500Y-9517500D01*
X8917500Y-9477500D02*
X8877500Y-9517500D01*
X3982500Y-4770000D02*
G75*
G03*
X3982500Y-4770000I-50000J0D01*
G01*
X4236500Y-4770000D02*
G75*
G03*
X4236500Y-4770000I-50000J0D01*
G01*
X7059000Y-9925000D02*
G75*
G03*
X7059000Y-9925000I-50000J0D01*
G01*
X7313000Y-9925000D02*
G75*
G03*
X7313000Y-9925000I-50000J0D01*
G01*
X7567000Y-9925000D02*
G75*
G03*
X7567000Y-9925000I-50000J0D01*
G01*
X7821000Y-9925000D02*
G75*
G03*
X7821000Y-9925000I-50000J0D01*
G01*
X8075000Y-9925000D02*
G75*
G03*
X8075000Y-9925000I-50000J0D01*
G01*
X8329000Y-9925000D02*
G75*
G03*
X8329000Y-9925000I-50000J0D01*
G01*
X8583000Y-9925000D02*
G75*
G03*
X8583000Y-9925000I-50000J0D01*
G01*
D11*
X3755777Y-10416484D02*
X3755777Y-10216484D01*
X3755777Y-10216484D02*
X3803396Y-10216484D01*
X3803396Y-10216484D02*
X3831967Y-10226008D01*
X3831967Y-10226008D02*
X3851015Y-10245055D01*
X3851015Y-10245055D02*
X3860539Y-10264103D01*
X3860539Y-10264103D02*
X3870062Y-10302198D01*
X3870062Y-10302198D02*
X3870062Y-10330770D01*
X3870062Y-10330770D02*
X3860539Y-10368865D01*
X3860539Y-10368865D02*
X3851015Y-10387912D01*
X3851015Y-10387912D02*
X3831967Y-10406960D01*
X3831967Y-10406960D02*
X3803396Y-10416484D01*
X3803396Y-10416484D02*
X3755777Y-10416484D01*
X3955777Y-10416484D02*
X3955777Y-10283150D01*
X3955777Y-10321246D02*
X3965301Y-10302198D01*
X3965301Y-10302198D02*
X3974824Y-10292674D01*
X3974824Y-10292674D02*
X3993872Y-10283150D01*
X3993872Y-10283150D02*
X4012920Y-10283150D01*
X4079586Y-10416484D02*
X4079586Y-10283150D01*
X4079586Y-10216484D02*
X4070062Y-10226008D01*
X4070062Y-10226008D02*
X4079586Y-10235531D01*
X4079586Y-10235531D02*
X4089110Y-10226008D01*
X4089110Y-10226008D02*
X4079586Y-10216484D01*
X4079586Y-10216484D02*
X4079586Y-10235531D01*
X4203396Y-10416484D02*
X4184348Y-10406960D01*
X4184348Y-10406960D02*
X4174824Y-10387912D01*
X4174824Y-10387912D02*
X4174824Y-10216484D01*
X4308158Y-10416484D02*
X4289110Y-10406960D01*
X4289110Y-10406960D02*
X4279586Y-10387912D01*
X4279586Y-10387912D02*
X4279586Y-10216484D01*
X4536729Y-10416484D02*
X4536729Y-10216484D01*
X4536729Y-10216484D02*
X4603396Y-10359341D01*
X4603396Y-10359341D02*
X4670063Y-10216484D01*
X4670063Y-10216484D02*
X4670063Y-10416484D01*
X4851015Y-10416484D02*
X4851015Y-10311722D01*
X4851015Y-10311722D02*
X4841491Y-10292674D01*
X4841491Y-10292674D02*
X4822444Y-10283150D01*
X4822444Y-10283150D02*
X4784348Y-10283150D01*
X4784348Y-10283150D02*
X4765301Y-10292674D01*
X4851015Y-10406960D02*
X4831967Y-10416484D01*
X4831967Y-10416484D02*
X4784348Y-10416484D01*
X4784348Y-10416484D02*
X4765301Y-10406960D01*
X4765301Y-10406960D02*
X4755777Y-10387912D01*
X4755777Y-10387912D02*
X4755777Y-10368865D01*
X4755777Y-10368865D02*
X4765301Y-10349817D01*
X4765301Y-10349817D02*
X4784348Y-10340293D01*
X4784348Y-10340293D02*
X4831967Y-10340293D01*
X4831967Y-10340293D02*
X4851015Y-10330770D01*
X4946253Y-10283150D02*
X4946253Y-10483150D01*
X4946253Y-10292674D02*
X4965301Y-10283150D01*
X4965301Y-10283150D02*
X5003396Y-10283150D01*
X5003396Y-10283150D02*
X5022444Y-10292674D01*
X5022444Y-10292674D02*
X5031967Y-10302198D01*
X5031967Y-10302198D02*
X5041491Y-10321246D01*
X5041491Y-10321246D02*
X5041491Y-10378389D01*
X5041491Y-10378389D02*
X5031967Y-10397436D01*
X5031967Y-10397436D02*
X5022444Y-10406960D01*
X5022444Y-10406960D02*
X5003396Y-10416484D01*
X5003396Y-10416484D02*
X4965301Y-10416484D01*
X4965301Y-10416484D02*
X4946253Y-10406960D01*
X5127205Y-10397436D02*
X5136729Y-10406960D01*
X5136729Y-10406960D02*
X5127205Y-10416484D01*
X5127205Y-10416484D02*
X5117682Y-10406960D01*
X5117682Y-10406960D02*
X5127205Y-10397436D01*
X5127205Y-10397436D02*
X5127205Y-10416484D01*
X5127205Y-10292674D02*
X5136729Y-10302198D01*
X5136729Y-10302198D02*
X5127205Y-10311722D01*
X5127205Y-10311722D02*
X5117682Y-10302198D01*
X5117682Y-10302198D02*
X5127205Y-10292674D01*
X5127205Y-10292674D02*
X5127205Y-10311722D01*
D10*
X3455000Y-10725000D02*
X3495000Y-10765000D01*
X3495000Y-10725000D02*
X3455000Y-10765000D01*
D11*
X3793872Y-10636484D02*
X3812920Y-10636484D01*
X3812920Y-10636484D02*
X3831967Y-10646008D01*
X3831967Y-10646008D02*
X3841491Y-10655531D01*
X3841491Y-10655531D02*
X3851015Y-10674579D01*
X3851015Y-10674579D02*
X3860539Y-10712674D01*
X3860539Y-10712674D02*
X3860539Y-10760293D01*
X3860539Y-10760293D02*
X3851015Y-10798389D01*
X3851015Y-10798389D02*
X3841491Y-10817436D01*
X3841491Y-10817436D02*
X3831967Y-10826960D01*
X3831967Y-10826960D02*
X3812920Y-10836484D01*
X3812920Y-10836484D02*
X3793872Y-10836484D01*
X3793872Y-10836484D02*
X3774824Y-10826960D01*
X3774824Y-10826960D02*
X3765301Y-10817436D01*
X3765301Y-10817436D02*
X3755777Y-10798389D01*
X3755777Y-10798389D02*
X3746253Y-10760293D01*
X3746253Y-10760293D02*
X3746253Y-10712674D01*
X3746253Y-10712674D02*
X3755777Y-10674579D01*
X3755777Y-10674579D02*
X3765301Y-10655531D01*
X3765301Y-10655531D02*
X3774824Y-10646008D01*
X3774824Y-10646008D02*
X3793872Y-10636484D01*
X3946253Y-10817436D02*
X3955777Y-10826960D01*
X3955777Y-10826960D02*
X3946253Y-10836484D01*
X3946253Y-10836484D02*
X3936729Y-10826960D01*
X3936729Y-10826960D02*
X3946253Y-10817436D01*
X3946253Y-10817436D02*
X3946253Y-10836484D01*
X4127205Y-10703150D02*
X4127205Y-10836484D01*
X4079586Y-10626960D02*
X4031967Y-10769817D01*
X4031967Y-10769817D02*
X4155777Y-10769817D01*
X4270063Y-10636484D02*
X4289110Y-10636484D01*
X4289110Y-10636484D02*
X4308158Y-10646008D01*
X4308158Y-10646008D02*
X4317682Y-10655531D01*
X4317682Y-10655531D02*
X4327205Y-10674579D01*
X4327205Y-10674579D02*
X4336729Y-10712674D01*
X4336729Y-10712674D02*
X4336729Y-10760293D01*
X4336729Y-10760293D02*
X4327205Y-10798389D01*
X4327205Y-10798389D02*
X4317682Y-10817436D01*
X4317682Y-10817436D02*
X4308158Y-10826960D01*
X4308158Y-10826960D02*
X4289110Y-10836484D01*
X4289110Y-10836484D02*
X4270063Y-10836484D01*
X4270063Y-10836484D02*
X4251015Y-10826960D01*
X4251015Y-10826960D02*
X4241491Y-10817436D01*
X4241491Y-10817436D02*
X4231967Y-10798389D01*
X4231967Y-10798389D02*
X4222444Y-10760293D01*
X4222444Y-10760293D02*
X4222444Y-10712674D01*
X4222444Y-10712674D02*
X4231967Y-10674579D01*
X4231967Y-10674579D02*
X4241491Y-10655531D01*
X4241491Y-10655531D02*
X4251015Y-10646008D01*
X4251015Y-10646008D02*
X4270063Y-10636484D01*
X4460539Y-10636484D02*
X4479586Y-10636484D01*
X4479586Y-10636484D02*
X4498634Y-10646008D01*
X4498634Y-10646008D02*
X4508158Y-10655531D01*
X4508158Y-10655531D02*
X4517682Y-10674579D01*
X4517682Y-10674579D02*
X4527205Y-10712674D01*
X4527205Y-10712674D02*
X4527205Y-10760293D01*
X4527205Y-10760293D02*
X4517682Y-10798389D01*
X4517682Y-10798389D02*
X4508158Y-10817436D01*
X4508158Y-10817436D02*
X4498634Y-10826960D01*
X4498634Y-10826960D02*
X4479586Y-10836484D01*
X4479586Y-10836484D02*
X4460539Y-10836484D01*
X4460539Y-10836484D02*
X4441491Y-10826960D01*
X4441491Y-10826960D02*
X4431967Y-10817436D01*
X4431967Y-10817436D02*
X4422444Y-10798389D01*
X4422444Y-10798389D02*
X4412920Y-10760293D01*
X4412920Y-10760293D02*
X4412920Y-10712674D01*
X4412920Y-10712674D02*
X4422444Y-10674579D01*
X4422444Y-10674579D02*
X4431967Y-10655531D01*
X4431967Y-10655531D02*
X4441491Y-10646008D01*
X4441491Y-10646008D02*
X4460539Y-10636484D01*
X4612920Y-10836484D02*
X4612920Y-10703150D01*
X4612920Y-10722198D02*
X4622444Y-10712674D01*
X4622444Y-10712674D02*
X4641491Y-10703150D01*
X4641491Y-10703150D02*
X4670063Y-10703150D01*
X4670063Y-10703150D02*
X4689110Y-10712674D01*
X4689110Y-10712674D02*
X4698634Y-10731722D01*
X4698634Y-10731722D02*
X4698634Y-10836484D01*
X4698634Y-10731722D02*
X4708158Y-10712674D01*
X4708158Y-10712674D02*
X4727205Y-10703150D01*
X4727205Y-10703150D02*
X4755777Y-10703150D01*
X4755777Y-10703150D02*
X4774825Y-10712674D01*
X4774825Y-10712674D02*
X4784348Y-10731722D01*
X4784348Y-10731722D02*
X4784348Y-10836484D01*
X4879586Y-10836484D02*
X4879586Y-10703150D01*
X4879586Y-10722198D02*
X4889110Y-10712674D01*
X4889110Y-10712674D02*
X4908158Y-10703150D01*
X4908158Y-10703150D02*
X4936729Y-10703150D01*
X4936729Y-10703150D02*
X4955777Y-10712674D01*
X4955777Y-10712674D02*
X4965301Y-10731722D01*
X4965301Y-10731722D02*
X4965301Y-10836484D01*
X4965301Y-10731722D02*
X4974825Y-10712674D01*
X4974825Y-10712674D02*
X4993872Y-10703150D01*
X4993872Y-10703150D02*
X5022444Y-10703150D01*
X5022444Y-10703150D02*
X5041491Y-10712674D01*
X5041491Y-10712674D02*
X5051015Y-10731722D01*
X5051015Y-10731722D02*
X5051015Y-10836484D01*
X5441491Y-10626960D02*
X5270063Y-10884103D01*
X5698634Y-10636484D02*
X5717682Y-10636484D01*
X5717682Y-10636484D02*
X5736729Y-10646008D01*
X5736729Y-10646008D02*
X5746253Y-10655531D01*
X5746253Y-10655531D02*
X5755777Y-10674579D01*
X5755777Y-10674579D02*
X5765301Y-10712674D01*
X5765301Y-10712674D02*
X5765301Y-10760293D01*
X5765301Y-10760293D02*
X5755777Y-10798389D01*
X5755777Y-10798389D02*
X5746253Y-10817436D01*
X5746253Y-10817436D02*
X5736729Y-10826960D01*
X5736729Y-10826960D02*
X5717682Y-10836484D01*
X5717682Y-10836484D02*
X5698634Y-10836484D01*
X5698634Y-10836484D02*
X5679586Y-10826960D01*
X5679586Y-10826960D02*
X5670063Y-10817436D01*
X5670063Y-10817436D02*
X5660539Y-10798389D01*
X5660539Y-10798389D02*
X5651015Y-10760293D01*
X5651015Y-10760293D02*
X5651015Y-10712674D01*
X5651015Y-10712674D02*
X5660539Y-10674579D01*
X5660539Y-10674579D02*
X5670063Y-10655531D01*
X5670063Y-10655531D02*
X5679586Y-10646008D01*
X5679586Y-10646008D02*
X5698634Y-10636484D01*
X5851015Y-10817436D02*
X5860539Y-10826960D01*
X5860539Y-10826960D02*
X5851015Y-10836484D01*
X5851015Y-10836484D02*
X5841491Y-10826960D01*
X5841491Y-10826960D02*
X5851015Y-10817436D01*
X5851015Y-10817436D02*
X5851015Y-10836484D01*
X5984348Y-10636484D02*
X6003396Y-10636484D01*
X6003396Y-10636484D02*
X6022444Y-10646008D01*
X6022444Y-10646008D02*
X6031967Y-10655531D01*
X6031967Y-10655531D02*
X6041491Y-10674579D01*
X6041491Y-10674579D02*
X6051015Y-10712674D01*
X6051015Y-10712674D02*
X6051015Y-10760293D01*
X6051015Y-10760293D02*
X6041491Y-10798389D01*
X6041491Y-10798389D02*
X6031967Y-10817436D01*
X6031967Y-10817436D02*
X6022444Y-10826960D01*
X6022444Y-10826960D02*
X6003396Y-10836484D01*
X6003396Y-10836484D02*
X5984348Y-10836484D01*
X5984348Y-10836484D02*
X5965301Y-10826960D01*
X5965301Y-10826960D02*
X5955777Y-10817436D01*
X5955777Y-10817436D02*
X5946253Y-10798389D01*
X5946253Y-10798389D02*
X5936729Y-10760293D01*
X5936729Y-10760293D02*
X5936729Y-10712674D01*
X5936729Y-10712674D02*
X5946253Y-10674579D01*
X5946253Y-10674579D02*
X5955777Y-10655531D01*
X5955777Y-10655531D02*
X5965301Y-10646008D01*
X5965301Y-10646008D02*
X5984348Y-10636484D01*
X6241491Y-10836484D02*
X6127206Y-10836484D01*
X6184348Y-10836484D02*
X6184348Y-10636484D01*
X6184348Y-10636484D02*
X6165301Y-10665055D01*
X6165301Y-10665055D02*
X6146253Y-10684103D01*
X6146253Y-10684103D02*
X6127206Y-10693627D01*
X6422444Y-10636484D02*
X6327206Y-10636484D01*
X6327206Y-10636484D02*
X6317682Y-10731722D01*
X6317682Y-10731722D02*
X6327206Y-10722198D01*
X6327206Y-10722198D02*
X6346253Y-10712674D01*
X6346253Y-10712674D02*
X6393872Y-10712674D01*
X6393872Y-10712674D02*
X6412920Y-10722198D01*
X6412920Y-10722198D02*
X6422444Y-10731722D01*
X6422444Y-10731722D02*
X6431967Y-10750770D01*
X6431967Y-10750770D02*
X6431967Y-10798389D01*
X6431967Y-10798389D02*
X6422444Y-10817436D01*
X6422444Y-10817436D02*
X6412920Y-10826960D01*
X6412920Y-10826960D02*
X6393872Y-10836484D01*
X6393872Y-10836484D02*
X6346253Y-10836484D01*
X6346253Y-10836484D02*
X6327206Y-10826960D01*
X6327206Y-10826960D02*
X6317682Y-10817436D01*
X6498634Y-10636484D02*
X6631967Y-10636484D01*
X6631967Y-10636484D02*
X6546253Y-10836484D01*
X6698634Y-10636484D02*
X6698634Y-10674579D01*
X6774825Y-10636484D02*
X6774825Y-10674579D01*
X7070063Y-10912674D02*
X7060539Y-10903150D01*
X7060539Y-10903150D02*
X7041491Y-10874579D01*
X7041491Y-10874579D02*
X7031968Y-10855531D01*
X7031968Y-10855531D02*
X7022444Y-10826960D01*
X7022444Y-10826960D02*
X7012920Y-10779341D01*
X7012920Y-10779341D02*
X7012920Y-10741246D01*
X7012920Y-10741246D02*
X7022444Y-10693627D01*
X7022444Y-10693627D02*
X7031968Y-10665055D01*
X7031968Y-10665055D02*
X7041491Y-10646008D01*
X7041491Y-10646008D02*
X7060539Y-10617436D01*
X7060539Y-10617436D02*
X7070063Y-10607912D01*
X7127206Y-10636484D02*
X7251015Y-10636484D01*
X7251015Y-10636484D02*
X7184348Y-10712674D01*
X7184348Y-10712674D02*
X7212920Y-10712674D01*
X7212920Y-10712674D02*
X7231968Y-10722198D01*
X7231968Y-10722198D02*
X7241491Y-10731722D01*
X7241491Y-10731722D02*
X7251015Y-10750770D01*
X7251015Y-10750770D02*
X7251015Y-10798389D01*
X7251015Y-10798389D02*
X7241491Y-10817436D01*
X7241491Y-10817436D02*
X7231968Y-10826960D01*
X7231968Y-10826960D02*
X7212920Y-10836484D01*
X7212920Y-10836484D02*
X7155777Y-10836484D01*
X7155777Y-10836484D02*
X7136729Y-10826960D01*
X7136729Y-10826960D02*
X7127206Y-10817436D01*
X7431968Y-10636484D02*
X7336729Y-10636484D01*
X7336729Y-10636484D02*
X7327206Y-10731722D01*
X7327206Y-10731722D02*
X7336729Y-10722198D01*
X7336729Y-10722198D02*
X7355777Y-10712674D01*
X7355777Y-10712674D02*
X7403396Y-10712674D01*
X7403396Y-10712674D02*
X7422444Y-10722198D01*
X7422444Y-10722198D02*
X7431968Y-10731722D01*
X7431968Y-10731722D02*
X7441491Y-10750770D01*
X7441491Y-10750770D02*
X7441491Y-10798389D01*
X7441491Y-10798389D02*
X7431968Y-10817436D01*
X7431968Y-10817436D02*
X7422444Y-10826960D01*
X7422444Y-10826960D02*
X7403396Y-10836484D01*
X7403396Y-10836484D02*
X7355777Y-10836484D01*
X7355777Y-10836484D02*
X7336729Y-10826960D01*
X7336729Y-10826960D02*
X7327206Y-10817436D01*
X7679587Y-10836484D02*
X7679587Y-10636484D01*
X7765301Y-10836484D02*
X7765301Y-10731722D01*
X7765301Y-10731722D02*
X7755777Y-10712674D01*
X7755777Y-10712674D02*
X7736730Y-10703150D01*
X7736730Y-10703150D02*
X7708158Y-10703150D01*
X7708158Y-10703150D02*
X7689110Y-10712674D01*
X7689110Y-10712674D02*
X7679587Y-10722198D01*
X7889110Y-10836484D02*
X7870063Y-10826960D01*
X7870063Y-10826960D02*
X7860539Y-10817436D01*
X7860539Y-10817436D02*
X7851015Y-10798389D01*
X7851015Y-10798389D02*
X7851015Y-10741246D01*
X7851015Y-10741246D02*
X7860539Y-10722198D01*
X7860539Y-10722198D02*
X7870063Y-10712674D01*
X7870063Y-10712674D02*
X7889110Y-10703150D01*
X7889110Y-10703150D02*
X7917682Y-10703150D01*
X7917682Y-10703150D02*
X7936730Y-10712674D01*
X7936730Y-10712674D02*
X7946253Y-10722198D01*
X7946253Y-10722198D02*
X7955777Y-10741246D01*
X7955777Y-10741246D02*
X7955777Y-10798389D01*
X7955777Y-10798389D02*
X7946253Y-10817436D01*
X7946253Y-10817436D02*
X7936730Y-10826960D01*
X7936730Y-10826960D02*
X7917682Y-10836484D01*
X7917682Y-10836484D02*
X7889110Y-10836484D01*
X8070063Y-10836484D02*
X8051015Y-10826960D01*
X8051015Y-10826960D02*
X8041491Y-10807912D01*
X8041491Y-10807912D02*
X8041491Y-10636484D01*
X8222444Y-10826960D02*
X8203396Y-10836484D01*
X8203396Y-10836484D02*
X8165301Y-10836484D01*
X8165301Y-10836484D02*
X8146253Y-10826960D01*
X8146253Y-10826960D02*
X8136730Y-10807912D01*
X8136730Y-10807912D02*
X8136730Y-10731722D01*
X8136730Y-10731722D02*
X8146253Y-10712674D01*
X8146253Y-10712674D02*
X8165301Y-10703150D01*
X8165301Y-10703150D02*
X8203396Y-10703150D01*
X8203396Y-10703150D02*
X8222444Y-10712674D01*
X8222444Y-10712674D02*
X8231968Y-10731722D01*
X8231968Y-10731722D02*
X8231968Y-10750770D01*
X8231968Y-10750770D02*
X8136730Y-10769817D01*
X8308158Y-10826960D02*
X8327206Y-10836484D01*
X8327206Y-10836484D02*
X8365301Y-10836484D01*
X8365301Y-10836484D02*
X8384349Y-10826960D01*
X8384349Y-10826960D02*
X8393873Y-10807912D01*
X8393873Y-10807912D02*
X8393873Y-10798389D01*
X8393873Y-10798389D02*
X8384349Y-10779341D01*
X8384349Y-10779341D02*
X8365301Y-10769817D01*
X8365301Y-10769817D02*
X8336730Y-10769817D01*
X8336730Y-10769817D02*
X8317682Y-10760293D01*
X8317682Y-10760293D02*
X8308158Y-10741246D01*
X8308158Y-10741246D02*
X8308158Y-10731722D01*
X8308158Y-10731722D02*
X8317682Y-10712674D01*
X8317682Y-10712674D02*
X8336730Y-10703150D01*
X8336730Y-10703150D02*
X8365301Y-10703150D01*
X8365301Y-10703150D02*
X8384349Y-10712674D01*
X8460539Y-10912674D02*
X8470063Y-10903150D01*
X8470063Y-10903150D02*
X8489111Y-10874579D01*
X8489111Y-10874579D02*
X8498634Y-10855531D01*
X8498634Y-10855531D02*
X8508158Y-10826960D01*
X8508158Y-10826960D02*
X8517682Y-10779341D01*
X8517682Y-10779341D02*
X8517682Y-10741246D01*
X8517682Y-10741246D02*
X8508158Y-10693627D01*
X8508158Y-10693627D02*
X8498634Y-10665055D01*
X8498634Y-10665055D02*
X8489111Y-10646008D01*
X8489111Y-10646008D02*
X8470063Y-10617436D01*
X8470063Y-10617436D02*
X8460539Y-10607912D01*
D10*
X3495000Y-11009000D02*
G75*
G03*
X3495000Y-11009000I-50000J0D01*
G01*
D11*
X3860539Y-11100484D02*
X3746253Y-11100484D01*
X3803396Y-11100484D02*
X3803396Y-10900484D01*
X3803396Y-10900484D02*
X3784348Y-10929055D01*
X3784348Y-10929055D02*
X3765301Y-10948103D01*
X3765301Y-10948103D02*
X3746253Y-10957627D01*
X3946253Y-11081436D02*
X3955777Y-11090960D01*
X3955777Y-11090960D02*
X3946253Y-11100484D01*
X3946253Y-11100484D02*
X3936729Y-11090960D01*
X3936729Y-11090960D02*
X3946253Y-11081436D01*
X3946253Y-11081436D02*
X3946253Y-11100484D01*
X4079586Y-10900484D02*
X4098634Y-10900484D01*
X4098634Y-10900484D02*
X4117682Y-10910008D01*
X4117682Y-10910008D02*
X4127205Y-10919531D01*
X4127205Y-10919531D02*
X4136729Y-10938579D01*
X4136729Y-10938579D02*
X4146253Y-10976674D01*
X4146253Y-10976674D02*
X4146253Y-11024293D01*
X4146253Y-11024293D02*
X4136729Y-11062389D01*
X4136729Y-11062389D02*
X4127205Y-11081436D01*
X4127205Y-11081436D02*
X4117682Y-11090960D01*
X4117682Y-11090960D02*
X4098634Y-11100484D01*
X4098634Y-11100484D02*
X4079586Y-11100484D01*
X4079586Y-11100484D02*
X4060539Y-11090960D01*
X4060539Y-11090960D02*
X4051015Y-11081436D01*
X4051015Y-11081436D02*
X4041491Y-11062389D01*
X4041491Y-11062389D02*
X4031967Y-11024293D01*
X4031967Y-11024293D02*
X4031967Y-10976674D01*
X4031967Y-10976674D02*
X4041491Y-10938579D01*
X4041491Y-10938579D02*
X4051015Y-10919531D01*
X4051015Y-10919531D02*
X4060539Y-10910008D01*
X4060539Y-10910008D02*
X4079586Y-10900484D01*
X4270063Y-10900484D02*
X4289110Y-10900484D01*
X4289110Y-10900484D02*
X4308158Y-10910008D01*
X4308158Y-10910008D02*
X4317682Y-10919531D01*
X4317682Y-10919531D02*
X4327205Y-10938579D01*
X4327205Y-10938579D02*
X4336729Y-10976674D01*
X4336729Y-10976674D02*
X4336729Y-11024293D01*
X4336729Y-11024293D02*
X4327205Y-11062389D01*
X4327205Y-11062389D02*
X4317682Y-11081436D01*
X4317682Y-11081436D02*
X4308158Y-11090960D01*
X4308158Y-11090960D02*
X4289110Y-11100484D01*
X4289110Y-11100484D02*
X4270063Y-11100484D01*
X4270063Y-11100484D02*
X4251015Y-11090960D01*
X4251015Y-11090960D02*
X4241491Y-11081436D01*
X4241491Y-11081436D02*
X4231967Y-11062389D01*
X4231967Y-11062389D02*
X4222444Y-11024293D01*
X4222444Y-11024293D02*
X4222444Y-10976674D01*
X4222444Y-10976674D02*
X4231967Y-10938579D01*
X4231967Y-10938579D02*
X4241491Y-10919531D01*
X4241491Y-10919531D02*
X4251015Y-10910008D01*
X4251015Y-10910008D02*
X4270063Y-10900484D01*
X4460539Y-10900484D02*
X4479586Y-10900484D01*
X4479586Y-10900484D02*
X4498634Y-10910008D01*
X4498634Y-10910008D02*
X4508158Y-10919531D01*
X4508158Y-10919531D02*
X4517682Y-10938579D01*
X4517682Y-10938579D02*
X4527205Y-10976674D01*
X4527205Y-10976674D02*
X4527205Y-11024293D01*
X4527205Y-11024293D02*
X4517682Y-11062389D01*
X4517682Y-11062389D02*
X4508158Y-11081436D01*
X4508158Y-11081436D02*
X4498634Y-11090960D01*
X4498634Y-11090960D02*
X4479586Y-11100484D01*
X4479586Y-11100484D02*
X4460539Y-11100484D01*
X4460539Y-11100484D02*
X4441491Y-11090960D01*
X4441491Y-11090960D02*
X4431967Y-11081436D01*
X4431967Y-11081436D02*
X4422444Y-11062389D01*
X4422444Y-11062389D02*
X4412920Y-11024293D01*
X4412920Y-11024293D02*
X4412920Y-10976674D01*
X4412920Y-10976674D02*
X4422444Y-10938579D01*
X4422444Y-10938579D02*
X4431967Y-10919531D01*
X4431967Y-10919531D02*
X4441491Y-10910008D01*
X4441491Y-10910008D02*
X4460539Y-10900484D01*
X4612920Y-11100484D02*
X4612920Y-10967150D01*
X4612920Y-10986198D02*
X4622444Y-10976674D01*
X4622444Y-10976674D02*
X4641491Y-10967150D01*
X4641491Y-10967150D02*
X4670063Y-10967150D01*
X4670063Y-10967150D02*
X4689110Y-10976674D01*
X4689110Y-10976674D02*
X4698634Y-10995722D01*
X4698634Y-10995722D02*
X4698634Y-11100484D01*
X4698634Y-10995722D02*
X4708158Y-10976674D01*
X4708158Y-10976674D02*
X4727205Y-10967150D01*
X4727205Y-10967150D02*
X4755777Y-10967150D01*
X4755777Y-10967150D02*
X4774825Y-10976674D01*
X4774825Y-10976674D02*
X4784348Y-10995722D01*
X4784348Y-10995722D02*
X4784348Y-11100484D01*
X4879586Y-11100484D02*
X4879586Y-10967150D01*
X4879586Y-10986198D02*
X4889110Y-10976674D01*
X4889110Y-10976674D02*
X4908158Y-10967150D01*
X4908158Y-10967150D02*
X4936729Y-10967150D01*
X4936729Y-10967150D02*
X4955777Y-10976674D01*
X4955777Y-10976674D02*
X4965301Y-10995722D01*
X4965301Y-10995722D02*
X4965301Y-11100484D01*
X4965301Y-10995722D02*
X4974825Y-10976674D01*
X4974825Y-10976674D02*
X4993872Y-10967150D01*
X4993872Y-10967150D02*
X5022444Y-10967150D01*
X5022444Y-10967150D02*
X5041491Y-10976674D01*
X5041491Y-10976674D02*
X5051015Y-10995722D01*
X5051015Y-10995722D02*
X5051015Y-11100484D01*
X5441491Y-10890960D02*
X5270063Y-11148103D01*
X5698634Y-10900484D02*
X5717682Y-10900484D01*
X5717682Y-10900484D02*
X5736729Y-10910008D01*
X5736729Y-10910008D02*
X5746253Y-10919531D01*
X5746253Y-10919531D02*
X5755777Y-10938579D01*
X5755777Y-10938579D02*
X5765301Y-10976674D01*
X5765301Y-10976674D02*
X5765301Y-11024293D01*
X5765301Y-11024293D02*
X5755777Y-11062389D01*
X5755777Y-11062389D02*
X5746253Y-11081436D01*
X5746253Y-11081436D02*
X5736729Y-11090960D01*
X5736729Y-11090960D02*
X5717682Y-11100484D01*
X5717682Y-11100484D02*
X5698634Y-11100484D01*
X5698634Y-11100484D02*
X5679586Y-11090960D01*
X5679586Y-11090960D02*
X5670063Y-11081436D01*
X5670063Y-11081436D02*
X5660539Y-11062389D01*
X5660539Y-11062389D02*
X5651015Y-11024293D01*
X5651015Y-11024293D02*
X5651015Y-10976674D01*
X5651015Y-10976674D02*
X5660539Y-10938579D01*
X5660539Y-10938579D02*
X5670063Y-10919531D01*
X5670063Y-10919531D02*
X5679586Y-10910008D01*
X5679586Y-10910008D02*
X5698634Y-10900484D01*
X5851015Y-11081436D02*
X5860539Y-11090960D01*
X5860539Y-11090960D02*
X5851015Y-11100484D01*
X5851015Y-11100484D02*
X5841491Y-11090960D01*
X5841491Y-11090960D02*
X5851015Y-11081436D01*
X5851015Y-11081436D02*
X5851015Y-11100484D01*
X5984348Y-10900484D02*
X6003396Y-10900484D01*
X6003396Y-10900484D02*
X6022444Y-10910008D01*
X6022444Y-10910008D02*
X6031967Y-10919531D01*
X6031967Y-10919531D02*
X6041491Y-10938579D01*
X6041491Y-10938579D02*
X6051015Y-10976674D01*
X6051015Y-10976674D02*
X6051015Y-11024293D01*
X6051015Y-11024293D02*
X6041491Y-11062389D01*
X6041491Y-11062389D02*
X6031967Y-11081436D01*
X6031967Y-11081436D02*
X6022444Y-11090960D01*
X6022444Y-11090960D02*
X6003396Y-11100484D01*
X6003396Y-11100484D02*
X5984348Y-11100484D01*
X5984348Y-11100484D02*
X5965301Y-11090960D01*
X5965301Y-11090960D02*
X5955777Y-11081436D01*
X5955777Y-11081436D02*
X5946253Y-11062389D01*
X5946253Y-11062389D02*
X5936729Y-11024293D01*
X5936729Y-11024293D02*
X5936729Y-10976674D01*
X5936729Y-10976674D02*
X5946253Y-10938579D01*
X5946253Y-10938579D02*
X5955777Y-10919531D01*
X5955777Y-10919531D02*
X5965301Y-10910008D01*
X5965301Y-10910008D02*
X5984348Y-10900484D01*
X6117682Y-10900484D02*
X6241491Y-10900484D01*
X6241491Y-10900484D02*
X6174825Y-10976674D01*
X6174825Y-10976674D02*
X6203396Y-10976674D01*
X6203396Y-10976674D02*
X6222444Y-10986198D01*
X6222444Y-10986198D02*
X6231967Y-10995722D01*
X6231967Y-10995722D02*
X6241491Y-11014770D01*
X6241491Y-11014770D02*
X6241491Y-11062389D01*
X6241491Y-11062389D02*
X6231967Y-11081436D01*
X6231967Y-11081436D02*
X6222444Y-11090960D01*
X6222444Y-11090960D02*
X6203396Y-11100484D01*
X6203396Y-11100484D02*
X6146253Y-11100484D01*
X6146253Y-11100484D02*
X6127206Y-11090960D01*
X6127206Y-11090960D02*
X6117682Y-11081436D01*
X6336729Y-11100484D02*
X6374825Y-11100484D01*
X6374825Y-11100484D02*
X6393872Y-11090960D01*
X6393872Y-11090960D02*
X6403396Y-11081436D01*
X6403396Y-11081436D02*
X6422444Y-11052865D01*
X6422444Y-11052865D02*
X6431967Y-11014770D01*
X6431967Y-11014770D02*
X6431967Y-10938579D01*
X6431967Y-10938579D02*
X6422444Y-10919531D01*
X6422444Y-10919531D02*
X6412920Y-10910008D01*
X6412920Y-10910008D02*
X6393872Y-10900484D01*
X6393872Y-10900484D02*
X6355777Y-10900484D01*
X6355777Y-10900484D02*
X6336729Y-10910008D01*
X6336729Y-10910008D02*
X6327206Y-10919531D01*
X6327206Y-10919531D02*
X6317682Y-10938579D01*
X6317682Y-10938579D02*
X6317682Y-10986198D01*
X6317682Y-10986198D02*
X6327206Y-11005246D01*
X6327206Y-11005246D02*
X6336729Y-11014770D01*
X6336729Y-11014770D02*
X6355777Y-11024293D01*
X6355777Y-11024293D02*
X6393872Y-11024293D01*
X6393872Y-11024293D02*
X6412920Y-11014770D01*
X6412920Y-11014770D02*
X6422444Y-11005246D01*
X6422444Y-11005246D02*
X6431967Y-10986198D01*
X6603396Y-10967150D02*
X6603396Y-11100484D01*
X6555777Y-10890960D02*
X6508158Y-11033817D01*
X6508158Y-11033817D02*
X6631967Y-11033817D01*
X6698634Y-10900484D02*
X6698634Y-10938579D01*
X6774825Y-10900484D02*
X6774825Y-10938579D01*
X7070063Y-11176674D02*
X7060539Y-11167150D01*
X7060539Y-11167150D02*
X7041491Y-11138579D01*
X7041491Y-11138579D02*
X7031968Y-11119531D01*
X7031968Y-11119531D02*
X7022444Y-11090960D01*
X7022444Y-11090960D02*
X7012920Y-11043341D01*
X7012920Y-11043341D02*
X7012920Y-11005246D01*
X7012920Y-11005246D02*
X7022444Y-10957627D01*
X7022444Y-10957627D02*
X7031968Y-10929055D01*
X7031968Y-10929055D02*
X7041491Y-10910008D01*
X7041491Y-10910008D02*
X7060539Y-10881436D01*
X7060539Y-10881436D02*
X7070063Y-10871912D01*
X7155777Y-11100484D02*
X7193872Y-11100484D01*
X7193872Y-11100484D02*
X7212920Y-11090960D01*
X7212920Y-11090960D02*
X7222444Y-11081436D01*
X7222444Y-11081436D02*
X7241491Y-11052865D01*
X7241491Y-11052865D02*
X7251015Y-11014770D01*
X7251015Y-11014770D02*
X7251015Y-10938579D01*
X7251015Y-10938579D02*
X7241491Y-10919531D01*
X7241491Y-10919531D02*
X7231968Y-10910008D01*
X7231968Y-10910008D02*
X7212920Y-10900484D01*
X7212920Y-10900484D02*
X7174825Y-10900484D01*
X7174825Y-10900484D02*
X7155777Y-10910008D01*
X7155777Y-10910008D02*
X7146253Y-10919531D01*
X7146253Y-10919531D02*
X7136729Y-10938579D01*
X7136729Y-10938579D02*
X7136729Y-10986198D01*
X7136729Y-10986198D02*
X7146253Y-11005246D01*
X7146253Y-11005246D02*
X7155777Y-11014770D01*
X7155777Y-11014770D02*
X7174825Y-11024293D01*
X7174825Y-11024293D02*
X7212920Y-11024293D01*
X7212920Y-11024293D02*
X7231968Y-11014770D01*
X7231968Y-11014770D02*
X7241491Y-11005246D01*
X7241491Y-11005246D02*
X7251015Y-10986198D01*
X7489110Y-11100484D02*
X7489110Y-10900484D01*
X7574825Y-11100484D02*
X7574825Y-10995722D01*
X7574825Y-10995722D02*
X7565301Y-10976674D01*
X7565301Y-10976674D02*
X7546253Y-10967150D01*
X7546253Y-10967150D02*
X7517682Y-10967150D01*
X7517682Y-10967150D02*
X7498634Y-10976674D01*
X7498634Y-10976674D02*
X7489110Y-10986198D01*
X7698634Y-11100484D02*
X7679587Y-11090960D01*
X7679587Y-11090960D02*
X7670063Y-11081436D01*
X7670063Y-11081436D02*
X7660539Y-11062389D01*
X7660539Y-11062389D02*
X7660539Y-11005246D01*
X7660539Y-11005246D02*
X7670063Y-10986198D01*
X7670063Y-10986198D02*
X7679587Y-10976674D01*
X7679587Y-10976674D02*
X7698634Y-10967150D01*
X7698634Y-10967150D02*
X7727206Y-10967150D01*
X7727206Y-10967150D02*
X7746253Y-10976674D01*
X7746253Y-10976674D02*
X7755777Y-10986198D01*
X7755777Y-10986198D02*
X7765301Y-11005246D01*
X7765301Y-11005246D02*
X7765301Y-11062389D01*
X7765301Y-11062389D02*
X7755777Y-11081436D01*
X7755777Y-11081436D02*
X7746253Y-11090960D01*
X7746253Y-11090960D02*
X7727206Y-11100484D01*
X7727206Y-11100484D02*
X7698634Y-11100484D01*
X7879587Y-11100484D02*
X7860539Y-11090960D01*
X7860539Y-11090960D02*
X7851015Y-11071912D01*
X7851015Y-11071912D02*
X7851015Y-10900484D01*
X8031968Y-11090960D02*
X8012920Y-11100484D01*
X8012920Y-11100484D02*
X7974825Y-11100484D01*
X7974825Y-11100484D02*
X7955777Y-11090960D01*
X7955777Y-11090960D02*
X7946253Y-11071912D01*
X7946253Y-11071912D02*
X7946253Y-10995722D01*
X7946253Y-10995722D02*
X7955777Y-10976674D01*
X7955777Y-10976674D02*
X7974825Y-10967150D01*
X7974825Y-10967150D02*
X8012920Y-10967150D01*
X8012920Y-10967150D02*
X8031968Y-10976674D01*
X8031968Y-10976674D02*
X8041491Y-10995722D01*
X8041491Y-10995722D02*
X8041491Y-11014770D01*
X8041491Y-11014770D02*
X7946253Y-11033817D01*
X8117682Y-11090960D02*
X8136730Y-11100484D01*
X8136730Y-11100484D02*
X8174825Y-11100484D01*
X8174825Y-11100484D02*
X8193872Y-11090960D01*
X8193872Y-11090960D02*
X8203396Y-11071912D01*
X8203396Y-11071912D02*
X8203396Y-11062389D01*
X8203396Y-11062389D02*
X8193872Y-11043341D01*
X8193872Y-11043341D02*
X8174825Y-11033817D01*
X8174825Y-11033817D02*
X8146253Y-11033817D01*
X8146253Y-11033817D02*
X8127206Y-11024293D01*
X8127206Y-11024293D02*
X8117682Y-11005246D01*
X8117682Y-11005246D02*
X8117682Y-10995722D01*
X8117682Y-10995722D02*
X8127206Y-10976674D01*
X8127206Y-10976674D02*
X8146253Y-10967150D01*
X8146253Y-10967150D02*
X8174825Y-10967150D01*
X8174825Y-10967150D02*
X8193872Y-10976674D01*
X8270063Y-11176674D02*
X8279587Y-11167150D01*
X8279587Y-11167150D02*
X8298634Y-11138579D01*
X8298634Y-11138579D02*
X8308158Y-11119531D01*
X8308158Y-11119531D02*
X8317682Y-11090960D01*
X8317682Y-11090960D02*
X8327206Y-11043341D01*
X8327206Y-11043341D02*
X8327206Y-11005246D01*
X8327206Y-11005246D02*
X8317682Y-10957627D01*
X8317682Y-10957627D02*
X8308158Y-10929055D01*
X8308158Y-10929055D02*
X8298634Y-10910008D01*
X8298634Y-10910008D02*
X8279587Y-10881436D01*
X8279587Y-10881436D02*
X8270063Y-10871912D01*
M02*
