M48
; DRILL file {KiCad 7.0.9} date Wed Apr 10 17:12:22 2024
; FORMAT={-:-/ absolute / inch / decimal}
; #@! TF.CreationDate,2024-04-10T17:12:22-05:00
; #@! TF.GenerationSoftware,Kicad,Pcbnew,7.0.9
; #@! TF.FileFunction,Plated,1,2,PTH
FMAT,2
INCH
; #@! TA.AperFunction,Plated,PTH,ViaDrill
T1C0.0157
; #@! TA.AperFunction,Plated,PTH,ComponentDrill
T2C0.0394
%
G90
G05
T1
X1.4173Y-2.7657
X1.5384Y-2.4035
X1.5384Y-3.3494
X1.5384Y-3.5856
X1.5394Y-2.2835
X1.5748Y-2.2047
X1.5945Y-3.9026
X1.6929Y-2.6024
X1.7283Y-2.8307
X1.7289Y-1.973
X1.811Y-2.2441
X1.8937Y-2.2844
X1.9291Y-2.3602
X1.9685Y-2.4803
X2.0463Y-2.1801
X2.0472Y-2.2527
X2.1634Y-2.5866
X2.1742Y-2.6762
X2.4016Y-2.8819
X2.437Y-2.0059
X2.5551Y-1.8898
X2.6043Y-2.1673
X2.7205Y-3.1102
X2.9094Y-3.7756
X2.9557Y-2.4035
X3.1077Y-2.607
X3.31Y-2.1673
X3.3967Y-3.7402
X3.4459Y-2.6457
X3.4528Y-2.0079
X3.4843Y-2.1526
X3.4843Y-2.4409
X3.4862Y-2.3701
X3.5Y-3.6142
X3.503Y-3.7392
T2
X1.5482Y-1.878
X1.6482Y-1.878
X2.7594Y-3.9075
X2.8594Y-3.9075
X2.9594Y-3.9075
X3.0594Y-3.9075
X3.1594Y-3.9075
X3.2594Y-3.9075
X3.3594Y-3.9075
T0
M30
