%TF.GenerationSoftware,KiCad,Pcbnew,7.0.9*%
%TF.CreationDate,2024-04-10T17:12:19-05:00*%
%TF.ProjectId,Aniversario-PCBWAY,416e6976-6572-4736-9172-696f2d504342,rev?*%
%TF.SameCoordinates,Original*%
%TF.FileFunction,Copper,L1,Top*%
%TF.FilePolarity,Positive*%
%FSLAX46Y46*%
G04 Gerber Fmt 4.6, Leading zero omitted, Abs format (unit mm)*
G04 Created by KiCad (PCBNEW 7.0.9) date 2024-04-10 17:12:19*
%MOMM*%
%LPD*%
G01*
G04 APERTURE LIST*
%TA.AperFunction,SMDPad,CuDef*%
%ADD10R,0.700000X0.700000*%
%TD*%
%TA.AperFunction,ComponentPad*%
%ADD11R,1.700000X1.700000*%
%TD*%
%TA.AperFunction,ComponentPad*%
%ADD12O,1.700000X1.700000*%
%TD*%
%TA.AperFunction,ViaPad*%
%ADD13C,0.800000*%
%TD*%
%TA.AperFunction,Conductor*%
%ADD14C,0.250000*%
%TD*%
%TA.AperFunction,Conductor*%
%ADD15C,0.400000*%
%TD*%
G04 APERTURE END LIST*
D10*
%TO.P,D20,1,DO*%
%TO.N,Net-(D20-DO)*%
X78085000Y-53950000D03*
%TO.P,D20,2,GND*%
%TO.N,GND*%
X78085000Y-55050000D03*
%TO.P,D20,3,DI*%
%TO.N,Net-(D19-DO)*%
X79915000Y-55050000D03*
%TO.P,D20,4,VDD*%
%TO.N,+5V*%
X79915000Y-53950000D03*
%TD*%
%TO.P,D122,1,DO*%
%TO.N,Net-(D122-DO)*%
X60085000Y-71950000D03*
%TO.P,D122,2,GND*%
%TO.N,GND*%
X60085000Y-73050000D03*
%TO.P,D122,3,DI*%
%TO.N,Net-(D121-DO)*%
X61915000Y-73050000D03*
%TO.P,D122,4,VDD*%
%TO.N,+5V*%
X61915000Y-71950000D03*
%TD*%
%TO.P,D55,1,DO*%
%TO.N,Net-(D55-DO)*%
X69085000Y-59950000D03*
%TO.P,D55,2,GND*%
%TO.N,GND*%
X69085000Y-61050000D03*
%TO.P,D55,3,DI*%
%TO.N,Net-(D54-DO)*%
X70915000Y-61050000D03*
%TO.P,D55,4,VDD*%
%TO.N,+5V*%
X70915000Y-59950000D03*
%TD*%
%TO.P,D141,1,DO*%
%TO.N,Net-(D141-DO)*%
X73915000Y-76050000D03*
%TO.P,D141,2,GND*%
%TO.N,GND*%
X73915000Y-74950000D03*
%TO.P,D141,3,DI*%
%TO.N,Net-(D140-DO)*%
X72085000Y-74950000D03*
%TO.P,D141,4,VDD*%
%TO.N,+5V*%
X72085000Y-76050000D03*
%TD*%
%TO.P,D249,1,DO*%
%TO.N,Net-(D249-DO)*%
X63085000Y-95950000D03*
%TO.P,D249,2,GND*%
%TO.N,GND*%
X63085000Y-97050000D03*
%TO.P,D249,3,DI*%
%TO.N,Net-(D248-DO)*%
X64915000Y-97050000D03*
%TO.P,D249,4,VDD*%
%TO.N,+5V*%
X64915000Y-95950000D03*
%TD*%
%TO.P,D116,1,DO*%
%TO.N,Net-(D116-DO)*%
X78085000Y-71950000D03*
%TO.P,D116,2,GND*%
%TO.N,GND*%
X78085000Y-73050000D03*
%TO.P,D116,3,DI*%
%TO.N,Net-(D115-DO)*%
X79915000Y-73050000D03*
%TO.P,D116,4,VDD*%
%TO.N,+5V*%
X79915000Y-71950000D03*
%TD*%
%TO.P,D10,1,DO*%
%TO.N,Net-(D10-DO)*%
X64915000Y-52050000D03*
%TO.P,D10,2,GND*%
%TO.N,GND*%
X64915000Y-50950000D03*
%TO.P,D10,3,DI*%
%TO.N,Net-(D10-DI)*%
X63085000Y-50950000D03*
%TO.P,D10,4,VDD*%
%TO.N,+5V*%
X63085000Y-52050000D03*
%TD*%
%TO.P,D194,1,DO*%
%TO.N,Net-(D194-DO)*%
X40915000Y-88050000D03*
%TO.P,D194,2,GND*%
%TO.N,GND*%
X40915000Y-86950000D03*
%TO.P,D194,3,DI*%
%TO.N,Net-(D193-DO)*%
X39085000Y-86950000D03*
%TO.P,D194,4,VDD*%
%TO.N,+5V*%
X39085000Y-88050000D03*
%TD*%
%TO.P,D146,1,DO*%
%TO.N,Net-(D146-DO)*%
X84085000Y-77950000D03*
%TO.P,D146,2,GND*%
%TO.N,GND*%
X84085000Y-79050000D03*
%TO.P,D146,3,DI*%
%TO.N,Net-(D145-DO)*%
X85915000Y-79050000D03*
%TO.P,D146,4,VDD*%
%TO.N,+5V*%
X85915000Y-77950000D03*
%TD*%
%TO.P,D95,1,DO*%
%TO.N,Net-(D95-DO)*%
X45085000Y-65950000D03*
%TO.P,D95,2,GND*%
%TO.N,GND*%
X45085000Y-67050000D03*
%TO.P,D95,3,DI*%
%TO.N,Net-(D94-DO)*%
X46915000Y-67050000D03*
%TO.P,D95,4,VDD*%
%TO.N,+5V*%
X46915000Y-65950000D03*
%TD*%
%TO.P,D69,1,DO*%
%TO.N,Net-(D69-DO)*%
X49915000Y-64050000D03*
%TO.P,D69,2,GND*%
%TO.N,GND*%
X49915000Y-62950000D03*
%TO.P,D69,3,DI*%
%TO.N,Net-(D68-DO)*%
X48085000Y-62950000D03*
%TO.P,D69,4,VDD*%
%TO.N,+5V*%
X48085000Y-64050000D03*
%TD*%
%TO.P,D232,1,DO*%
%TO.N,Net-(D232-DO)*%
X58915000Y-94050000D03*
%TO.P,D232,2,GND*%
%TO.N,GND*%
X58915000Y-92950000D03*
%TO.P,D232,3,DI*%
%TO.N,Net-(D231-DO)*%
X57085000Y-92950000D03*
%TO.P,D232,4,VDD*%
%TO.N,+5V*%
X57085000Y-94050000D03*
%TD*%
%TO.P,D214,1,DO*%
%TO.N,Net-(D214-DO)*%
X72085000Y-89950000D03*
%TO.P,D214,2,GND*%
%TO.N,GND*%
X72085000Y-91050000D03*
%TO.P,D214,3,DI*%
%TO.N,Net-(D213-DO)*%
X73915000Y-91050000D03*
%TO.P,D214,4,VDD*%
%TO.N,+5V*%
X73915000Y-89950000D03*
%TD*%
%TO.P,D9,1,DO*%
%TO.N,Net-(D10-DI)*%
X61915000Y-52050000D03*
%TO.P,D9,2,GND*%
%TO.N,GND*%
X61915000Y-50950000D03*
%TO.P,D9,3,DI*%
%TO.N,Net-(D8-DO)*%
X60085000Y-50950000D03*
%TO.P,D9,4,VDD*%
%TO.N,+5V*%
X60085000Y-52050000D03*
%TD*%
%TO.P,D126,1,DO*%
%TO.N,Net-(D126-DO)*%
X48085000Y-71950000D03*
%TO.P,D126,2,GND*%
%TO.N,GND*%
X48085000Y-73050000D03*
%TO.P,D126,3,DI*%
%TO.N,Net-(D125-DO)*%
X49915000Y-73050000D03*
%TO.P,D126,4,VDD*%
%TO.N,+5V*%
X49915000Y-71950000D03*
%TD*%
%TO.P,D183,1,DO*%
%TO.N,Net-(D183-DO)*%
X69085000Y-83950000D03*
%TO.P,D183,2,GND*%
%TO.N,GND*%
X69085000Y-85050000D03*
%TO.P,D183,3,DI*%
%TO.N,Net-(D182-DO)*%
X70915000Y-85050000D03*
%TO.P,D183,4,VDD*%
%TO.N,+5V*%
X70915000Y-83950000D03*
%TD*%
%TO.P,D104,1,DO*%
%TO.N,Net-(D104-DO)*%
X58915000Y-70050000D03*
%TO.P,D104,2,GND*%
%TO.N,GND*%
X58915000Y-68950000D03*
%TO.P,D104,3,DI*%
%TO.N,Net-(D103-DO)*%
X57085000Y-68950000D03*
%TO.P,D104,4,VDD*%
%TO.N,+5V*%
X57085000Y-70050000D03*
%TD*%
%TO.P,D189,1,DO*%
%TO.N,Net-(D189-DO)*%
X51085000Y-83950000D03*
%TO.P,D189,2,GND*%
%TO.N,GND*%
X51085000Y-85050000D03*
%TO.P,D189,3,DI*%
%TO.N,Net-(D188-DO)*%
X52915000Y-85050000D03*
%TO.P,D189,4,VDD*%
%TO.N,+5V*%
X52915000Y-83950000D03*
%TD*%
%TO.P,D200,1,DO*%
%TO.N,Net-(D200-DO)*%
X58915000Y-88050000D03*
%TO.P,D200,2,GND*%
%TO.N,GND*%
X58915000Y-86950000D03*
%TO.P,D200,3,DI*%
%TO.N,Net-(D199-DO)*%
X57085000Y-86950000D03*
%TO.P,D200,4,VDD*%
%TO.N,+5V*%
X57085000Y-88050000D03*
%TD*%
%TO.P,D113,1,DO*%
%TO.N,Net-(D113-DO)*%
X85915000Y-70050000D03*
%TO.P,D113,2,GND*%
%TO.N,GND*%
X85915000Y-68950000D03*
%TO.P,D113,3,DI*%
%TO.N,Net-(D112-DO)*%
X84085000Y-68950000D03*
%TO.P,D113,4,VDD*%
%TO.N,+5V*%
X84085000Y-70050000D03*
%TD*%
%TO.P,D110,1,DO*%
%TO.N,Net-(D110-DO)*%
X76915000Y-70050000D03*
%TO.P,D110,2,GND*%
%TO.N,GND*%
X76915000Y-68950000D03*
%TO.P,D110,3,DI*%
%TO.N,Net-(D109-DO)*%
X75085000Y-68950000D03*
%TO.P,D110,4,VDD*%
%TO.N,+5V*%
X75085000Y-70050000D03*
%TD*%
%TO.P,D168,1,DO*%
%TO.N,Net-(D168-DO)*%
X58915000Y-82050000D03*
%TO.P,D168,2,GND*%
%TO.N,GND*%
X58915000Y-80950000D03*
%TO.P,D168,3,DI*%
%TO.N,Net-(D167-DO)*%
X57085000Y-80950000D03*
%TO.P,D168,4,VDD*%
%TO.N,+5V*%
X57085000Y-82050000D03*
%TD*%
%TO.P,D84,1,DO*%
%TO.N,Net-(D84-DO)*%
X78085000Y-65950000D03*
%TO.P,D84,2,GND*%
%TO.N,GND*%
X78085000Y-67050000D03*
%TO.P,D84,3,DI*%
%TO.N,Net-(D83-DO)*%
X79915000Y-67050000D03*
%TO.P,D84,4,VDD*%
%TO.N,+5V*%
X79915000Y-65950000D03*
%TD*%
%TO.P,D36,1,DO*%
%TO.N,Net-(D36-DO)*%
X46915000Y-58050000D03*
%TO.P,D36,2,GND*%
%TO.N,GND*%
X46915000Y-56950000D03*
%TO.P,D36,3,DI*%
%TO.N,Net-(D35-DO)*%
X45085000Y-56950000D03*
%TO.P,D36,4,VDD*%
%TO.N,+5V*%
X45085000Y-58050000D03*
%TD*%
%TO.P,D182,1,DO*%
%TO.N,Net-(D182-DO)*%
X72085000Y-83950000D03*
%TO.P,D182,2,GND*%
%TO.N,GND*%
X72085000Y-85050000D03*
%TO.P,D182,3,DI*%
%TO.N,Net-(D181-DO)*%
X73915000Y-85050000D03*
%TO.P,D182,4,VDD*%
%TO.N,+5V*%
X73915000Y-83950000D03*
%TD*%
%TO.P,D206,1,DO*%
%TO.N,Net-(D206-DO)*%
X76915000Y-88050000D03*
%TO.P,D206,2,GND*%
%TO.N,GND*%
X76915000Y-86950000D03*
%TO.P,D206,3,DI*%
%TO.N,Net-(D205-DO)*%
X75085000Y-86950000D03*
%TO.P,D206,4,VDD*%
%TO.N,+5V*%
X75085000Y-88050000D03*
%TD*%
%TO.P,D223,1,DO*%
%TO.N,Net-(D223-DO)*%
X45085000Y-89950000D03*
%TO.P,D223,2,GND*%
%TO.N,GND*%
X45085000Y-91050000D03*
%TO.P,D223,3,DI*%
%TO.N,Net-(D222-DO)*%
X46915000Y-91050000D03*
%TO.P,D223,4,VDD*%
%TO.N,+5V*%
X46915000Y-89950000D03*
%TD*%
%TO.P,D218,1,DO*%
%TO.N,Net-(D218-DO)*%
X60085000Y-89950000D03*
%TO.P,D218,2,GND*%
%TO.N,GND*%
X60085000Y-91050000D03*
%TO.P,D218,3,DI*%
%TO.N,Net-(D217-DO)*%
X61915000Y-91050000D03*
%TO.P,D218,4,VDD*%
%TO.N,+5V*%
X61915000Y-89950000D03*
%TD*%
%TO.P,D19,1,DO*%
%TO.N,Net-(D19-DO)*%
X81085000Y-53950000D03*
%TO.P,D19,2,GND*%
%TO.N,GND*%
X81085000Y-55050000D03*
%TO.P,D19,3,DI*%
%TO.N,Net-(D18-DO)*%
X82915000Y-55050000D03*
%TO.P,D19,4,VDD*%
%TO.N,+5V*%
X82915000Y-53950000D03*
%TD*%
%TO.P,D93,1,DO*%
%TO.N,Net-(D93-DO)*%
X51085000Y-65950000D03*
%TO.P,D93,2,GND*%
%TO.N,GND*%
X51085000Y-67050000D03*
%TO.P,D93,3,DI*%
%TO.N,Net-(D92-DO)*%
X52915000Y-67050000D03*
%TO.P,D93,4,VDD*%
%TO.N,+5V*%
X52915000Y-65950000D03*
%TD*%
%TO.P,D26,1,DO*%
%TO.N,Net-(D26-DO)*%
X60085000Y-53950000D03*
%TO.P,D26,2,GND*%
%TO.N,GND*%
X60085000Y-55050000D03*
%TO.P,D26,3,DI*%
%TO.N,Net-(D25-DO)*%
X61915000Y-55050000D03*
%TO.P,D26,4,VDD*%
%TO.N,+5V*%
X61915000Y-53950000D03*
%TD*%
%TO.P,D34,1,DO*%
%TO.N,Net-(D34-DO)*%
X40915000Y-58050000D03*
%TO.P,D34,2,GND*%
%TO.N,GND*%
X40915000Y-56950000D03*
%TO.P,D34,3,DI*%
%TO.N,Net-(D33-DO)*%
X39085000Y-56950000D03*
%TO.P,D34,4,VDD*%
%TO.N,+5V*%
X39085000Y-58050000D03*
%TD*%
%TO.P,D228,1,DO*%
%TO.N,Net-(D228-DO)*%
X46915000Y-94050000D03*
%TO.P,D228,2,GND*%
%TO.N,GND*%
X46915000Y-92950000D03*
%TO.P,D228,3,DI*%
%TO.N,Net-(D227-DO)*%
X45085000Y-92950000D03*
%TO.P,D228,4,VDD*%
%TO.N,+5V*%
X45085000Y-94050000D03*
%TD*%
%TO.P,D88,1,DO*%
%TO.N,Net-(D88-DO)*%
X66085000Y-65950000D03*
%TO.P,D88,2,GND*%
%TO.N,GND*%
X66085000Y-67050000D03*
%TO.P,D88,3,DI*%
%TO.N,Net-(D87-DO)*%
X67915000Y-67050000D03*
%TO.P,D88,4,VDD*%
%TO.N,+5V*%
X67915000Y-65950000D03*
%TD*%
%TO.P,D127,1,DO*%
%TO.N,Net-(D127-DO)*%
X45085000Y-71950000D03*
%TO.P,D127,2,GND*%
%TO.N,GND*%
X45085000Y-73050000D03*
%TO.P,D127,3,DI*%
%TO.N,Net-(D126-DO)*%
X46915000Y-73050000D03*
%TO.P,D127,4,VDD*%
%TO.N,+5V*%
X46915000Y-71950000D03*
%TD*%
%TO.P,D193,1,DO*%
%TO.N,Net-(D193-DO)*%
X39085000Y-83950000D03*
%TO.P,D193,2,GND*%
%TO.N,GND*%
X39085000Y-85050000D03*
%TO.P,D193,3,DI*%
%TO.N,Net-(D192-DO)*%
X40915000Y-85050000D03*
%TO.P,D193,4,VDD*%
%TO.N,+5V*%
X40915000Y-83950000D03*
%TD*%
%TO.P,D63,1,DO*%
%TO.N,Net-(D63-DO)*%
X45085000Y-59950000D03*
%TO.P,D63,2,GND*%
%TO.N,GND*%
X45085000Y-61050000D03*
%TO.P,D63,3,DI*%
%TO.N,Net-(D62-DO)*%
X46915000Y-61050000D03*
%TO.P,D63,4,VDD*%
%TO.N,+5V*%
X46915000Y-59950000D03*
%TD*%
%TO.P,D118,1,DO*%
%TO.N,Net-(D118-DO)*%
X72085000Y-71950000D03*
%TO.P,D118,2,GND*%
%TO.N,GND*%
X72085000Y-73050000D03*
%TO.P,D118,3,DI*%
%TO.N,Net-(D117-DO)*%
X73915000Y-73050000D03*
%TO.P,D118,4,VDD*%
%TO.N,+5V*%
X73915000Y-71950000D03*
%TD*%
%TO.P,D39,1,DO*%
%TO.N,Net-(D39-DO)*%
X55915000Y-58050000D03*
%TO.P,D39,2,GND*%
%TO.N,GND*%
X55915000Y-56950000D03*
%TO.P,D39,3,DI*%
%TO.N,Net-(D38-DO)*%
X54085000Y-56950000D03*
%TO.P,D39,4,VDD*%
%TO.N,+5V*%
X54085000Y-58050000D03*
%TD*%
%TO.P,D173,1,DO*%
%TO.N,Net-(D173-DO)*%
X73915000Y-82050000D03*
%TO.P,D173,2,GND*%
%TO.N,GND*%
X73915000Y-80950000D03*
%TO.P,D173,3,DI*%
%TO.N,Net-(D172-DO)*%
X72085000Y-80950000D03*
%TO.P,D173,4,VDD*%
%TO.N,+5V*%
X72085000Y-82050000D03*
%TD*%
%TO.P,D97,1,DO*%
%TO.N,Net-(D97-DO)*%
X39085000Y-65950000D03*
%TO.P,D97,2,GND*%
%TO.N,GND*%
X39085000Y-67050000D03*
%TO.P,D97,3,DI*%
%TO.N,Net-(D96-DO)*%
X40915000Y-67050000D03*
%TO.P,D97,4,VDD*%
%TO.N,+5V*%
X40915000Y-65950000D03*
%TD*%
%TO.P,D238,1,DO*%
%TO.N,Net-(D238-DO)*%
X76915000Y-94050000D03*
%TO.P,D238,2,GND*%
%TO.N,GND*%
X76915000Y-92950000D03*
%TO.P,D238,3,DI*%
%TO.N,Net-(D237-DO)*%
X75085000Y-92950000D03*
%TO.P,D238,4,VDD*%
%TO.N,+5V*%
X75085000Y-94050000D03*
%TD*%
%TO.P,D208,1,DO*%
%TO.N,Net-(D208-DO)*%
X82915000Y-88050000D03*
%TO.P,D208,2,GND*%
%TO.N,GND*%
X82915000Y-86950000D03*
%TO.P,D208,3,DI*%
%TO.N,Net-(D207-DO)*%
X81085000Y-86950000D03*
%TO.P,D208,4,VDD*%
%TO.N,+5V*%
X81085000Y-88050000D03*
%TD*%
%TO.P,D99,1,DO*%
%TO.N,Net-(D100-DI)*%
X43915000Y-70050000D03*
%TO.P,D99,2,GND*%
%TO.N,GND*%
X43915000Y-68950000D03*
%TO.P,D99,3,DI*%
%TO.N,Net-(D98-DO)*%
X42085000Y-68950000D03*
%TO.P,D99,4,VDD*%
%TO.N,+5V*%
X42085000Y-70050000D03*
%TD*%
%TO.P,D140,1,DO*%
%TO.N,Net-(D140-DO)*%
X70915000Y-76050000D03*
%TO.P,D140,2,GND*%
%TO.N,GND*%
X70915000Y-74950000D03*
%TO.P,D140,3,DI*%
%TO.N,Net-(D139-DO)*%
X69085000Y-74950000D03*
%TO.P,D140,4,VDD*%
%TO.N,+5V*%
X69085000Y-76050000D03*
%TD*%
%TO.P,D237,1,DO*%
%TO.N,Net-(D237-DO)*%
X73915000Y-94050000D03*
%TO.P,D237,2,GND*%
%TO.N,GND*%
X73915000Y-92950000D03*
%TO.P,D237,3,DI*%
%TO.N,Net-(D236-DO)*%
X72085000Y-92950000D03*
%TO.P,D237,4,VDD*%
%TO.N,+5V*%
X72085000Y-94050000D03*
%TD*%
%TO.P,D22,1,DO*%
%TO.N,Net-(D22-DO)*%
X72085000Y-53950000D03*
%TO.P,D22,2,GND*%
%TO.N,GND*%
X72085000Y-55050000D03*
%TO.P,D22,3,DI*%
%TO.N,Net-(D21-DO)*%
X73915000Y-55050000D03*
%TO.P,D22,4,VDD*%
%TO.N,+5V*%
X73915000Y-53950000D03*
%TD*%
%TO.P,D14,1,DO*%
%TO.N,Net-(D14-DO)*%
X76915000Y-52050000D03*
%TO.P,D14,2,GND*%
%TO.N,GND*%
X76915000Y-50950000D03*
%TO.P,D14,3,DI*%
%TO.N,Net-(D13-DO)*%
X75085000Y-50950000D03*
%TO.P,D14,4,VDD*%
%TO.N,+5V*%
X75085000Y-52050000D03*
%TD*%
%TO.P,D66,1,DO*%
%TO.N,Net-(D66-DO)*%
X40915000Y-64050000D03*
%TO.P,D66,2,GND*%
%TO.N,GND*%
X40915000Y-62950000D03*
%TO.P,D66,3,DI*%
%TO.N,Net-(D65-DO)*%
X39085000Y-62950000D03*
%TO.P,D66,4,VDD*%
%TO.N,+5V*%
X39085000Y-64050000D03*
%TD*%
%TO.P,D248,1,DO*%
%TO.N,Net-(D248-DO)*%
X66085000Y-95950000D03*
%TO.P,D248,2,GND*%
%TO.N,GND*%
X66085000Y-97050000D03*
%TO.P,D248,3,DI*%
%TO.N,Net-(D247-DO)*%
X67915000Y-97050000D03*
%TO.P,D248,4,VDD*%
%TO.N,+5V*%
X67915000Y-95950000D03*
%TD*%
%TO.P,D103,1,DO*%
%TO.N,Net-(D103-DO)*%
X55915000Y-70050000D03*
%TO.P,D103,2,GND*%
%TO.N,GND*%
X55915000Y-68950000D03*
%TO.P,D103,3,DI*%
%TO.N,Net-(D102-DO)*%
X54085000Y-68950000D03*
%TO.P,D103,4,VDD*%
%TO.N,+5V*%
X54085000Y-70050000D03*
%TD*%
%TO.P,D158,1,DO*%
%TO.N,Net-(D158-DO)*%
X48085000Y-77950000D03*
%TO.P,D158,2,GND*%
%TO.N,GND*%
X48085000Y-79050000D03*
%TO.P,D158,3,DI*%
%TO.N,Net-(D157-DO)*%
X49915000Y-79050000D03*
%TO.P,D158,4,VDD*%
%TO.N,+5V*%
X49915000Y-77950000D03*
%TD*%
%TO.P,D230,1,DO*%
%TO.N,Net-(D230-DO)*%
X52915000Y-94050000D03*
%TO.P,D230,2,GND*%
%TO.N,GND*%
X52915000Y-92950000D03*
%TO.P,D230,3,DI*%
%TO.N,Net-(D229-DO)*%
X51085000Y-92950000D03*
%TO.P,D230,4,VDD*%
%TO.N,+5V*%
X51085000Y-94050000D03*
%TD*%
%TO.P,D96,1,DO*%
%TO.N,Net-(D96-DO)*%
X42085000Y-65950000D03*
%TO.P,D96,2,GND*%
%TO.N,GND*%
X42085000Y-67050000D03*
%TO.P,D96,3,DI*%
%TO.N,Net-(D95-DO)*%
X43915000Y-67050000D03*
%TO.P,D96,4,VDD*%
%TO.N,+5V*%
X43915000Y-65950000D03*
%TD*%
%TO.P,D138,1,DO*%
%TO.N,Net-(D138-DO)*%
X64915000Y-76050000D03*
%TO.P,D138,2,GND*%
%TO.N,GND*%
X64915000Y-74950000D03*
%TO.P,D138,3,DI*%
%TO.N,Net-(D137-DO)*%
X63085000Y-74950000D03*
%TO.P,D138,4,VDD*%
%TO.N,+5V*%
X63085000Y-76050000D03*
%TD*%
%TO.P,D44,1,DO*%
%TO.N,Net-(D44-DO)*%
X70915000Y-58050000D03*
%TO.P,D44,2,GND*%
%TO.N,GND*%
X70915000Y-56950000D03*
%TO.P,D44,3,DI*%
%TO.N,Net-(D43-DO)*%
X69085000Y-56950000D03*
%TO.P,D44,4,VDD*%
%TO.N,+5V*%
X69085000Y-58050000D03*
%TD*%
%TO.P,D251,1,DO*%
%TO.N,Net-(D251-DO)*%
X57085000Y-95950000D03*
%TO.P,D251,2,GND*%
%TO.N,GND*%
X57085000Y-97050000D03*
%TO.P,D251,3,DI*%
%TO.N,Net-(D250-DO)*%
X58915000Y-97050000D03*
%TO.P,D251,4,VDD*%
%TO.N,+5V*%
X58915000Y-95950000D03*
%TD*%
%TO.P,D142,1,DO*%
%TO.N,Net-(D142-DO)*%
X76915000Y-76050000D03*
%TO.P,D142,2,GND*%
%TO.N,GND*%
X76915000Y-74950000D03*
%TO.P,D142,3,DI*%
%TO.N,Net-(D141-DO)*%
X75085000Y-74950000D03*
%TO.P,D142,4,VDD*%
%TO.N,+5V*%
X75085000Y-76050000D03*
%TD*%
%TO.P,D257,1,DO*%
%TO.N,unconnected-(D257-DO-Pad1)*%
X39085000Y-95950000D03*
%TO.P,D257,2,GND*%
%TO.N,GND*%
X39085000Y-97050000D03*
%TO.P,D257,3,DI*%
%TO.N,Net-(D256-DO)*%
X40915000Y-97050000D03*
%TO.P,D257,4,VDD*%
%TO.N,+5V*%
X40915000Y-95950000D03*
%TD*%
%TO.P,D145,1,DO*%
%TO.N,Net-(D145-DO)*%
X85915000Y-76050000D03*
%TO.P,D145,2,GND*%
%TO.N,GND*%
X85915000Y-74950000D03*
%TO.P,D145,3,DI*%
%TO.N,Net-(D144-DO)*%
X84085000Y-74950000D03*
%TO.P,D145,4,VDD*%
%TO.N,+5V*%
X84085000Y-76050000D03*
%TD*%
%TO.P,D137,1,DO*%
%TO.N,Net-(D137-DO)*%
X61915000Y-76050000D03*
%TO.P,D137,2,GND*%
%TO.N,GND*%
X61915000Y-74950000D03*
%TO.P,D137,3,DI*%
%TO.N,Net-(D136-DO)*%
X60085000Y-74950000D03*
%TO.P,D137,4,VDD*%
%TO.N,+5V*%
X60085000Y-76050000D03*
%TD*%
%TO.P,D192,1,DO*%
%TO.N,Net-(D192-DO)*%
X42085000Y-83950000D03*
%TO.P,D192,2,GND*%
%TO.N,GND*%
X42085000Y-85050000D03*
%TO.P,D192,3,DI*%
%TO.N,Net-(D191-DO)*%
X43915000Y-85050000D03*
%TO.P,D192,4,VDD*%
%TO.N,+5V*%
X43915000Y-83950000D03*
%TD*%
%TO.P,D8,1,DO*%
%TO.N,Net-(D8-DO)*%
X58915000Y-52050000D03*
%TO.P,D8,2,GND*%
%TO.N,GND*%
X58915000Y-50950000D03*
%TO.P,D8,3,DI*%
%TO.N,Net-(D7-DO)*%
X57085000Y-50950000D03*
%TO.P,D8,4,VDD*%
%TO.N,+5V*%
X57085000Y-52050000D03*
%TD*%
%TO.P,D37,1,DO*%
%TO.N,Net-(D37-DO)*%
X49915000Y-58050000D03*
%TO.P,D37,2,GND*%
%TO.N,GND*%
X49915000Y-56950000D03*
%TO.P,D37,3,DI*%
%TO.N,Net-(D36-DO)*%
X48085000Y-56950000D03*
%TO.P,D37,4,VDD*%
%TO.N,+5V*%
X48085000Y-58050000D03*
%TD*%
%TO.P,D87,1,DO*%
%TO.N,Net-(D87-DO)*%
X69085000Y-65950000D03*
%TO.P,D87,2,GND*%
%TO.N,GND*%
X69085000Y-67050000D03*
%TO.P,D87,3,DI*%
%TO.N,Net-(D86-DO)*%
X70915000Y-67050000D03*
%TO.P,D87,4,VDD*%
%TO.N,+5V*%
X70915000Y-65950000D03*
%TD*%
%TO.P,D225,1,DO*%
%TO.N,Net-(D225-DO)*%
X39085000Y-89950000D03*
%TO.P,D225,2,GND*%
%TO.N,GND*%
X39085000Y-91050000D03*
%TO.P,D225,3,DI*%
%TO.N,Net-(D224-DO)*%
X40915000Y-91050000D03*
%TO.P,D225,4,VDD*%
%TO.N,+5V*%
X40915000Y-89950000D03*
%TD*%
%TO.P,D80,1,DO*%
%TO.N,Net-(D80-DO)*%
X82915000Y-64050000D03*
%TO.P,D80,2,GND*%
%TO.N,GND*%
X82915000Y-62950000D03*
%TO.P,D80,3,DI*%
%TO.N,Net-(D79-DO)*%
X81085000Y-62950000D03*
%TO.P,D80,4,VDD*%
%TO.N,+5V*%
X81085000Y-64050000D03*
%TD*%
%TO.P,D106,1,DO*%
%TO.N,Net-(D106-DO)*%
X64915000Y-70050000D03*
%TO.P,D106,2,GND*%
%TO.N,GND*%
X64915000Y-68950000D03*
%TO.P,D106,3,DI*%
%TO.N,Net-(D105-DO)*%
X63085000Y-68950000D03*
%TO.P,D106,4,VDD*%
%TO.N,+5V*%
X63085000Y-70050000D03*
%TD*%
%TO.P,D152,1,DO*%
%TO.N,Net-(D152-DO)*%
X66085000Y-77950000D03*
%TO.P,D152,2,GND*%
%TO.N,GND*%
X66085000Y-79050000D03*
%TO.P,D152,3,DI*%
%TO.N,Net-(D151-DO)*%
X67915000Y-79050000D03*
%TO.P,D152,4,VDD*%
%TO.N,+5V*%
X67915000Y-77950000D03*
%TD*%
%TO.P,D17,1,DO*%
%TO.N,Net-(D17-DO)*%
X85915000Y-52050000D03*
%TO.P,D17,2,GND*%
%TO.N,GND*%
X85915000Y-50950000D03*
%TO.P,D17,3,DI*%
%TO.N,Net-(D16-DO)*%
X84085000Y-50950000D03*
%TO.P,D17,4,VDD*%
%TO.N,+5V*%
X84085000Y-52050000D03*
%TD*%
%TO.P,D163,1,DO*%
%TO.N,Net-(D163-DO)*%
X43915000Y-82050000D03*
%TO.P,D163,2,GND*%
%TO.N,GND*%
X43915000Y-80950000D03*
%TO.P,D163,3,DI*%
%TO.N,Net-(D162-DO)*%
X42085000Y-80950000D03*
%TO.P,D163,4,VDD*%
%TO.N,+5V*%
X42085000Y-82050000D03*
%TD*%
%TO.P,D111,1,DO*%
%TO.N,Net-(D111-DO)*%
X79915000Y-70050000D03*
%TO.P,D111,2,GND*%
%TO.N,GND*%
X79915000Y-68950000D03*
%TO.P,D111,3,DI*%
%TO.N,Net-(D110-DO)*%
X78085000Y-68950000D03*
%TO.P,D111,4,VDD*%
%TO.N,+5V*%
X78085000Y-70050000D03*
%TD*%
%TO.P,D27,1,DO*%
%TO.N,Net-(D27-DO)*%
X57085000Y-53950000D03*
%TO.P,D27,2,GND*%
%TO.N,GND*%
X57085000Y-55050000D03*
%TO.P,D27,3,DI*%
%TO.N,Net-(D26-DO)*%
X58915000Y-55050000D03*
%TO.P,D27,4,VDD*%
%TO.N,+5V*%
X58915000Y-53950000D03*
%TD*%
%TO.P,D169,1,DO*%
%TO.N,Net-(D169-DO)*%
X61915000Y-82050000D03*
%TO.P,D169,2,GND*%
%TO.N,GND*%
X61915000Y-80950000D03*
%TO.P,D169,3,DI*%
%TO.N,Net-(D168-DO)*%
X60085000Y-80950000D03*
%TO.P,D169,4,VDD*%
%TO.N,+5V*%
X60085000Y-82050000D03*
%TD*%
%TO.P,D190,1,DO*%
%TO.N,Net-(D190-DO)*%
X48085000Y-83950000D03*
%TO.P,D190,2,GND*%
%TO.N,GND*%
X48085000Y-85050000D03*
%TO.P,D190,3,DI*%
%TO.N,Net-(D189-DO)*%
X49915000Y-85050000D03*
%TO.P,D190,4,VDD*%
%TO.N,+5V*%
X49915000Y-83950000D03*
%TD*%
%TO.P,D219,1,DO*%
%TO.N,Net-(D219-DO)*%
X57085000Y-89950000D03*
%TO.P,D219,2,GND*%
%TO.N,GND*%
X57085000Y-91050000D03*
%TO.P,D219,3,DI*%
%TO.N,Net-(D218-DO)*%
X58915000Y-91050000D03*
%TO.P,D219,4,VDD*%
%TO.N,+5V*%
X58915000Y-89950000D03*
%TD*%
%TO.P,D165,1,DO*%
%TO.N,Net-(D165-DO)*%
X49915000Y-82050000D03*
%TO.P,D165,2,GND*%
%TO.N,GND*%
X49915000Y-80950000D03*
%TO.P,D165,3,DI*%
%TO.N,Net-(D164-DO)*%
X48085000Y-80950000D03*
%TO.P,D165,4,VDD*%
%TO.N,+5V*%
X48085000Y-82050000D03*
%TD*%
%TO.P,D178,1,DO*%
%TO.N,Net-(D178-DO)*%
X84085000Y-83950000D03*
%TO.P,D178,2,GND*%
%TO.N,GND*%
X84085000Y-85050000D03*
%TO.P,D178,3,DI*%
%TO.N,Net-(D177-DO)*%
X85915000Y-85050000D03*
%TO.P,D178,4,VDD*%
%TO.N,+5V*%
X85915000Y-83950000D03*
%TD*%
%TO.P,D78,1,DO*%
%TO.N,Net-(D78-DO)*%
X76915000Y-64050000D03*
%TO.P,D78,2,GND*%
%TO.N,GND*%
X76915000Y-62950000D03*
%TO.P,D78,3,DI*%
%TO.N,Net-(D77-DO)*%
X75085000Y-62950000D03*
%TO.P,D78,4,VDD*%
%TO.N,+5V*%
X75085000Y-64050000D03*
%TD*%
%TO.P,D129,1,DO*%
%TO.N,Net-(D129-DO)*%
X39085000Y-71950000D03*
%TO.P,D129,2,GND*%
%TO.N,GND*%
X39085000Y-73050000D03*
%TO.P,D129,3,DI*%
%TO.N,Net-(D128-DO)*%
X40915000Y-73050000D03*
%TO.P,D129,4,VDD*%
%TO.N,+5V*%
X40915000Y-71950000D03*
%TD*%
%TO.P,D245,1,DO*%
%TO.N,Net-(D245-DO)*%
X75085000Y-95950000D03*
%TO.P,D245,2,GND*%
%TO.N,GND*%
X75085000Y-97050000D03*
%TO.P,D245,3,DI*%
%TO.N,Net-(D244-DO)*%
X76915000Y-97050000D03*
%TO.P,D245,4,VDD*%
%TO.N,+5V*%
X76915000Y-95950000D03*
%TD*%
%TO.P,D58,1,DO*%
%TO.N,Net-(D58-DO)*%
X60085000Y-59950000D03*
%TO.P,D58,2,GND*%
%TO.N,GND*%
X60085000Y-61050000D03*
%TO.P,D58,3,DI*%
%TO.N,Net-(D57-DO)*%
X61915000Y-61050000D03*
%TO.P,D58,4,VDD*%
%TO.N,+5V*%
X61915000Y-59950000D03*
%TD*%
%TO.P,D89,1,DO*%
%TO.N,Net-(D89-DO)*%
X63085000Y-65950000D03*
%TO.P,D89,2,GND*%
%TO.N,GND*%
X63085000Y-67050000D03*
%TO.P,D89,3,DI*%
%TO.N,Net-(D88-DO)*%
X64915000Y-67050000D03*
%TO.P,D89,4,VDD*%
%TO.N,+5V*%
X64915000Y-65950000D03*
%TD*%
%TO.P,D2,1,DO*%
%TO.N,Net-(D2-DO)*%
X40915000Y-52050000D03*
%TO.P,D2,2,GND*%
%TO.N,GND*%
X40915000Y-50950000D03*
%TO.P,D2,3,DI*%
%TO.N,GPIO18*%
X39085000Y-50950000D03*
%TO.P,D2,4,VDD*%
%TO.N,+5V*%
X39085000Y-52050000D03*
%TD*%
%TO.P,D155,1,DO*%
%TO.N,Net-(D155-DO)*%
X57085000Y-77950000D03*
%TO.P,D155,2,GND*%
%TO.N,GND*%
X57085000Y-79050000D03*
%TO.P,D155,3,DI*%
%TO.N,Net-(D154-DO)*%
X58915000Y-79050000D03*
%TO.P,D155,4,VDD*%
%TO.N,+5V*%
X58915000Y-77950000D03*
%TD*%
%TO.P,D121,1,DO*%
%TO.N,Net-(D121-DO)*%
X63085000Y-71950000D03*
%TO.P,D121,2,GND*%
%TO.N,GND*%
X63085000Y-73050000D03*
%TO.P,D121,3,DI*%
%TO.N,Net-(D120-DO)*%
X64915000Y-73050000D03*
%TO.P,D121,4,VDD*%
%TO.N,+5V*%
X64915000Y-71950000D03*
%TD*%
%TO.P,D170,1,DO*%
%TO.N,Net-(D170-DO)*%
X64915000Y-82050000D03*
%TO.P,D170,2,GND*%
%TO.N,GND*%
X64915000Y-80950000D03*
%TO.P,D170,3,DI*%
%TO.N,Net-(D169-DO)*%
X63085000Y-80950000D03*
%TO.P,D170,4,VDD*%
%TO.N,+5V*%
X63085000Y-82050000D03*
%TD*%
%TO.P,D176,1,DO*%
%TO.N,Net-(D176-DO)*%
X82915000Y-82050000D03*
%TO.P,D176,2,GND*%
%TO.N,GND*%
X82915000Y-80950000D03*
%TO.P,D176,3,DI*%
%TO.N,Net-(D175-DO)*%
X81085000Y-80950000D03*
%TO.P,D176,4,VDD*%
%TO.N,+5V*%
X81085000Y-82050000D03*
%TD*%
%TO.P,D101,1,DO*%
%TO.N,Net-(D101-DO)*%
X49915000Y-70050000D03*
%TO.P,D101,2,GND*%
%TO.N,GND*%
X49915000Y-68950000D03*
%TO.P,D101,3,DI*%
%TO.N,Net-(D100-DO)*%
X48085000Y-68950000D03*
%TO.P,D101,4,VDD*%
%TO.N,+5V*%
X48085000Y-70050000D03*
%TD*%
%TO.P,D25,1,DO*%
%TO.N,Net-(D25-DO)*%
X63085000Y-53950000D03*
%TO.P,D25,2,GND*%
%TO.N,GND*%
X63085000Y-55050000D03*
%TO.P,D25,3,DI*%
%TO.N,Net-(D24-DO)*%
X64915000Y-55050000D03*
%TO.P,D25,4,VDD*%
%TO.N,+5V*%
X64915000Y-53950000D03*
%TD*%
%TO.P,D222,1,DO*%
%TO.N,Net-(D222-DO)*%
X48085000Y-89950000D03*
%TO.P,D222,2,GND*%
%TO.N,GND*%
X48085000Y-91050000D03*
%TO.P,D222,3,DI*%
%TO.N,Net-(D221-DO)*%
X49915000Y-91050000D03*
%TO.P,D222,4,VDD*%
%TO.N,+5V*%
X49915000Y-89950000D03*
%TD*%
%TO.P,D156,1,DO*%
%TO.N,Net-(D156-DO)*%
X54085000Y-77950000D03*
%TO.P,D156,2,GND*%
%TO.N,GND*%
X54085000Y-79050000D03*
%TO.P,D156,3,DI*%
%TO.N,Net-(D155-DO)*%
X55915000Y-79050000D03*
%TO.P,D156,4,VDD*%
%TO.N,+5V*%
X55915000Y-77950000D03*
%TD*%
%TO.P,D11,1,DO*%
%TO.N,Net-(D11-DO)*%
X67915000Y-52050000D03*
%TO.P,D11,2,GND*%
%TO.N,GND*%
X67915000Y-50950000D03*
%TO.P,D11,3,DI*%
%TO.N,Net-(D10-DO)*%
X66085000Y-50950000D03*
%TO.P,D11,4,VDD*%
%TO.N,+5V*%
X66085000Y-52050000D03*
%TD*%
%TO.P,D186,1,DO*%
%TO.N,Net-(D186-DO)*%
X60085000Y-83950000D03*
%TO.P,D186,2,GND*%
%TO.N,GND*%
X60085000Y-85050000D03*
%TO.P,D186,3,DI*%
%TO.N,Net-(D185-DO)*%
X61915000Y-85050000D03*
%TO.P,D186,4,VDD*%
%TO.N,+5V*%
X61915000Y-83950000D03*
%TD*%
%TO.P,D224,1,DO*%
%TO.N,Net-(D224-DO)*%
X42085000Y-89950000D03*
%TO.P,D224,2,GND*%
%TO.N,GND*%
X42085000Y-91050000D03*
%TO.P,D224,3,DI*%
%TO.N,Net-(D223-DO)*%
X43915000Y-91050000D03*
%TO.P,D224,4,VDD*%
%TO.N,+5V*%
X43915000Y-89950000D03*
%TD*%
%TO.P,D74,1,DO*%
%TO.N,Net-(D74-DO)*%
X64915000Y-64050000D03*
%TO.P,D74,2,GND*%
%TO.N,GND*%
X64915000Y-62950000D03*
%TO.P,D74,3,DI*%
%TO.N,Net-(D73-DO)*%
X63085000Y-62950000D03*
%TO.P,D74,4,VDD*%
%TO.N,+5V*%
X63085000Y-64050000D03*
%TD*%
%TO.P,D35,1,DO*%
%TO.N,Net-(D35-DO)*%
X43915000Y-58050000D03*
%TO.P,D35,2,GND*%
%TO.N,GND*%
X43915000Y-56950000D03*
%TO.P,D35,3,DI*%
%TO.N,Net-(D34-DO)*%
X42085000Y-56950000D03*
%TO.P,D35,4,VDD*%
%TO.N,+5V*%
X42085000Y-58050000D03*
%TD*%
%TO.P,D212,1,DO*%
%TO.N,Net-(D212-DO)*%
X78085000Y-89950000D03*
%TO.P,D212,2,GND*%
%TO.N,GND*%
X78085000Y-91050000D03*
%TO.P,D212,3,DI*%
%TO.N,Net-(D211-DO)*%
X79915000Y-91050000D03*
%TO.P,D212,4,VDD*%
%TO.N,+5V*%
X79915000Y-89950000D03*
%TD*%
%TO.P,D233,1,DO*%
%TO.N,Net-(D233-DO)*%
X61915000Y-94050000D03*
%TO.P,D233,2,GND*%
%TO.N,GND*%
X61915000Y-92950000D03*
%TO.P,D233,3,DI*%
%TO.N,Net-(D232-DO)*%
X60085000Y-92950000D03*
%TO.P,D233,4,VDD*%
%TO.N,+5V*%
X60085000Y-94050000D03*
%TD*%
%TO.P,D191,1,DO*%
%TO.N,Net-(D191-DO)*%
X45085000Y-83950000D03*
%TO.P,D191,2,GND*%
%TO.N,GND*%
X45085000Y-85050000D03*
%TO.P,D191,3,DI*%
%TO.N,Net-(D190-DO)*%
X46915000Y-85050000D03*
%TO.P,D191,4,VDD*%
%TO.N,+5V*%
X46915000Y-83950000D03*
%TD*%
%TO.P,D100,1,DO*%
%TO.N,Net-(D100-DO)*%
X46915000Y-70050000D03*
%TO.P,D100,2,GND*%
%TO.N,GND*%
X46915000Y-68950000D03*
%TO.P,D100,3,DI*%
%TO.N,Net-(D100-DI)*%
X45085000Y-68950000D03*
%TO.P,D100,4,VDD*%
%TO.N,+5V*%
X45085000Y-70050000D03*
%TD*%
%TO.P,D181,1,DO*%
%TO.N,Net-(D181-DO)*%
X75085000Y-83950000D03*
%TO.P,D181,2,GND*%
%TO.N,GND*%
X75085000Y-85050000D03*
%TO.P,D181,3,DI*%
%TO.N,Net-(D180-DO)*%
X76915000Y-85050000D03*
%TO.P,D181,4,VDD*%
%TO.N,+5V*%
X76915000Y-83950000D03*
%TD*%
%TO.P,D91,1,DO*%
%TO.N,Net-(D91-DO)*%
X57085000Y-65950000D03*
%TO.P,D91,2,GND*%
%TO.N,GND*%
X57085000Y-67050000D03*
%TO.P,D91,3,DI*%
%TO.N,Net-(D90-DO)*%
X58915000Y-67050000D03*
%TO.P,D91,4,VDD*%
%TO.N,+5V*%
X58915000Y-65950000D03*
%TD*%
%TO.P,D204,1,DO*%
%TO.N,Net-(D204-DO)*%
X70915000Y-88050000D03*
%TO.P,D204,2,GND*%
%TO.N,GND*%
X70915000Y-86950000D03*
%TO.P,D204,3,DI*%
%TO.N,Net-(D203-DO)*%
X69085000Y-86950000D03*
%TO.P,D204,4,VDD*%
%TO.N,+5V*%
X69085000Y-88050000D03*
%TD*%
%TO.P,D159,1,DO*%
%TO.N,Net-(D159-DO)*%
X45085000Y-77950000D03*
%TO.P,D159,2,GND*%
%TO.N,GND*%
X45085000Y-79050000D03*
%TO.P,D159,3,DI*%
%TO.N,Net-(D158-DO)*%
X46915000Y-79050000D03*
%TO.P,D159,4,VDD*%
%TO.N,+5V*%
X46915000Y-77950000D03*
%TD*%
%TO.P,D109,1,DO*%
%TO.N,Net-(D109-DO)*%
X73915000Y-70050000D03*
%TO.P,D109,2,GND*%
%TO.N,GND*%
X73915000Y-68950000D03*
%TO.P,D109,3,DI*%
%TO.N,Net-(D108-DO)*%
X72085000Y-68950000D03*
%TO.P,D109,4,VDD*%
%TO.N,+5V*%
X72085000Y-70050000D03*
%TD*%
%TO.P,D195,1,DO*%
%TO.N,Net-(D195-DO)*%
X43915000Y-88050000D03*
%TO.P,D195,2,GND*%
%TO.N,GND*%
X43915000Y-86950000D03*
%TO.P,D195,3,DI*%
%TO.N,Net-(D194-DO)*%
X42085000Y-86950000D03*
%TO.P,D195,4,VDD*%
%TO.N,+5V*%
X42085000Y-88050000D03*
%TD*%
%TO.P,D43,1,DO*%
%TO.N,Net-(D43-DO)*%
X67915000Y-58050000D03*
%TO.P,D43,2,GND*%
%TO.N,GND*%
X67915000Y-56950000D03*
%TO.P,D43,3,DI*%
%TO.N,Net-(D42-DO)*%
X66085000Y-56950000D03*
%TO.P,D43,4,VDD*%
%TO.N,+5V*%
X66085000Y-58050000D03*
%TD*%
%TO.P,D234,1,DO*%
%TO.N,Net-(D234-DO)*%
X64915000Y-94050000D03*
%TO.P,D234,2,GND*%
%TO.N,GND*%
X64915000Y-92950000D03*
%TO.P,D234,3,DI*%
%TO.N,Net-(D233-DO)*%
X63085000Y-92950000D03*
%TO.P,D234,4,VDD*%
%TO.N,+5V*%
X63085000Y-94050000D03*
%TD*%
%TO.P,D161,1,DO*%
%TO.N,Net-(D161-DO)*%
X39085000Y-77950000D03*
%TO.P,D161,2,GND*%
%TO.N,GND*%
X39085000Y-79050000D03*
%TO.P,D161,3,DI*%
%TO.N,Net-(D160-DO)*%
X40915000Y-79050000D03*
%TO.P,D161,4,VDD*%
%TO.N,+5V*%
X40915000Y-77950000D03*
%TD*%
%TO.P,D207,1,DO*%
%TO.N,Net-(D207-DO)*%
X79915000Y-88050000D03*
%TO.P,D207,2,GND*%
%TO.N,GND*%
X79915000Y-86950000D03*
%TO.P,D207,3,DI*%
%TO.N,Net-(D206-DO)*%
X78085000Y-86950000D03*
%TO.P,D207,4,VDD*%
%TO.N,+5V*%
X78085000Y-88050000D03*
%TD*%
%TO.P,D247,1,DO*%
%TO.N,Net-(D247-DO)*%
X69085000Y-95950000D03*
%TO.P,D247,2,GND*%
%TO.N,GND*%
X69085000Y-97050000D03*
%TO.P,D247,3,DI*%
%TO.N,Net-(D246-DO)*%
X70915000Y-97050000D03*
%TO.P,D247,4,VDD*%
%TO.N,+5V*%
X70915000Y-95950000D03*
%TD*%
%TO.P,D115,1,DO*%
%TO.N,Net-(D115-DO)*%
X81085000Y-71950000D03*
%TO.P,D115,2,GND*%
%TO.N,GND*%
X81085000Y-73050000D03*
%TO.P,D115,3,DI*%
%TO.N,Net-(D114-DO)*%
X82915000Y-73050000D03*
%TO.P,D115,4,VDD*%
%TO.N,+5V*%
X82915000Y-71950000D03*
%TD*%
%TO.P,D60,1,DO*%
%TO.N,Net-(D60-DO)*%
X54085000Y-59950000D03*
%TO.P,D60,2,GND*%
%TO.N,GND*%
X54085000Y-61050000D03*
%TO.P,D60,3,DI*%
%TO.N,Net-(D59-DO)*%
X55915000Y-61050000D03*
%TO.P,D60,4,VDD*%
%TO.N,+5V*%
X55915000Y-59950000D03*
%TD*%
%TO.P,D184,1,DO*%
%TO.N,Net-(D184-DO)*%
X66085000Y-83950000D03*
%TO.P,D184,2,GND*%
%TO.N,GND*%
X66085000Y-85050000D03*
%TO.P,D184,3,DI*%
%TO.N,Net-(D183-DO)*%
X67915000Y-85050000D03*
%TO.P,D184,4,VDD*%
%TO.N,+5V*%
X67915000Y-83950000D03*
%TD*%
%TO.P,D143,1,DO*%
%TO.N,Net-(D143-DO)*%
X79915000Y-76050000D03*
%TO.P,D143,2,GND*%
%TO.N,GND*%
X79915000Y-74950000D03*
%TO.P,D143,3,DI*%
%TO.N,Net-(D142-DO)*%
X78085000Y-74950000D03*
%TO.P,D143,4,VDD*%
%TO.N,+5V*%
X78085000Y-76050000D03*
%TD*%
%TO.P,D133,1,DO*%
%TO.N,Net-(D133-DO)*%
X49915000Y-76050000D03*
%TO.P,D133,2,GND*%
%TO.N,GND*%
X49915000Y-74950000D03*
%TO.P,D133,3,DI*%
%TO.N,Net-(D132-DO)*%
X48085000Y-74950000D03*
%TO.P,D133,4,VDD*%
%TO.N,+5V*%
X48085000Y-76050000D03*
%TD*%
%TO.P,D125,1,DO*%
%TO.N,Net-(D125-DO)*%
X51085000Y-71950000D03*
%TO.P,D125,2,GND*%
%TO.N,GND*%
X51085000Y-73050000D03*
%TO.P,D125,3,DI*%
%TO.N,Net-(D124-DO)*%
X52915000Y-73050000D03*
%TO.P,D125,4,VDD*%
%TO.N,+5V*%
X52915000Y-71950000D03*
%TD*%
%TO.P,D107,1,DO*%
%TO.N,Net-(D107-DO)*%
X67915000Y-70050000D03*
%TO.P,D107,2,GND*%
%TO.N,GND*%
X67915000Y-68950000D03*
%TO.P,D107,3,DI*%
%TO.N,Net-(D106-DO)*%
X66085000Y-68950000D03*
%TO.P,D107,4,VDD*%
%TO.N,+5V*%
X66085000Y-70050000D03*
%TD*%
%TO.P,D51,1,DO*%
%TO.N,Net-(D51-DO)*%
X81085000Y-59950000D03*
%TO.P,D51,2,GND*%
%TO.N,GND*%
X81085000Y-61050000D03*
%TO.P,D51,3,DI*%
%TO.N,Net-(D50-DO)*%
X82915000Y-61050000D03*
%TO.P,D51,4,VDD*%
%TO.N,+5V*%
X82915000Y-59950000D03*
%TD*%
%TO.P,D213,1,DO*%
%TO.N,Net-(D213-DO)*%
X75085000Y-89950000D03*
%TO.P,D213,2,GND*%
%TO.N,GND*%
X75085000Y-91050000D03*
%TO.P,D213,3,DI*%
%TO.N,Net-(D212-DO)*%
X76915000Y-91050000D03*
%TO.P,D213,4,VDD*%
%TO.N,+5V*%
X76915000Y-89950000D03*
%TD*%
%TO.P,D240,1,DO*%
%TO.N,Net-(D240-DO)*%
X82915000Y-94050000D03*
%TO.P,D240,2,GND*%
%TO.N,GND*%
X82915000Y-92950000D03*
%TO.P,D240,3,DI*%
%TO.N,Net-(D239-DO)*%
X81085000Y-92950000D03*
%TO.P,D240,4,VDD*%
%TO.N,+5V*%
X81085000Y-94050000D03*
%TD*%
%TO.P,D239,1,DO*%
%TO.N,Net-(D239-DO)*%
X79915000Y-94050000D03*
%TO.P,D239,2,GND*%
%TO.N,GND*%
X79915000Y-92950000D03*
%TO.P,D239,3,DI*%
%TO.N,Net-(D238-DO)*%
X78085000Y-92950000D03*
%TO.P,D239,4,VDD*%
%TO.N,+5V*%
X78085000Y-94050000D03*
%TD*%
%TO.P,D215,1,DO*%
%TO.N,Net-(D215-DO)*%
X69085000Y-89950000D03*
%TO.P,D215,2,GND*%
%TO.N,GND*%
X69085000Y-91050000D03*
%TO.P,D215,3,DI*%
%TO.N,Net-(D214-DO)*%
X70915000Y-91050000D03*
%TO.P,D215,4,VDD*%
%TO.N,+5V*%
X70915000Y-89950000D03*
%TD*%
%TO.P,D220,1,DO*%
%TO.N,Net-(D220-DO)*%
X54085000Y-89950000D03*
%TO.P,D220,2,GND*%
%TO.N,GND*%
X54085000Y-91050000D03*
%TO.P,D220,3,DI*%
%TO.N,Net-(D219-DO)*%
X55915000Y-91050000D03*
%TO.P,D220,4,VDD*%
%TO.N,+5V*%
X55915000Y-89950000D03*
%TD*%
%TO.P,D164,1,DO*%
%TO.N,Net-(D164-DO)*%
X46915000Y-82050000D03*
%TO.P,D164,2,GND*%
%TO.N,GND*%
X46915000Y-80950000D03*
%TO.P,D164,3,DI*%
%TO.N,Net-(D163-DO)*%
X45085000Y-80950000D03*
%TO.P,D164,4,VDD*%
%TO.N,+5V*%
X45085000Y-82050000D03*
%TD*%
%TO.P,D216,1,DO*%
%TO.N,Net-(D216-DO)*%
X66085000Y-89950000D03*
%TO.P,D216,2,GND*%
%TO.N,GND*%
X66085000Y-91050000D03*
%TO.P,D216,3,DI*%
%TO.N,Net-(D215-DO)*%
X67915000Y-91050000D03*
%TO.P,D216,4,VDD*%
%TO.N,+5V*%
X67915000Y-89950000D03*
%TD*%
%TO.P,D205,1,DO*%
%TO.N,Net-(D205-DO)*%
X73915000Y-88050000D03*
%TO.P,D205,2,GND*%
%TO.N,GND*%
X73915000Y-86950000D03*
%TO.P,D205,3,DI*%
%TO.N,Net-(D204-DO)*%
X72085000Y-86950000D03*
%TO.P,D205,4,VDD*%
%TO.N,+5V*%
X72085000Y-88050000D03*
%TD*%
%TO.P,D83,1,DO*%
%TO.N,Net-(D83-DO)*%
X81085000Y-65950000D03*
%TO.P,D83,2,GND*%
%TO.N,GND*%
X81085000Y-67050000D03*
%TO.P,D83,3,DI*%
%TO.N,Net-(D82-DO)*%
X82915000Y-67050000D03*
%TO.P,D83,4,VDD*%
%TO.N,+5V*%
X82915000Y-65950000D03*
%TD*%
%TO.P,D250,1,DO*%
%TO.N,Net-(D250-DO)*%
X60085000Y-95950000D03*
%TO.P,D250,2,GND*%
%TO.N,GND*%
X60085000Y-97050000D03*
%TO.P,D250,3,DI*%
%TO.N,Net-(D249-DO)*%
X61915000Y-97050000D03*
%TO.P,D250,4,VDD*%
%TO.N,+5V*%
X61915000Y-95950000D03*
%TD*%
%TO.P,D256,1,DO*%
%TO.N,Net-(D256-DO)*%
X42085000Y-95950000D03*
%TO.P,D256,2,GND*%
%TO.N,GND*%
X42085000Y-97050000D03*
%TO.P,D256,3,DI*%
%TO.N,Net-(D255-DO)*%
X43915000Y-97050000D03*
%TO.P,D256,4,VDD*%
%TO.N,+5V*%
X43915000Y-95950000D03*
%TD*%
%TO.P,D179,1,DO*%
%TO.N,Net-(D179-DO)*%
X81085000Y-83950000D03*
%TO.P,D179,2,GND*%
%TO.N,GND*%
X81085000Y-85050000D03*
%TO.P,D179,3,DI*%
%TO.N,Net-(D178-DO)*%
X82915000Y-85050000D03*
%TO.P,D179,4,VDD*%
%TO.N,+5V*%
X82915000Y-83950000D03*
%TD*%
%TO.P,D139,1,DO*%
%TO.N,Net-(D139-DO)*%
X67915000Y-76050000D03*
%TO.P,D139,2,GND*%
%TO.N,GND*%
X67915000Y-74950000D03*
%TO.P,D139,3,DI*%
%TO.N,Net-(D138-DO)*%
X66085000Y-74950000D03*
%TO.P,D139,4,VDD*%
%TO.N,+5V*%
X66085000Y-76050000D03*
%TD*%
%TO.P,D86,1,DO*%
%TO.N,Net-(D86-DO)*%
X72085000Y-65950000D03*
%TO.P,D86,2,GND*%
%TO.N,GND*%
X72085000Y-67050000D03*
%TO.P,D86,3,DI*%
%TO.N,Net-(D85-DO)*%
X73915000Y-67050000D03*
%TO.P,D86,4,VDD*%
%TO.N,+5V*%
X73915000Y-65950000D03*
%TD*%
%TO.P,D244,1,DO*%
%TO.N,Net-(D244-DO)*%
X78085000Y-95950000D03*
%TO.P,D244,2,GND*%
%TO.N,GND*%
X78085000Y-97050000D03*
%TO.P,D244,3,DI*%
%TO.N,Net-(D243-DO)*%
X79915000Y-97050000D03*
%TO.P,D244,4,VDD*%
%TO.N,+5V*%
X79915000Y-95950000D03*
%TD*%
%TO.P,D13,1,DO*%
%TO.N,Net-(D13-DO)*%
X73915000Y-52050000D03*
%TO.P,D13,2,GND*%
%TO.N,GND*%
X73915000Y-50950000D03*
%TO.P,D13,3,DI*%
%TO.N,Net-(D12-DO)*%
X72085000Y-50950000D03*
%TO.P,D13,4,VDD*%
%TO.N,+5V*%
X72085000Y-52050000D03*
%TD*%
%TO.P,D253,1,DO*%
%TO.N,Net-(D253-DO)*%
X51085000Y-95950000D03*
%TO.P,D253,2,GND*%
%TO.N,GND*%
X51085000Y-97050000D03*
%TO.P,D253,3,DI*%
%TO.N,Net-(D252-DO)*%
X52915000Y-97050000D03*
%TO.P,D253,4,VDD*%
%TO.N,+5V*%
X52915000Y-95950000D03*
%TD*%
%TO.P,D108,1,DO*%
%TO.N,Net-(D108-DO)*%
X70915000Y-70050000D03*
%TO.P,D108,2,GND*%
%TO.N,GND*%
X70915000Y-68950000D03*
%TO.P,D108,3,DI*%
%TO.N,Net-(D107-DO)*%
X69085000Y-68950000D03*
%TO.P,D108,4,VDD*%
%TO.N,+5V*%
X69085000Y-70050000D03*
%TD*%
%TO.P,D217,1,DO*%
%TO.N,Net-(D217-DO)*%
X63085000Y-89950000D03*
%TO.P,D217,2,GND*%
%TO.N,GND*%
X63085000Y-91050000D03*
%TO.P,D217,3,DI*%
%TO.N,Net-(D216-DO)*%
X64915000Y-91050000D03*
%TO.P,D217,4,VDD*%
%TO.N,+5V*%
X64915000Y-89950000D03*
%TD*%
%TO.P,D75,1,DO*%
%TO.N,Net-(D75-DO)*%
X67915000Y-64050000D03*
%TO.P,D75,2,GND*%
%TO.N,GND*%
X67915000Y-62950000D03*
%TO.P,D75,3,DI*%
%TO.N,Net-(D74-DO)*%
X66085000Y-62950000D03*
%TO.P,D75,4,VDD*%
%TO.N,+5V*%
X66085000Y-64050000D03*
%TD*%
%TO.P,D231,1,DO*%
%TO.N,Net-(D231-DO)*%
X55915000Y-94050000D03*
%TO.P,D231,2,GND*%
%TO.N,GND*%
X55915000Y-92950000D03*
%TO.P,D231,3,DI*%
%TO.N,Net-(D230-DO)*%
X54085000Y-92950000D03*
%TO.P,D231,4,VDD*%
%TO.N,+5V*%
X54085000Y-94050000D03*
%TD*%
%TO.P,D90,1,DO*%
%TO.N,Net-(D90-DO)*%
X60085000Y-65950000D03*
%TO.P,D90,2,GND*%
%TO.N,GND*%
X60085000Y-67050000D03*
%TO.P,D90,3,DI*%
%TO.N,Net-(D89-DO)*%
X61915000Y-67050000D03*
%TO.P,D90,4,VDD*%
%TO.N,+5V*%
X61915000Y-65950000D03*
%TD*%
%TO.P,D150,1,DO*%
%TO.N,Net-(D150-DO)*%
X72085000Y-77950000D03*
%TO.P,D150,2,GND*%
%TO.N,GND*%
X72085000Y-79050000D03*
%TO.P,D150,3,DI*%
%TO.N,Net-(D149-DO)*%
X73915000Y-79050000D03*
%TO.P,D150,4,VDD*%
%TO.N,+5V*%
X73915000Y-77950000D03*
%TD*%
%TO.P,D123,1,DO*%
%TO.N,Net-(D123-DO)*%
X57085000Y-71950000D03*
%TO.P,D123,2,GND*%
%TO.N,GND*%
X57085000Y-73050000D03*
%TO.P,D123,3,DI*%
%TO.N,Net-(D122-DO)*%
X58915000Y-73050000D03*
%TO.P,D123,4,VDD*%
%TO.N,+5V*%
X58915000Y-71950000D03*
%TD*%
%TO.P,D42,1,DO*%
%TO.N,Net-(D42-DO)*%
X64915000Y-58050000D03*
%TO.P,D42,2,GND*%
%TO.N,GND*%
X64915000Y-56950000D03*
%TO.P,D42,3,DI*%
%TO.N,Net-(D41-DO)*%
X63085000Y-56950000D03*
%TO.P,D42,4,VDD*%
%TO.N,+5V*%
X63085000Y-58050000D03*
%TD*%
%TO.P,D24,1,DO*%
%TO.N,Net-(D24-DO)*%
X66085000Y-53950000D03*
%TO.P,D24,2,GND*%
%TO.N,GND*%
X66085000Y-55050000D03*
%TO.P,D24,3,DI*%
%TO.N,Net-(D23-DO)*%
X67915000Y-55050000D03*
%TO.P,D24,4,VDD*%
%TO.N,+5V*%
X67915000Y-53950000D03*
%TD*%
%TO.P,D49,1,DO*%
%TO.N,Net-(D49-DO)*%
X85915000Y-58050000D03*
%TO.P,D49,2,GND*%
%TO.N,GND*%
X85915000Y-56950000D03*
%TO.P,D49,3,DI*%
%TO.N,Net-(D48-DO)*%
X84085000Y-56950000D03*
%TO.P,D49,4,VDD*%
%TO.N,+5V*%
X84085000Y-58050000D03*
%TD*%
%TO.P,D64,1,DO*%
%TO.N,Net-(D64-DO)*%
X42085000Y-59950000D03*
%TO.P,D64,2,GND*%
%TO.N,GND*%
X42085000Y-61050000D03*
%TO.P,D64,3,DI*%
%TO.N,Net-(D63-DO)*%
X43915000Y-61050000D03*
%TO.P,D64,4,VDD*%
%TO.N,+5V*%
X43915000Y-59950000D03*
%TD*%
%TO.P,D31,1,DO*%
%TO.N,Net-(D31-DO)*%
X45085000Y-53950000D03*
%TO.P,D31,2,GND*%
%TO.N,GND*%
X45085000Y-55050000D03*
%TO.P,D31,3,DI*%
%TO.N,Net-(D30-DO)*%
X46915000Y-55050000D03*
%TO.P,D31,4,VDD*%
%TO.N,+5V*%
X46915000Y-53950000D03*
%TD*%
%TO.P,D73,1,DO*%
%TO.N,Net-(D73-DO)*%
X61915000Y-64050000D03*
%TO.P,D73,2,GND*%
%TO.N,GND*%
X61915000Y-62950000D03*
%TO.P,D73,3,DI*%
%TO.N,Net-(D72-DO)*%
X60085000Y-62950000D03*
%TO.P,D73,4,VDD*%
%TO.N,+5V*%
X60085000Y-64050000D03*
%TD*%
%TO.P,D153,1,DO*%
%TO.N,Net-(D153-DO)*%
X63085000Y-77950000D03*
%TO.P,D153,2,GND*%
%TO.N,GND*%
X63085000Y-79050000D03*
%TO.P,D153,3,DI*%
%TO.N,Net-(D152-DO)*%
X64915000Y-79050000D03*
%TO.P,D153,4,VDD*%
%TO.N,+5V*%
X64915000Y-77950000D03*
%TD*%
%TO.P,D210,1,DO*%
%TO.N,Net-(D210-DO)*%
X84085000Y-89950000D03*
%TO.P,D210,2,GND*%
%TO.N,GND*%
X84085000Y-91050000D03*
%TO.P,D210,3,DI*%
%TO.N,Net-(D209-DO)*%
X85915000Y-91050000D03*
%TO.P,D210,4,VDD*%
%TO.N,+5V*%
X85915000Y-89950000D03*
%TD*%
%TO.P,D209,1,DO*%
%TO.N,Net-(D209-DO)*%
X85915000Y-88050000D03*
%TO.P,D209,2,GND*%
%TO.N,GND*%
X85915000Y-86950000D03*
%TO.P,D209,3,DI*%
%TO.N,Net-(D208-DO)*%
X84085000Y-86950000D03*
%TO.P,D209,4,VDD*%
%TO.N,+5V*%
X84085000Y-88050000D03*
%TD*%
%TO.P,D77,1,DO*%
%TO.N,Net-(D77-DO)*%
X73915000Y-64050000D03*
%TO.P,D77,2,GND*%
%TO.N,GND*%
X73915000Y-62950000D03*
%TO.P,D77,3,DI*%
%TO.N,Net-(D76-DO)*%
X72085000Y-62950000D03*
%TO.P,D77,4,VDD*%
%TO.N,+5V*%
X72085000Y-64050000D03*
%TD*%
%TO.P,D221,1,DO*%
%TO.N,Net-(D221-DO)*%
X51085000Y-89950000D03*
%TO.P,D221,2,GND*%
%TO.N,GND*%
X51085000Y-91050000D03*
%TO.P,D221,3,DI*%
%TO.N,Net-(D220-DO)*%
X52915000Y-91050000D03*
%TO.P,D221,4,VDD*%
%TO.N,+5V*%
X52915000Y-89950000D03*
%TD*%
%TO.P,D197,1,DO*%
%TO.N,Net-(D197-DO)*%
X49915000Y-88050000D03*
%TO.P,D197,2,GND*%
%TO.N,GND*%
X49915000Y-86950000D03*
%TO.P,D197,3,DI*%
%TO.N,Net-(D196-DO)*%
X48085000Y-86950000D03*
%TO.P,D197,4,VDD*%
%TO.N,+5V*%
X48085000Y-88050000D03*
%TD*%
%TO.P,D45,1,DO*%
%TO.N,Net-(D45-DO)*%
X73915000Y-58050000D03*
%TO.P,D45,2,GND*%
%TO.N,GND*%
X73915000Y-56950000D03*
%TO.P,D45,3,DI*%
%TO.N,Net-(D44-DO)*%
X72085000Y-56950000D03*
%TO.P,D45,4,VDD*%
%TO.N,+5V*%
X72085000Y-58050000D03*
%TD*%
%TO.P,D180,1,DO*%
%TO.N,Net-(D180-DO)*%
X78085000Y-83950000D03*
%TO.P,D180,2,GND*%
%TO.N,GND*%
X78085000Y-85050000D03*
%TO.P,D180,3,DI*%
%TO.N,Net-(D179-DO)*%
X79915000Y-85050000D03*
%TO.P,D180,4,VDD*%
%TO.N,+5V*%
X79915000Y-83950000D03*
%TD*%
%TO.P,D38,1,DO*%
%TO.N,Net-(D38-DO)*%
X52915000Y-58050000D03*
%TO.P,D38,2,GND*%
%TO.N,GND*%
X52915000Y-56950000D03*
%TO.P,D38,3,DI*%
%TO.N,Net-(D37-DO)*%
X51085000Y-56950000D03*
%TO.P,D38,4,VDD*%
%TO.N,+5V*%
X51085000Y-58050000D03*
%TD*%
%TO.P,D112,1,DO*%
%TO.N,Net-(D112-DO)*%
X82915000Y-70050000D03*
%TO.P,D112,2,GND*%
%TO.N,GND*%
X82915000Y-68950000D03*
%TO.P,D112,3,DI*%
%TO.N,Net-(D111-DO)*%
X81085000Y-68950000D03*
%TO.P,D112,4,VDD*%
%TO.N,+5V*%
X81085000Y-70050000D03*
%TD*%
%TO.P,D94,1,DO*%
%TO.N,Net-(D94-DO)*%
X48085000Y-65950000D03*
%TO.P,D94,2,GND*%
%TO.N,GND*%
X48085000Y-67050000D03*
%TO.P,D94,3,DI*%
%TO.N,Net-(D93-DO)*%
X49915000Y-67050000D03*
%TO.P,D94,4,VDD*%
%TO.N,+5V*%
X49915000Y-65950000D03*
%TD*%
%TO.P,D160,1,DO*%
%TO.N,Net-(D160-DO)*%
X42085000Y-77950000D03*
%TO.P,D160,2,GND*%
%TO.N,GND*%
X42085000Y-79050000D03*
%TO.P,D160,3,DI*%
%TO.N,Net-(D159-DO)*%
X43915000Y-79050000D03*
%TO.P,D160,4,VDD*%
%TO.N,+5V*%
X43915000Y-77950000D03*
%TD*%
%TO.P,D7,1,DO*%
%TO.N,Net-(D7-DO)*%
X55915000Y-52050000D03*
%TO.P,D7,2,GND*%
%TO.N,GND*%
X55915000Y-50950000D03*
%TO.P,D7,3,DI*%
%TO.N,Net-(D6-DO)*%
X54085000Y-50950000D03*
%TO.P,D7,4,VDD*%
%TO.N,+5V*%
X54085000Y-52050000D03*
%TD*%
%TO.P,D175,1,DO*%
%TO.N,Net-(D175-DO)*%
X79915000Y-82050000D03*
%TO.P,D175,2,GND*%
%TO.N,GND*%
X79915000Y-80950000D03*
%TO.P,D175,3,DI*%
%TO.N,Net-(D174-DO)*%
X78085000Y-80950000D03*
%TO.P,D175,4,VDD*%
%TO.N,+5V*%
X78085000Y-82050000D03*
%TD*%
%TO.P,D185,1,DO*%
%TO.N,Net-(D185-DO)*%
X63085000Y-83950000D03*
%TO.P,D185,2,GND*%
%TO.N,GND*%
X63085000Y-85050000D03*
%TO.P,D185,3,DI*%
%TO.N,Net-(D184-DO)*%
X64915000Y-85050000D03*
%TO.P,D185,4,VDD*%
%TO.N,+5V*%
X64915000Y-83950000D03*
%TD*%
%TO.P,D23,1,DO*%
%TO.N,Net-(D23-DO)*%
X69085000Y-53950000D03*
%TO.P,D23,2,GND*%
%TO.N,GND*%
X69085000Y-55050000D03*
%TO.P,D23,3,DI*%
%TO.N,Net-(D22-DO)*%
X70915000Y-55050000D03*
%TO.P,D23,4,VDD*%
%TO.N,+5V*%
X70915000Y-53950000D03*
%TD*%
%TO.P,D241,1,DO*%
%TO.N,Net-(D241-DO)*%
X85915000Y-94050000D03*
%TO.P,D241,2,GND*%
%TO.N,GND*%
X85915000Y-92950000D03*
%TO.P,D241,3,DI*%
%TO.N,Net-(D240-DO)*%
X84085000Y-92950000D03*
%TO.P,D241,4,VDD*%
%TO.N,+5V*%
X84085000Y-94050000D03*
%TD*%
%TO.P,D40,1,DO*%
%TO.N,Net-(D40-DO)*%
X58915000Y-58050000D03*
%TO.P,D40,2,GND*%
%TO.N,GND*%
X58915000Y-56950000D03*
%TO.P,D40,3,DI*%
%TO.N,Net-(D39-DO)*%
X57085000Y-56950000D03*
%TO.P,D40,4,VDD*%
%TO.N,+5V*%
X57085000Y-58050000D03*
%TD*%
%TO.P,D61,1,DO*%
%TO.N,Net-(D61-DO)*%
X51085000Y-59950000D03*
%TO.P,D61,2,GND*%
%TO.N,GND*%
X51085000Y-61050000D03*
%TO.P,D61,3,DI*%
%TO.N,Net-(D60-DO)*%
X52915000Y-61050000D03*
%TO.P,D61,4,VDD*%
%TO.N,+5V*%
X52915000Y-59950000D03*
%TD*%
%TO.P,D72,1,DO*%
%TO.N,Net-(D72-DO)*%
X58915000Y-64050000D03*
%TO.P,D72,2,GND*%
%TO.N,GND*%
X58915000Y-62950000D03*
%TO.P,D72,3,DI*%
%TO.N,Net-(D71-DO)*%
X57085000Y-62950000D03*
%TO.P,D72,4,VDD*%
%TO.N,+5V*%
X57085000Y-64050000D03*
%TD*%
%TO.P,D67,1,DO*%
%TO.N,Net-(D67-DO)*%
X43915000Y-64050000D03*
%TO.P,D67,2,GND*%
%TO.N,GND*%
X43915000Y-62950000D03*
%TO.P,D67,3,DI*%
%TO.N,Net-(D66-DO)*%
X42085000Y-62950000D03*
%TO.P,D67,4,VDD*%
%TO.N,+5V*%
X42085000Y-64050000D03*
%TD*%
%TO.P,D62,1,DO*%
%TO.N,Net-(D62-DO)*%
X48085000Y-59950000D03*
%TO.P,D62,2,GND*%
%TO.N,GND*%
X48085000Y-61050000D03*
%TO.P,D62,3,DI*%
%TO.N,Net-(D61-DO)*%
X49915000Y-61050000D03*
%TO.P,D62,4,VDD*%
%TO.N,+5V*%
X49915000Y-59950000D03*
%TD*%
%TO.P,D201,1,DO*%
%TO.N,Net-(D201-DO)*%
X61915000Y-88050000D03*
%TO.P,D201,2,GND*%
%TO.N,GND*%
X61915000Y-86950000D03*
%TO.P,D201,3,DI*%
%TO.N,Net-(D200-DO)*%
X60085000Y-86950000D03*
%TO.P,D201,4,VDD*%
%TO.N,+5V*%
X60085000Y-88050000D03*
%TD*%
%TO.P,D188,1,DO*%
%TO.N,Net-(D188-DO)*%
X54085000Y-83950000D03*
%TO.P,D188,2,GND*%
%TO.N,GND*%
X54085000Y-85050000D03*
%TO.P,D188,3,DI*%
%TO.N,Net-(D187-DO)*%
X55915000Y-85050000D03*
%TO.P,D188,4,VDD*%
%TO.N,+5V*%
X55915000Y-83950000D03*
%TD*%
%TO.P,D33,1,DO*%
%TO.N,Net-(D33-DO)*%
X39085000Y-53950000D03*
%TO.P,D33,2,GND*%
%TO.N,GND*%
X39085000Y-55050000D03*
%TO.P,D33,3,DI*%
%TO.N,Net-(D32-DO)*%
X40915000Y-55050000D03*
%TO.P,D33,4,VDD*%
%TO.N,+5V*%
X40915000Y-53950000D03*
%TD*%
%TO.P,D167,1,DO*%
%TO.N,Net-(D167-DO)*%
X55915000Y-82050000D03*
%TO.P,D167,2,GND*%
%TO.N,GND*%
X55915000Y-80950000D03*
%TO.P,D167,3,DI*%
%TO.N,Net-(D166-DO)*%
X54085000Y-80950000D03*
%TO.P,D167,4,VDD*%
%TO.N,+5V*%
X54085000Y-82050000D03*
%TD*%
%TO.P,D131,1,DO*%
%TO.N,Net-(D131-DO)*%
X43915000Y-76050000D03*
%TO.P,D131,2,GND*%
%TO.N,GND*%
X43915000Y-74950000D03*
%TO.P,D131,3,DI*%
%TO.N,Net-(D130-DO)*%
X42085000Y-74950000D03*
%TO.P,D131,4,VDD*%
%TO.N,+5V*%
X42085000Y-76050000D03*
%TD*%
%TO.P,D79,1,DO*%
%TO.N,Net-(D79-DO)*%
X79915000Y-64050000D03*
%TO.P,D79,2,GND*%
%TO.N,GND*%
X79915000Y-62950000D03*
%TO.P,D79,3,DI*%
%TO.N,Net-(D78-DO)*%
X78085000Y-62950000D03*
%TO.P,D79,4,VDD*%
%TO.N,+5V*%
X78085000Y-64050000D03*
%TD*%
%TO.P,D254,1,DO*%
%TO.N,Net-(D254-DO)*%
X48085000Y-95950000D03*
%TO.P,D254,2,GND*%
%TO.N,GND*%
X48085000Y-97050000D03*
%TO.P,D254,3,DI*%
%TO.N,Net-(D253-DO)*%
X49915000Y-97050000D03*
%TO.P,D254,4,VDD*%
%TO.N,+5V*%
X49915000Y-95950000D03*
%TD*%
%TO.P,D242,1,DO*%
%TO.N,Net-(D242-DO)*%
X84085000Y-95950000D03*
%TO.P,D242,2,GND*%
%TO.N,GND*%
X84085000Y-97050000D03*
%TO.P,D242,3,DI*%
%TO.N,Net-(D241-DO)*%
X85915000Y-97050000D03*
%TO.P,D242,4,VDD*%
%TO.N,+5V*%
X85915000Y-95950000D03*
%TD*%
%TO.P,D243,1,DO*%
%TO.N,Net-(D243-DO)*%
X81085000Y-95950000D03*
%TO.P,D243,2,GND*%
%TO.N,GND*%
X81085000Y-97050000D03*
%TO.P,D243,3,DI*%
%TO.N,Net-(D242-DO)*%
X82915000Y-97050000D03*
%TO.P,D243,4,VDD*%
%TO.N,+5V*%
X82915000Y-95950000D03*
%TD*%
%TO.P,D149,1,DO*%
%TO.N,Net-(D149-DO)*%
X75085000Y-77950000D03*
%TO.P,D149,2,GND*%
%TO.N,GND*%
X75085000Y-79050000D03*
%TO.P,D149,3,DI*%
%TO.N,Net-(D148-DO)*%
X76915000Y-79050000D03*
%TO.P,D149,4,VDD*%
%TO.N,+5V*%
X76915000Y-77950000D03*
%TD*%
%TO.P,D203,1,DO*%
%TO.N,Net-(D203-DO)*%
X67915000Y-88050000D03*
%TO.P,D203,2,GND*%
%TO.N,GND*%
X67915000Y-86950000D03*
%TO.P,D203,3,DI*%
%TO.N,Net-(D202-DO)*%
X66085000Y-86950000D03*
%TO.P,D203,4,VDD*%
%TO.N,+5V*%
X66085000Y-88050000D03*
%TD*%
%TO.P,D148,1,DO*%
%TO.N,Net-(D148-DO)*%
X78085000Y-77950000D03*
%TO.P,D148,2,GND*%
%TO.N,GND*%
X78085000Y-79050000D03*
%TO.P,D148,3,DI*%
%TO.N,Net-(D147-DO)*%
X79915000Y-79050000D03*
%TO.P,D148,4,VDD*%
%TO.N,+5V*%
X79915000Y-77950000D03*
%TD*%
%TO.P,D252,1,DO*%
%TO.N,Net-(D252-DO)*%
X54085000Y-95950000D03*
%TO.P,D252,2,GND*%
%TO.N,GND*%
X54085000Y-97050000D03*
%TO.P,D252,3,DI*%
%TO.N,Net-(D251-DO)*%
X55915000Y-97050000D03*
%TO.P,D252,4,VDD*%
%TO.N,+5V*%
X55915000Y-95950000D03*
%TD*%
%TO.P,D196,1,DO*%
%TO.N,Net-(D196-DO)*%
X46915000Y-88050000D03*
%TO.P,D196,2,GND*%
%TO.N,GND*%
X46915000Y-86950000D03*
%TO.P,D196,3,DI*%
%TO.N,Net-(D195-DO)*%
X45085000Y-86950000D03*
%TO.P,D196,4,VDD*%
%TO.N,+5V*%
X45085000Y-88050000D03*
%TD*%
%TO.P,D52,1,DO*%
%TO.N,Net-(D52-DO)*%
X78085000Y-59950000D03*
%TO.P,D52,2,GND*%
%TO.N,GND*%
X78085000Y-61050000D03*
%TO.P,D52,3,DI*%
%TO.N,Net-(D51-DO)*%
X79915000Y-61050000D03*
%TO.P,D52,4,VDD*%
%TO.N,+5V*%
X79915000Y-59950000D03*
%TD*%
%TO.P,D255,1,DO*%
%TO.N,Net-(D255-DO)*%
X45085000Y-95950000D03*
%TO.P,D255,2,GND*%
%TO.N,GND*%
X45085000Y-97050000D03*
%TO.P,D255,3,DI*%
%TO.N,Net-(D254-DO)*%
X46915000Y-97050000D03*
%TO.P,D255,4,VDD*%
%TO.N,+5V*%
X46915000Y-95950000D03*
%TD*%
%TO.P,D187,1,DO*%
%TO.N,Net-(D187-DO)*%
X57085000Y-83950000D03*
%TO.P,D187,2,GND*%
%TO.N,GND*%
X57085000Y-85050000D03*
%TO.P,D187,3,DI*%
%TO.N,Net-(D186-DO)*%
X58915000Y-85050000D03*
%TO.P,D187,4,VDD*%
%TO.N,+5V*%
X58915000Y-83950000D03*
%TD*%
%TO.P,D229,1,DO*%
%TO.N,Net-(D229-DO)*%
X49915000Y-94050000D03*
%TO.P,D229,2,GND*%
%TO.N,GND*%
X49915000Y-92950000D03*
%TO.P,D229,3,DI*%
%TO.N,Net-(D228-DO)*%
X48085000Y-92950000D03*
%TO.P,D229,4,VDD*%
%TO.N,+5V*%
X48085000Y-94050000D03*
%TD*%
%TO.P,D157,1,DO*%
%TO.N,Net-(D157-DO)*%
X51085000Y-77950000D03*
%TO.P,D157,2,GND*%
%TO.N,GND*%
X51085000Y-79050000D03*
%TO.P,D157,3,DI*%
%TO.N,Net-(D156-DO)*%
X52915000Y-79050000D03*
%TO.P,D157,4,VDD*%
%TO.N,+5V*%
X52915000Y-77950000D03*
%TD*%
%TO.P,D50,1,DO*%
%TO.N,Net-(D50-DO)*%
X84085000Y-59950000D03*
%TO.P,D50,2,GND*%
%TO.N,GND*%
X84085000Y-61050000D03*
%TO.P,D50,3,DI*%
%TO.N,Net-(D49-DO)*%
X85915000Y-61050000D03*
%TO.P,D50,4,VDD*%
%TO.N,+5V*%
X85915000Y-59950000D03*
%TD*%
%TO.P,D46,1,DO*%
%TO.N,Net-(D46-DO)*%
X76915000Y-58050000D03*
%TO.P,D46,2,GND*%
%TO.N,GND*%
X76915000Y-56950000D03*
%TO.P,D46,3,DI*%
%TO.N,Net-(D45-DO)*%
X75085000Y-56950000D03*
%TO.P,D46,4,VDD*%
%TO.N,+5V*%
X75085000Y-58050000D03*
%TD*%
%TO.P,D54,1,DO*%
%TO.N,Net-(D54-DO)*%
X72085000Y-59950000D03*
%TO.P,D54,2,GND*%
%TO.N,GND*%
X72085000Y-61050000D03*
%TO.P,D54,3,DI*%
%TO.N,Net-(D53-DO)*%
X73915000Y-61050000D03*
%TO.P,D54,4,VDD*%
%TO.N,+5V*%
X73915000Y-59950000D03*
%TD*%
%TO.P,D15,1,DO*%
%TO.N,Net-(D15-DO)*%
X79915000Y-52050000D03*
%TO.P,D15,2,GND*%
%TO.N,GND*%
X79915000Y-50950000D03*
%TO.P,D15,3,DI*%
%TO.N,Net-(D14-DO)*%
X78085000Y-50950000D03*
%TO.P,D15,4,VDD*%
%TO.N,+5V*%
X78085000Y-52050000D03*
%TD*%
%TO.P,D41,1,DO*%
%TO.N,Net-(D41-DO)*%
X61915000Y-58050000D03*
%TO.P,D41,2,GND*%
%TO.N,GND*%
X61915000Y-56950000D03*
%TO.P,D41,3,DI*%
%TO.N,Net-(D40-DO)*%
X60085000Y-56950000D03*
%TO.P,D41,4,VDD*%
%TO.N,+5V*%
X60085000Y-58050000D03*
%TD*%
%TO.P,D199,1,DO*%
%TO.N,Net-(D199-DO)*%
X55915000Y-88050000D03*
%TO.P,D199,2,GND*%
%TO.N,GND*%
X55915000Y-86950000D03*
%TO.P,D199,3,DI*%
%TO.N,Net-(D198-DO)*%
X54085000Y-86950000D03*
%TO.P,D199,4,VDD*%
%TO.N,+5V*%
X54085000Y-88050000D03*
%TD*%
%TO.P,D128,1,DO*%
%TO.N,Net-(D128-DO)*%
X42085000Y-71950000D03*
%TO.P,D128,2,GND*%
%TO.N,GND*%
X42085000Y-73050000D03*
%TO.P,D128,3,DI*%
%TO.N,Net-(D127-DO)*%
X43915000Y-73050000D03*
%TO.P,D128,4,VDD*%
%TO.N,+5V*%
X43915000Y-71950000D03*
%TD*%
%TO.P,D32,1,DO*%
%TO.N,Net-(D32-DO)*%
X42085000Y-53950000D03*
%TO.P,D32,2,GND*%
%TO.N,GND*%
X42085000Y-55050000D03*
%TO.P,D32,3,DI*%
%TO.N,Net-(D31-DO)*%
X43915000Y-55050000D03*
%TO.P,D32,4,VDD*%
%TO.N,+5V*%
X43915000Y-53950000D03*
%TD*%
%TO.P,D47,1,DO*%
%TO.N,Net-(D47-DO)*%
X79915000Y-58050000D03*
%TO.P,D47,2,GND*%
%TO.N,GND*%
X79915000Y-56950000D03*
%TO.P,D47,3,DI*%
%TO.N,Net-(D46-DO)*%
X78085000Y-56950000D03*
%TO.P,D47,4,VDD*%
%TO.N,+5V*%
X78085000Y-58050000D03*
%TD*%
%TO.P,D29,1,DO*%
%TO.N,Net-(D29-DO)*%
X51085000Y-53950000D03*
%TO.P,D29,2,GND*%
%TO.N,GND*%
X51085000Y-55050000D03*
%TO.P,D29,3,DI*%
%TO.N,Net-(D28-DO)*%
X52915000Y-55050000D03*
%TO.P,D29,4,VDD*%
%TO.N,+5V*%
X52915000Y-53950000D03*
%TD*%
%TO.P,D154,1,DO*%
%TO.N,Net-(D154-DO)*%
X60085000Y-77950000D03*
%TO.P,D154,2,GND*%
%TO.N,GND*%
X60085000Y-79050000D03*
%TO.P,D154,3,DI*%
%TO.N,Net-(D153-DO)*%
X61915000Y-79050000D03*
%TO.P,D154,4,VDD*%
%TO.N,+5V*%
X61915000Y-77950000D03*
%TD*%
%TO.P,D102,1,DO*%
%TO.N,Net-(D102-DO)*%
X52915000Y-70050000D03*
%TO.P,D102,2,GND*%
%TO.N,GND*%
X52915000Y-68950000D03*
%TO.P,D102,3,DI*%
%TO.N,Net-(D101-DO)*%
X51085000Y-68950000D03*
%TO.P,D102,4,VDD*%
%TO.N,+5V*%
X51085000Y-70050000D03*
%TD*%
%TO.P,D30,1,DO*%
%TO.N,Net-(D30-DO)*%
X48085000Y-53950000D03*
%TO.P,D30,2,GND*%
%TO.N,GND*%
X48085000Y-55050000D03*
%TO.P,D30,3,DI*%
%TO.N,Net-(D29-DO)*%
X49915000Y-55050000D03*
%TO.P,D30,4,VDD*%
%TO.N,+5V*%
X49915000Y-53950000D03*
%TD*%
%TO.P,D12,1,DO*%
%TO.N,Net-(D12-DO)*%
X70915000Y-52050000D03*
%TO.P,D12,2,GND*%
%TO.N,GND*%
X70915000Y-50950000D03*
%TO.P,D12,3,DI*%
%TO.N,Net-(D11-DO)*%
X69085000Y-50950000D03*
%TO.P,D12,4,VDD*%
%TO.N,+5V*%
X69085000Y-52050000D03*
%TD*%
%TO.P,D177,1,DO*%
%TO.N,Net-(D177-DO)*%
X85915000Y-82050000D03*
%TO.P,D177,2,GND*%
%TO.N,GND*%
X85915000Y-80950000D03*
%TO.P,D177,3,DI*%
%TO.N,Net-(D176-DO)*%
X84085000Y-80950000D03*
%TO.P,D177,4,VDD*%
%TO.N,+5V*%
X84085000Y-82050000D03*
%TD*%
%TO.P,D235,1,DO*%
%TO.N,Net-(D235-DO)*%
X67915000Y-94050000D03*
%TO.P,D235,2,GND*%
%TO.N,GND*%
X67915000Y-92950000D03*
%TO.P,D235,3,DI*%
%TO.N,Net-(D234-DO)*%
X66085000Y-92950000D03*
%TO.P,D235,4,VDD*%
%TO.N,+5V*%
X66085000Y-94050000D03*
%TD*%
%TO.P,D57,1,DO*%
%TO.N,Net-(D57-DO)*%
X63085000Y-59950000D03*
%TO.P,D57,2,GND*%
%TO.N,GND*%
X63085000Y-61050000D03*
%TO.P,D57,3,DI*%
%TO.N,Net-(D56-DO)*%
X64915000Y-61050000D03*
%TO.P,D57,4,VDD*%
%TO.N,+5V*%
X64915000Y-59950000D03*
%TD*%
%TO.P,D48,1,DO*%
%TO.N,Net-(D48-DO)*%
X82915000Y-58050000D03*
%TO.P,D48,2,GND*%
%TO.N,GND*%
X82915000Y-56950000D03*
%TO.P,D48,3,DI*%
%TO.N,Net-(D47-DO)*%
X81085000Y-56950000D03*
%TO.P,D48,4,VDD*%
%TO.N,+5V*%
X81085000Y-58050000D03*
%TD*%
%TO.P,D174,1,DO*%
%TO.N,Net-(D174-DO)*%
X76915000Y-82050000D03*
%TO.P,D174,2,GND*%
%TO.N,GND*%
X76915000Y-80950000D03*
%TO.P,D174,3,DI*%
%TO.N,Net-(D173-DO)*%
X75085000Y-80950000D03*
%TO.P,D174,4,VDD*%
%TO.N,+5V*%
X75085000Y-82050000D03*
%TD*%
%TO.P,D68,1,DO*%
%TO.N,Net-(D68-DO)*%
X46915000Y-64050000D03*
%TO.P,D68,2,GND*%
%TO.N,GND*%
X46915000Y-62950000D03*
%TO.P,D68,3,DI*%
%TO.N,Net-(D67-DO)*%
X45085000Y-62950000D03*
%TO.P,D68,4,VDD*%
%TO.N,+5V*%
X45085000Y-64050000D03*
%TD*%
%TO.P,D134,1,DO*%
%TO.N,Net-(D134-DO)*%
X52915000Y-76050000D03*
%TO.P,D134,2,GND*%
%TO.N,GND*%
X52915000Y-74950000D03*
%TO.P,D134,3,DI*%
%TO.N,Net-(D133-DO)*%
X51085000Y-74950000D03*
%TO.P,D134,4,VDD*%
%TO.N,+5V*%
X51085000Y-76050000D03*
%TD*%
%TO.P,D98,1,DO*%
%TO.N,Net-(D98-DO)*%
X40915000Y-70050000D03*
%TO.P,D98,2,GND*%
%TO.N,GND*%
X40915000Y-68950000D03*
%TO.P,D98,3,DI*%
%TO.N,Net-(D97-DO)*%
X39085000Y-68950000D03*
%TO.P,D98,4,VDD*%
%TO.N,+5V*%
X39085000Y-70050000D03*
%TD*%
%TO.P,D226,1,DO*%
%TO.N,Net-(D226-DO)*%
X40915000Y-94050000D03*
%TO.P,D226,2,GND*%
%TO.N,GND*%
X40915000Y-92950000D03*
%TO.P,D226,3,DI*%
%TO.N,Net-(D225-DO)*%
X39085000Y-92950000D03*
%TO.P,D226,4,VDD*%
%TO.N,+5V*%
X39085000Y-94050000D03*
%TD*%
%TO.P,D227,1,DO*%
%TO.N,Net-(D227-DO)*%
X43915000Y-94050000D03*
%TO.P,D227,2,GND*%
%TO.N,GND*%
X43915000Y-92950000D03*
%TO.P,D227,3,DI*%
%TO.N,Net-(D226-DO)*%
X42085000Y-92950000D03*
%TO.P,D227,4,VDD*%
%TO.N,+5V*%
X42085000Y-94050000D03*
%TD*%
%TO.P,D135,1,DO*%
%TO.N,Net-(D135-DO)*%
X55915000Y-76050000D03*
%TO.P,D135,2,GND*%
%TO.N,GND*%
X55915000Y-74950000D03*
%TO.P,D135,3,DI*%
%TO.N,Net-(D134-DO)*%
X54085000Y-74950000D03*
%TO.P,D135,4,VDD*%
%TO.N,+5V*%
X54085000Y-76050000D03*
%TD*%
%TO.P,D4,1,DO*%
%TO.N,Net-(D4-DO)*%
X46915000Y-52050000D03*
%TO.P,D4,2,GND*%
%TO.N,GND*%
X46915000Y-50950000D03*
%TO.P,D4,3,DI*%
%TO.N,Net-(D3-DO)*%
X45085000Y-50950000D03*
%TO.P,D4,4,VDD*%
%TO.N,+5V*%
X45085000Y-52050000D03*
%TD*%
%TO.P,D16,1,DO*%
%TO.N,Net-(D16-DO)*%
X82915000Y-52050000D03*
%TO.P,D16,2,GND*%
%TO.N,GND*%
X82915000Y-50950000D03*
%TO.P,D16,3,DI*%
%TO.N,Net-(D15-DO)*%
X81085000Y-50950000D03*
%TO.P,D16,4,VDD*%
%TO.N,+5V*%
X81085000Y-52050000D03*
%TD*%
%TO.P,D53,1,DO*%
%TO.N,Net-(D53-DO)*%
X75085000Y-59950000D03*
%TO.P,D53,2,GND*%
%TO.N,GND*%
X75085000Y-61050000D03*
%TO.P,D53,3,DI*%
%TO.N,Net-(D52-DO)*%
X76915000Y-61050000D03*
%TO.P,D53,4,VDD*%
%TO.N,+5V*%
X76915000Y-59950000D03*
%TD*%
%TO.P,D92,1,DO*%
%TO.N,Net-(D92-DO)*%
X54085000Y-65950000D03*
%TO.P,D92,2,GND*%
%TO.N,GND*%
X54085000Y-67050000D03*
%TO.P,D92,3,DI*%
%TO.N,Net-(D91-DO)*%
X55915000Y-67050000D03*
%TO.P,D92,4,VDD*%
%TO.N,+5V*%
X55915000Y-65950000D03*
%TD*%
%TO.P,D21,1,DO*%
%TO.N,Net-(D21-DO)*%
X75085000Y-53950000D03*
%TO.P,D21,2,GND*%
%TO.N,GND*%
X75085000Y-55050000D03*
%TO.P,D21,3,DI*%
%TO.N,Net-(D20-DO)*%
X76915000Y-55050000D03*
%TO.P,D21,4,VDD*%
%TO.N,+5V*%
X76915000Y-53950000D03*
%TD*%
%TO.P,D71,1,DO*%
%TO.N,Net-(D71-DO)*%
X55915000Y-64050000D03*
%TO.P,D71,2,GND*%
%TO.N,GND*%
X55915000Y-62950000D03*
%TO.P,D71,3,DI*%
%TO.N,Net-(D70-DO)*%
X54085000Y-62950000D03*
%TO.P,D71,4,VDD*%
%TO.N,+5V*%
X54085000Y-64050000D03*
%TD*%
%TO.P,D236,1,DO*%
%TO.N,Net-(D236-DO)*%
X70915000Y-94050000D03*
%TO.P,D236,2,GND*%
%TO.N,GND*%
X70915000Y-92950000D03*
%TO.P,D236,3,DI*%
%TO.N,Net-(D235-DO)*%
X69085000Y-92950000D03*
%TO.P,D236,4,VDD*%
%TO.N,+5V*%
X69085000Y-94050000D03*
%TD*%
%TO.P,D6,1,DO*%
%TO.N,Net-(D6-DO)*%
X52915000Y-52050000D03*
%TO.P,D6,2,GND*%
%TO.N,GND*%
X52915000Y-50950000D03*
%TO.P,D6,3,DI*%
%TO.N,Net-(D5-DO)*%
X51085000Y-50950000D03*
%TO.P,D6,4,VDD*%
%TO.N,+5V*%
X51085000Y-52050000D03*
%TD*%
%TO.P,D166,1,DO*%
%TO.N,Net-(D166-DO)*%
X52915000Y-82050000D03*
%TO.P,D166,2,GND*%
%TO.N,GND*%
X52915000Y-80950000D03*
%TO.P,D166,3,DI*%
%TO.N,Net-(D165-DO)*%
X51085000Y-80950000D03*
%TO.P,D166,4,VDD*%
%TO.N,+5V*%
X51085000Y-82050000D03*
%TD*%
%TO.P,D59,1,DO*%
%TO.N,Net-(D59-DO)*%
X57085000Y-59950000D03*
%TO.P,D59,2,GND*%
%TO.N,GND*%
X57085000Y-61050000D03*
%TO.P,D59,3,DI*%
%TO.N,Net-(D58-DO)*%
X58915000Y-61050000D03*
%TO.P,D59,4,VDD*%
%TO.N,+5V*%
X58915000Y-59950000D03*
%TD*%
%TO.P,D85,1,DO*%
%TO.N,Net-(D85-DO)*%
X75085000Y-65950000D03*
%TO.P,D85,2,GND*%
%TO.N,GND*%
X75085000Y-67050000D03*
%TO.P,D85,3,DI*%
%TO.N,Net-(D84-DO)*%
X76915000Y-67050000D03*
%TO.P,D85,4,VDD*%
%TO.N,+5V*%
X76915000Y-65950000D03*
%TD*%
%TO.P,D172,1,DO*%
%TO.N,Net-(D172-DO)*%
X70915000Y-82050000D03*
%TO.P,D172,2,GND*%
%TO.N,GND*%
X70915000Y-80950000D03*
%TO.P,D172,3,DI*%
%TO.N,Net-(D171-DO)*%
X69085000Y-80950000D03*
%TO.P,D172,4,VDD*%
%TO.N,+5V*%
X69085000Y-82050000D03*
%TD*%
%TO.P,D105,1,DO*%
%TO.N,Net-(D105-DO)*%
X61915000Y-70050000D03*
%TO.P,D105,2,GND*%
%TO.N,GND*%
X61915000Y-68950000D03*
%TO.P,D105,3,DI*%
%TO.N,Net-(D104-DO)*%
X60085000Y-68950000D03*
%TO.P,D105,4,VDD*%
%TO.N,+5V*%
X60085000Y-70050000D03*
%TD*%
%TO.P,D136,1,DO*%
%TO.N,Net-(D136-DO)*%
X58915000Y-76050000D03*
%TO.P,D136,2,GND*%
%TO.N,GND*%
X58915000Y-74950000D03*
%TO.P,D136,3,DI*%
%TO.N,Net-(D135-DO)*%
X57085000Y-74950000D03*
%TO.P,D136,4,VDD*%
%TO.N,+5V*%
X57085000Y-76050000D03*
%TD*%
%TO.P,D124,1,DO*%
%TO.N,Net-(D124-DO)*%
X54085000Y-71950000D03*
%TO.P,D124,2,GND*%
%TO.N,GND*%
X54085000Y-73050000D03*
%TO.P,D124,3,DI*%
%TO.N,Net-(D123-DO)*%
X55915000Y-73050000D03*
%TO.P,D124,4,VDD*%
%TO.N,+5V*%
X55915000Y-71950000D03*
%TD*%
%TO.P,D147,1,DO*%
%TO.N,Net-(D147-DO)*%
X81085000Y-77950000D03*
%TO.P,D147,2,GND*%
%TO.N,GND*%
X81085000Y-79050000D03*
%TO.P,D147,3,DI*%
%TO.N,Net-(D146-DO)*%
X82915000Y-79050000D03*
%TO.P,D147,4,VDD*%
%TO.N,+5V*%
X82915000Y-77950000D03*
%TD*%
%TO.P,D198,1,DO*%
%TO.N,Net-(D198-DO)*%
X52915000Y-88050000D03*
%TO.P,D198,2,GND*%
%TO.N,GND*%
X52915000Y-86950000D03*
%TO.P,D198,3,DI*%
%TO.N,Net-(D197-DO)*%
X51085000Y-86950000D03*
%TO.P,D198,4,VDD*%
%TO.N,+5V*%
X51085000Y-88050000D03*
%TD*%
%TO.P,D117,1,DO*%
%TO.N,Net-(D117-DO)*%
X75085000Y-71950000D03*
%TO.P,D117,2,GND*%
%TO.N,GND*%
X75085000Y-73050000D03*
%TO.P,D117,3,DI*%
%TO.N,Net-(D116-DO)*%
X76915000Y-73050000D03*
%TO.P,D117,4,VDD*%
%TO.N,+5V*%
X76915000Y-71950000D03*
%TD*%
%TO.P,D132,1,DO*%
%TO.N,Net-(D132-DO)*%
X46915000Y-76050000D03*
%TO.P,D132,2,GND*%
%TO.N,GND*%
X46915000Y-74950000D03*
%TO.P,D132,3,DI*%
%TO.N,Net-(D131-DO)*%
X45085000Y-74950000D03*
%TO.P,D132,4,VDD*%
%TO.N,+5V*%
X45085000Y-76050000D03*
%TD*%
%TO.P,D3,1,DO*%
%TO.N,Net-(D3-DO)*%
X43915000Y-52050000D03*
%TO.P,D3,2,GND*%
%TO.N,GND*%
X43915000Y-50950000D03*
%TO.P,D3,3,DI*%
%TO.N,Net-(D2-DO)*%
X42085000Y-50950000D03*
%TO.P,D3,4,VDD*%
%TO.N,+5V*%
X42085000Y-52050000D03*
%TD*%
%TO.P,D70,1,DO*%
%TO.N,Net-(D70-DO)*%
X52915000Y-64050000D03*
%TO.P,D70,2,GND*%
%TO.N,GND*%
X52915000Y-62950000D03*
%TO.P,D70,3,DI*%
%TO.N,Net-(D69-DO)*%
X51085000Y-62950000D03*
%TO.P,D70,4,VDD*%
%TO.N,+5V*%
X51085000Y-64050000D03*
%TD*%
%TO.P,D114,1,DO*%
%TO.N,Net-(D114-DO)*%
X84085000Y-71950000D03*
%TO.P,D114,2,GND*%
%TO.N,GND*%
X84085000Y-73050000D03*
%TO.P,D114,3,DI*%
%TO.N,Net-(D113-DO)*%
X85915000Y-73050000D03*
%TO.P,D114,4,VDD*%
%TO.N,+5V*%
X85915000Y-71950000D03*
%TD*%
%TO.P,D130,1,DO*%
%TO.N,Net-(D130-DO)*%
X40915000Y-76050000D03*
%TO.P,D130,2,GND*%
%TO.N,GND*%
X40915000Y-74950000D03*
%TO.P,D130,3,DI*%
%TO.N,Net-(D129-DO)*%
X39085000Y-74950000D03*
%TO.P,D130,4,VDD*%
%TO.N,+5V*%
X39085000Y-76050000D03*
%TD*%
%TO.P,D246,1,DO*%
%TO.N,Net-(D246-DO)*%
X72085000Y-95950000D03*
%TO.P,D246,2,GND*%
%TO.N,GND*%
X72085000Y-97050000D03*
%TO.P,D246,3,DI*%
%TO.N,Net-(D245-DO)*%
X73915000Y-97050000D03*
%TO.P,D246,4,VDD*%
%TO.N,+5V*%
X73915000Y-95950000D03*
%TD*%
%TO.P,D202,1,DO*%
%TO.N,Net-(D202-DO)*%
X64915000Y-88050000D03*
%TO.P,D202,2,GND*%
%TO.N,GND*%
X64915000Y-86950000D03*
%TO.P,D202,3,DI*%
%TO.N,Net-(D201-DO)*%
X63085000Y-86950000D03*
%TO.P,D202,4,VDD*%
%TO.N,+5V*%
X63085000Y-88050000D03*
%TD*%
%TO.P,D82,1,DO*%
%TO.N,Net-(D82-DO)*%
X84085000Y-65950000D03*
%TO.P,D82,2,GND*%
%TO.N,GND*%
X84085000Y-67050000D03*
%TO.P,D82,3,DI*%
%TO.N,Net-(D81-DO)*%
X85915000Y-67050000D03*
%TO.P,D82,4,VDD*%
%TO.N,+5V*%
X85915000Y-65950000D03*
%TD*%
%TO.P,D211,1,DO*%
%TO.N,Net-(D211-DO)*%
X81085000Y-89950000D03*
%TO.P,D211,2,GND*%
%TO.N,GND*%
X81085000Y-91050000D03*
%TO.P,D211,3,DI*%
%TO.N,Net-(D210-DO)*%
X82915000Y-91050000D03*
%TO.P,D211,4,VDD*%
%TO.N,+5V*%
X82915000Y-89950000D03*
%TD*%
%TO.P,D81,1,DO*%
%TO.N,Net-(D81-DO)*%
X85915000Y-64050000D03*
%TO.P,D81,2,GND*%
%TO.N,GND*%
X85915000Y-62950000D03*
%TO.P,D81,3,DI*%
%TO.N,Net-(D80-DO)*%
X84085000Y-62950000D03*
%TO.P,D81,4,VDD*%
%TO.N,+5V*%
X84085000Y-64050000D03*
%TD*%
%TO.P,D171,1,DO*%
%TO.N,Net-(D171-DO)*%
X67915000Y-82050000D03*
%TO.P,D171,2,GND*%
%TO.N,GND*%
X67915000Y-80950000D03*
%TO.P,D171,3,DI*%
%TO.N,Net-(D170-DO)*%
X66085000Y-80950000D03*
%TO.P,D171,4,VDD*%
%TO.N,+5V*%
X66085000Y-82050000D03*
%TD*%
%TO.P,D65,1,DO*%
%TO.N,Net-(D65-DO)*%
X39085000Y-59950000D03*
%TO.P,D65,2,GND*%
%TO.N,GND*%
X39085000Y-61050000D03*
%TO.P,D65,3,DI*%
%TO.N,Net-(D64-DO)*%
X40915000Y-61050000D03*
%TO.P,D65,4,VDD*%
%TO.N,+5V*%
X40915000Y-59950000D03*
%TD*%
%TO.P,D5,1,DO*%
%TO.N,Net-(D5-DO)*%
X49915000Y-52050000D03*
%TO.P,D5,2,GND*%
%TO.N,GND*%
X49915000Y-50950000D03*
%TO.P,D5,3,DI*%
%TO.N,Net-(D4-DO)*%
X48085000Y-50950000D03*
%TO.P,D5,4,VDD*%
%TO.N,+5V*%
X48085000Y-52050000D03*
%TD*%
%TO.P,D18,1,DO*%
%TO.N,Net-(D18-DO)*%
X84085000Y-53950000D03*
%TO.P,D18,2,GND*%
%TO.N,GND*%
X84085000Y-55050000D03*
%TO.P,D18,3,DI*%
%TO.N,Net-(D17-DO)*%
X85915000Y-55050000D03*
%TO.P,D18,4,VDD*%
%TO.N,+5V*%
X85915000Y-53950000D03*
%TD*%
%TO.P,D151,1,DO*%
%TO.N,Net-(D151-DO)*%
X69085000Y-77950000D03*
%TO.P,D151,2,GND*%
%TO.N,GND*%
X69085000Y-79050000D03*
%TO.P,D151,3,DI*%
%TO.N,Net-(D150-DO)*%
X70915000Y-79050000D03*
%TO.P,D151,4,VDD*%
%TO.N,+5V*%
X70915000Y-77950000D03*
%TD*%
%TO.P,D76,1,DO*%
%TO.N,Net-(D76-DO)*%
X70915000Y-64050000D03*
%TO.P,D76,2,GND*%
%TO.N,GND*%
X70915000Y-62950000D03*
%TO.P,D76,3,DI*%
%TO.N,Net-(D75-DO)*%
X69085000Y-62950000D03*
%TO.P,D76,4,VDD*%
%TO.N,+5V*%
X69085000Y-64050000D03*
%TD*%
%TO.P,D120,1,DO*%
%TO.N,Net-(D120-DO)*%
X66085000Y-71950000D03*
%TO.P,D120,2,GND*%
%TO.N,GND*%
X66085000Y-73050000D03*
%TO.P,D120,3,DI*%
%TO.N,Net-(D119-DO)*%
X67915000Y-73050000D03*
%TO.P,D120,4,VDD*%
%TO.N,+5V*%
X67915000Y-71950000D03*
%TD*%
%TO.P,D56,1,DO*%
%TO.N,Net-(D56-DO)*%
X66085000Y-59950000D03*
%TO.P,D56,2,GND*%
%TO.N,GND*%
X66085000Y-61050000D03*
%TO.P,D56,3,DI*%
%TO.N,Net-(D55-DO)*%
X67915000Y-61050000D03*
%TO.P,D56,4,VDD*%
%TO.N,+5V*%
X67915000Y-59950000D03*
%TD*%
%TO.P,D144,1,DO*%
%TO.N,Net-(D144-DO)*%
X82915000Y-76050000D03*
%TO.P,D144,2,GND*%
%TO.N,GND*%
X82915000Y-74950000D03*
%TO.P,D144,3,DI*%
%TO.N,Net-(D143-DO)*%
X81085000Y-74950000D03*
%TO.P,D144,4,VDD*%
%TO.N,+5V*%
X81085000Y-76050000D03*
%TD*%
%TO.P,D162,1,DO*%
%TO.N,Net-(D162-DO)*%
X40915000Y-82050000D03*
%TO.P,D162,2,GND*%
%TO.N,GND*%
X40915000Y-80950000D03*
%TO.P,D162,3,DI*%
%TO.N,Net-(D161-DO)*%
X39085000Y-80950000D03*
%TO.P,D162,4,VDD*%
%TO.N,+5V*%
X39085000Y-82050000D03*
%TD*%
%TO.P,D28,1,DO*%
%TO.N,Net-(D28-DO)*%
X54085000Y-53950000D03*
%TO.P,D28,2,GND*%
%TO.N,GND*%
X54085000Y-55050000D03*
%TO.P,D28,3,DI*%
%TO.N,Net-(D27-DO)*%
X55915000Y-55050000D03*
%TO.P,D28,4,VDD*%
%TO.N,+5V*%
X55915000Y-53950000D03*
%TD*%
%TO.P,D119,1,DO*%
%TO.N,Net-(D119-DO)*%
X69085000Y-71950000D03*
%TO.P,D119,2,GND*%
%TO.N,GND*%
X69085000Y-73050000D03*
%TO.P,D119,3,DI*%
%TO.N,Net-(D118-DO)*%
X70915000Y-73050000D03*
%TO.P,D119,4,VDD*%
%TO.N,+5V*%
X70915000Y-71950000D03*
%TD*%
D11*
%TO.P,J1,1,Pin_1*%
%TO.N,GND*%
X70090000Y-99250000D03*
D12*
%TO.P,J1,2,Pin_2*%
%TO.N,+5V*%
X72630000Y-99250000D03*
%TO.P,J1,3,Pin_3*%
%TO.N,IO8*%
X75170000Y-99250000D03*
%TO.P,J1,4,Pin_4*%
%TO.N,IO15*%
X77710000Y-99250000D03*
%TO.P,J1,5,Pin_5*%
%TO.N,IO7*%
X80250000Y-99250000D03*
%TO.P,J1,6,Pin_6*%
%TO.N,IO6*%
X82790000Y-99250000D03*
%TO.P,J1,7,Pin_7*%
%TO.N,IO5*%
X85330000Y-99250000D03*
%TD*%
D11*
%TO.P,J2,1,Pin_1*%
%TO.N,+5V*%
X39325000Y-47700000D03*
D12*
%TO.P,J2,2,Pin_2*%
%TO.N,GND*%
X41865000Y-47700000D03*
%TD*%
D13*
%TO.N,GND*%
X75075000Y-61050000D03*
X88500000Y-54675000D03*
X88550000Y-60200000D03*
X40000000Y-56000000D03*
X40500000Y-99125000D03*
X61900000Y-50950000D03*
X36000000Y-70250000D03*
X39075000Y-61050000D03*
X64900000Y-48000000D03*
X61000000Y-73200000D03*
X84075000Y-55050000D03*
X87700000Y-51000000D03*
X66150000Y-55050000D03*
X52000000Y-57219072D03*
X43000000Y-66100000D03*
X43915000Y-50115000D03*
X88500000Y-62000000D03*
X39075000Y-85075000D03*
X88900000Y-91800000D03*
X39075000Y-91075000D03*
X69100000Y-79000000D03*
X78934502Y-66217500D03*
X50000000Y-63000000D03*
X46000000Y-57000000D03*
%TO.N,+5V*%
X48100000Y-58025000D03*
X39100000Y-58000000D03*
X73900000Y-95900000D03*
X86275500Y-95000000D03*
X49000000Y-59950000D03*
X51975000Y-55375500D03*
X88975000Y-94975000D03*
X43900000Y-71900000D03*
%TO.N,RESET*%
X54950000Y-65699500D03*
X55225000Y-67975000D03*
%TO.N,GPIO18*%
X87525500Y-67200000D03*
%TD*%
D14*
%TO.N,GND*%
X75075000Y-61050000D02*
X75085000Y-61985000D01*
%TO.N,GPIO18*%
X86285000Y-47885000D02*
X89450000Y-51050000D01*
X89450000Y-51050000D02*
X89450000Y-66150000D01*
X89450000Y-66150000D02*
X88400000Y-67200000D01*
X66833222Y-49000000D02*
X67948222Y-47885000D01*
X41035000Y-49000000D02*
X66833222Y-49000000D01*
X39085000Y-50950000D02*
X41035000Y-49000000D01*
X67948222Y-47885000D02*
X86285000Y-47885000D01*
X88400000Y-67200000D02*
X87525500Y-67200000D01*
%TO.N,GND*%
X84085000Y-98000000D02*
X84085000Y-97050000D01*
X83475000Y-98000000D02*
X84085000Y-98000000D01*
X88000000Y-91800000D02*
X87700000Y-92100000D01*
X87700000Y-92125000D02*
X87700000Y-92500000D01*
X87700000Y-92100000D02*
X87700000Y-92125000D01*
X87700000Y-91800000D02*
X87700000Y-92125000D01*
X87700000Y-91500000D02*
X87700000Y-91800000D01*
X88000000Y-91800000D02*
X87700000Y-91500000D01*
X88050000Y-91800000D02*
X88900000Y-91800000D01*
X87700000Y-86900000D02*
X87700000Y-91500000D01*
X88050000Y-91800000D02*
X88000000Y-91800000D01*
X87700000Y-91800000D02*
X88050000Y-91800000D01*
X87375000Y-92950000D02*
X87700000Y-93275000D01*
X87700000Y-93275000D02*
X87700000Y-92500000D01*
X87700000Y-97300000D02*
X87700000Y-93275000D01*
X87700000Y-92625000D02*
X87700000Y-92500000D01*
X87375000Y-92950000D02*
X87700000Y-92625000D01*
X87375000Y-92950000D02*
X85915000Y-92950000D01*
X87700000Y-92950000D02*
X87375000Y-92950000D01*
X87000000Y-98000000D02*
X87700000Y-97300000D01*
X83475000Y-98000000D02*
X87000000Y-98000000D01*
X81100000Y-98000000D02*
X83475000Y-98000000D01*
X87250000Y-62950000D02*
X85915000Y-62950000D01*
X87700000Y-62000000D02*
X87700000Y-62500000D01*
X87700000Y-62500000D02*
X87250000Y-62950000D01*
X87700000Y-69625000D02*
X87700000Y-74900000D01*
X87025000Y-68950000D02*
X87700000Y-69625000D01*
X85915000Y-68950000D02*
X87025000Y-68950000D01*
X69200000Y-56000000D02*
X70800000Y-56000000D01*
X87650000Y-80950000D02*
X87700000Y-81000000D01*
X72085000Y-91985000D02*
X72100000Y-92000000D01*
X63085000Y-73985000D02*
X63100000Y-74000000D01*
X76800000Y-56000000D02*
X77900000Y-56000000D01*
X67900000Y-68000000D02*
X69100000Y-68000000D01*
X39300000Y-92000000D02*
X40900000Y-92000000D01*
X54100000Y-86000000D02*
X55900000Y-86000000D01*
X43900000Y-86000000D02*
X45100000Y-86000000D01*
X43915000Y-56950000D02*
X43915000Y-56015000D01*
X85915000Y-86950000D02*
X87650000Y-86950000D01*
X60085000Y-61050000D02*
X60085000Y-61915000D01*
X79915000Y-74950000D02*
X79915000Y-74015000D01*
X48085000Y-79050000D02*
X48085000Y-79915000D01*
X81085000Y-91050000D02*
X81085000Y-91885000D01*
X67915000Y-86950000D02*
X67915000Y-86015000D01*
X66085000Y-91985000D02*
X66100000Y-92000000D01*
X76915000Y-56115000D02*
X76800000Y-56000000D01*
X40900000Y-86000000D02*
X42100000Y-86000000D01*
X45085000Y-79985000D02*
X45100000Y-80000000D01*
X36000000Y-97000000D02*
X36000000Y-47500000D01*
X69085000Y-91050000D02*
X69085000Y-91985000D01*
X51085000Y-61985000D02*
X51100000Y-62000000D01*
X73915000Y-74015000D02*
X73900000Y-74000000D01*
X64915000Y-56950000D02*
X64915000Y-56015000D01*
X78085000Y-61985000D02*
X78100000Y-62000000D01*
X51100000Y-92000000D02*
X52900000Y-92000000D01*
X66085000Y-55985000D02*
X66100000Y-56000000D01*
X43915000Y-80015000D02*
X43900000Y-80000000D01*
X78085000Y-85985000D02*
X78100000Y-86000000D01*
X54085000Y-55985000D02*
X54100000Y-56000000D01*
X84085000Y-55985000D02*
X84100000Y-56000000D01*
X64915000Y-80950000D02*
X64915000Y-80015000D01*
X75085000Y-85915000D02*
X75000000Y-86000000D01*
X49915000Y-62015000D02*
X49900000Y-62000000D01*
X76915000Y-92015000D02*
X76900000Y-92000000D01*
X87700000Y-51000000D02*
X87650000Y-50950000D01*
X64915000Y-92950000D02*
X64915000Y-92085000D01*
X81085000Y-55915000D02*
X81000000Y-56000000D01*
X82800000Y-56000000D02*
X84100000Y-56000000D01*
X85915000Y-80950000D02*
X85915000Y-80615000D01*
X75100000Y-80000000D02*
X73900000Y-80000000D01*
X61915000Y-68950000D02*
X61915000Y-68015000D01*
X81085000Y-91885000D02*
X81200000Y-92000000D01*
X69085000Y-61050000D02*
X69085000Y-61985000D01*
X61900000Y-56000000D02*
X63200000Y-56000000D01*
X69085000Y-73985000D02*
X69100000Y-74000000D01*
X60085000Y-55050000D02*
X60085000Y-55885000D01*
X63085000Y-67985000D02*
X63100000Y-68000000D01*
X85300000Y-80000000D02*
X84200000Y-80000000D01*
X60085000Y-79050000D02*
X60085000Y-79985000D01*
X49915000Y-86015000D02*
X49900000Y-86000000D01*
X63085000Y-79050000D02*
X63085000Y-79985000D01*
X73915000Y-86950000D02*
X73915000Y-86015000D01*
X54085000Y-85050000D02*
X54085000Y-85985000D01*
X81000000Y-80000000D02*
X80000000Y-80000000D01*
X43915000Y-68015000D02*
X43900000Y-68000000D01*
X67915000Y-56950000D02*
X67915000Y-56115000D01*
X46915000Y-86950000D02*
X46915000Y-86015000D01*
X66000000Y-74000000D02*
X64900000Y-74000000D01*
X55815000Y-69050000D02*
X55335000Y-69050000D01*
X63085000Y-61050000D02*
X63085000Y-61885000D01*
X61915000Y-86950000D02*
X61915000Y-86015000D01*
X84085000Y-55050000D02*
X84085000Y-55985000D01*
X58900000Y-92000000D02*
X60100000Y-92000000D01*
X51100000Y-56000000D02*
X52800000Y-56000000D01*
X76915000Y-68015000D02*
X76900000Y-68000000D01*
X52645928Y-57219072D02*
X52915000Y-56950000D01*
X84085000Y-73050000D02*
X84085000Y-73985000D01*
X42100000Y-98000000D02*
X45100000Y-98000000D01*
X54100000Y-56000000D02*
X56000000Y-56000000D01*
X82915000Y-62950000D02*
X82915000Y-62015000D01*
X72085000Y-73915000D02*
X72000000Y-74000000D01*
X43915000Y-68950000D02*
X43915000Y-68015000D01*
X51085000Y-91985000D02*
X51100000Y-92000000D01*
X76915000Y-50950000D02*
X76915000Y-50085000D01*
X66100000Y-80000000D02*
X64900000Y-80000000D01*
X55915000Y-68710000D02*
X56625000Y-68000000D01*
X64900000Y-86000000D02*
X66100000Y-86000000D01*
X40900000Y-92000000D02*
X42100000Y-92000000D01*
X75100000Y-62000000D02*
X76800000Y-62000000D01*
X55915000Y-50950000D02*
X55915000Y-50015000D01*
X39085000Y-85685000D02*
X39400000Y-86000000D01*
X70900000Y-80000000D02*
X69100000Y-80000000D01*
X57100000Y-56000000D02*
X58600000Y-56000000D01*
X45085000Y-91985000D02*
X45100000Y-92000000D01*
X52915000Y-86950000D02*
X52915000Y-86015000D01*
X52900000Y-74000000D02*
X51100000Y-74000000D01*
X55915000Y-92085000D02*
X56000000Y-92000000D01*
X55915000Y-56085000D02*
X56000000Y-56000000D01*
X52915000Y-80015000D02*
X52900000Y-80000000D01*
X76915000Y-80950000D02*
X76915000Y-80015000D01*
X39085000Y-73050000D02*
X39100000Y-73000000D01*
X52915000Y-80950000D02*
X52915000Y-80015000D01*
X64915000Y-50950000D02*
X64915000Y-50015000D01*
X61900000Y-68000000D02*
X63100000Y-68000000D01*
X85515000Y-62000000D02*
X85915000Y-62400000D01*
X70915000Y-86950000D02*
X70915000Y-86015000D01*
X57085000Y-85050000D02*
X57085000Y-85985000D01*
X63085000Y-85050000D02*
X63085000Y-85985000D01*
X58915000Y-68085000D02*
X59000000Y-68000000D01*
X54100000Y-98000000D02*
X57100000Y-98000000D01*
X42085000Y-55985000D02*
X42100000Y-56000000D01*
X46915000Y-56115000D02*
X46800000Y-56000000D01*
X46915000Y-86015000D02*
X46900000Y-86000000D01*
X54085000Y-97985000D02*
X54100000Y-98000000D01*
X52915000Y-50950000D02*
X52915000Y-50015000D01*
X49900000Y-74000000D02*
X48000000Y-74000000D01*
X48085000Y-67050000D02*
X48085000Y-67985000D01*
X59000000Y-62000000D02*
X60000000Y-62000000D01*
X63085000Y-91985000D02*
X63100000Y-92000000D01*
X73915000Y-68015000D02*
X73900000Y-68000000D01*
X42100000Y-86000000D02*
X43900000Y-86000000D01*
X69085000Y-73050000D02*
X69085000Y-73985000D01*
X63100000Y-98000000D02*
X66100000Y-98000000D01*
X39400000Y-98000000D02*
X37000000Y-98000000D01*
X58915000Y-56950000D02*
X58915000Y-56315000D01*
X48085000Y-73915000D02*
X48000000Y-74000000D01*
X85915000Y-86415000D02*
X85915000Y-86950000D01*
X55900000Y-86000000D02*
X57100000Y-86000000D01*
X55915000Y-74950000D02*
X55915000Y-74115000D01*
X43035000Y-66100000D02*
X43000000Y-66100000D01*
X39085000Y-67050000D02*
X39085000Y-67085000D01*
X52915000Y-92015000D02*
X52900000Y-92000000D01*
X79915000Y-74015000D02*
X79900000Y-74000000D01*
X39085000Y-61585000D02*
X39500000Y-62000000D01*
X51100000Y-80000000D02*
X49900000Y-80000000D01*
X58915000Y-92015000D02*
X58900000Y-92000000D01*
X76900000Y-80000000D02*
X75100000Y-80000000D01*
X49900000Y-80000000D02*
X48000000Y-80000000D01*
X85915000Y-80950000D02*
X87650000Y-80950000D01*
X45100000Y-56000000D02*
X46800000Y-56000000D01*
X81100000Y-62000000D02*
X82900000Y-62000000D01*
X68000000Y-50000000D02*
X70900000Y-50000000D01*
X81085000Y-79050000D02*
X81085000Y-79915000D01*
X60085000Y-85050000D02*
X60085000Y-85985000D01*
X82915000Y-50950000D02*
X82915000Y-50015000D01*
X57085000Y-97050000D02*
X57085000Y-97985000D01*
X49915000Y-74015000D02*
X49900000Y-74000000D01*
X61915000Y-80950000D02*
X61915000Y-80015000D01*
X61915000Y-50950000D02*
X61915000Y-50015000D01*
X79915000Y-86015000D02*
X79900000Y-86000000D01*
X57085000Y-61050000D02*
X57085000Y-61985000D01*
X87650000Y-86950000D02*
X87700000Y-86900000D01*
X58915000Y-74950000D02*
X58915000Y-74015000D01*
X58915000Y-68950000D02*
X58915000Y-68085000D01*
X49915000Y-68015000D02*
X49900000Y-68000000D01*
X70915000Y-92015000D02*
X70900000Y-92000000D01*
X66100000Y-56000000D02*
X67800000Y-56000000D01*
X45085000Y-85050000D02*
X45085000Y-85985000D01*
X64915000Y-56015000D02*
X64900000Y-56000000D01*
X84085000Y-85050000D02*
X84085000Y-85985000D01*
X48085000Y-85050000D02*
X48085000Y-85985000D01*
X79900000Y-68000000D02*
X81000000Y-68000000D01*
X79900000Y-74000000D02*
X78100000Y-74000000D01*
X61900000Y-74000000D02*
X60975000Y-74000000D01*
X67915000Y-68950000D02*
X67915000Y-68015000D01*
X43100000Y-66100000D02*
X43035000Y-66100000D01*
X52915000Y-62115000D02*
X52800000Y-62000000D01*
X60100000Y-92000000D02*
X62000000Y-92000000D01*
X85915000Y-56950000D02*
X87650000Y-56950000D01*
X84100000Y-86000000D02*
X85500000Y-86000000D01*
X87700000Y-74900000D02*
X87700000Y-81000000D01*
X52915000Y-62950000D02*
X52915000Y-62115000D01*
X76900000Y-68000000D02*
X78100000Y-68000000D01*
X73800000Y-56000000D02*
X75100000Y-56000000D01*
X64915000Y-50015000D02*
X64900000Y-50000000D01*
X79900000Y-86000000D02*
X81100000Y-86000000D01*
X57085000Y-79050000D02*
X57085000Y-79985000D01*
X66100000Y-92000000D02*
X68000000Y-92000000D01*
X49915000Y-80950000D02*
X49915000Y-80015000D01*
X64900000Y-62000000D02*
X66100000Y-62000000D01*
X39100000Y-61000000D02*
X39085000Y-61585000D01*
X48085000Y-55050000D02*
X48085000Y-55915000D01*
X43915000Y-50115000D02*
X43800000Y-50000000D01*
X46915000Y-50950000D02*
X46915000Y-50015000D01*
X42100000Y-62000000D02*
X43900000Y-62000000D01*
X46865000Y-57000000D02*
X46915000Y-56950000D01*
X57100000Y-62000000D02*
X59000000Y-62000000D01*
X48100000Y-86000000D02*
X49900000Y-86000000D01*
X64915000Y-74950000D02*
X64915000Y-74015000D01*
X37000000Y-98000000D02*
X36000000Y-97000000D01*
X42085000Y-79050000D02*
X42085000Y-79985000D01*
X57100000Y-98000000D02*
X60100000Y-98000000D01*
X45100000Y-98000000D02*
X48100000Y-98000000D01*
X48000000Y-56000000D02*
X49900000Y-56000000D01*
X69085000Y-67050000D02*
X69085000Y-67985000D01*
X39085000Y-91785000D02*
X39300000Y-92000000D01*
X82900000Y-86000000D02*
X84100000Y-86000000D01*
X54000000Y-74000000D02*
X52900000Y-74000000D01*
X70900000Y-62000000D02*
X72100000Y-62000000D01*
X54085000Y-91050000D02*
X54085000Y-91985000D01*
X82915000Y-56950000D02*
X82915000Y-56115000D01*
X55915000Y-50015000D02*
X55900000Y-50000000D01*
X82915000Y-86950000D02*
X82915000Y-86015000D01*
X81085000Y-79915000D02*
X81000000Y-80000000D01*
X66100000Y-86000000D02*
X67900000Y-86000000D01*
X63085000Y-79985000D02*
X63100000Y-80000000D01*
X54085000Y-79050000D02*
X54085000Y-79985000D01*
X79915000Y-80950000D02*
X79915000Y-80085000D01*
X60085000Y-79985000D02*
X60100000Y-80000000D01*
X64915000Y-62015000D02*
X64900000Y-62000000D01*
X51085000Y-73050000D02*
X51085000Y-73985000D01*
X70915000Y-50950000D02*
X70915000Y-50015000D01*
X51100000Y-68000000D02*
X52900000Y-68000000D01*
X57085000Y-91985000D02*
X57100000Y-92000000D01*
X58915000Y-56315000D02*
X58600000Y-56000000D01*
X70900000Y-68000000D02*
X72100000Y-68000000D01*
X70915000Y-86015000D02*
X70900000Y-86000000D01*
X87650000Y-74950000D02*
X87700000Y-74900000D01*
X52800000Y-62000000D02*
X54100000Y-62000000D01*
X57085000Y-61985000D02*
X57100000Y-62000000D01*
X67915000Y-80950000D02*
X67915000Y-80015000D01*
X60100000Y-86000000D02*
X61900000Y-86000000D01*
X39085000Y-73485000D02*
X39600000Y-74000000D01*
X64900000Y-50000000D02*
X68000000Y-50000000D01*
X42085000Y-91985000D02*
X42100000Y-92000000D01*
X84200000Y-68000000D02*
X85700000Y-68000000D01*
X59000000Y-68000000D02*
X60100000Y-68000000D01*
X81085000Y-67050000D02*
X81085000Y-67915000D01*
X73915000Y-50950000D02*
X73915000Y-50015000D01*
X60100000Y-74000000D02*
X58900000Y-74000000D01*
X48100000Y-92000000D02*
X49900000Y-92000000D01*
X49900000Y-86000000D02*
X51100000Y-86000000D01*
X78085000Y-73985000D02*
X78100000Y-74000000D01*
X75085000Y-79050000D02*
X75085000Y-79985000D01*
X63200000Y-56000000D02*
X64900000Y-56000000D01*
X39085000Y-61050000D02*
X39100000Y-61000000D01*
X76915000Y-86015000D02*
X76900000Y-86000000D01*
X70915000Y-56950000D02*
X70915000Y-56115000D01*
X78100000Y-92000000D02*
X79900000Y-92000000D01*
X55915000Y-92950000D02*
X55915000Y-92085000D01*
X45085000Y-85985000D02*
X45100000Y-86000000D01*
X70915000Y-50015000D02*
X70900000Y-50000000D01*
X49915000Y-56950000D02*
X49915000Y-56015000D01*
X45085000Y-97985000D02*
X45100000Y-98000000D01*
X81085000Y-73050000D02*
X81085000Y-73985000D01*
X72085000Y-67050000D02*
X72085000Y-67985000D01*
X46915000Y-62950000D02*
X46915000Y-62015000D01*
X81000000Y-56000000D02*
X82800000Y-56000000D01*
X48085000Y-61985000D02*
X48100000Y-62000000D01*
X46900000Y-74000000D02*
X45100000Y-74000000D01*
X82915000Y-62015000D02*
X82900000Y-62000000D01*
X81000000Y-68000000D02*
X82900000Y-68000000D01*
X42100000Y-56000000D02*
X43900000Y-56000000D01*
X42085000Y-79985000D02*
X42100000Y-80000000D01*
X57085000Y-55985000D02*
X57100000Y-56000000D01*
X85915000Y-74950000D02*
X84965000Y-74000000D01*
X56000000Y-92000000D02*
X57100000Y-92000000D01*
X40915000Y-50285000D02*
X41200000Y-50000000D01*
X58900000Y-50000000D02*
X61900000Y-50000000D01*
X55915000Y-62015000D02*
X55900000Y-62000000D01*
X70915000Y-62950000D02*
X70915000Y-62015000D01*
X52915000Y-68015000D02*
X52900000Y-68000000D01*
X46915000Y-92015000D02*
X46900000Y-92000000D01*
X39085000Y-67585000D02*
X39500000Y-68000000D01*
X82900000Y-80000000D02*
X81000000Y-80000000D01*
X58915000Y-62950000D02*
X58915000Y-62085000D01*
X84085000Y-61985000D02*
X84100000Y-62000000D01*
X87650000Y-50950000D02*
X85915000Y-50950000D01*
X75085000Y-97050000D02*
X75085000Y-97985000D01*
X66100000Y-98000000D02*
X69100000Y-98000000D01*
X66100000Y-62000000D02*
X67900000Y-62000000D01*
X54085000Y-67050000D02*
X54085000Y-67985000D01*
X43915000Y-62950000D02*
X43915000Y-62015000D01*
X37000000Y-46500000D02*
X40665000Y-46500000D01*
X54085000Y-79985000D02*
X54100000Y-80000000D01*
X52900000Y-86000000D02*
X54100000Y-86000000D01*
X51100000Y-62000000D02*
X52800000Y-62000000D01*
X81100000Y-74000000D02*
X79900000Y-74000000D01*
X46900000Y-62000000D02*
X48100000Y-62000000D01*
X40900000Y-62000000D02*
X42100000Y-62000000D01*
X46915000Y-62015000D02*
X46900000Y-62000000D01*
X60100000Y-80000000D02*
X58900000Y-80000000D01*
X87700000Y-51000000D02*
X87700000Y-56900000D01*
X76915000Y-74115000D02*
X76800000Y-74000000D01*
X79915000Y-92950000D02*
X79915000Y-92015000D01*
X51085000Y-97050000D02*
X51085000Y-97985000D01*
X69100000Y-92000000D02*
X70900000Y-92000000D01*
X40915000Y-68015000D02*
X40900000Y-68000000D01*
X55915000Y-86015000D02*
X55900000Y-86000000D01*
X81085000Y-85985000D02*
X81100000Y-86000000D01*
X62000000Y-92000000D02*
X63100000Y-92000000D01*
X64900000Y-80000000D02*
X63100000Y-80000000D01*
X75085000Y-85050000D02*
X75085000Y-85915000D01*
X46900000Y-86000000D02*
X48100000Y-86000000D01*
X43915000Y-56015000D02*
X43900000Y-56000000D01*
X67900000Y-62000000D02*
X69100000Y-62000000D01*
X58915000Y-74015000D02*
X58900000Y-74000000D01*
X58915000Y-62085000D02*
X59000000Y-62000000D01*
X66085000Y-85985000D02*
X66100000Y-86000000D01*
X60100000Y-98000000D02*
X63100000Y-98000000D01*
X39500000Y-62000000D02*
X40900000Y-62000000D01*
X76800000Y-74000000D02*
X75100000Y-74000000D01*
X78100000Y-98000000D02*
X81100000Y-98000000D01*
X40000000Y-56000000D02*
X40800000Y-56000000D01*
X52915000Y-56115000D02*
X52800000Y-56000000D01*
X51100000Y-74000000D02*
X49900000Y-74000000D01*
X63085000Y-55885000D02*
X63200000Y-56000000D01*
X73900000Y-86000000D02*
X75000000Y-86000000D01*
X40915000Y-74950000D02*
X40915000Y-74015000D01*
X67915000Y-80015000D02*
X67900000Y-80000000D01*
X43915000Y-50950000D02*
X43915000Y-50115000D01*
X70915000Y-74950000D02*
X70915000Y-74015000D01*
X39500000Y-68000000D02*
X40900000Y-68000000D01*
X43915000Y-74015000D02*
X43900000Y-74000000D01*
X75100000Y-92000000D02*
X76900000Y-92000000D01*
X57085000Y-73915000D02*
X57000000Y-74000000D01*
X63100000Y-80000000D02*
X61900000Y-80000000D01*
X85915000Y-68215000D02*
X85915000Y-68950000D01*
X81085000Y-61985000D02*
X81100000Y-62000000D01*
X45085000Y-79050000D02*
X45085000Y-79985000D01*
X51085000Y-73985000D02*
X51100000Y-74000000D01*
X75085000Y-61050000D02*
X75075000Y-61050000D01*
X84100000Y-56000000D02*
X85700000Y-56000000D01*
X67915000Y-56115000D02*
X67800000Y-56000000D01*
X48085000Y-79915000D02*
X48000000Y-80000000D01*
X55915000Y-74115000D02*
X55800000Y-74000000D01*
X60085000Y-61915000D02*
X60000000Y-62000000D01*
X69100000Y-62000000D02*
X70900000Y-62000000D01*
X51085000Y-55050000D02*
X51085000Y-55985000D01*
X61900000Y-50000000D02*
X64900000Y-50000000D01*
X46915000Y-50015000D02*
X46900000Y-50000000D01*
X45085000Y-67050000D02*
X45085000Y-67985000D01*
X52915000Y-74950000D02*
X52915000Y-74015000D01*
X46915000Y-74950000D02*
X46915000Y-74015000D01*
X78085000Y-73050000D02*
X78085000Y-73985000D01*
X48085000Y-73050000D02*
X48085000Y-73915000D01*
X40900000Y-80000000D02*
X39300000Y-80000000D01*
X70900000Y-50000000D02*
X73900000Y-50000000D01*
X40900000Y-68000000D02*
X42100000Y-68000000D01*
X69100000Y-74000000D02*
X67900000Y-74000000D01*
X40800000Y-56000000D02*
X42100000Y-56000000D01*
X45100000Y-74000000D02*
X43900000Y-74000000D01*
X70090000Y-99250000D02*
X70090000Y-98015000D01*
X50000000Y-50000000D02*
X52900000Y-50000000D01*
X78100000Y-80000000D02*
X76900000Y-80000000D01*
X60000000Y-62000000D02*
X61900000Y-62000000D01*
X70090000Y-98015000D02*
X70075000Y-98000000D01*
X54100000Y-80000000D02*
X52900000Y-80000000D01*
X72085000Y-97985000D02*
X72100000Y-98000000D01*
X73900000Y-92000000D02*
X75100000Y-92000000D01*
X75085000Y-61985000D02*
X75100000Y-62000000D01*
X42085000Y-67985000D02*
X42100000Y-68000000D01*
X58900000Y-80000000D02*
X57100000Y-80000000D01*
X60975000Y-74000000D02*
X60100000Y-74000000D01*
X82915000Y-74015000D02*
X82900000Y-74000000D01*
X48085000Y-67985000D02*
X48100000Y-68000000D01*
X57085000Y-85985000D02*
X57100000Y-86000000D01*
X84085000Y-73985000D02*
X84100000Y-74000000D01*
X49915000Y-62950000D02*
X50000000Y-63000000D01*
X48085000Y-91985000D02*
X48100000Y-92000000D01*
X57085000Y-67915000D02*
X57000000Y-68000000D01*
X75100000Y-56000000D02*
X76800000Y-56000000D01*
X84100000Y-62000000D02*
X85515000Y-62000000D01*
X84085000Y-61050000D02*
X84085000Y-61985000D01*
X48100000Y-98000000D02*
X51100000Y-98000000D01*
X45100000Y-68000000D02*
X46900000Y-68000000D01*
X64915000Y-86015000D02*
X64900000Y-86000000D01*
X61915000Y-62015000D02*
X61900000Y-62000000D01*
X57085000Y-97985000D02*
X57100000Y-98000000D01*
X87700000Y-56900000D02*
X87700000Y-62000000D01*
X78100000Y-68000000D02*
X79900000Y-68000000D01*
X66085000Y-79985000D02*
X66100000Y-80000000D01*
X66085000Y-91050000D02*
X66085000Y-91985000D01*
X42085000Y-67050000D02*
X42085000Y-67985000D01*
X57000000Y-68000000D02*
X59000000Y-68000000D01*
X39085000Y-97050000D02*
X39085000Y-98000000D01*
X78085000Y-91985000D02*
X78100000Y-92000000D01*
X43915000Y-62015000D02*
X43900000Y-62000000D01*
X84085000Y-91985000D02*
X84100000Y-92000000D01*
X60085000Y-97985000D02*
X60100000Y-98000000D01*
X64915000Y-68950000D02*
X64915000Y-68015000D01*
X82900000Y-50000000D02*
X85600000Y-50000000D01*
X57085000Y-79985000D02*
X57100000Y-80000000D01*
X52900000Y-80000000D02*
X51100000Y-80000000D01*
X75085000Y-79985000D02*
X75100000Y-80000000D01*
X82900000Y-74000000D02*
X81100000Y-74000000D01*
X67915000Y-50950000D02*
X67915000Y-50085000D01*
X61900000Y-62000000D02*
X63200000Y-62000000D01*
X41200000Y-50000000D02*
X43800000Y-50000000D01*
X52915000Y-74015000D02*
X52900000Y-74000000D01*
X70915000Y-68950000D02*
X70915000Y-68015000D01*
X85915000Y-50315000D02*
X85915000Y-50950000D01*
X63085000Y-85985000D02*
X63100000Y-86000000D01*
X70915000Y-62015000D02*
X70900000Y-62000000D01*
X48085000Y-55915000D02*
X48000000Y-56000000D01*
X75085000Y-73985000D02*
X75100000Y-74000000D01*
X60085000Y-73050000D02*
X60085000Y-73985000D01*
X76915000Y-80015000D02*
X76900000Y-80000000D01*
X67915000Y-92085000D02*
X68000000Y-92000000D01*
X55915000Y-56950000D02*
X55915000Y-56085000D01*
X58915000Y-80015000D02*
X58900000Y-80000000D01*
X69085000Y-79050000D02*
X69085000Y-79985000D01*
X64900000Y-68000000D02*
X66100000Y-68000000D01*
X64915000Y-86950000D02*
X64915000Y-86015000D01*
X39100000Y-85000000D02*
X39075000Y-85075000D01*
X40915000Y-62015000D02*
X40900000Y-62000000D01*
X73915000Y-56950000D02*
X73915000Y-56115000D01*
X69085000Y-67985000D02*
X69100000Y-68000000D01*
X61915000Y-56950000D02*
X61915000Y-56015000D01*
X40915000Y-50950000D02*
X40915000Y-50285000D01*
X81085000Y-61050000D02*
X81085000Y-61985000D01*
X75085000Y-67985000D02*
X75100000Y-68000000D01*
X39085000Y-67085000D02*
X39100000Y-67100000D01*
X72085000Y-55915000D02*
X72000000Y-56000000D01*
X61915000Y-50015000D02*
X61900000Y-50000000D01*
X72085000Y-85985000D02*
X72100000Y-86000000D01*
X72100000Y-62000000D02*
X73900000Y-62000000D01*
X72100000Y-86000000D02*
X73900000Y-86000000D01*
X39085000Y-91050000D02*
X39100000Y-91000000D01*
X39400000Y-86000000D02*
X40900000Y-86000000D01*
X58915000Y-86950000D02*
X58915000Y-86015000D01*
X70915000Y-56115000D02*
X70800000Y-56000000D01*
X69085000Y-97050000D02*
X69085000Y-97985000D01*
X42085000Y-91050000D02*
X42085000Y-91985000D01*
X73900000Y-50000000D02*
X77000000Y-50000000D01*
X79900000Y-62000000D02*
X81100000Y-62000000D01*
X78085000Y-91050000D02*
X78085000Y-91985000D01*
X82915000Y-68015000D02*
X82900000Y-68000000D01*
X81200000Y-92000000D02*
X82900000Y-92000000D01*
X43035000Y-66100000D02*
X43035000Y-66100000D01*
X82915000Y-92950000D02*
X82915000Y-92015000D01*
X70900000Y-86000000D02*
X72100000Y-86000000D01*
X60085000Y-67050000D02*
X60085000Y-67985000D01*
X66085000Y-61985000D02*
X66100000Y-62000000D01*
X51085000Y-79050000D02*
X51085000Y-79985000D01*
X46915000Y-74015000D02*
X46900000Y-74000000D01*
X64900000Y-56000000D02*
X66100000Y-56000000D01*
X85500000Y-92000000D02*
X85915000Y-92415000D01*
X40915000Y-92950000D02*
X40915000Y-92015000D01*
X76915000Y-86950000D02*
X76915000Y-86015000D01*
X42085000Y-61050000D02*
X42085000Y-61985000D01*
X45100000Y-62000000D02*
X46900000Y-62000000D01*
X43915000Y-92950000D02*
X43915000Y-92085000D01*
X82915000Y-74950000D02*
X82915000Y-74015000D01*
X42085000Y-73050000D02*
X42085000Y-73985000D01*
X40915000Y-74015000D02*
X40900000Y-74000000D01*
X57100000Y-80000000D02*
X55900000Y-80000000D01*
X81085000Y-55050000D02*
X81085000Y-55915000D01*
X75100000Y-68000000D02*
X76900000Y-68000000D01*
X52915000Y-86015000D02*
X52900000Y-86000000D01*
X65000000Y-92000000D02*
X66100000Y-92000000D01*
X84085000Y-85985000D02*
X84100000Y-86000000D01*
X85915000Y-62400000D02*
X85915000Y-62950000D01*
X63100000Y-68000000D02*
X64900000Y-68000000D01*
X52915000Y-92950000D02*
X52915000Y-92015000D01*
X70915000Y-80950000D02*
X70915000Y-80015000D01*
X55335000Y-69050000D02*
X54285000Y-68000000D01*
X78100000Y-62000000D02*
X79900000Y-62000000D01*
X79915000Y-86950000D02*
X79915000Y-86015000D01*
X82915000Y-80015000D02*
X82900000Y-80000000D01*
X55800000Y-74000000D02*
X54000000Y-74000000D01*
X85500000Y-86000000D02*
X85915000Y-86415000D01*
X55915000Y-68950000D02*
X55915000Y-68710000D01*
X40915000Y-68950000D02*
X40915000Y-68015000D01*
X73900000Y-80000000D02*
X72100000Y-80000000D01*
X39085000Y-55050000D02*
X39085000Y-55785000D01*
X44000000Y-92000000D02*
X45100000Y-92000000D01*
X54085000Y-97050000D02*
X54085000Y-97985000D01*
X52800000Y-56000000D02*
X54100000Y-56000000D01*
X70900000Y-74000000D02*
X69100000Y-74000000D01*
X46915000Y-56950000D02*
X46915000Y-56115000D01*
X78085000Y-67985000D02*
X78100000Y-68000000D01*
X82915000Y-80950000D02*
X82915000Y-80015000D01*
X73915000Y-62950000D02*
X73915000Y-62015000D01*
X66085000Y-55050000D02*
X66085000Y-55985000D01*
X48085000Y-97985000D02*
X48100000Y-98000000D01*
X40915000Y-86950000D02*
X40915000Y-86015000D01*
X48085000Y-91050000D02*
X48085000Y-91985000D01*
X75085000Y-67050000D02*
X75085000Y-67985000D01*
X49915000Y-56015000D02*
X49900000Y-56000000D01*
X58915000Y-80950000D02*
X58915000Y-80015000D01*
X46915000Y-80015000D02*
X46900000Y-80000000D01*
X61915000Y-92085000D02*
X62000000Y-92000000D01*
X48085000Y-85985000D02*
X48100000Y-86000000D01*
X45085000Y-67985000D02*
X45100000Y-68000000D01*
X70075000Y-98000000D02*
X72100000Y-98000000D01*
X73915000Y-62015000D02*
X73900000Y-62000000D01*
X54085000Y-61985000D02*
X54100000Y-62000000D01*
X82915000Y-68950000D02*
X82915000Y-68015000D01*
X40900000Y-74000000D02*
X39600000Y-74000000D01*
X84100000Y-74000000D02*
X82900000Y-74000000D01*
X57085000Y-73050000D02*
X57085000Y-73915000D01*
X60085000Y-97050000D02*
X60085000Y-97985000D01*
X67915000Y-74015000D02*
X67900000Y-74000000D01*
X69085000Y-79985000D02*
X69100000Y-80000000D01*
X66085000Y-61050000D02*
X66085000Y-61985000D01*
X72085000Y-85050000D02*
X72085000Y-85985000D01*
X84085000Y-79050000D02*
X84085000Y-79885000D01*
X73915000Y-92015000D02*
X73900000Y-92000000D01*
X64915000Y-68015000D02*
X64900000Y-68000000D01*
X60085000Y-91050000D02*
X60085000Y-91985000D01*
X45100000Y-80000000D02*
X43900000Y-80000000D01*
X49915000Y-80015000D02*
X49900000Y-80000000D01*
X39100000Y-91000000D02*
X39075000Y-91075000D01*
X60085000Y-73985000D02*
X60100000Y-74000000D01*
X61915000Y-74950000D02*
X61915000Y-74015000D01*
X40915000Y-56950000D02*
X40915000Y-56115000D01*
X87700000Y-81000000D02*
X87700000Y-86900000D01*
X82915000Y-56115000D02*
X82800000Y-56000000D01*
X78085000Y-79050000D02*
X78085000Y-79985000D01*
X72100000Y-92000000D02*
X73900000Y-92000000D01*
X52915000Y-68950000D02*
X52915000Y-68015000D01*
X72085000Y-67985000D02*
X72100000Y-68000000D01*
X48000000Y-80000000D02*
X46900000Y-80000000D01*
X72100000Y-68000000D02*
X73900000Y-68000000D01*
X68000000Y-92000000D02*
X69100000Y-92000000D01*
X49900000Y-68000000D02*
X51100000Y-68000000D01*
X73915000Y-86015000D02*
X73900000Y-86000000D01*
X84085000Y-67050000D02*
X84085000Y-67885000D01*
X69085000Y-55885000D02*
X69200000Y-56000000D01*
X61915000Y-86015000D02*
X61900000Y-86000000D01*
X55915000Y-86950000D02*
X55915000Y-86015000D01*
X79915000Y-62015000D02*
X79900000Y-62000000D01*
X82900000Y-62000000D02*
X84100000Y-62000000D01*
X55900000Y-80000000D02*
X54100000Y-80000000D01*
X69085000Y-85050000D02*
X69085000Y-85985000D01*
X67915000Y-62950000D02*
X67915000Y-62015000D01*
X70800000Y-56000000D02*
X72000000Y-56000000D01*
X49900000Y-56000000D02*
X51100000Y-56000000D01*
X43900000Y-62000000D02*
X45100000Y-62000000D01*
X67915000Y-92950000D02*
X67915000Y-92085000D01*
X39300000Y-80000000D02*
X39085000Y-79785000D01*
X42085000Y-55050000D02*
X42085000Y-55985000D01*
X45100000Y-86000000D02*
X46900000Y-86000000D01*
X39075000Y-85075000D02*
X39085000Y-85685000D01*
X56625000Y-68000000D02*
X57000000Y-68000000D01*
X77900000Y-56000000D02*
X79900000Y-56000000D01*
X79915000Y-80085000D02*
X80000000Y-80000000D01*
X85700000Y-68000000D02*
X85915000Y-68215000D01*
X63085000Y-61885000D02*
X63200000Y-62000000D01*
X76915000Y-74950000D02*
X76915000Y-74115000D01*
X79915000Y-50015000D02*
X79900000Y-50000000D01*
X67900000Y-74000000D02*
X66000000Y-74000000D01*
X69100000Y-98000000D02*
X70075000Y-98000000D01*
X76915000Y-56950000D02*
X76915000Y-56115000D01*
X63085000Y-55050000D02*
X63085000Y-55885000D01*
X40915000Y-80015000D02*
X40900000Y-80000000D01*
X42100000Y-80000000D02*
X40900000Y-80000000D01*
X81085000Y-97050000D02*
X81085000Y-97985000D01*
X81085000Y-73985000D02*
X81100000Y-74000000D01*
X72085000Y-79985000D02*
X72100000Y-80000000D01*
X84085000Y-67885000D02*
X84200000Y-68000000D01*
X54085000Y-67985000D02*
X54100000Y-68000000D01*
X49915000Y-68950000D02*
X49915000Y-68015000D01*
X54085000Y-91985000D02*
X54100000Y-92000000D01*
X78085000Y-85050000D02*
X78085000Y-85985000D01*
X60085000Y-67985000D02*
X60100000Y-68000000D01*
X76915000Y-62950000D02*
X76915000Y-62115000D01*
X55915000Y-80015000D02*
X55900000Y-80000000D01*
X82915000Y-50015000D02*
X82900000Y-50000000D01*
X40915000Y-56115000D02*
X40800000Y-56000000D01*
X50000000Y-63000000D02*
X49915000Y-62015000D01*
X55900000Y-62000000D02*
X57100000Y-62000000D01*
X51100000Y-98000000D02*
X54100000Y-98000000D01*
X51085000Y-97985000D02*
X51100000Y-98000000D01*
X54100000Y-92000000D02*
X56000000Y-92000000D01*
X72085000Y-79050000D02*
X72085000Y-79985000D01*
X75085000Y-55985000D02*
X75100000Y-56000000D01*
X66085000Y-67985000D02*
X66100000Y-68000000D01*
X43900000Y-68000000D02*
X45100000Y-68000000D01*
X39085000Y-67115000D02*
X39085000Y-67585000D01*
X67915000Y-50085000D02*
X68000000Y-50000000D01*
X55915000Y-68950000D02*
X55815000Y-69050000D01*
X46900000Y-92000000D02*
X48100000Y-92000000D01*
X72000000Y-74000000D02*
X70900000Y-74000000D01*
X75085000Y-91985000D02*
X75100000Y-92000000D01*
X52900000Y-50000000D02*
X55900000Y-50000000D01*
X43915000Y-74950000D02*
X43915000Y-74015000D01*
X85915000Y-74950000D02*
X87650000Y-74950000D01*
X63085000Y-91050000D02*
X63085000Y-91985000D01*
X61900000Y-86000000D02*
X63100000Y-86000000D01*
X43900000Y-74000000D02*
X42100000Y-74000000D01*
X85600000Y-50000000D02*
X85915000Y-50315000D01*
X70900000Y-92000000D02*
X72100000Y-92000000D01*
X46900000Y-50000000D02*
X50000000Y-50000000D01*
X63100000Y-86000000D02*
X64900000Y-86000000D01*
X84100000Y-92000000D02*
X85500000Y-92000000D01*
X46915000Y-68015000D02*
X46900000Y-68000000D01*
X58915000Y-50950000D02*
X58915000Y-50015000D01*
X51085000Y-85985000D02*
X51100000Y-86000000D01*
X67915000Y-74950000D02*
X67915000Y-74015000D01*
X85915000Y-92415000D02*
X85915000Y-92950000D01*
X42085000Y-85050000D02*
X42085000Y-85985000D01*
X58900000Y-74000000D02*
X57000000Y-74000000D01*
X66085000Y-79050000D02*
X66085000Y-79985000D01*
X75085000Y-73050000D02*
X75085000Y-73985000D01*
X75085000Y-91050000D02*
X75085000Y-91985000D01*
X39085000Y-55785000D02*
X39300000Y-56000000D01*
X43900000Y-80000000D02*
X42100000Y-80000000D01*
X82915000Y-92015000D02*
X82900000Y-92000000D01*
X76900000Y-86000000D02*
X78100000Y-86000000D01*
X40915000Y-62950000D02*
X40915000Y-62015000D01*
X45085000Y-91050000D02*
X45085000Y-91985000D01*
X79900000Y-92000000D02*
X81200000Y-92000000D01*
X67900000Y-80000000D02*
X66100000Y-80000000D01*
X70915000Y-92950000D02*
X70915000Y-92015000D01*
X46000000Y-57000000D02*
X46865000Y-57000000D01*
X45085000Y-61985000D02*
X45100000Y-62000000D01*
X66085000Y-85050000D02*
X66085000Y-85985000D01*
X52915000Y-50015000D02*
X52900000Y-50000000D01*
X63085000Y-97050000D02*
X63085000Y-97985000D01*
X43915000Y-86950000D02*
X43915000Y-86015000D01*
X81085000Y-85050000D02*
X81085000Y-85985000D01*
X42085000Y-85985000D02*
X42100000Y-86000000D01*
X73915000Y-68950000D02*
X73915000Y-68015000D01*
X78100000Y-86000000D02*
X79900000Y-86000000D01*
X66085000Y-97985000D02*
X66100000Y-98000000D01*
X51085000Y-67985000D02*
X51100000Y-68000000D01*
X79915000Y-56015000D02*
X79900000Y-56000000D01*
X67900000Y-86000000D02*
X69100000Y-86000000D01*
X46915000Y-68950000D02*
X46915000Y-68015000D01*
X58900000Y-86000000D02*
X60100000Y-86000000D01*
X40665000Y-46500000D02*
X41865000Y-47700000D01*
X63200000Y-62000000D02*
X64900000Y-62000000D01*
X78917500Y-66217500D02*
X78085000Y-67050000D01*
X54285000Y-68000000D02*
X54100000Y-68000000D01*
X73900000Y-68000000D02*
X75100000Y-68000000D01*
X73915000Y-56115000D02*
X73800000Y-56000000D01*
X39075000Y-91075000D02*
X39085000Y-91785000D01*
X78085000Y-55815000D02*
X77900000Y-56000000D01*
X40500000Y-99125000D02*
X40500000Y-99100000D01*
X73900000Y-62000000D02*
X75100000Y-62000000D01*
X46915000Y-80950000D02*
X46915000Y-80015000D01*
X64915000Y-62950000D02*
X64915000Y-62015000D01*
X45085000Y-97050000D02*
X45085000Y-97985000D01*
X43915000Y-92085000D02*
X44000000Y-92000000D01*
X81085000Y-67915000D02*
X81000000Y-68000000D01*
X76915000Y-62115000D02*
X76800000Y-62000000D01*
X49915000Y-50085000D02*
X50000000Y-50000000D01*
X43800000Y-50000000D02*
X46900000Y-50000000D01*
X54085000Y-73050000D02*
X54085000Y-73915000D01*
X40500000Y-98000000D02*
X40500000Y-99125000D01*
X76800000Y-62000000D02*
X78100000Y-62000000D01*
X61915000Y-68015000D02*
X61900000Y-68000000D01*
X64915000Y-92085000D02*
X65000000Y-92000000D01*
X39100000Y-73000000D02*
X39085000Y-73485000D01*
X82900000Y-68000000D02*
X84200000Y-68000000D01*
X58600000Y-56000000D02*
X60200000Y-56000000D01*
X48100000Y-68000000D02*
X49900000Y-68000000D01*
X49915000Y-92015000D02*
X49900000Y-92000000D01*
X60200000Y-56000000D02*
X61900000Y-56000000D01*
X61000000Y-73975000D02*
X60975000Y-74000000D01*
X52900000Y-68000000D02*
X54100000Y-68000000D01*
X73915000Y-92950000D02*
X73915000Y-92015000D01*
X52000000Y-57219072D02*
X52645928Y-57219072D01*
X49915000Y-92950000D02*
X49915000Y-92015000D01*
X64915000Y-80015000D02*
X64900000Y-80000000D01*
X85915000Y-80615000D02*
X85300000Y-80000000D01*
X78085000Y-67050000D02*
X78085000Y-67985000D01*
X40915000Y-80950000D02*
X40915000Y-80015000D01*
X54085000Y-85985000D02*
X54100000Y-86000000D01*
X87700000Y-62000000D02*
X88500000Y-62000000D01*
X78100000Y-74000000D02*
X76800000Y-74000000D01*
X73915000Y-80950000D02*
X73915000Y-80015000D01*
X45085000Y-55985000D02*
X45100000Y-56000000D01*
X60100000Y-68000000D02*
X61900000Y-68000000D01*
X69100000Y-68000000D02*
X70900000Y-68000000D01*
X79915000Y-56950000D02*
X79915000Y-56015000D01*
X72000000Y-56000000D02*
X73800000Y-56000000D01*
X79900000Y-56000000D02*
X81000000Y-56000000D01*
X75085000Y-97985000D02*
X75100000Y-98000000D01*
X63085000Y-73050000D02*
X63085000Y-73985000D01*
X84200000Y-80000000D02*
X82900000Y-80000000D01*
X58915000Y-86015000D02*
X58900000Y-86000000D01*
X61900000Y-80000000D02*
X60100000Y-80000000D01*
X42085000Y-97985000D02*
X42100000Y-98000000D01*
X39085000Y-79785000D02*
X39100000Y-79000000D01*
X43900000Y-56000000D02*
X45100000Y-56000000D01*
X72085000Y-73050000D02*
X72085000Y-73915000D01*
X43915000Y-86015000D02*
X43900000Y-86000000D01*
X40915000Y-86015000D02*
X40900000Y-86000000D01*
X75100000Y-74000000D02*
X73900000Y-74000000D01*
X51100000Y-86000000D02*
X52900000Y-86000000D01*
X79915000Y-92015000D02*
X79900000Y-92000000D01*
X84085000Y-79885000D02*
X84200000Y-80000000D01*
X51085000Y-91050000D02*
X51085000Y-91985000D01*
X48085000Y-97050000D02*
X48085000Y-97985000D01*
X85915000Y-56215000D02*
X85915000Y-56950000D01*
X49915000Y-50950000D02*
X49915000Y-50085000D01*
X79900000Y-50000000D02*
X82900000Y-50000000D01*
X64900000Y-74000000D02*
X63100000Y-74000000D01*
X82900000Y-92000000D02*
X84100000Y-92000000D01*
X45085000Y-73050000D02*
X45085000Y-73985000D01*
X45085000Y-55050000D02*
X45085000Y-55985000D01*
X43915000Y-80950000D02*
X43915000Y-80015000D01*
X49915000Y-86950000D02*
X49915000Y-86015000D01*
X87650000Y-56950000D02*
X87700000Y-56900000D01*
X52900000Y-92000000D02*
X54100000Y-92000000D01*
X63100000Y-74000000D02*
X61900000Y-74000000D01*
X61915000Y-80015000D02*
X61900000Y-80000000D01*
X46800000Y-56000000D02*
X48000000Y-56000000D01*
X67915000Y-68015000D02*
X67900000Y-68000000D01*
X82915000Y-86015000D02*
X82900000Y-86000000D01*
X73915000Y-50015000D02*
X73900000Y-50000000D01*
X43000000Y-66100000D02*
X43000000Y-66135000D01*
X61000000Y-73200000D02*
X61000000Y-73975000D01*
X39100000Y-79000000D02*
X39085000Y-79050000D01*
X60085000Y-91985000D02*
X60100000Y-92000000D01*
X36000000Y-47500000D02*
X37000000Y-46500000D01*
X75100000Y-98000000D02*
X78100000Y-98000000D01*
X42085000Y-97050000D02*
X42085000Y-97985000D01*
X58915000Y-50015000D02*
X58900000Y-50000000D01*
X57085000Y-67050000D02*
X57085000Y-67915000D01*
X73900000Y-74000000D02*
X72000000Y-74000000D01*
X39300000Y-56000000D02*
X40000000Y-56000000D01*
X42100000Y-74000000D02*
X40900000Y-74000000D01*
X72085000Y-55050000D02*
X72085000Y-55915000D01*
X42085000Y-73985000D02*
X42100000Y-74000000D01*
X61915000Y-62950000D02*
X61915000Y-62015000D01*
X48000000Y-74000000D02*
X46900000Y-74000000D01*
X77000000Y-50000000D02*
X79900000Y-50000000D01*
X78085000Y-97985000D02*
X78100000Y-98000000D01*
X67800000Y-56000000D02*
X69200000Y-56000000D01*
X69085000Y-97985000D02*
X69100000Y-98000000D01*
X61915000Y-56015000D02*
X61900000Y-56000000D01*
X66085000Y-67050000D02*
X66085000Y-67985000D01*
X66085000Y-73915000D02*
X66000000Y-74000000D01*
X69085000Y-85985000D02*
X69100000Y-86000000D01*
X70915000Y-74015000D02*
X70900000Y-74000000D01*
X54085000Y-73915000D02*
X54000000Y-74000000D01*
X43000000Y-66135000D02*
X42085000Y-67050000D01*
X85700000Y-56000000D02*
X85915000Y-56215000D01*
X81100000Y-86000000D02*
X82900000Y-86000000D01*
X58915000Y-92950000D02*
X58915000Y-92015000D01*
X46900000Y-80000000D02*
X45100000Y-80000000D01*
X51085000Y-55985000D02*
X51100000Y-56000000D01*
X79915000Y-68015000D02*
X79900000Y-68000000D01*
X45085000Y-61050000D02*
X45085000Y-61985000D01*
X72085000Y-61985000D02*
X72100000Y-62000000D01*
X60085000Y-85985000D02*
X60100000Y-86000000D01*
X55915000Y-80950000D02*
X55915000Y-80015000D01*
X54085000Y-55050000D02*
X54085000Y-55985000D01*
X49900000Y-62000000D02*
X51100000Y-62000000D01*
X64915000Y-74015000D02*
X64900000Y-74000000D01*
X61915000Y-92950000D02*
X61915000Y-92085000D01*
X39085000Y-85050000D02*
X39100000Y-85000000D01*
X54085000Y-61050000D02*
X54085000Y-61985000D01*
X57085000Y-91050000D02*
X57085000Y-91985000D01*
X78085000Y-97050000D02*
X78085000Y-97985000D01*
X46900000Y-68000000D02*
X48100000Y-68000000D01*
X72100000Y-80000000D02*
X70900000Y-80000000D01*
X80000000Y-80000000D02*
X78100000Y-80000000D01*
X72100000Y-98000000D02*
X75100000Y-98000000D01*
X49900000Y-92000000D02*
X51100000Y-92000000D01*
X57085000Y-55050000D02*
X57085000Y-55985000D01*
X78085000Y-55050000D02*
X78085000Y-55815000D01*
X73915000Y-80015000D02*
X73900000Y-80000000D01*
X55915000Y-62950000D02*
X55915000Y-62015000D01*
X78085000Y-61050000D02*
X78085000Y-61985000D01*
X66100000Y-68000000D02*
X67900000Y-68000000D01*
X84965000Y-74000000D02*
X84100000Y-74000000D01*
X61915000Y-74015000D02*
X61900000Y-74000000D01*
X69100000Y-80000000D02*
X67900000Y-80000000D01*
X76915000Y-50085000D02*
X77000000Y-50000000D01*
X69100000Y-86000000D02*
X70900000Y-86000000D01*
X52915000Y-56950000D02*
X52915000Y-56115000D01*
X51085000Y-67050000D02*
X51085000Y-67985000D01*
X67915000Y-62015000D02*
X67900000Y-62000000D01*
X63085000Y-67050000D02*
X63085000Y-67985000D01*
X51085000Y-61050000D02*
X51085000Y-61985000D01*
X75000000Y-86000000D02*
X76900000Y-86000000D01*
X51085000Y-85050000D02*
X51085000Y-85985000D01*
X84085000Y-91050000D02*
X84085000Y-91985000D01*
X79915000Y-68950000D02*
X79915000Y-68015000D01*
X73915000Y-74950000D02*
X73915000Y-74015000D01*
X76915000Y-68950000D02*
X76915000Y-68015000D01*
X42100000Y-92000000D02*
X44000000Y-92000000D01*
X42100000Y-68000000D02*
X43900000Y-68000000D01*
X48100000Y-62000000D02*
X49900000Y-62000000D01*
X75085000Y-55050000D02*
X75085000Y-55985000D01*
X40915000Y-92015000D02*
X40900000Y-92000000D01*
X45100000Y-92000000D02*
X46900000Y-92000000D01*
X49915000Y-74950000D02*
X49915000Y-74015000D01*
X72085000Y-61050000D02*
X72085000Y-61985000D01*
X70915000Y-80015000D02*
X70900000Y-80000000D01*
X46915000Y-92950000D02*
X46915000Y-92015000D01*
X63085000Y-97985000D02*
X63100000Y-98000000D01*
X67915000Y-86015000D02*
X67900000Y-86000000D01*
X69085000Y-61985000D02*
X69100000Y-62000000D01*
X66085000Y-73050000D02*
X66085000Y-73915000D01*
X69085000Y-91985000D02*
X69100000Y-92000000D01*
X79915000Y-62950000D02*
X79915000Y-62015000D01*
X40500000Y-98000000D02*
X42100000Y-98000000D01*
X48085000Y-61050000D02*
X48085000Y-61985000D01*
X63100000Y-92000000D02*
X65000000Y-92000000D01*
X72085000Y-97050000D02*
X72085000Y-97985000D01*
X51085000Y-79985000D02*
X51100000Y-80000000D01*
X76915000Y-92950000D02*
X76915000Y-92015000D01*
X45085000Y-73985000D02*
X45100000Y-74000000D01*
X79915000Y-50950000D02*
X79915000Y-50015000D01*
X72085000Y-91050000D02*
X72085000Y-91985000D01*
X57000000Y-74000000D02*
X55800000Y-74000000D01*
X57100000Y-92000000D02*
X58900000Y-92000000D01*
X70915000Y-68015000D02*
X70900000Y-68000000D01*
X39085000Y-98000000D02*
X39400000Y-98000000D01*
X78934502Y-66217500D02*
X78917500Y-66217500D01*
X54100000Y-62000000D02*
X55900000Y-62000000D01*
X60085000Y-55885000D02*
X60200000Y-56000000D01*
X39400000Y-98000000D02*
X40500000Y-98000000D01*
X39100000Y-67100000D02*
X39085000Y-67115000D01*
X66085000Y-97050000D02*
X66085000Y-97985000D01*
X55900000Y-50000000D02*
X58900000Y-50000000D01*
X56000000Y-56000000D02*
X57100000Y-56000000D01*
X81085000Y-97985000D02*
X81100000Y-98000000D01*
X78085000Y-79985000D02*
X78100000Y-80000000D01*
X76900000Y-92000000D02*
X78100000Y-92000000D01*
X57100000Y-86000000D02*
X58900000Y-86000000D01*
X42085000Y-61985000D02*
X42100000Y-62000000D01*
X69085000Y-55050000D02*
X69085000Y-55885000D01*
D15*
%TO.N,+5V*%
X40900000Y-59000000D02*
X39900000Y-59000000D01*
X73915000Y-83950000D02*
X73915000Y-83015000D01*
D14*
X46915000Y-95015000D02*
X46900000Y-95000000D01*
D15*
X52915000Y-89950000D02*
X52915000Y-89015000D01*
D14*
X78085000Y-82985000D02*
X78100000Y-83000000D01*
D15*
X52915000Y-59950000D02*
X52915000Y-59010000D01*
X63075000Y-95000000D02*
X62075000Y-95000000D01*
X78150000Y-95000000D02*
X76950000Y-95000000D01*
X43900000Y-53100000D02*
X45100000Y-53100000D01*
X85000000Y-95000000D02*
X84125000Y-95000000D01*
X69085000Y-88050000D02*
X69085000Y-88935000D01*
D14*
X76915000Y-89065000D02*
X76850000Y-89000000D01*
D15*
X39300000Y-77000000D02*
X40900000Y-77000000D01*
X58915000Y-71950000D02*
X58915000Y-70835000D01*
D14*
X72085000Y-76985000D02*
X72100000Y-77000000D01*
X76915000Y-83015000D02*
X76900000Y-83000000D01*
X45085000Y-94985000D02*
X45100000Y-95000000D01*
X49915000Y-77015000D02*
X49900000Y-77000000D01*
D15*
X44000000Y-83000000D02*
X42000000Y-83000000D01*
D14*
X79915000Y-77015000D02*
X79900000Y-77000000D01*
D15*
X65025000Y-95000000D02*
X63075000Y-95000000D01*
X46975000Y-89000000D02*
X45075000Y-89000000D01*
D14*
X81085000Y-88990000D02*
X81075000Y-89000000D01*
D15*
X78085000Y-52050000D02*
X78085000Y-53085000D01*
D14*
X43915000Y-95010000D02*
X43925000Y-95000000D01*
X46915000Y-53115000D02*
X46900000Y-53100000D01*
D15*
X40925000Y-70800000D02*
X39100000Y-70800000D01*
X78085000Y-70785000D02*
X78100000Y-70800000D01*
X69085000Y-58050000D02*
X69085000Y-58965000D01*
X64915000Y-71950000D02*
X64915000Y-70815000D01*
D14*
X82915000Y-77015000D02*
X82900000Y-77000000D01*
D15*
X49915000Y-53950000D02*
X49915000Y-53185000D01*
X42075000Y-95000000D02*
X40875000Y-95000000D01*
X76900000Y-83000000D02*
X75100000Y-83000000D01*
X85915000Y-53415000D02*
X85915000Y-53950000D01*
X85915000Y-89915000D02*
X85000000Y-89000000D01*
D14*
X76915000Y-77015000D02*
X76900000Y-77000000D01*
D15*
X78085000Y-76050000D02*
X78085000Y-76985000D01*
X75085000Y-82050000D02*
X75085000Y-82985000D01*
X60000000Y-77000000D02*
X62000000Y-77000000D01*
X40900000Y-77000000D02*
X42100000Y-77000000D01*
X60125000Y-70800000D02*
X58950000Y-70800000D01*
D14*
X73915000Y-59040000D02*
X73875000Y-59000000D01*
D15*
X58900000Y-77000000D02*
X60000000Y-77000000D01*
X52915000Y-71950000D02*
X52915000Y-70840000D01*
X42000000Y-70800000D02*
X40925000Y-70800000D01*
X45085000Y-94050000D02*
X45085000Y-94985000D01*
X70900000Y-83000000D02*
X69100000Y-83000000D01*
D14*
X40915000Y-89015000D02*
X40900000Y-89000000D01*
D15*
X72085000Y-88050000D02*
X72085000Y-88960000D01*
D14*
X66085000Y-70790000D02*
X66075000Y-70800000D01*
X70915000Y-59015000D02*
X70900000Y-59000000D01*
X54085000Y-82985000D02*
X54100000Y-83000000D01*
X73915000Y-95015000D02*
X73900000Y-95000000D01*
D15*
X61950000Y-59000000D02*
X60075000Y-59000000D01*
D14*
X54085000Y-76985000D02*
X54100000Y-77000000D01*
D15*
X51100000Y-77000000D02*
X53000000Y-77000000D01*
X66085000Y-70050000D02*
X66085000Y-70790000D01*
X46915000Y-59950000D02*
X46915000Y-59040000D01*
X64915000Y-95950000D02*
X64915000Y-95110000D01*
X69150000Y-89000000D02*
X67850000Y-89000000D01*
X70915000Y-83950000D02*
X70915000Y-83015000D01*
X61915000Y-83950000D02*
X61915000Y-83085000D01*
X52915000Y-83950000D02*
X52915000Y-83015000D01*
D14*
X43915000Y-65085000D02*
X44000000Y-65000000D01*
X57085000Y-53085000D02*
X57100000Y-53100000D01*
X48085000Y-70760000D02*
X48125000Y-70800000D01*
D15*
X53000000Y-65000000D02*
X51100000Y-65000000D01*
D14*
X73915000Y-89015000D02*
X73900000Y-89000000D01*
X57085000Y-94990000D02*
X57075000Y-95000000D01*
D15*
X82900000Y-53100000D02*
X84100000Y-53100000D01*
D14*
X75085000Y-53085000D02*
X75100000Y-53100000D01*
D15*
X52875000Y-70800000D02*
X51175000Y-70800000D01*
D14*
X42085000Y-82915000D02*
X42000000Y-83000000D01*
D15*
X42000000Y-83000000D02*
X41000000Y-83000000D01*
X69050000Y-59000000D02*
X67925000Y-59000000D01*
X64800000Y-83000000D02*
X63100000Y-83000000D01*
X64915000Y-53950000D02*
X64915000Y-53115000D01*
X59000000Y-65000000D02*
X57100000Y-65000000D01*
D14*
X84085000Y-76985000D02*
X84100000Y-77000000D01*
D15*
X57100000Y-70800000D02*
X55775000Y-70800000D01*
X78085000Y-88050000D02*
X78085000Y-88940000D01*
X69100000Y-77000000D02*
X70900000Y-77000000D01*
D14*
X57085000Y-58960000D02*
X57125000Y-59000000D01*
D15*
X75085000Y-94050000D02*
X75085000Y-94935000D01*
D14*
X84085000Y-70785000D02*
X84100000Y-70800000D01*
X81085000Y-76985000D02*
X81100000Y-77000000D01*
D15*
X73915000Y-71950000D02*
X73915000Y-70885000D01*
D14*
X43915000Y-70815000D02*
X43900000Y-70800000D01*
D15*
X79900000Y-59000000D02*
X78100000Y-59000000D01*
X70915000Y-89950000D02*
X70915000Y-89010000D01*
D14*
X48085000Y-76985000D02*
X48100000Y-77000000D01*
D15*
X63100000Y-77000000D02*
X64800000Y-77000000D01*
X43925000Y-95000000D02*
X42075000Y-95000000D01*
X70900000Y-77000000D02*
X72100000Y-77000000D01*
D14*
X40915000Y-83085000D02*
X41000000Y-83000000D01*
D15*
X66085000Y-58050000D02*
X66085000Y-58965000D01*
D14*
X79915000Y-65015000D02*
X79900000Y-65000000D01*
D15*
X54085000Y-70050000D02*
X54085000Y-70765000D01*
X76875000Y-59000000D02*
X75075000Y-59000000D01*
X48100000Y-95000000D02*
X46900000Y-95000000D01*
D14*
X49915000Y-59015000D02*
X49900000Y-59000000D01*
D15*
X63100000Y-65000000D02*
X61900000Y-65000000D01*
D14*
X43915000Y-77015000D02*
X43900000Y-77000000D01*
D15*
X39125000Y-89000000D02*
X37000000Y-89000000D01*
X66085000Y-64050000D02*
X66085000Y-64985000D01*
D14*
X46915000Y-83085000D02*
X47000000Y-83000000D01*
D15*
X48100000Y-77000000D02*
X49900000Y-77000000D01*
X78100000Y-83000000D02*
X76900000Y-83000000D01*
D14*
X69085000Y-76985000D02*
X69100000Y-77000000D01*
D15*
X63085000Y-76050000D02*
X63085000Y-76985000D01*
X70900000Y-59000000D02*
X69050000Y-59000000D01*
X54085000Y-64050000D02*
X54085000Y-64985000D01*
X43915000Y-53950000D02*
X43915000Y-53115000D01*
X42100000Y-53100000D02*
X43900000Y-53100000D01*
X85915000Y-95360500D02*
X86275500Y-95000000D01*
X58900000Y-83000000D02*
X57100000Y-83000000D01*
X49915000Y-65950000D02*
X49915000Y-65015000D01*
X67900000Y-77000000D02*
X69100000Y-77000000D01*
X79915000Y-71950000D02*
X79915000Y-70885000D01*
X54100000Y-65000000D02*
X53000000Y-65000000D01*
X67915000Y-89950000D02*
X67915000Y-89065000D01*
X51100000Y-65000000D02*
X49900000Y-65000000D01*
X39085000Y-94050000D02*
X39085000Y-94985000D01*
D14*
X45085000Y-76985000D02*
X45100000Y-77000000D01*
D15*
X63100000Y-59000000D02*
X61950000Y-59000000D01*
D14*
X61915000Y-89110000D02*
X62025000Y-89000000D01*
D15*
X73915000Y-95950000D02*
X73915000Y-95015000D01*
X42085000Y-58050000D02*
X42085000Y-58990000D01*
D14*
X49915000Y-65015000D02*
X49900000Y-65000000D01*
D15*
X75100000Y-70800000D02*
X74000000Y-70800000D01*
X73900000Y-95000000D02*
X72075000Y-95000000D01*
X46900000Y-53100000D02*
X48100000Y-53100000D01*
X49900000Y-83000000D02*
X48200000Y-83000000D01*
X55915000Y-95950000D02*
X55915000Y-95035000D01*
X58950000Y-70800000D02*
X57100000Y-70800000D01*
X55915000Y-59950000D02*
X55915000Y-59010000D01*
D14*
X75085000Y-88985000D02*
X75100000Y-89000000D01*
D15*
X64800000Y-77000000D02*
X66000000Y-77000000D01*
X45100000Y-70800000D02*
X43900000Y-70800000D01*
D14*
X54085000Y-64985000D02*
X54100000Y-65000000D01*
D15*
X76915000Y-95950000D02*
X76915000Y-95035000D01*
X64915000Y-95110000D02*
X65025000Y-95000000D01*
X55915000Y-65950000D02*
X55915000Y-65085000D01*
X45085000Y-52050000D02*
X45085000Y-53085000D01*
X42100000Y-65000000D02*
X41785000Y-65000000D01*
X51000000Y-83000000D02*
X49900000Y-83000000D01*
X58915000Y-95950000D02*
X58915000Y-95010000D01*
X52925000Y-59000000D02*
X51050000Y-59000000D01*
X84150000Y-59000000D02*
X82925000Y-59000000D01*
X49900000Y-59000000D02*
X48075000Y-59000000D01*
X46800000Y-65000000D02*
X45100000Y-65000000D01*
X73900000Y-83000000D02*
X72100000Y-83000000D01*
X76900000Y-77000000D02*
X78100000Y-77000000D01*
D14*
X72085000Y-82985000D02*
X72100000Y-83000000D01*
X42085000Y-94990000D02*
X42075000Y-95000000D01*
X52915000Y-77085000D02*
X53000000Y-77000000D01*
D15*
X72085000Y-94050000D02*
X72085000Y-94990000D01*
X51085000Y-52050000D02*
X51085000Y-53085000D01*
X76950000Y-95000000D02*
X75150000Y-95000000D01*
X84025000Y-89000000D02*
X82925000Y-89000000D01*
D14*
X49915000Y-95035000D02*
X49950000Y-95000000D01*
X82915000Y-65015000D02*
X82900000Y-65000000D01*
D15*
X54100000Y-59000000D02*
X52925000Y-59000000D01*
D14*
X49915000Y-53185000D02*
X50000000Y-53100000D01*
D15*
X79915000Y-77950000D02*
X79915000Y-77015000D01*
D14*
X54085000Y-58985000D02*
X54100000Y-59000000D01*
D15*
X61900000Y-70800000D02*
X60125000Y-70800000D01*
X84100000Y-83000000D02*
X82900000Y-83000000D01*
X46915000Y-65115000D02*
X46800000Y-65000000D01*
D14*
X72085000Y-70050000D02*
X72100000Y-70000000D01*
D15*
X39900000Y-59000000D02*
X39050000Y-59000000D01*
D14*
X48085000Y-94985000D02*
X48100000Y-95000000D01*
D15*
X45100000Y-59000000D02*
X43900000Y-59000000D01*
X54085000Y-76050000D02*
X54085000Y-76985000D01*
D14*
X57085000Y-82985000D02*
X57100000Y-83000000D01*
D15*
X36900000Y-77000000D02*
X36900000Y-94200000D01*
D14*
X82915000Y-83015000D02*
X82900000Y-83000000D01*
D15*
X49950000Y-95000000D02*
X48100000Y-95000000D01*
D14*
X76915000Y-95035000D02*
X76950000Y-95000000D01*
D15*
X75100000Y-53100000D02*
X76900000Y-53100000D01*
X63125000Y-89000000D02*
X62025000Y-89000000D01*
D14*
X81085000Y-70785000D02*
X81100000Y-70800000D01*
X81085000Y-53085000D02*
X81100000Y-53100000D01*
D15*
X69085000Y-94050000D02*
X69085000Y-94985000D01*
X72085000Y-52050000D02*
X72085000Y-53085000D01*
X45085000Y-88050000D02*
X45085000Y-88990000D01*
X84085000Y-88050000D02*
X84085000Y-88940000D01*
X66000000Y-83000000D02*
X64800000Y-83000000D01*
X45000000Y-83000000D02*
X44000000Y-83000000D01*
X81085000Y-88050000D02*
X81085000Y-88990000D01*
D14*
X67915000Y-70840000D02*
X67875000Y-70800000D01*
X58915000Y-70835000D02*
X58950000Y-70800000D01*
D15*
X48100000Y-89000000D02*
X46975000Y-89000000D01*
D14*
X70915000Y-77015000D02*
X70900000Y-77000000D01*
D15*
X57085000Y-70785000D02*
X57085000Y-70050000D01*
X61900000Y-65000000D02*
X60100000Y-65000000D01*
X54100000Y-53100000D02*
X55900000Y-53100000D01*
D14*
X84085000Y-94960000D02*
X84125000Y-95000000D01*
X51975000Y-54890000D02*
X51975000Y-55375500D01*
D15*
X42075000Y-59000000D02*
X40900000Y-59000000D01*
X54050000Y-70800000D02*
X52875000Y-70800000D01*
X60075000Y-59000000D02*
X58950000Y-59000000D01*
D14*
X39085000Y-94985000D02*
X39100000Y-95000000D01*
D15*
X66085000Y-82050000D02*
X66085000Y-82915000D01*
X66085000Y-94050000D02*
X66085000Y-94915000D01*
X82915000Y-77950000D02*
X82915000Y-77015000D01*
X72085000Y-58050000D02*
X72085000Y-58985000D01*
D14*
X72085000Y-70785000D02*
X72100000Y-70800000D01*
D15*
X79915000Y-83950000D02*
X79915000Y-83085000D01*
X55775000Y-70800000D02*
X54050000Y-70800000D01*
D14*
X57085000Y-88940000D02*
X57025000Y-89000000D01*
D15*
X40800000Y-65000000D02*
X39000000Y-65000000D01*
D14*
X40915000Y-95040000D02*
X40875000Y-95000000D01*
X61915000Y-59035000D02*
X61950000Y-59000000D01*
D15*
X84085000Y-58050000D02*
X84085000Y-58935000D01*
X45085000Y-76050000D02*
X45085000Y-76985000D01*
X82900000Y-95000000D02*
X81075000Y-95000000D01*
D14*
X66085000Y-58965000D02*
X66050000Y-59000000D01*
D15*
X60085000Y-82050000D02*
X60085000Y-82885000D01*
X73900000Y-77000000D02*
X75100000Y-77000000D01*
D14*
X79915000Y-89015000D02*
X79900000Y-89000000D01*
X57085000Y-64985000D02*
X57100000Y-65000000D01*
D15*
X39100000Y-83000000D02*
X36900000Y-83000000D01*
X40915000Y-65115000D02*
X40800000Y-65000000D01*
X39300000Y-77000000D02*
X36900000Y-77000000D01*
D14*
X75085000Y-64915000D02*
X75000000Y-65000000D01*
X55915000Y-89040000D02*
X55875000Y-89000000D01*
D15*
X54085000Y-88050000D02*
X54085000Y-88960000D01*
X79975000Y-95000000D02*
X78150000Y-95000000D01*
X70915000Y-65115000D02*
X70800000Y-65000000D01*
X66075000Y-89000000D02*
X64925000Y-89000000D01*
D14*
X78085000Y-53085000D02*
X78100000Y-53100000D01*
D15*
X49900000Y-77000000D02*
X51100000Y-77000000D01*
X75075000Y-59000000D02*
X73875000Y-59000000D01*
X66085000Y-52050000D02*
X66085000Y-53085000D01*
X40915000Y-77950000D02*
X40915000Y-77015000D01*
X81125000Y-59000000D02*
X79900000Y-59000000D01*
X57085000Y-58050000D02*
X57085000Y-58960000D01*
D14*
X51085000Y-58965000D02*
X51050000Y-59000000D01*
D15*
X72075000Y-95000000D02*
X70925000Y-95000000D01*
X46915000Y-83950000D02*
X46915000Y-83085000D01*
X50000000Y-53100000D02*
X51100000Y-53100000D01*
D14*
X69085000Y-94985000D02*
X69100000Y-95000000D01*
D15*
X42085000Y-88050000D02*
X42085000Y-88965000D01*
X42085000Y-64050000D02*
X42085000Y-64985000D01*
D14*
X66085000Y-64985000D02*
X66100000Y-65000000D01*
X55915000Y-77015000D02*
X55900000Y-77000000D01*
D15*
X46915000Y-71950000D02*
X46915000Y-70835000D01*
D14*
X67915000Y-89065000D02*
X67850000Y-89000000D01*
X43915000Y-59015000D02*
X43900000Y-59000000D01*
X63085000Y-76985000D02*
X63100000Y-77000000D01*
X52915000Y-53950000D02*
X51975000Y-54890000D01*
D15*
X79915000Y-89950000D02*
X79915000Y-89015000D01*
X52900000Y-89000000D02*
X51150000Y-89000000D01*
X69085000Y-64050000D02*
X69085000Y-64915000D01*
X58950000Y-59000000D02*
X57125000Y-59000000D01*
X66100000Y-53100000D02*
X67900000Y-53100000D01*
X75100000Y-77000000D02*
X76900000Y-77000000D01*
X80000000Y-70800000D02*
X78100000Y-70800000D01*
D14*
X63085000Y-82985000D02*
X63100000Y-83000000D01*
D15*
X82925000Y-89000000D02*
X81075000Y-89000000D01*
X60085000Y-94050000D02*
X60085000Y-94965000D01*
X42085000Y-52050000D02*
X42085000Y-53085000D01*
X82915000Y-53950000D02*
X82915000Y-53115000D01*
X43915000Y-89950000D02*
X43915000Y-89010000D01*
X84125000Y-95000000D02*
X82900000Y-95000000D01*
X76915000Y-89950000D02*
X76915000Y-89065000D01*
D14*
X52915000Y-95035000D02*
X52950000Y-95000000D01*
D15*
X85915000Y-83915000D02*
X85000000Y-83000000D01*
X61915000Y-71950000D02*
X61915000Y-70815000D01*
D14*
X51085000Y-70710000D02*
X51175000Y-70800000D01*
D15*
X55915000Y-53950000D02*
X55915000Y-53115000D01*
X69085000Y-52050000D02*
X69085000Y-53085000D01*
X67925000Y-59000000D02*
X66050000Y-59000000D01*
X39050000Y-59000000D02*
X36900000Y-59000000D01*
X79915000Y-70885000D02*
X80000000Y-70800000D01*
X45100000Y-53100000D02*
X46900000Y-53100000D01*
D14*
X61915000Y-65015000D02*
X61900000Y-65000000D01*
X60085000Y-76915000D02*
X60000000Y-77000000D01*
D15*
X40915000Y-83950000D02*
X40915000Y-83085000D01*
X82915000Y-65950000D02*
X82915000Y-65015000D01*
D14*
X52915000Y-89015000D02*
X52900000Y-89000000D01*
D15*
X51025000Y-95000000D02*
X49950000Y-95000000D01*
X51050000Y-59000000D02*
X49900000Y-59000000D01*
X67900000Y-53100000D02*
X69100000Y-53100000D01*
D14*
X61915000Y-77085000D02*
X62000000Y-77000000D01*
D15*
X84085000Y-94050000D02*
X84085000Y-94960000D01*
X76900000Y-53100000D02*
X78100000Y-53100000D01*
X48200000Y-83000000D02*
X48000000Y-83000000D01*
D14*
X79915000Y-59015000D02*
X79900000Y-59000000D01*
D15*
X67925000Y-95000000D02*
X66000000Y-95000000D01*
D14*
X66085000Y-82915000D02*
X66000000Y-83000000D01*
D15*
X70925000Y-89000000D02*
X69150000Y-89000000D01*
X54085000Y-94050000D02*
X54085000Y-94990000D01*
X72100000Y-59000000D02*
X70900000Y-59000000D01*
X52915000Y-95950000D02*
X52915000Y-95035000D01*
X57085000Y-52050000D02*
X57085000Y-53085000D01*
D14*
X63085000Y-58985000D02*
X63100000Y-59000000D01*
X78085000Y-88940000D02*
X78025000Y-89000000D01*
D15*
X44000000Y-65000000D02*
X42100000Y-65000000D01*
X69100000Y-70800000D02*
X67875000Y-70800000D01*
D14*
X66085000Y-53085000D02*
X66100000Y-53100000D01*
D15*
X46900000Y-77000000D02*
X48100000Y-77000000D01*
X76850000Y-89000000D02*
X75100000Y-89000000D01*
X70915000Y-77950000D02*
X70915000Y-77015000D01*
D14*
X85915000Y-95950000D02*
X85915000Y-95915000D01*
D15*
X48075000Y-59000000D02*
X46875000Y-59000000D01*
X57085000Y-76050000D02*
X57085000Y-76985000D01*
D14*
X39085000Y-88960000D02*
X39125000Y-89000000D01*
D15*
X48085000Y-88050000D02*
X48085000Y-88985000D01*
X78085000Y-64050000D02*
X78085000Y-64985000D01*
D14*
X81085000Y-82985000D02*
X81100000Y-83000000D01*
D15*
X75085000Y-58050000D02*
X75085000Y-58990000D01*
D14*
X67915000Y-95010000D02*
X67925000Y-95000000D01*
X51085000Y-64985000D02*
X51100000Y-65000000D01*
D15*
X64915000Y-77115000D02*
X64800000Y-77000000D01*
X67915000Y-59950000D02*
X67915000Y-59010000D01*
X61900000Y-53100000D02*
X63200000Y-53100000D01*
X80000000Y-83000000D02*
X78100000Y-83000000D01*
X70915000Y-53950000D02*
X70915000Y-53115000D01*
X62000000Y-83000000D02*
X60200000Y-83000000D01*
D14*
X72085000Y-53085000D02*
X72100000Y-53100000D01*
X60085000Y-70760000D02*
X60125000Y-70800000D01*
D15*
X64900000Y-65000000D02*
X63100000Y-65000000D01*
X48085000Y-76050000D02*
X48085000Y-76985000D01*
X70800000Y-65000000D02*
X69000000Y-65000000D01*
D14*
X49915000Y-89015000D02*
X49900000Y-89000000D01*
D15*
X81085000Y-58050000D02*
X81085000Y-58960000D01*
X63085000Y-94050000D02*
X63085000Y-94990000D01*
X61915000Y-95160000D02*
X62075000Y-95000000D01*
X60000000Y-53100000D02*
X61900000Y-53100000D01*
X75085000Y-88050000D02*
X75085000Y-88985000D01*
D14*
X58915000Y-53185000D02*
X59000000Y-53100000D01*
X72085000Y-94990000D02*
X72075000Y-95000000D01*
X69085000Y-70785000D02*
X69100000Y-70800000D01*
X57100000Y-70800000D02*
X57085000Y-70785000D01*
D15*
X84100000Y-70800000D02*
X82750000Y-70800000D01*
D14*
X42085000Y-53085000D02*
X42100000Y-53100000D01*
D15*
X67900000Y-65000000D02*
X66100000Y-65000000D01*
D14*
X81085000Y-64985000D02*
X81100000Y-65000000D01*
D15*
X78025000Y-89000000D02*
X76850000Y-89000000D01*
D14*
X82915000Y-89010000D02*
X82925000Y-89000000D01*
D15*
X78085000Y-82050000D02*
X78085000Y-82985000D01*
D14*
X75085000Y-82985000D02*
X75100000Y-83000000D01*
X58915000Y-77015000D02*
X58900000Y-77000000D01*
X60085000Y-94965000D02*
X60050000Y-95000000D01*
X61915000Y-83085000D02*
X62000000Y-83000000D01*
D15*
X66085000Y-88050000D02*
X66085000Y-88990000D01*
X42085000Y-82050000D02*
X42085000Y-82915000D01*
X67915000Y-53950000D02*
X67915000Y-53115000D01*
X52950000Y-95000000D02*
X51025000Y-95000000D01*
X58915000Y-59950000D02*
X58915000Y-59035000D01*
X43915000Y-65950000D02*
X43915000Y-65085000D01*
D14*
X76915000Y-59040000D02*
X76875000Y-59000000D01*
D15*
X84100000Y-77000000D02*
X85000000Y-77000000D01*
X58915000Y-77950000D02*
X58915000Y-77015000D01*
X51085000Y-88050000D02*
X51085000Y-88935000D01*
X72085000Y-76050000D02*
X72085000Y-76985000D01*
D14*
X64915000Y-65015000D02*
X64900000Y-65000000D01*
D15*
X39085000Y-88050000D02*
X39085000Y-88960000D01*
X82900000Y-77000000D02*
X84100000Y-77000000D01*
D14*
X39085000Y-76985000D02*
X39100000Y-77000000D01*
D15*
X60085000Y-64050000D02*
X60085000Y-64985000D01*
D14*
X55915000Y-95035000D02*
X55950000Y-95000000D01*
X60085000Y-53015000D02*
X60000000Y-53100000D01*
D15*
X85600000Y-53100000D02*
X85915000Y-53415000D01*
D14*
X81085000Y-94990000D02*
X81075000Y-95000000D01*
D15*
X81100000Y-83000000D02*
X80000000Y-83000000D01*
X49900000Y-65000000D02*
X48100000Y-65000000D01*
X49975000Y-70800000D02*
X48125000Y-70800000D01*
X59000000Y-53100000D02*
X60000000Y-53100000D01*
X81085000Y-52050000D02*
X81085000Y-53085000D01*
X85000000Y-89000000D02*
X84025000Y-89000000D01*
X82750000Y-70800000D02*
X81100000Y-70800000D01*
D14*
X69085000Y-88935000D02*
X69150000Y-89000000D01*
D15*
X75100000Y-83000000D02*
X73900000Y-83000000D01*
D14*
X45085000Y-64985000D02*
X45100000Y-65000000D01*
D15*
X62025000Y-89000000D02*
X60225000Y-89000000D01*
D14*
X67915000Y-65015000D02*
X67900000Y-65000000D01*
X85915000Y-89950000D02*
X85915000Y-89915000D01*
D15*
X55900000Y-83000000D02*
X54100000Y-83000000D01*
X48085000Y-64050000D02*
X48085000Y-64985000D01*
D14*
X85915000Y-71950000D02*
X85915000Y-71915000D01*
D15*
X51085000Y-94050000D02*
X51085000Y-94940000D01*
X55775000Y-70800000D02*
X55915000Y-70940000D01*
X48085000Y-82050000D02*
X48085000Y-82915000D01*
X82915000Y-95950000D02*
X82915000Y-95015000D01*
X45075000Y-89000000D02*
X43925000Y-89000000D01*
X64915000Y-77950000D02*
X64915000Y-77115000D01*
X55900000Y-53100000D02*
X57100000Y-53100000D01*
D14*
X51085000Y-53085000D02*
X51100000Y-53100000D01*
D15*
X58915000Y-89950000D02*
X58915000Y-89135000D01*
D14*
X67915000Y-77015000D02*
X67900000Y-77000000D01*
X72085000Y-58985000D02*
X72100000Y-59000000D01*
X55915000Y-83015000D02*
X55900000Y-83000000D01*
X45085000Y-88990000D02*
X45075000Y-89000000D01*
D15*
X48085000Y-70050000D02*
X48085000Y-70760000D01*
X73915000Y-89950000D02*
X73915000Y-89015000D01*
D14*
X67915000Y-59010000D02*
X67925000Y-59000000D01*
D15*
X45100000Y-65000000D02*
X44000000Y-65000000D01*
D14*
X58915000Y-65085000D02*
X59000000Y-65000000D01*
D15*
X36900000Y-94200000D02*
X37700000Y-95000000D01*
X57125000Y-59000000D02*
X55925000Y-59000000D01*
D14*
X75085000Y-58990000D02*
X75075000Y-59000000D01*
D15*
X42085000Y-76050000D02*
X42085000Y-76985000D01*
D14*
X85915000Y-59950000D02*
X85915000Y-59915000D01*
X81085000Y-70050000D02*
X81100000Y-70000000D01*
D15*
X85915000Y-95950000D02*
X85915000Y-95360500D01*
X55915000Y-77950000D02*
X55915000Y-77015000D01*
X54125000Y-89000000D02*
X52900000Y-89000000D01*
D14*
X51085000Y-82915000D02*
X51000000Y-83000000D01*
D15*
X61915000Y-59950000D02*
X61915000Y-59035000D01*
X36900000Y-52000000D02*
X36950000Y-52050000D01*
D14*
X64915000Y-89010000D02*
X64925000Y-89000000D01*
D15*
X85000000Y-77000000D02*
X85915000Y-77915000D01*
X57100000Y-53100000D02*
X59000000Y-53100000D01*
X76915000Y-77950000D02*
X76915000Y-77015000D01*
D14*
X43915000Y-89010000D02*
X43925000Y-89000000D01*
D15*
X64925000Y-89000000D02*
X63125000Y-89000000D01*
X84085000Y-64050000D02*
X84085000Y-64985000D01*
X63085000Y-52050000D02*
X63085000Y-52985000D01*
X49915000Y-89950000D02*
X49915000Y-89015000D01*
D14*
X51085000Y-88935000D02*
X51150000Y-89000000D01*
D15*
X45100000Y-95000000D02*
X43925000Y-95000000D01*
X41785000Y-65000000D02*
X40800000Y-65000000D01*
X70900000Y-53100000D02*
X72100000Y-53100000D01*
X69000000Y-65000000D02*
X67900000Y-65000000D01*
X70915000Y-65950000D02*
X70915000Y-65115000D01*
D14*
X49915000Y-59950000D02*
X49000000Y-59950000D01*
D15*
X42085000Y-94050000D02*
X42085000Y-94990000D01*
X51175000Y-70800000D02*
X49975000Y-70800000D01*
X39085000Y-76050000D02*
X39085000Y-76985000D01*
X48100000Y-53100000D02*
X48400000Y-52800000D01*
X60085000Y-76050000D02*
X60085000Y-76915000D01*
X40915000Y-59015000D02*
X40915000Y-59950000D01*
X79915000Y-59950000D02*
X79915000Y-59015000D01*
X79900000Y-89000000D02*
X78025000Y-89000000D01*
X63085000Y-64050000D02*
X63085000Y-64985000D01*
D14*
X81085000Y-58960000D02*
X81125000Y-59000000D01*
X49915000Y-70860000D02*
X49975000Y-70800000D01*
D15*
X76915000Y-71950000D02*
X76915000Y-70885000D01*
D14*
X79915000Y-53115000D02*
X79900000Y-53100000D01*
X51085000Y-76985000D02*
X51100000Y-77000000D01*
D15*
X41000000Y-83000000D02*
X39100000Y-83000000D01*
D14*
X63085000Y-94990000D02*
X63075000Y-95000000D01*
D15*
X66000000Y-95000000D02*
X65025000Y-95000000D01*
X46915000Y-95950000D02*
X46915000Y-95015000D01*
D14*
X54085000Y-88960000D02*
X54125000Y-89000000D01*
D15*
X69085000Y-76050000D02*
X69085000Y-76985000D01*
X81075000Y-95000000D02*
X79975000Y-95000000D01*
X76915000Y-59950000D02*
X76915000Y-59040000D01*
X81075000Y-89000000D02*
X79900000Y-89000000D01*
X67915000Y-95950000D02*
X67915000Y-95010000D01*
X75085000Y-64050000D02*
X75085000Y-64915000D01*
X64915000Y-59950000D02*
X64915000Y-59010000D01*
D14*
X42085000Y-58990000D02*
X42075000Y-59000000D01*
X69085000Y-53085000D02*
X69100000Y-53100000D01*
D15*
X57075000Y-95000000D02*
X55950000Y-95000000D01*
X77000000Y-70800000D02*
X75100000Y-70800000D01*
D14*
X54085000Y-70765000D02*
X54050000Y-70800000D01*
D15*
X51150000Y-89000000D02*
X49900000Y-89000000D01*
D14*
X43915000Y-53115000D02*
X43900000Y-53100000D01*
D15*
X82915000Y-59950000D02*
X82915000Y-59010000D01*
X82915000Y-70965000D02*
X82750000Y-70800000D01*
X40900000Y-53100000D02*
X42100000Y-53100000D01*
X78100000Y-70800000D02*
X77000000Y-70800000D01*
X64915000Y-89950000D02*
X64915000Y-89010000D01*
D14*
X70915000Y-95010000D02*
X70925000Y-95000000D01*
X70915000Y-89010000D02*
X70925000Y-89000000D01*
X48085000Y-82915000D02*
X48000000Y-83000000D01*
D15*
X78100000Y-77000000D02*
X79900000Y-77000000D01*
X85000000Y-59000000D02*
X84150000Y-59000000D01*
X52915000Y-77950000D02*
X52915000Y-77085000D01*
X43900000Y-77000000D02*
X45100000Y-77000000D01*
X63085000Y-58050000D02*
X63085000Y-58985000D01*
D14*
X61915000Y-53115000D02*
X61900000Y-53100000D01*
D15*
X39100000Y-70000000D02*
X39100000Y-70800000D01*
X68000000Y-83000000D02*
X66000000Y-83000000D01*
X85915000Y-95915000D02*
X85000000Y-95000000D01*
X61915000Y-65950000D02*
X61915000Y-65015000D01*
D14*
X73915000Y-77015000D02*
X73900000Y-77000000D01*
X45085000Y-58985000D02*
X45100000Y-59000000D01*
X40915000Y-53115000D02*
X40900000Y-53100000D01*
X40900000Y-59000000D02*
X40915000Y-59015000D01*
D15*
X40900000Y-89000000D02*
X39125000Y-89000000D01*
D14*
X69085000Y-58965000D02*
X69050000Y-59000000D01*
D15*
X63100000Y-83000000D02*
X62000000Y-83000000D01*
X63100000Y-70800000D02*
X61900000Y-70800000D01*
X73875000Y-59000000D02*
X72100000Y-59000000D01*
D14*
X46915000Y-70835000D02*
X46950000Y-70800000D01*
D15*
X62075000Y-95000000D02*
X60050000Y-95000000D01*
X60085000Y-58050000D02*
X60085000Y-58990000D01*
X54100000Y-77000000D02*
X55900000Y-77000000D01*
X73900000Y-53100000D02*
X75100000Y-53100000D01*
X58915000Y-53950000D02*
X58915000Y-53185000D01*
X76915000Y-70885000D02*
X77000000Y-70800000D01*
X67875000Y-70800000D02*
X66075000Y-70800000D01*
X76915000Y-83950000D02*
X76915000Y-83015000D01*
X40915000Y-89950000D02*
X40915000Y-89015000D01*
X60100000Y-65000000D02*
X59000000Y-65000000D01*
X78100000Y-65000000D02*
X76900000Y-65000000D01*
X49915000Y-71950000D02*
X49915000Y-70860000D01*
X49900000Y-89000000D02*
X48100000Y-89000000D01*
X79900000Y-53100000D02*
X81100000Y-53100000D01*
D14*
X82915000Y-53115000D02*
X82900000Y-53100000D01*
D15*
X75150000Y-95000000D02*
X73900000Y-95000000D01*
X42100000Y-77000000D02*
X43900000Y-77000000D01*
D14*
X40915000Y-70810000D02*
X40925000Y-70800000D01*
X48085000Y-58990000D02*
X48075000Y-59000000D01*
X69085000Y-82985000D02*
X69100000Y-83000000D01*
X55915000Y-53115000D02*
X55900000Y-53100000D01*
D15*
X81085000Y-76050000D02*
X81085000Y-76985000D01*
X81085000Y-82050000D02*
X81085000Y-82985000D01*
X64915000Y-83950000D02*
X64915000Y-83115000D01*
X72085000Y-82050000D02*
X72085000Y-82985000D01*
D14*
X54085000Y-53085000D02*
X54100000Y-53100000D01*
D15*
X84085000Y-82050000D02*
X84085000Y-82985000D01*
X57085000Y-88050000D02*
X57085000Y-88940000D01*
X72100000Y-83000000D02*
X70900000Y-83000000D01*
X57085000Y-82050000D02*
X57085000Y-82985000D01*
D14*
X60085000Y-64985000D02*
X60100000Y-65000000D01*
X48085000Y-53085000D02*
X48100000Y-53100000D01*
D15*
X82900000Y-65000000D02*
X81100000Y-65000000D01*
D14*
X46915000Y-89060000D02*
X46975000Y-89000000D01*
D15*
X81100000Y-65000000D02*
X79900000Y-65000000D01*
D14*
X67915000Y-83085000D02*
X68000000Y-83000000D01*
D15*
X82915000Y-71950000D02*
X82915000Y-70965000D01*
X63085000Y-70050000D02*
X63085000Y-70785000D01*
X48125000Y-70800000D02*
X46950000Y-70800000D01*
X45100000Y-77000000D02*
X46900000Y-77000000D01*
X69085000Y-70050000D02*
X69085000Y-70785000D01*
D14*
X73915000Y-53115000D02*
X73900000Y-53100000D01*
D15*
X51085000Y-82050000D02*
X51085000Y-82915000D01*
D14*
X69085000Y-64915000D02*
X69000000Y-65000000D01*
D15*
X72100000Y-65000000D02*
X70800000Y-65000000D01*
X49915000Y-95950000D02*
X49915000Y-95035000D01*
X60050000Y-95000000D02*
X58925000Y-95000000D01*
D14*
X79915000Y-83085000D02*
X80000000Y-83000000D01*
X58915000Y-83015000D02*
X58900000Y-83000000D01*
D15*
X48085000Y-52050000D02*
X48085000Y-53085000D01*
X45085000Y-64050000D02*
X45085000Y-64985000D01*
D14*
X73915000Y-65015000D02*
X73900000Y-65000000D01*
D15*
X37700000Y-95000000D02*
X39100000Y-95000000D01*
X60085000Y-82885000D02*
X60200000Y-83000000D01*
X70915000Y-95950000D02*
X70915000Y-95010000D01*
X70915000Y-71950000D02*
X70915000Y-70885000D01*
X46900000Y-95000000D02*
X45100000Y-95000000D01*
D14*
X82915000Y-59010000D02*
X82925000Y-59000000D01*
D15*
X39085000Y-82050000D02*
X39085000Y-82985000D01*
X39085000Y-64050000D02*
X39085000Y-64915000D01*
X49700000Y-52800000D02*
X50000000Y-53100000D01*
X78085000Y-70050000D02*
X78085000Y-70785000D01*
X67915000Y-71950000D02*
X67915000Y-70840000D01*
X39100000Y-58000000D02*
X39100000Y-58950000D01*
D14*
X72085000Y-88960000D02*
X72125000Y-89000000D01*
D15*
X66000000Y-77000000D02*
X67900000Y-77000000D01*
X75085000Y-70785000D02*
X75100000Y-70800000D01*
D14*
X70915000Y-53115000D02*
X70900000Y-53100000D01*
D15*
X40915000Y-53950000D02*
X40915000Y-53115000D01*
X76900000Y-65000000D02*
X75000000Y-65000000D01*
X39325000Y-47700000D02*
X38000000Y-47700000D01*
D14*
X52915000Y-70840000D02*
X52875000Y-70800000D01*
D15*
X85915000Y-59915000D02*
X85000000Y-59000000D01*
D14*
X76915000Y-65015000D02*
X76900000Y-65000000D01*
X67915000Y-53115000D02*
X67900000Y-53100000D01*
X78085000Y-64985000D02*
X78100000Y-65000000D01*
X66085000Y-76915000D02*
X66000000Y-77000000D01*
D15*
X54085000Y-52050000D02*
X54085000Y-53085000D01*
D14*
X57085000Y-76985000D02*
X57100000Y-77000000D01*
X75085000Y-76985000D02*
X75100000Y-77000000D01*
X45085000Y-53085000D02*
X45100000Y-53100000D01*
X66085000Y-88990000D02*
X66075000Y-89000000D01*
X52915000Y-83015000D02*
X52900000Y-83000000D01*
X64915000Y-53115000D02*
X64900000Y-53100000D01*
D15*
X43915000Y-59950000D02*
X43915000Y-59015000D01*
X60085000Y-52050000D02*
X60085000Y-53015000D01*
X39700000Y-53100000D02*
X40900000Y-53100000D01*
X48100000Y-65000000D02*
X46800000Y-65000000D01*
X62000000Y-77000000D02*
X63100000Y-77000000D01*
D14*
X84085000Y-82985000D02*
X84100000Y-83000000D01*
D15*
X69100000Y-83000000D02*
X68000000Y-83000000D01*
X78085000Y-58050000D02*
X78085000Y-58985000D01*
D14*
X84085000Y-64985000D02*
X84100000Y-65000000D01*
D15*
X84085000Y-76050000D02*
X84085000Y-76985000D01*
X84085000Y-70050000D02*
X84085000Y-70785000D01*
D14*
X66085000Y-94915000D02*
X66000000Y-95000000D01*
D15*
X76915000Y-53950000D02*
X76915000Y-53115000D01*
X60085000Y-70050000D02*
X60085000Y-70760000D01*
D14*
X52915000Y-59010000D02*
X52925000Y-59000000D01*
D15*
X57085000Y-64050000D02*
X57085000Y-64985000D01*
X72100000Y-70800000D02*
X71000000Y-70800000D01*
X43900000Y-70800000D02*
X42000000Y-70800000D01*
X57025000Y-89000000D02*
X55875000Y-89000000D01*
X78100000Y-53100000D02*
X79900000Y-53100000D01*
D14*
X78085000Y-76985000D02*
X78100000Y-77000000D01*
D15*
X66100000Y-65000000D02*
X64900000Y-65000000D01*
X60085000Y-88050000D02*
X60085000Y-88860000D01*
X72100000Y-70000000D02*
X72085000Y-70785000D01*
X40915000Y-65950000D02*
X40915000Y-65115000D01*
D14*
X79915000Y-95060000D02*
X79975000Y-95000000D01*
D15*
X72100000Y-77000000D02*
X73900000Y-77000000D01*
X45085000Y-70050000D02*
X45085000Y-70785000D01*
D14*
X55915000Y-59010000D02*
X55925000Y-59000000D01*
X45085000Y-70785000D02*
X45100000Y-70800000D01*
D15*
X54100000Y-83000000D02*
X52900000Y-83000000D01*
X67915000Y-65950000D02*
X67915000Y-65015000D01*
X67850000Y-89000000D02*
X66075000Y-89000000D01*
X48085000Y-58050000D02*
X48085000Y-58990000D01*
X47000000Y-83000000D02*
X45000000Y-83000000D01*
D14*
X51085000Y-94940000D02*
X51025000Y-95000000D01*
X76915000Y-53115000D02*
X76900000Y-53100000D01*
D15*
X67915000Y-83950000D02*
X67915000Y-83085000D01*
X43915000Y-77950000D02*
X43915000Y-77015000D01*
X66050000Y-59000000D02*
X64925000Y-59000000D01*
X52900000Y-83000000D02*
X51000000Y-83000000D01*
X73915000Y-65950000D02*
X73915000Y-65015000D01*
D14*
X85915000Y-77915000D02*
X85915000Y-77950000D01*
X70915000Y-83015000D02*
X70900000Y-83000000D01*
D15*
X58915000Y-83950000D02*
X58915000Y-83015000D01*
X70915000Y-70885000D02*
X71000000Y-70800000D01*
X63085000Y-88050000D02*
X63085000Y-88960000D01*
X79915000Y-95950000D02*
X79915000Y-95060000D01*
D14*
X54085000Y-94990000D02*
X54075000Y-95000000D01*
D15*
X72125000Y-89000000D02*
X70925000Y-89000000D01*
X78085000Y-94050000D02*
X78085000Y-94935000D01*
X48400000Y-52800000D02*
X49700000Y-52800000D01*
X46915000Y-65950000D02*
X46915000Y-65115000D01*
X64915000Y-65950000D02*
X64915000Y-65015000D01*
D14*
X63085000Y-64985000D02*
X63100000Y-65000000D01*
D15*
X54085000Y-82050000D02*
X54085000Y-82985000D01*
D14*
X58915000Y-95010000D02*
X58925000Y-95000000D01*
X84085000Y-58935000D02*
X84150000Y-59000000D01*
X84085000Y-88940000D02*
X84025000Y-89000000D01*
D15*
X84100000Y-65000000D02*
X82900000Y-65000000D01*
X40915000Y-95950000D02*
X40915000Y-95040000D01*
D14*
X46915000Y-59040000D02*
X46875000Y-59000000D01*
D15*
X54085000Y-58050000D02*
X54085000Y-58985000D01*
D14*
X42085000Y-64985000D02*
X42100000Y-65000000D01*
D15*
X66075000Y-70800000D02*
X64900000Y-70800000D01*
X53000000Y-77000000D02*
X54100000Y-77000000D01*
X84085000Y-52050000D02*
X84085000Y-53085000D01*
D14*
X84085000Y-53085000D02*
X84100000Y-53100000D01*
D15*
X82915000Y-83950000D02*
X82915000Y-83015000D01*
X59050000Y-89000000D02*
X57025000Y-89000000D01*
X61915000Y-89950000D02*
X61915000Y-89110000D01*
X70915000Y-59950000D02*
X70915000Y-59015000D01*
X63085000Y-82050000D02*
X63085000Y-82985000D01*
X43925000Y-89000000D02*
X42050000Y-89000000D01*
X46915000Y-89950000D02*
X46915000Y-89060000D01*
X79915000Y-53950000D02*
X79915000Y-53115000D01*
X38000000Y-47700000D02*
X36900000Y-48800000D01*
X61915000Y-95950000D02*
X61915000Y-95160000D01*
X58915000Y-89135000D02*
X59050000Y-89000000D01*
X69085000Y-82050000D02*
X69085000Y-82985000D01*
X51085000Y-64050000D02*
X51085000Y-64985000D01*
X51085000Y-58050000D02*
X51085000Y-58965000D01*
X49915000Y-83950000D02*
X49915000Y-83015000D01*
D14*
X42085000Y-70715000D02*
X42000000Y-70800000D01*
D15*
X49915000Y-77950000D02*
X49915000Y-77015000D01*
X55900000Y-77000000D02*
X57100000Y-77000000D01*
X81085000Y-94050000D02*
X81085000Y-94990000D01*
D14*
X63085000Y-52985000D02*
X63200000Y-53100000D01*
D15*
X82925000Y-59000000D02*
X81125000Y-59000000D01*
D14*
X42085000Y-76985000D02*
X42100000Y-77000000D01*
X49915000Y-83015000D02*
X49900000Y-83000000D01*
D15*
X66085000Y-76050000D02*
X66085000Y-76915000D01*
D14*
X60085000Y-58990000D02*
X60075000Y-59000000D01*
D15*
X73900000Y-65000000D02*
X72100000Y-65000000D01*
D14*
X72085000Y-64985000D02*
X72100000Y-65000000D01*
X63085000Y-70785000D02*
X63100000Y-70800000D01*
D15*
X36950000Y-52050000D02*
X39085000Y-52050000D01*
X55925000Y-59000000D02*
X54100000Y-59000000D01*
X52915000Y-65950000D02*
X52915000Y-65085000D01*
X73915000Y-70885000D02*
X74000000Y-70800000D01*
X76915000Y-65950000D02*
X76915000Y-65015000D01*
X54075000Y-95000000D02*
X52950000Y-95000000D01*
D14*
X55915000Y-65085000D02*
X56000000Y-65000000D01*
X73915000Y-83015000D02*
X73900000Y-83000000D01*
X42085000Y-88965000D02*
X42050000Y-89000000D01*
D15*
X40875000Y-95000000D02*
X39100000Y-95000000D01*
D14*
X39100000Y-77000000D02*
X39300000Y-77000000D01*
D15*
X71000000Y-70800000D02*
X69100000Y-70800000D01*
X79915000Y-65950000D02*
X79915000Y-65015000D01*
X75085000Y-52050000D02*
X75085000Y-53085000D01*
X55875000Y-89000000D02*
X54125000Y-89000000D01*
X36900000Y-48800000D02*
X36900000Y-77000000D01*
X73915000Y-53950000D02*
X73915000Y-53115000D01*
X39085000Y-52485000D02*
X39700000Y-53100000D01*
X40915000Y-71950000D02*
X40915000Y-70810000D01*
X51100000Y-53100000D02*
X52900000Y-53100000D01*
X73915000Y-59950000D02*
X73915000Y-59040000D01*
X78100000Y-59000000D02*
X76875000Y-59000000D01*
D14*
X39085000Y-64915000D02*
X39000000Y-65000000D01*
D15*
X43915000Y-83950000D02*
X43915000Y-83085000D01*
X48085000Y-94050000D02*
X48085000Y-94985000D01*
D14*
X52915000Y-53115000D02*
X52900000Y-53100000D01*
X46915000Y-77015000D02*
X46900000Y-77000000D01*
D15*
X73900000Y-89000000D02*
X72125000Y-89000000D01*
X60200000Y-83000000D02*
X58900000Y-83000000D01*
D14*
X82915000Y-95015000D02*
X82900000Y-95000000D01*
X64915000Y-70815000D02*
X64900000Y-70800000D01*
D15*
X61915000Y-53950000D02*
X61915000Y-53115000D01*
X81100000Y-70000000D02*
X81085000Y-70785000D01*
D14*
X48085000Y-64985000D02*
X48100000Y-65000000D01*
D15*
X49915000Y-59950000D02*
X49915000Y-59015000D01*
X70925000Y-95000000D02*
X69100000Y-95000000D01*
X79900000Y-65000000D02*
X78100000Y-65000000D01*
X61915000Y-77950000D02*
X61915000Y-77085000D01*
X60085000Y-88860000D02*
X60225000Y-89000000D01*
X81100000Y-70800000D02*
X80000000Y-70800000D01*
X46875000Y-59000000D02*
X45100000Y-59000000D01*
X55915000Y-70940000D02*
X55915000Y-71950000D01*
X45085000Y-82050000D02*
X45085000Y-82915000D01*
X82915000Y-89950000D02*
X82915000Y-89010000D01*
D14*
X45085000Y-82915000D02*
X45000000Y-83000000D01*
X39085000Y-82985000D02*
X39100000Y-83000000D01*
D15*
X46950000Y-70800000D02*
X45100000Y-70800000D01*
X64900000Y-70800000D02*
X63100000Y-70800000D01*
D14*
X85915000Y-83950000D02*
X85915000Y-83915000D01*
X43915000Y-83085000D02*
X44000000Y-83000000D01*
D15*
X67915000Y-77950000D02*
X67915000Y-77015000D01*
X57085000Y-94050000D02*
X57085000Y-94990000D01*
X42085000Y-70050000D02*
X42085000Y-70715000D01*
X75085000Y-70050000D02*
X75085000Y-70785000D01*
X55915000Y-89950000D02*
X55915000Y-89040000D01*
X85915000Y-71915000D02*
X84800000Y-70800000D01*
X63200000Y-53100000D02*
X64900000Y-53100000D01*
X85000000Y-65000000D02*
X84100000Y-65000000D01*
D14*
X75085000Y-94935000D02*
X75150000Y-95000000D01*
X61915000Y-70815000D02*
X61900000Y-70800000D01*
D15*
X75100000Y-89000000D02*
X73900000Y-89000000D01*
X43915000Y-71950000D02*
X43915000Y-70815000D01*
X73915000Y-77950000D02*
X73915000Y-77015000D01*
X55950000Y-95000000D02*
X54075000Y-95000000D01*
D14*
X40915000Y-77015000D02*
X40900000Y-77000000D01*
D15*
X56000000Y-65000000D02*
X54100000Y-65000000D01*
D14*
X78085000Y-94935000D02*
X78150000Y-95000000D01*
D15*
X81100000Y-53100000D02*
X82900000Y-53100000D01*
X81085000Y-64050000D02*
X81085000Y-64985000D01*
X43900000Y-59000000D02*
X42075000Y-59000000D01*
X64900000Y-53100000D02*
X66100000Y-53100000D01*
X84100000Y-53100000D02*
X85600000Y-53100000D01*
D14*
X39100000Y-58950000D02*
X39050000Y-59000000D01*
D15*
X48000000Y-83000000D02*
X47000000Y-83000000D01*
X43915000Y-95950000D02*
X43915000Y-95010000D01*
X51085000Y-76050000D02*
X51085000Y-76985000D01*
X42050000Y-89000000D02*
X40900000Y-89000000D01*
D14*
X78085000Y-58985000D02*
X78100000Y-59000000D01*
D15*
X52915000Y-53950000D02*
X52915000Y-53115000D01*
D14*
X52915000Y-65085000D02*
X53000000Y-65000000D01*
X64915000Y-59010000D02*
X64925000Y-59000000D01*
D15*
X45085000Y-58050000D02*
X45085000Y-58985000D01*
X69100000Y-95000000D02*
X67925000Y-95000000D01*
X55915000Y-83950000D02*
X55915000Y-83015000D01*
X79900000Y-77000000D02*
X81100000Y-77000000D01*
D14*
X58915000Y-59035000D02*
X58950000Y-59000000D01*
X63085000Y-88960000D02*
X63125000Y-89000000D01*
D15*
X60225000Y-89000000D02*
X59050000Y-89000000D01*
X58915000Y-65950000D02*
X58915000Y-65085000D01*
X46915000Y-53950000D02*
X46915000Y-53115000D01*
X85915000Y-65915000D02*
X85000000Y-65000000D01*
X57100000Y-83000000D02*
X55900000Y-83000000D01*
X36900000Y-65000000D02*
X39000000Y-65000000D01*
X57100000Y-65000000D02*
X56000000Y-65000000D01*
X58925000Y-95000000D02*
X57075000Y-95000000D01*
X85000000Y-83000000D02*
X84100000Y-83000000D01*
X69100000Y-53100000D02*
X70900000Y-53100000D01*
X82900000Y-83000000D02*
X81100000Y-83000000D01*
X64915000Y-83115000D02*
X64800000Y-83000000D01*
X52900000Y-53100000D02*
X54100000Y-53100000D01*
D14*
X48085000Y-88985000D02*
X48100000Y-89000000D01*
D15*
X75000000Y-65000000D02*
X73900000Y-65000000D01*
X36900000Y-70800000D02*
X39100000Y-70800000D01*
X74000000Y-70800000D02*
X72100000Y-70800000D01*
X75085000Y-76050000D02*
X75085000Y-76985000D01*
X64925000Y-59000000D02*
X63100000Y-59000000D01*
X46915000Y-77950000D02*
X46915000Y-77015000D01*
X72100000Y-53100000D02*
X73900000Y-53100000D01*
X84800000Y-70800000D02*
X84100000Y-70800000D01*
X72085000Y-64050000D02*
X72085000Y-64985000D01*
X39085000Y-52050000D02*
X39085000Y-52485000D01*
X57100000Y-77000000D02*
X58900000Y-77000000D01*
X51085000Y-70050000D02*
X51085000Y-70710000D01*
X81100000Y-77000000D02*
X82900000Y-77000000D01*
D14*
%TO.N,RESET*%
X54950000Y-65699500D02*
X54950000Y-67700000D01*
X54950000Y-67700000D02*
X55225000Y-67975000D01*
%TO.N,Net-(D2-DO)*%
X40985000Y-52050000D02*
X42085000Y-50950000D01*
X40915000Y-52050000D02*
X40985000Y-52050000D01*
%TO.N,Net-(D3-DO)*%
X43915000Y-52050000D02*
X43985000Y-52050000D01*
X43985000Y-52050000D02*
X45085000Y-50950000D01*
%TO.N,Net-(D4-DO)*%
X46915000Y-52050000D02*
X46985000Y-52050000D01*
X46985000Y-52050000D02*
X48085000Y-50950000D01*
%TO.N,Net-(D5-DO)*%
X49915000Y-52050000D02*
X49985000Y-52050000D01*
X49985000Y-52050000D02*
X51085000Y-50950000D01*
%TO.N,Net-(D6-DO)*%
X52915000Y-52050000D02*
X52985000Y-52050000D01*
X52985000Y-52050000D02*
X54085000Y-50950000D01*
%TO.N,Net-(D7-DO)*%
X55915000Y-52050000D02*
X55985000Y-52050000D01*
X55985000Y-52050000D02*
X57085000Y-50950000D01*
%TO.N,Net-(D10-DI)*%
X61915000Y-52050000D02*
X61985000Y-52050000D01*
X61985000Y-52050000D02*
X63085000Y-50950000D01*
%TO.N,Net-(D10-DO)*%
X64985000Y-52050000D02*
X66085000Y-50950000D01*
X64915000Y-52050000D02*
X64985000Y-52050000D01*
%TO.N,Net-(D11-DO)*%
X67985000Y-52050000D02*
X69085000Y-50950000D01*
X67915000Y-52050000D02*
X67985000Y-52050000D01*
%TO.N,Net-(D12-DO)*%
X70915000Y-52050000D02*
X70985000Y-52050000D01*
X70985000Y-52050000D02*
X72085000Y-50950000D01*
%TO.N,Net-(D13-DO)*%
X73985000Y-52050000D02*
X75085000Y-50950000D01*
X73915000Y-52050000D02*
X73985000Y-52050000D01*
%TO.N,Net-(D14-DO)*%
X78015000Y-50950000D02*
X76915000Y-52050000D01*
X78085000Y-50950000D02*
X78015000Y-50950000D01*
%TO.N,Net-(D15-DO)*%
X79985000Y-52050000D02*
X81085000Y-50950000D01*
X79915000Y-52050000D02*
X79985000Y-52050000D01*
%TO.N,Net-(D16-DO)*%
X84015000Y-50950000D02*
X82915000Y-52050000D01*
X84085000Y-50950000D02*
X84015000Y-50950000D01*
%TO.N,Net-(D17-DO)*%
X85915000Y-52050000D02*
X85915000Y-52120000D01*
X87200000Y-52400000D02*
X87200000Y-54400000D01*
X85915000Y-52050000D02*
X86850000Y-52050000D01*
X87200000Y-54400000D02*
X86550000Y-55050000D01*
X86850000Y-52050000D02*
X87200000Y-52400000D01*
X86550000Y-55050000D02*
X85915000Y-55050000D01*
%TO.N,Net-(D18-DO)*%
X84015000Y-53950000D02*
X82915000Y-55050000D01*
X84085000Y-53950000D02*
X84015000Y-53950000D01*
%TO.N,Net-(D19-DO)*%
X81085000Y-53950000D02*
X81015000Y-53950000D01*
X81015000Y-53950000D02*
X79915000Y-55050000D01*
%TO.N,Net-(D20-DO)*%
X78085000Y-53950000D02*
X78015000Y-53950000D01*
X78015000Y-53950000D02*
X76915000Y-55050000D01*
%TO.N,Net-(D21-DO)*%
X75085000Y-53950000D02*
X75015000Y-53950000D01*
X75015000Y-53950000D02*
X73915000Y-55050000D01*
%TO.N,Net-(D22-DO)*%
X72085000Y-53950000D02*
X72015000Y-53950000D01*
X72015000Y-53950000D02*
X70915000Y-55050000D01*
%TO.N,Net-(D23-DO)*%
X69085000Y-53950000D02*
X69015000Y-53950000D01*
X69015000Y-53950000D02*
X67915000Y-55050000D01*
%TO.N,Net-(D24-DO)*%
X66015000Y-53950000D02*
X64915000Y-55050000D01*
X66085000Y-53950000D02*
X66015000Y-53950000D01*
%TO.N,Net-(D25-DO)*%
X63015000Y-53950000D02*
X61915000Y-55050000D01*
X63085000Y-53950000D02*
X63015000Y-53950000D01*
%TO.N,Net-(D26-DO)*%
X60015000Y-53950000D02*
X58915000Y-55050000D01*
X60085000Y-53950000D02*
X60015000Y-53950000D01*
%TO.N,Net-(D27-DO)*%
X57085000Y-53950000D02*
X57015000Y-53950000D01*
X57015000Y-53950000D02*
X55915000Y-55050000D01*
%TO.N,Net-(D28-DO)*%
X54015000Y-53950000D02*
X52915000Y-55050000D01*
X54085000Y-53950000D02*
X54015000Y-53950000D01*
%TO.N,Net-(D29-DO)*%
X51085000Y-53950000D02*
X51015000Y-53950000D01*
X51015000Y-53950000D02*
X49915000Y-55050000D01*
%TO.N,Net-(D30-DO)*%
X48015000Y-53950000D02*
X46915000Y-55050000D01*
X48085000Y-53950000D02*
X48015000Y-53950000D01*
%TO.N,Net-(D31-DO)*%
X45015000Y-53950000D02*
X43915000Y-55050000D01*
X45085000Y-53950000D02*
X45015000Y-53950000D01*
%TO.N,Net-(D32-DO)*%
X42015000Y-53950000D02*
X40915000Y-55050000D01*
X42085000Y-53950000D02*
X42015000Y-53950000D01*
%TO.N,Net-(D33-DO)*%
X38450000Y-53950000D02*
X38200000Y-54200000D01*
X38200000Y-56400000D02*
X38750000Y-56950000D01*
X39085000Y-53950000D02*
X38450000Y-53950000D01*
X38200000Y-54200000D02*
X38200000Y-56400000D01*
X38750000Y-56950000D02*
X39085000Y-56950000D01*
%TO.N,Net-(D34-DO)*%
X40985000Y-58050000D02*
X42085000Y-56950000D01*
X40915000Y-58050000D02*
X40985000Y-58050000D01*
%TO.N,Net-(D35-DO)*%
X45085000Y-56950000D02*
X45015000Y-56950000D01*
X45015000Y-56950000D02*
X43915000Y-58050000D01*
%TO.N,Net-(D36-DO)*%
X46985000Y-58050000D02*
X48085000Y-56950000D01*
X46915000Y-58050000D02*
X46985000Y-58050000D01*
%TO.N,Net-(D37-DO)*%
X49985000Y-58050000D02*
X51085000Y-56950000D01*
X49915000Y-58050000D02*
X49985000Y-58050000D01*
%TO.N,Net-(D38-DO)*%
X52915000Y-58050000D02*
X52985000Y-58050000D01*
X52985000Y-58050000D02*
X54085000Y-56950000D01*
%TO.N,Net-(D39-DO)*%
X55915000Y-58050000D02*
X55985000Y-58050000D01*
X55985000Y-58050000D02*
X57085000Y-56950000D01*
%TO.N,Net-(D40-DO)*%
X58985000Y-58050000D02*
X60085000Y-56950000D01*
X58915000Y-58050000D02*
X58985000Y-58050000D01*
%TO.N,Net-(D41-DO)*%
X61985000Y-58050000D02*
X63085000Y-56950000D01*
X61915000Y-58050000D02*
X61985000Y-58050000D01*
%TO.N,Net-(D42-DO)*%
X64985000Y-58050000D02*
X66085000Y-56950000D01*
X64915000Y-58050000D02*
X64985000Y-58050000D01*
%TO.N,Net-(D43-DO)*%
X67915000Y-58050000D02*
X67985000Y-58050000D01*
X67985000Y-58050000D02*
X69085000Y-56950000D01*
%TO.N,Net-(D44-DO)*%
X70915000Y-58050000D02*
X70985000Y-58050000D01*
X70985000Y-58050000D02*
X72085000Y-56950000D01*
%TO.N,Net-(D45-DO)*%
X73915000Y-58050000D02*
X73985000Y-58050000D01*
X73985000Y-58050000D02*
X75085000Y-56950000D01*
%TO.N,Net-(D46-DO)*%
X76915000Y-58050000D02*
X76985000Y-58050000D01*
X76985000Y-58050000D02*
X78085000Y-56950000D01*
%TO.N,Net-(D47-DO)*%
X79915000Y-58050000D02*
X79985000Y-58050000D01*
X79985000Y-58050000D02*
X81085000Y-56950000D01*
%TO.N,Net-(D48-DO)*%
X82915000Y-58050000D02*
X82985000Y-58050000D01*
X82985000Y-58050000D02*
X84085000Y-56950000D01*
%TO.N,Net-(D49-DO)*%
X86900000Y-58300000D02*
X86900000Y-60600000D01*
X85915000Y-58050000D02*
X86650000Y-58050000D01*
X86900000Y-60600000D02*
X86450000Y-61050000D01*
X86650000Y-58050000D02*
X86900000Y-58300000D01*
X86450000Y-61050000D02*
X85915000Y-61050000D01*
%TO.N,Net-(D50-DO)*%
X84085000Y-59950000D02*
X84015000Y-59950000D01*
X84015000Y-59950000D02*
X82915000Y-61050000D01*
%TO.N,Net-(D51-DO)*%
X81015000Y-59950000D02*
X79915000Y-61050000D01*
X81085000Y-59950000D02*
X81015000Y-59950000D01*
%TO.N,Net-(D52-DO)*%
X78015000Y-59950000D02*
X76915000Y-61050000D01*
X78085000Y-59950000D02*
X78015000Y-59950000D01*
%TO.N,Net-(D53-DO)*%
X75015000Y-59950000D02*
X73915000Y-61050000D01*
X75085000Y-59950000D02*
X75015000Y-59950000D01*
%TO.N,Net-(D54-DO)*%
X72085000Y-59950000D02*
X72015000Y-59950000D01*
X72015000Y-59950000D02*
X70915000Y-61050000D01*
%TO.N,Net-(D55-DO)*%
X69015000Y-59950000D02*
X67915000Y-61050000D01*
X69085000Y-59950000D02*
X69015000Y-59950000D01*
%TO.N,Net-(D56-DO)*%
X66015000Y-59950000D02*
X64915000Y-61050000D01*
X66085000Y-59950000D02*
X66015000Y-59950000D01*
%TO.N,Net-(D57-DO)*%
X63015000Y-59950000D02*
X61915000Y-61050000D01*
X63085000Y-59950000D02*
X63015000Y-59950000D01*
%TO.N,Net-(D58-DO)*%
X60015000Y-59950000D02*
X58915000Y-61050000D01*
X60085000Y-59950000D02*
X60015000Y-59950000D01*
%TO.N,Net-(D59-DO)*%
X57085000Y-59950000D02*
X57015000Y-59950000D01*
X57015000Y-59950000D02*
X55915000Y-61050000D01*
%TO.N,Net-(D60-DO)*%
X54085000Y-59950000D02*
X54015000Y-59950000D01*
X54015000Y-59950000D02*
X52915000Y-61050000D01*
%TO.N,Net-(D61-DO)*%
X51015000Y-59950000D02*
X49915000Y-61050000D01*
X51085000Y-59950000D02*
X51015000Y-59950000D01*
%TO.N,Net-(D62-DO)*%
X48085000Y-59950000D02*
X48015000Y-59950000D01*
X48015000Y-59950000D02*
X46915000Y-61050000D01*
%TO.N,Net-(D63-DO)*%
X45085000Y-59950000D02*
X45015000Y-59950000D01*
X45015000Y-59950000D02*
X43915000Y-61050000D01*
%TO.N,Net-(D64-DO)*%
X42085000Y-59950000D02*
X42015000Y-59950000D01*
X42015000Y-59950000D02*
X40915000Y-61050000D01*
%TO.N,Net-(D65-DO)*%
X38200000Y-62600000D02*
X38550000Y-62950000D01*
X38200000Y-60200000D02*
X38200000Y-62600000D01*
X38550000Y-62950000D02*
X39085000Y-62950000D01*
X39085000Y-59950000D02*
X38450000Y-59950000D01*
X38450000Y-59950000D02*
X38200000Y-60200000D01*
%TO.N,Net-(D66-DO)*%
X40985000Y-64050000D02*
X42085000Y-62950000D01*
X40915000Y-64050000D02*
X40985000Y-64050000D01*
%TO.N,Net-(D67-DO)*%
X43915000Y-64050000D02*
X43985000Y-64050000D01*
X43985000Y-64050000D02*
X45085000Y-62950000D01*
%TO.N,Net-(D68-DO)*%
X46985000Y-64050000D02*
X48085000Y-62950000D01*
X46915000Y-64050000D02*
X46985000Y-64050000D01*
%TO.N,Net-(D69-DO)*%
X49985000Y-64050000D02*
X51085000Y-62950000D01*
X49915000Y-64050000D02*
X49985000Y-64050000D01*
%TO.N,Net-(D70-DO)*%
X52915000Y-64050000D02*
X52985000Y-64050000D01*
X52985000Y-64050000D02*
X54085000Y-62950000D01*
%TO.N,Net-(D71-DO)*%
X55985000Y-64050000D02*
X57085000Y-62950000D01*
X55915000Y-64050000D02*
X55985000Y-64050000D01*
%TO.N,Net-(D72-DO)*%
X58985000Y-64050000D02*
X60085000Y-62950000D01*
X58915000Y-64050000D02*
X58985000Y-64050000D01*
%TO.N,Net-(D73-DO)*%
X61915000Y-64050000D02*
X61985000Y-64050000D01*
X61985000Y-64050000D02*
X63085000Y-62950000D01*
%TO.N,Net-(D74-DO)*%
X64915000Y-64050000D02*
X64985000Y-64050000D01*
X64985000Y-64050000D02*
X66085000Y-62950000D01*
%TO.N,Net-(D75-DO)*%
X67985000Y-64050000D02*
X69085000Y-62950000D01*
X67915000Y-64050000D02*
X67985000Y-64050000D01*
%TO.N,Net-(D76-DO)*%
X70985000Y-64050000D02*
X72085000Y-62950000D01*
X70915000Y-64050000D02*
X70985000Y-64050000D01*
%TO.N,Net-(D77-DO)*%
X73985000Y-64050000D02*
X75085000Y-62950000D01*
X73915000Y-64050000D02*
X73985000Y-64050000D01*
%TO.N,Net-(D78-DO)*%
X76985000Y-64050000D02*
X78085000Y-62950000D01*
X76915000Y-64050000D02*
X76985000Y-64050000D01*
%TO.N,Net-(D79-DO)*%
X79915000Y-64050000D02*
X79985000Y-64050000D01*
X79985000Y-64050000D02*
X81085000Y-62950000D01*
%TO.N,Net-(D80-DO)*%
X82985000Y-64050000D02*
X84085000Y-62950000D01*
X82915000Y-64050000D02*
X82985000Y-64050000D01*
%TO.N,Net-(D81-DO)*%
X86900000Y-64400000D02*
X86900000Y-66700000D01*
X86550000Y-64050000D02*
X86900000Y-64400000D01*
X86550000Y-67050000D02*
X85915000Y-67050000D01*
X86900000Y-66700000D02*
X86550000Y-67050000D01*
X85915000Y-64050000D02*
X86550000Y-64050000D01*
%TO.N,Net-(D82-DO)*%
X84015000Y-65950000D02*
X82915000Y-67050000D01*
X84085000Y-65950000D02*
X84015000Y-65950000D01*
%TO.N,Net-(D83-DO)*%
X81085000Y-65950000D02*
X81015000Y-65950000D01*
X81015000Y-65950000D02*
X79915000Y-67050000D01*
%TO.N,Net-(D8-DO)*%
X58915000Y-52050000D02*
X58985000Y-52050000D01*
X58985000Y-52050000D02*
X60085000Y-50950000D01*
%TO.N,Net-(D84-DO)*%
X78015000Y-65950000D02*
X76915000Y-67050000D01*
X78085000Y-65950000D02*
X78015000Y-65950000D01*
%TO.N,Net-(D85-DO)*%
X75015000Y-65950000D02*
X73915000Y-67050000D01*
X75085000Y-65950000D02*
X75015000Y-65950000D01*
%TO.N,Net-(D86-DO)*%
X72085000Y-65950000D02*
X72015000Y-65950000D01*
X72015000Y-65950000D02*
X70915000Y-67050000D01*
%TO.N,Net-(D87-DO)*%
X69085000Y-65950000D02*
X69015000Y-65950000D01*
X69015000Y-65950000D02*
X67915000Y-67050000D01*
%TO.N,Net-(D88-DO)*%
X66085000Y-65950000D02*
X66015000Y-65950000D01*
X66015000Y-65950000D02*
X64915000Y-67050000D01*
%TO.N,Net-(D89-DO)*%
X63015000Y-65950000D02*
X61915000Y-67050000D01*
X63085000Y-65950000D02*
X63015000Y-65950000D01*
%TO.N,Net-(D90-DO)*%
X60085000Y-65950000D02*
X60015000Y-65950000D01*
X60015000Y-65950000D02*
X58915000Y-67050000D01*
%TO.N,Net-(D91-DO)*%
X57015000Y-65950000D02*
X55915000Y-67050000D01*
X57085000Y-65950000D02*
X57015000Y-65950000D01*
%TO.N,Net-(D92-DO)*%
X54085000Y-65950000D02*
X54015000Y-65950000D01*
X54015000Y-65950000D02*
X52915000Y-67050000D01*
%TO.N,Net-(D93-DO)*%
X51085000Y-65950000D02*
X51015000Y-65950000D01*
X51015000Y-65950000D02*
X49915000Y-67050000D01*
%TO.N,Net-(D94-DO)*%
X48015000Y-65950000D02*
X46915000Y-67050000D01*
X48085000Y-65950000D02*
X48015000Y-65950000D01*
%TO.N,Net-(D95-DO)*%
X45085000Y-65950000D02*
X45015000Y-65950000D01*
X45015000Y-65950000D02*
X43915000Y-67050000D01*
%TO.N,Net-(D96-DO)*%
X42015000Y-65950000D02*
X40915000Y-67050000D01*
X42085000Y-65950000D02*
X42015000Y-65950000D01*
%TO.N,Net-(D97-DO)*%
X38200000Y-68700000D02*
X38450000Y-68950000D01*
X38450000Y-68950000D02*
X39085000Y-68950000D01*
X39085000Y-65950000D02*
X38550000Y-65950000D01*
X38550000Y-65950000D02*
X38200000Y-66300000D01*
X38200000Y-66300000D02*
X38200000Y-68700000D01*
%TO.N,Net-(D100-DI)*%
X43985000Y-70050000D02*
X45085000Y-68950000D01*
X43915000Y-70050000D02*
X43985000Y-70050000D01*
%TO.N,Net-(D100-DO)*%
X46985000Y-70050000D02*
X48085000Y-68950000D01*
X46915000Y-70050000D02*
X46985000Y-70050000D01*
%TO.N,Net-(D101-DO)*%
X49985000Y-70050000D02*
X51085000Y-68950000D01*
X49915000Y-70050000D02*
X49985000Y-70050000D01*
%TO.N,Net-(D102-DO)*%
X52985000Y-70050000D02*
X54085000Y-68950000D01*
X52915000Y-70050000D02*
X52985000Y-70050000D01*
%TO.N,Net-(D103-DO)*%
X55915000Y-70050000D02*
X55985000Y-70050000D01*
X55985000Y-70050000D02*
X57085000Y-68950000D01*
%TO.N,Net-(D104-DO)*%
X58985000Y-70050000D02*
X60085000Y-68950000D01*
X58915000Y-70050000D02*
X58985000Y-70050000D01*
%TO.N,Net-(D105-DO)*%
X61915000Y-70050000D02*
X61985000Y-70050000D01*
X61985000Y-70050000D02*
X63085000Y-68950000D01*
%TO.N,Net-(D106-DO)*%
X64985000Y-70050000D02*
X66085000Y-68950000D01*
X64915000Y-70050000D02*
X64985000Y-70050000D01*
%TO.N,Net-(D107-DO)*%
X67985000Y-70050000D02*
X69085000Y-68950000D01*
X67915000Y-70050000D02*
X67985000Y-70050000D01*
%TO.N,Net-(D108-DO)*%
X70915000Y-70050000D02*
X70985000Y-70050000D01*
X70985000Y-70050000D02*
X72085000Y-68950000D01*
%TO.N,Net-(D109-DO)*%
X73915000Y-70050000D02*
X73985000Y-70050000D01*
X73985000Y-70050000D02*
X75085000Y-68950000D01*
%TO.N,Net-(D110-DO)*%
X76985000Y-70050000D02*
X78085000Y-68950000D01*
X76915000Y-70050000D02*
X76985000Y-70050000D01*
%TO.N,Net-(D111-DO)*%
X79985000Y-70050000D02*
X81085000Y-68950000D01*
X79915000Y-70050000D02*
X79985000Y-70050000D01*
%TO.N,Net-(D112-DO)*%
X82985000Y-70050000D02*
X84085000Y-68950000D01*
X82915000Y-70050000D02*
X82985000Y-70050000D01*
%TO.N,Net-(D113-DO)*%
X86900000Y-72600000D02*
X86450000Y-73050000D01*
X86450000Y-73050000D02*
X85915000Y-73050000D01*
X85915000Y-70050000D02*
X86650000Y-70050000D01*
X86900000Y-70300000D02*
X86900000Y-72600000D01*
X86650000Y-70050000D02*
X86900000Y-70300000D01*
%TO.N,Net-(D114-DO)*%
X84015000Y-71950000D02*
X82915000Y-73050000D01*
X84085000Y-71950000D02*
X84015000Y-71950000D01*
%TO.N,Net-(D115-DO)*%
X81085000Y-71950000D02*
X81015000Y-71950000D01*
X81015000Y-71950000D02*
X79915000Y-73050000D01*
%TO.N,Net-(D116-DO)*%
X78015000Y-71950000D02*
X76915000Y-73050000D01*
X78085000Y-71950000D02*
X78015000Y-71950000D01*
%TO.N,Net-(D117-DO)*%
X75015000Y-71950000D02*
X73915000Y-73050000D01*
X75085000Y-71950000D02*
X75015000Y-71950000D01*
%TO.N,Net-(D118-DO)*%
X72015000Y-71950000D02*
X70915000Y-73050000D01*
X72085000Y-71950000D02*
X72015000Y-71950000D01*
%TO.N,Net-(D119-DO)*%
X69015000Y-71950000D02*
X67915000Y-73050000D01*
X69085000Y-71950000D02*
X69015000Y-71950000D01*
%TO.N,Net-(D120-DO)*%
X66085000Y-71950000D02*
X66015000Y-71950000D01*
X66015000Y-71950000D02*
X64915000Y-73050000D01*
%TO.N,Net-(D121-DO)*%
X63015000Y-71950000D02*
X61915000Y-73050000D01*
X63085000Y-71950000D02*
X63015000Y-71950000D01*
%TO.N,Net-(D122-DO)*%
X60085000Y-71950000D02*
X60015000Y-71950000D01*
X60015000Y-71950000D02*
X58915000Y-73050000D01*
%TO.N,Net-(D123-DO)*%
X57015000Y-71950000D02*
X55915000Y-73050000D01*
X57085000Y-71950000D02*
X57015000Y-71950000D01*
%TO.N,Net-(D124-DO)*%
X54085000Y-71950000D02*
X54015000Y-71950000D01*
X54015000Y-71950000D02*
X52915000Y-73050000D01*
%TO.N,Net-(D125-DO)*%
X51015000Y-71950000D02*
X49915000Y-73050000D01*
X51085000Y-71950000D02*
X51015000Y-71950000D01*
%TO.N,Net-(D126-DO)*%
X48085000Y-71950000D02*
X48015000Y-71950000D01*
X48015000Y-71950000D02*
X46915000Y-73050000D01*
%TO.N,Net-(D127-DO)*%
X45085000Y-71950000D02*
X45015000Y-71950000D01*
X45015000Y-71950000D02*
X43915000Y-73050000D01*
%TO.N,Net-(D128-DO)*%
X42015000Y-71950000D02*
X40915000Y-73050000D01*
X42085000Y-71950000D02*
X42015000Y-71950000D01*
%TO.N,Net-(D129-DO)*%
X38200000Y-72400000D02*
X38200000Y-74600000D01*
X38200000Y-74600000D02*
X38550000Y-74950000D01*
X39085000Y-71950000D02*
X38650000Y-71950000D01*
X38550000Y-74950000D02*
X39085000Y-74950000D01*
X38650000Y-71950000D02*
X38200000Y-72400000D01*
%TO.N,Net-(D130-DO)*%
X40985000Y-76050000D02*
X42085000Y-74950000D01*
X40915000Y-76050000D02*
X40985000Y-76050000D01*
%TO.N,Net-(D131-DO)*%
X43915000Y-76050000D02*
X43985000Y-76050000D01*
X43985000Y-76050000D02*
X45085000Y-74950000D01*
%TO.N,Net-(D132-DO)*%
X46915000Y-76050000D02*
X46985000Y-76050000D01*
X46985000Y-76050000D02*
X48085000Y-74950000D01*
%TO.N,Net-(D133-DO)*%
X49985000Y-76050000D02*
X51085000Y-74950000D01*
X49915000Y-76050000D02*
X49985000Y-76050000D01*
%TO.N,Net-(D134-DO)*%
X52985000Y-76050000D02*
X54085000Y-74950000D01*
X52915000Y-76050000D02*
X52985000Y-76050000D01*
%TO.N,Net-(D135-DO)*%
X55985000Y-76050000D02*
X57085000Y-74950000D01*
X55915000Y-76050000D02*
X55985000Y-76050000D01*
%TO.N,Net-(D136-DO)*%
X58915000Y-76050000D02*
X58985000Y-76050000D01*
X58985000Y-76050000D02*
X60085000Y-74950000D01*
%TO.N,Net-(D137-DO)*%
X61915000Y-76050000D02*
X61985000Y-76050000D01*
X61985000Y-76050000D02*
X63085000Y-74950000D01*
%TO.N,Net-(D138-DO)*%
X64915000Y-76050000D02*
X64985000Y-76050000D01*
X64985000Y-76050000D02*
X66085000Y-74950000D01*
%TO.N,Net-(D139-DO)*%
X67915000Y-76050000D02*
X67985000Y-76050000D01*
X67985000Y-76050000D02*
X69085000Y-74950000D01*
%TO.N,Net-(D140-DO)*%
X70985000Y-76050000D02*
X72085000Y-74950000D01*
X70915000Y-76050000D02*
X70985000Y-76050000D01*
%TO.N,Net-(D141-DO)*%
X73915000Y-76050000D02*
X73985000Y-76050000D01*
X73985000Y-76050000D02*
X75085000Y-74950000D01*
%TO.N,Net-(D142-DO)*%
X76985000Y-76050000D02*
X78085000Y-74950000D01*
X76915000Y-76050000D02*
X76985000Y-76050000D01*
%TO.N,Net-(D143-DO)*%
X79915000Y-76050000D02*
X79985000Y-76050000D01*
X79985000Y-76050000D02*
X81085000Y-74950000D01*
%TO.N,Net-(D144-DO)*%
X82915000Y-76050000D02*
X82985000Y-76050000D01*
X82985000Y-76050000D02*
X84085000Y-74950000D01*
%TO.N,Net-(D145-DO)*%
X86900000Y-76300000D02*
X86900000Y-78700000D01*
X85915000Y-76050000D02*
X86650000Y-76050000D01*
X86900000Y-78700000D02*
X86550000Y-79050000D01*
X86650000Y-76050000D02*
X86900000Y-76300000D01*
X86550000Y-79050000D02*
X85915000Y-79050000D01*
%TO.N,Net-(D146-DO)*%
X84015000Y-77950000D02*
X82915000Y-79050000D01*
X84085000Y-77950000D02*
X84015000Y-77950000D01*
%TO.N,Net-(D147-DO)*%
X81085000Y-77950000D02*
X81015000Y-77950000D01*
X81015000Y-77950000D02*
X79915000Y-79050000D01*
%TO.N,Net-(D148-DO)*%
X78085000Y-77950000D02*
X78015000Y-77950000D01*
X78015000Y-77950000D02*
X76915000Y-79050000D01*
%TO.N,Net-(D149-DO)*%
X75015000Y-77950000D02*
X73915000Y-79050000D01*
X75085000Y-77950000D02*
X75015000Y-77950000D01*
%TO.N,Net-(D150-DO)*%
X72015000Y-77950000D02*
X70915000Y-79050000D01*
X72085000Y-77950000D02*
X72015000Y-77950000D01*
%TO.N,Net-(D151-DO)*%
X69085000Y-77950000D02*
X69015000Y-77950000D01*
X69015000Y-77950000D02*
X67915000Y-79050000D01*
%TO.N,Net-(D152-DO)*%
X66085000Y-77950000D02*
X66015000Y-77950000D01*
X66015000Y-77950000D02*
X64915000Y-79050000D01*
%TO.N,Net-(D153-DO)*%
X63085000Y-77950000D02*
X63015000Y-77950000D01*
X63015000Y-77950000D02*
X61915000Y-79050000D01*
%TO.N,Net-(D154-DO)*%
X60085000Y-77950000D02*
X60015000Y-77950000D01*
X60015000Y-77950000D02*
X58915000Y-79050000D01*
%TO.N,Net-(D155-DO)*%
X57015000Y-77950000D02*
X55915000Y-79050000D01*
X57085000Y-77950000D02*
X57015000Y-77950000D01*
%TO.N,Net-(D156-DO)*%
X54015000Y-77950000D02*
X52915000Y-79050000D01*
X54085000Y-77950000D02*
X54015000Y-77950000D01*
%TO.N,Net-(D157-DO)*%
X51015000Y-77950000D02*
X49915000Y-79050000D01*
X51085000Y-77950000D02*
X51015000Y-77950000D01*
%TO.N,Net-(D158-DO)*%
X48015000Y-77950000D02*
X46915000Y-79050000D01*
X48085000Y-77950000D02*
X48015000Y-77950000D01*
%TO.N,Net-(D159-DO)*%
X45015000Y-77950000D02*
X43915000Y-79050000D01*
X45085000Y-77950000D02*
X45015000Y-77950000D01*
%TO.N,Net-(D160-DO)*%
X42085000Y-77950000D02*
X42015000Y-77950000D01*
X42015000Y-77950000D02*
X40915000Y-79050000D01*
%TO.N,Net-(D161-DO)*%
X38200000Y-80300000D02*
X38850000Y-80950000D01*
X39085000Y-77950000D02*
X38650000Y-77950000D01*
X38650000Y-77950000D02*
X38200000Y-78400000D01*
X38850000Y-80950000D02*
X39085000Y-80950000D01*
X38200000Y-78400000D02*
X38200000Y-80300000D01*
%TO.N,Net-(D162-DO)*%
X40985000Y-82050000D02*
X42085000Y-80950000D01*
X40915000Y-82050000D02*
X40985000Y-82050000D01*
%TO.N,Net-(D163-DO)*%
X43985000Y-82050000D02*
X45085000Y-80950000D01*
X43915000Y-82050000D02*
X43985000Y-82050000D01*
%TO.N,Net-(D164-DO)*%
X46985000Y-82050000D02*
X48085000Y-80950000D01*
X46915000Y-82050000D02*
X46985000Y-82050000D01*
%TO.N,Net-(D165-DO)*%
X49915000Y-82050000D02*
X49985000Y-82050000D01*
X49985000Y-82050000D02*
X51085000Y-80950000D01*
%TO.N,Net-(D166-DO)*%
X52915000Y-82050000D02*
X52985000Y-82050000D01*
X52985000Y-82050000D02*
X54085000Y-80950000D01*
%TO.N,Net-(D167-DO)*%
X55985000Y-82050000D02*
X57085000Y-80950000D01*
X55915000Y-82050000D02*
X55985000Y-82050000D01*
%TO.N,Net-(D168-DO)*%
X58985000Y-82050000D02*
X60085000Y-80950000D01*
X58915000Y-82050000D02*
X58985000Y-82050000D01*
%TO.N,Net-(D169-DO)*%
X61985000Y-82050000D02*
X63085000Y-80950000D01*
X61915000Y-82050000D02*
X61985000Y-82050000D01*
%TO.N,Net-(D170-DO)*%
X64985000Y-82050000D02*
X66085000Y-80950000D01*
X64915000Y-82050000D02*
X64985000Y-82050000D01*
%TO.N,Net-(D171-DO)*%
X67915000Y-82050000D02*
X67985000Y-82050000D01*
X67985000Y-82050000D02*
X69085000Y-80950000D01*
%TO.N,Net-(D172-DO)*%
X70985000Y-82050000D02*
X72085000Y-80950000D01*
X70915000Y-82050000D02*
X70985000Y-82050000D01*
%TO.N,Net-(D173-DO)*%
X73985000Y-82050000D02*
X75085000Y-80950000D01*
X73915000Y-82050000D02*
X73985000Y-82050000D01*
%TO.N,Net-(D174-DO)*%
X76915000Y-82050000D02*
X76985000Y-82050000D01*
X76985000Y-82050000D02*
X78085000Y-80950000D01*
%TO.N,Net-(D175-DO)*%
X79985000Y-82050000D02*
X81085000Y-80950000D01*
X79915000Y-82050000D02*
X79985000Y-82050000D01*
%TO.N,Net-(D176-DO)*%
X82915000Y-82050000D02*
X82985000Y-82050000D01*
X82985000Y-82050000D02*
X84085000Y-80950000D01*
%TO.N,Net-(D177-DO)*%
X85915000Y-82050000D02*
X86550000Y-82050000D01*
X86900000Y-82400000D02*
X86900000Y-84700000D01*
X86550000Y-85050000D02*
X85915000Y-85050000D01*
X86550000Y-82050000D02*
X86900000Y-82400000D01*
X86900000Y-84700000D02*
X86550000Y-85050000D01*
%TO.N,Net-(D178-DO)*%
X84015000Y-83950000D02*
X82915000Y-85050000D01*
X84085000Y-83950000D02*
X84015000Y-83950000D01*
%TO.N,Net-(D179-DO)*%
X81015000Y-83950000D02*
X79915000Y-85050000D01*
X81085000Y-83950000D02*
X81015000Y-83950000D01*
%TO.N,Net-(D180-DO)*%
X78085000Y-83950000D02*
X78015000Y-83950000D01*
X78015000Y-83950000D02*
X76915000Y-85050000D01*
%TO.N,Net-(D181-DO)*%
X75085000Y-83950000D02*
X75015000Y-83950000D01*
X75015000Y-83950000D02*
X73915000Y-85050000D01*
%TO.N,Net-(D182-DO)*%
X72015000Y-83950000D02*
X70915000Y-85050000D01*
X72085000Y-83950000D02*
X72015000Y-83950000D01*
%TO.N,Net-(D183-DO)*%
X69085000Y-83950000D02*
X69015000Y-83950000D01*
X69015000Y-83950000D02*
X67915000Y-85050000D01*
%TO.N,Net-(D184-DO)*%
X66015000Y-83950000D02*
X64915000Y-85050000D01*
X66085000Y-83950000D02*
X66015000Y-83950000D01*
%TO.N,Net-(D185-DO)*%
X63015000Y-83950000D02*
X61915000Y-85050000D01*
X63085000Y-83950000D02*
X63015000Y-83950000D01*
%TO.N,Net-(D186-DO)*%
X60015000Y-83950000D02*
X58915000Y-85050000D01*
X60085000Y-83950000D02*
X60015000Y-83950000D01*
%TO.N,Net-(D187-DO)*%
X57085000Y-83950000D02*
X57015000Y-83950000D01*
X57015000Y-83950000D02*
X55915000Y-85050000D01*
%TO.N,Net-(D188-DO)*%
X54015000Y-83950000D02*
X52915000Y-85050000D01*
X54085000Y-83950000D02*
X54015000Y-83950000D01*
%TO.N,Net-(D189-DO)*%
X51085000Y-83950000D02*
X51015000Y-83950000D01*
X51015000Y-83950000D02*
X49915000Y-85050000D01*
%TO.N,Net-(D190-DO)*%
X48085000Y-83950000D02*
X48015000Y-83950000D01*
X48015000Y-83950000D02*
X46915000Y-85050000D01*
%TO.N,Net-(D191-DO)*%
X45085000Y-83950000D02*
X45015000Y-83950000D01*
X45015000Y-83950000D02*
X43915000Y-85050000D01*
%TO.N,Net-(D192-DO)*%
X42015000Y-83950000D02*
X40915000Y-85050000D01*
X42085000Y-83950000D02*
X42015000Y-83950000D01*
%TO.N,Net-(D193-DO)*%
X38650000Y-86950000D02*
X39085000Y-86950000D01*
X38650000Y-83950000D02*
X38200000Y-84400000D01*
X39085000Y-83950000D02*
X38650000Y-83950000D01*
X38200000Y-84400000D02*
X38200000Y-86500000D01*
X38200000Y-86500000D02*
X38650000Y-86950000D01*
%TO.N,Net-(D194-DO)*%
X40985000Y-88050000D02*
X42085000Y-86950000D01*
X40915000Y-88050000D02*
X40985000Y-88050000D01*
%TO.N,Net-(D195-DO)*%
X43915000Y-88050000D02*
X43985000Y-88050000D01*
X43985000Y-88050000D02*
X45085000Y-86950000D01*
%TO.N,Net-(D196-DO)*%
X46915000Y-88050000D02*
X46985000Y-88050000D01*
X46985000Y-88050000D02*
X48085000Y-86950000D01*
%TO.N,Net-(D197-DO)*%
X49985000Y-88050000D02*
X51085000Y-86950000D01*
X49915000Y-88050000D02*
X49985000Y-88050000D01*
%TO.N,Net-(D198-DO)*%
X52985000Y-88050000D02*
X54085000Y-86950000D01*
X52915000Y-88050000D02*
X52985000Y-88050000D01*
%TO.N,Net-(D199-DO)*%
X55985000Y-88050000D02*
X57085000Y-86950000D01*
X55915000Y-88050000D02*
X55985000Y-88050000D01*
%TO.N,Net-(D200-DO)*%
X58985000Y-88050000D02*
X60085000Y-86950000D01*
X58915000Y-88050000D02*
X58985000Y-88050000D01*
%TO.N,Net-(D201-DO)*%
X61915000Y-88050000D02*
X61985000Y-88050000D01*
X61985000Y-88050000D02*
X63085000Y-86950000D01*
%TO.N,Net-(D202-DO)*%
X64985000Y-88050000D02*
X66085000Y-86950000D01*
X64915000Y-88050000D02*
X64985000Y-88050000D01*
%TO.N,Net-(D203-DO)*%
X69015000Y-86950000D02*
X67915000Y-88050000D01*
X69085000Y-86950000D02*
X69015000Y-86950000D01*
%TO.N,Net-(D204-DO)*%
X72085000Y-86950000D02*
X72015000Y-86950000D01*
X72015000Y-86950000D02*
X70915000Y-88050000D01*
%TO.N,Net-(D205-DO)*%
X75085000Y-86950000D02*
X75015000Y-86950000D01*
X75015000Y-86950000D02*
X73915000Y-88050000D01*
%TO.N,Net-(D206-DO)*%
X78085000Y-86950000D02*
X78015000Y-86950000D01*
X78015000Y-86950000D02*
X76915000Y-88050000D01*
%TO.N,Net-(D207-DO)*%
X81085000Y-86950000D02*
X81015000Y-86950000D01*
X81015000Y-86950000D02*
X79915000Y-88050000D01*
%TO.N,Net-(D208-DO)*%
X84015000Y-86950000D02*
X82915000Y-88050000D01*
X84085000Y-86950000D02*
X84015000Y-86950000D01*
%TO.N,Net-(D209-DO)*%
X86900000Y-88500000D02*
X86900000Y-90600000D01*
X86450000Y-88050000D02*
X86900000Y-88500000D01*
X86900000Y-90600000D02*
X86450000Y-91050000D01*
X86450000Y-91050000D02*
X85915000Y-91050000D01*
X85915000Y-88050000D02*
X86450000Y-88050000D01*
%TO.N,Net-(D210-DO)*%
X82915000Y-91050000D02*
X82985000Y-91050000D01*
X82985000Y-91050000D02*
X84085000Y-89950000D01*
%TO.N,Net-(D211-DO)*%
X79915000Y-91050000D02*
X79985000Y-91050000D01*
X79985000Y-91050000D02*
X81085000Y-89950000D01*
%TO.N,Net-(D212-DO)*%
X76985000Y-91050000D02*
X78085000Y-89950000D01*
X76915000Y-91050000D02*
X76985000Y-91050000D01*
%TO.N,Net-(D213-DO)*%
X73985000Y-91050000D02*
X75085000Y-89950000D01*
X73915000Y-91050000D02*
X73985000Y-91050000D01*
%TO.N,Net-(D214-DO)*%
X70985000Y-91050000D02*
X72085000Y-89950000D01*
X70915000Y-91050000D02*
X70985000Y-91050000D01*
%TO.N,Net-(D215-DO)*%
X67985000Y-91050000D02*
X69085000Y-89950000D01*
X67915000Y-91050000D02*
X67985000Y-91050000D01*
%TO.N,Net-(D216-DO)*%
X64985000Y-91050000D02*
X66085000Y-89950000D01*
X64915000Y-91050000D02*
X64985000Y-91050000D01*
%TO.N,Net-(D217-DO)*%
X61985000Y-91050000D02*
X63085000Y-89950000D01*
X61915000Y-91050000D02*
X61985000Y-91050000D01*
%TO.N,Net-(D218-DO)*%
X58985000Y-91050000D02*
X60085000Y-89950000D01*
X58915000Y-91050000D02*
X58985000Y-91050000D01*
%TO.N,Net-(D219-DO)*%
X55915000Y-91050000D02*
X55985000Y-91050000D01*
X55985000Y-91050000D02*
X57085000Y-89950000D01*
%TO.N,Net-(D220-DO)*%
X52985000Y-91050000D02*
X54085000Y-89950000D01*
X52915000Y-91050000D02*
X52985000Y-91050000D01*
%TO.N,Net-(D221-DO)*%
X49915000Y-91050000D02*
X49985000Y-91050000D01*
X49985000Y-91050000D02*
X51085000Y-89950000D01*
%TO.N,Net-(D222-DO)*%
X46985000Y-91050000D02*
X48085000Y-89950000D01*
X46915000Y-91050000D02*
X46985000Y-91050000D01*
%TO.N,Net-(D223-DO)*%
X43985000Y-91050000D02*
X45085000Y-89950000D01*
X43915000Y-91050000D02*
X43985000Y-91050000D01*
%TO.N,Net-(D224-DO)*%
X40985000Y-91050000D02*
X42085000Y-89950000D01*
X40915000Y-91050000D02*
X40985000Y-91050000D01*
%TO.N,Net-(D225-DO)*%
X38450000Y-89950000D02*
X38200000Y-90200000D01*
X39085000Y-89950000D02*
X38450000Y-89950000D01*
X38850000Y-92950000D02*
X39085000Y-92950000D01*
X38200000Y-90200000D02*
X38200000Y-92300000D01*
X38200000Y-92300000D02*
X38850000Y-92950000D01*
%TO.N,Net-(D226-DO)*%
X40985000Y-94050000D02*
X42085000Y-92950000D01*
X40915000Y-94050000D02*
X40985000Y-94050000D01*
%TO.N,Net-(D227-DO)*%
X43985000Y-94050000D02*
X45085000Y-92950000D01*
X43915000Y-94050000D02*
X43985000Y-94050000D01*
%TO.N,Net-(D228-DO)*%
X48015000Y-92950000D02*
X46915000Y-94050000D01*
X48085000Y-92950000D02*
X48015000Y-92950000D01*
%TO.N,Net-(D229-DO)*%
X49985000Y-94050000D02*
X51085000Y-92950000D01*
X49915000Y-94050000D02*
X49985000Y-94050000D01*
%TO.N,Net-(D230-DO)*%
X52915000Y-94050000D02*
X52985000Y-94050000D01*
X52985000Y-94050000D02*
X54085000Y-92950000D01*
%TO.N,Net-(D231-DO)*%
X55915000Y-94050000D02*
X55985000Y-94050000D01*
X55985000Y-94050000D02*
X57085000Y-92950000D01*
%TO.N,Net-(D232-DO)*%
X58915000Y-94050000D02*
X58985000Y-94050000D01*
X58985000Y-94050000D02*
X60085000Y-92950000D01*
%TO.N,Net-(D233-DO)*%
X61985000Y-94050000D02*
X63085000Y-92950000D01*
X61915000Y-94050000D02*
X61985000Y-94050000D01*
%TO.N,Net-(D234-DO)*%
X64985000Y-94050000D02*
X66085000Y-92950000D01*
X64915000Y-94050000D02*
X64985000Y-94050000D01*
%TO.N,Net-(D235-DO)*%
X67915000Y-94050000D02*
X67985000Y-94050000D01*
X67985000Y-94050000D02*
X69085000Y-92950000D01*
%TO.N,Net-(D236-DO)*%
X70985000Y-94050000D02*
X72085000Y-92950000D01*
X70915000Y-94050000D02*
X70985000Y-94050000D01*
%TO.N,Net-(D237-DO)*%
X73985000Y-94050000D02*
X75085000Y-92950000D01*
X73915000Y-94050000D02*
X73985000Y-94050000D01*
%TO.N,Net-(D238-DO)*%
X76985000Y-94050000D02*
X78085000Y-92950000D01*
X76915000Y-94050000D02*
X76985000Y-94050000D01*
%TO.N,Net-(D239-DO)*%
X79915000Y-94050000D02*
X79985000Y-94050000D01*
X79985000Y-94050000D02*
X81085000Y-92950000D01*
%TO.N,Net-(D240-DO)*%
X82915000Y-94050000D02*
X82985000Y-94050000D01*
X82985000Y-94050000D02*
X84085000Y-92950000D01*
%TO.N,Net-(D241-DO)*%
X86900000Y-94400000D02*
X86900000Y-96600000D01*
X86550000Y-94050000D02*
X86900000Y-94400000D01*
X86450000Y-97050000D02*
X85915000Y-97050000D01*
X85915000Y-94050000D02*
X86550000Y-94050000D01*
X86900000Y-96600000D02*
X86450000Y-97050000D01*
%TO.N,Net-(D242-DO)*%
X84015000Y-95950000D02*
X82915000Y-97050000D01*
X84085000Y-95950000D02*
X84015000Y-95950000D01*
%TO.N,Net-(D243-DO)*%
X81015000Y-95950000D02*
X79915000Y-97050000D01*
X81085000Y-95950000D02*
X81015000Y-95950000D01*
%TO.N,Net-(D244-DO)*%
X78085000Y-95950000D02*
X78015000Y-95950000D01*
X78015000Y-95950000D02*
X76915000Y-97050000D01*
%TO.N,Net-(D245-DO)*%
X73985000Y-97050000D02*
X75085000Y-95950000D01*
X73915000Y-97050000D02*
X73985000Y-97050000D01*
%TO.N,Net-(D246-DO)*%
X72085000Y-95950000D02*
X72015000Y-95950000D01*
X72015000Y-95950000D02*
X70915000Y-97050000D01*
%TO.N,Net-(D247-DO)*%
X69085000Y-95950000D02*
X69015000Y-95950000D01*
X69015000Y-95950000D02*
X67915000Y-97050000D01*
%TO.N,Net-(D248-DO)*%
X66015000Y-95950000D02*
X64915000Y-97050000D01*
X66085000Y-95950000D02*
X66015000Y-95950000D01*
%TO.N,Net-(D98-DO)*%
X40915000Y-70050000D02*
X40985000Y-70050000D01*
X40985000Y-70050000D02*
X42085000Y-68950000D01*
%TO.N,Net-(D249-DO)*%
X63015000Y-95950000D02*
X61915000Y-97050000D01*
X63085000Y-95950000D02*
X63015000Y-95950000D01*
%TO.N,Net-(D250-DO)*%
X60015000Y-95950000D02*
X58915000Y-97050000D01*
X60085000Y-95950000D02*
X60015000Y-95950000D01*
%TO.N,Net-(D251-DO)*%
X57085000Y-95950000D02*
X57015000Y-95950000D01*
X57015000Y-95950000D02*
X55915000Y-97050000D01*
%TO.N,Net-(D252-DO)*%
X54085000Y-95950000D02*
X54015000Y-95950000D01*
X54015000Y-95950000D02*
X52915000Y-97050000D01*
%TO.N,Net-(D253-DO)*%
X51085000Y-95950000D02*
X51015000Y-95950000D01*
X51015000Y-95950000D02*
X49915000Y-97050000D01*
%TO.N,Net-(D254-DO)*%
X48015000Y-95950000D02*
X46915000Y-97050000D01*
X48085000Y-95950000D02*
X48015000Y-95950000D01*
%TO.N,Net-(D255-DO)*%
X45085000Y-95950000D02*
X45015000Y-95950000D01*
X45015000Y-95950000D02*
X43915000Y-97050000D01*
%TO.N,Net-(D256-DO)*%
X42015000Y-95950000D02*
X40915000Y-97050000D01*
X42085000Y-95950000D02*
X42015000Y-95950000D01*
%TD*%
M02*
