%TF.GenerationSoftware,KiCad,Pcbnew,7.0.9*%
%TF.CreationDate,2024-04-10T17:12:19-05:00*%
%TF.ProjectId,Aniversario-PCBWAY,416e6976-6572-4736-9172-696f2d504342,rev?*%
%TF.SameCoordinates,Original*%
%TF.FileFunction,Copper,L2,Bot*%
%TF.FilePolarity,Positive*%
%FSLAX46Y46*%
G04 Gerber Fmt 4.6, Leading zero omitted, Abs format (unit mm)*
G04 Created by KiCad (PCBNEW 7.0.9) date 2024-04-10 17:12:19*
%MOMM*%
%LPD*%
G01*
G04 APERTURE LIST*
G04 Aperture macros list*
%AMRoundRect*
0 Rectangle with rounded corners*
0 $1 Rounding radius*
0 $2 $3 $4 $5 $6 $7 $8 $9 X,Y pos of 4 corners*
0 Add a 4 corners polygon primitive as box body*
4,1,4,$2,$3,$4,$5,$6,$7,$8,$9,$2,$3,0*
0 Add four circle primitives for the rounded corners*
1,1,$1+$1,$2,$3*
1,1,$1+$1,$4,$5*
1,1,$1+$1,$6,$7*
1,1,$1+$1,$8,$9*
0 Add four rect primitives between the rounded corners*
20,1,$1+$1,$2,$3,$4,$5,0*
20,1,$1+$1,$4,$5,$6,$7,0*
20,1,$1+$1,$6,$7,$8,$9,0*
20,1,$1+$1,$8,$9,$2,$3,0*%
G04 Aperture macros list end*
%TA.AperFunction,SMDPad,CuDef*%
%ADD10RoundRect,0.250000X-0.262500X-0.450000X0.262500X-0.450000X0.262500X0.450000X-0.262500X0.450000X0*%
%TD*%
%TA.AperFunction,SMDPad,CuDef*%
%ADD11RoundRect,0.250000X0.250000X0.475000X-0.250000X0.475000X-0.250000X-0.475000X0.250000X-0.475000X0*%
%TD*%
%TA.AperFunction,SMDPad,CuDef*%
%ADD12RoundRect,0.250000X-0.250000X-0.475000X0.250000X-0.475000X0.250000X0.475000X-0.250000X0.475000X0*%
%TD*%
%TA.AperFunction,SMDPad,CuDef*%
%ADD13RoundRect,0.250000X-0.475000X0.250000X-0.475000X-0.250000X0.475000X-0.250000X0.475000X0.250000X0*%
%TD*%
%TA.AperFunction,SMDPad,CuDef*%
%ADD14RoundRect,0.250000X0.475000X-0.250000X0.475000X0.250000X-0.475000X0.250000X-0.475000X-0.250000X0*%
%TD*%
%TA.AperFunction,SMDPad,CuDef*%
%ADD15RoundRect,0.150000X-0.587500X-0.150000X0.587500X-0.150000X0.587500X0.150000X-0.587500X0.150000X0*%
%TD*%
%TA.AperFunction,SMDPad,CuDef*%
%ADD16RoundRect,0.250000X0.450000X-0.262500X0.450000X0.262500X-0.450000X0.262500X-0.450000X-0.262500X0*%
%TD*%
%TA.AperFunction,ComponentPad*%
%ADD17R,1.700000X1.700000*%
%TD*%
%TA.AperFunction,ComponentPad*%
%ADD18O,1.700000X1.700000*%
%TD*%
%TA.AperFunction,SMDPad,CuDef*%
%ADD19RoundRect,0.243750X0.243750X0.456250X-0.243750X0.456250X-0.243750X-0.456250X0.243750X-0.456250X0*%
%TD*%
%TA.AperFunction,SMDPad,CuDef*%
%ADD20RoundRect,0.250000X-0.450000X0.262500X-0.450000X-0.262500X0.450000X-0.262500X0.450000X0.262500X0*%
%TD*%
%TA.AperFunction,SMDPad,CuDef*%
%ADD21RoundRect,0.150000X0.587500X0.150000X-0.587500X0.150000X-0.587500X-0.150000X0.587500X-0.150000X0*%
%TD*%
%TA.AperFunction,SMDPad,CuDef*%
%ADD22R,2.000000X1.500000*%
%TD*%
%TA.AperFunction,SMDPad,CuDef*%
%ADD23R,2.000000X3.800000*%
%TD*%
%TA.AperFunction,SMDPad,CuDef*%
%ADD24R,1.500000X0.900000*%
%TD*%
%TA.AperFunction,SMDPad,CuDef*%
%ADD25R,0.900000X1.500000*%
%TD*%
%TA.AperFunction,SMDPad,CuDef*%
%ADD26R,0.900000X0.900000*%
%TD*%
%TA.AperFunction,SMDPad,CuDef*%
%ADD27RoundRect,0.150000X0.425000X-0.150000X0.425000X0.150000X-0.425000X0.150000X-0.425000X-0.150000X0*%
%TD*%
%TA.AperFunction,SMDPad,CuDef*%
%ADD28RoundRect,0.075000X0.500000X-0.075000X0.500000X0.075000X-0.500000X0.075000X-0.500000X-0.075000X0*%
%TD*%
%TA.AperFunction,SMDPad,CuDef*%
%ADD29RoundRect,0.250000X0.750000X-0.840000X0.750000X0.840000X-0.750000X0.840000X-0.750000X-0.840000X0*%
%TD*%
%TA.AperFunction,SMDPad,CuDef*%
%ADD30R,1.250000X1.000000*%
%TD*%
%TA.AperFunction,SMDPad,CuDef*%
%ADD31R,0.990000X0.270000*%
%TD*%
%TA.AperFunction,SMDPad,CuDef*%
%ADD32R,0.270000X0.990000*%
%TD*%
%TA.AperFunction,SMDPad,CuDef*%
%ADD33R,3.250000X3.250000*%
%TD*%
%TA.AperFunction,ViaPad*%
%ADD34C,0.800000*%
%TD*%
%TA.AperFunction,Conductor*%
%ADD35C,0.250000*%
%TD*%
G04 APERTURE END LIST*
D10*
%TO.P,R5,1*%
%TO.N,RESET*%
X82287500Y-83400000D03*
%TO.P,R5,2*%
%TO.N,+3V3*%
X84112500Y-83400000D03*
%TD*%
D11*
%TO.P,C8,1*%
%TO.N,RESET*%
X80550000Y-83400000D03*
%TO.P,C8,2*%
%TO.N,GND*%
X78650000Y-83400000D03*
%TD*%
D12*
%TO.P,C7,1*%
%TO.N,BOOT*%
X70250000Y-83000000D03*
%TO.P,C7,2*%
%TO.N,GND*%
X72150000Y-83000000D03*
%TD*%
D13*
%TO.P,C6,1*%
%TO.N,+3V3*%
X88600000Y-58250000D03*
%TO.P,C6,2*%
%TO.N,GND*%
X88600000Y-60150000D03*
%TD*%
D14*
%TO.P,C5,1*%
%TO.N,+3V3*%
X88600000Y-56550000D03*
%TO.P,C5,2*%
%TO.N,GND*%
X88600000Y-54650000D03*
%TD*%
D15*
%TO.P,Q1,1,B*%
%TO.N,Net-(Q1-B)*%
X59062500Y-61100000D03*
%TO.P,Q1,2,E*%
%TO.N,Net-(Q1-E)*%
X59062500Y-59200000D03*
%TO.P,Q1,3,C*%
%TO.N,BOOT*%
X60937500Y-60150000D03*
%TD*%
D12*
%TO.P,C11,1*%
%TO.N,+3V3*%
X55050000Y-55400000D03*
%TO.P,C11,2*%
%TO.N,GND*%
X56950000Y-55400000D03*
%TD*%
D14*
%TO.P,C2,1*%
%TO.N,+5V*%
X47400000Y-72250000D03*
%TO.P,C2,2*%
%TO.N,GND*%
X47400000Y-70350000D03*
%TD*%
%TO.P,C3,1*%
%TO.N,+5V*%
X49800000Y-72250000D03*
%TO.P,C3,2*%
%TO.N,GND*%
X49800000Y-70350000D03*
%TD*%
D10*
%TO.P,R6,1*%
%TO.N,+3V3*%
X55087500Y-53000000D03*
%TO.P,R6,2*%
%TO.N,Net-(D1-A)*%
X56912500Y-53000000D03*
%TD*%
D16*
%TO.P,R1,1*%
%TO.N,Net-(P1-SHIELD)*%
X44900000Y-63412500D03*
%TO.P,R1,2*%
%TO.N,GND*%
X44900000Y-61587500D03*
%TD*%
D17*
%TO.P,J1,1,Pin_1*%
%TO.N,GND*%
X70090000Y-99250000D03*
D18*
%TO.P,J1,2,Pin_2*%
%TO.N,+5V*%
X72630000Y-99250000D03*
%TO.P,J1,3,Pin_3*%
%TO.N,IO8*%
X75170000Y-99250000D03*
%TO.P,J1,4,Pin_4*%
%TO.N,IO15*%
X77710000Y-99250000D03*
%TO.P,J1,5,Pin_5*%
%TO.N,IO7*%
X80250000Y-99250000D03*
%TO.P,J1,6,Pin_6*%
%TO.N,IO6*%
X82790000Y-99250000D03*
%TO.P,J1,7,Pin_7*%
%TO.N,IO5*%
X85330000Y-99250000D03*
%TD*%
D19*
%TO.P,D1,1,K*%
%TO.N,GND*%
X60737500Y-53000000D03*
%TO.P,D1,2,A*%
%TO.N,Net-(D1-A)*%
X58862500Y-53000000D03*
%TD*%
D16*
%TO.P,R3,1*%
%TO.N,Net-(Q1-E)*%
X56337500Y-65262500D03*
%TO.P,R3,2*%
%TO.N,Net-(Q2-B)*%
X56337500Y-63437500D03*
%TD*%
D20*
%TO.P,R4,1*%
%TO.N,RESET*%
X57800000Y-69487500D03*
%TO.P,R4,2*%
%TO.N,+3V3*%
X57800000Y-71312500D03*
%TD*%
D16*
%TO.P,R2,1*%
%TO.N,Net-(Q2-E)*%
X56337500Y-61062500D03*
%TO.P,R2,2*%
%TO.N,Net-(Q1-B)*%
X56337500Y-59237500D03*
%TD*%
D11*
%TO.P,C9,1*%
%TO.N,+5V*%
X47550000Y-58400000D03*
%TO.P,C9,2*%
%TO.N,GND*%
X45650000Y-58400000D03*
%TD*%
%TO.P,C12,1*%
%TO.N,+3V3*%
X60750000Y-55400000D03*
%TO.P,C12,2*%
%TO.N,GND*%
X58850000Y-55400000D03*
%TD*%
D21*
%TO.P,Q2,1,B*%
%TO.N,Net-(Q2-B)*%
X60937500Y-63450000D03*
%TO.P,Q2,2,E*%
%TO.N,Net-(Q2-E)*%
X60937500Y-65350000D03*
%TO.P,Q2,3,C*%
%TO.N,RESET*%
X59062500Y-64400000D03*
%TD*%
D17*
%TO.P,J2,1,Pin_1*%
%TO.N,+5V*%
X39325000Y-47700000D03*
D18*
%TO.P,J2,2,Pin_2*%
%TO.N,GND*%
X41865000Y-47700000D03*
%TD*%
D13*
%TO.P,C4,1*%
%TO.N,RESET*%
X60400000Y-69450000D03*
%TO.P,C4,2*%
%TO.N,GND*%
X60400000Y-71350000D03*
%TD*%
D11*
%TO.P,C1,1*%
%TO.N,Net-(U1-VDD)*%
X46250000Y-65600000D03*
%TO.P,C1,2*%
%TO.N,GND*%
X44350000Y-65600000D03*
%TD*%
D22*
%TO.P,U3,1,GND*%
%TO.N,GND*%
X52150000Y-50950000D03*
%TO.P,U3,2,VO*%
%TO.N,+3V3*%
X52150000Y-53250000D03*
D23*
X45850000Y-53250000D03*
D22*
%TO.P,U3,3,VI*%
%TO.N,+5V*%
X52150000Y-55550000D03*
%TD*%
D24*
%TO.P,U2,1,GND*%
%TO.N,GND*%
X85750000Y-55500000D03*
%TO.P,U2,2,3V3*%
%TO.N,+3V3*%
X85750000Y-56770000D03*
%TO.P,U2,3,EN*%
%TO.N,RESET*%
X85750000Y-58040000D03*
%TO.P,U2,4,GPIO4/TOUCH4/ADC1_CH3*%
%TO.N,unconnected-(U2-GPIO4{slash}TOUCH4{slash}ADC1_CH3-Pad4)*%
X85750000Y-59310000D03*
%TO.P,U2,5,GPIO5/TOUCH5/ADC1_CH4*%
%TO.N,IO5*%
X85750000Y-60580000D03*
%TO.P,U2,6,GPIO6/TOUCH6/ADC1_CH5*%
%TO.N,IO6*%
X85750000Y-61850000D03*
%TO.P,U2,7,GPIO7/TOUCH7/ADC1_CH6*%
%TO.N,IO7*%
X85750000Y-63120000D03*
%TO.P,U2,8,GPIO15/U0RTS/ADC2_CH4/XTAL_32K_P*%
%TO.N,IO15*%
X85750000Y-64390000D03*
%TO.P,U2,9,GPIO16/U0CTS/ADC2_CH5/XTAL_32K_N*%
%TO.N,unconnected-(U2-GPIO16{slash}U0CTS{slash}ADC2_CH5{slash}XTAL_32K_N-Pad9)*%
X85750000Y-65660000D03*
%TO.P,U2,10,GPIO17/U1TXD/ADC2_CH6*%
%TO.N,unconnected-(U2-GPIO17{slash}U1TXD{slash}ADC2_CH6-Pad10)*%
X85750000Y-66930000D03*
%TO.P,U2,11,GPIO18/U1RXD/ADC2_CH7/CLK_OUT3*%
%TO.N,GPIO18*%
X85750000Y-68200000D03*
%TO.P,U2,12,GPIO8/TOUCH8/ADC1_CH7/SUBSPICS1*%
%TO.N,IO8*%
X85750000Y-69470000D03*
%TO.P,U2,13,GPIO19/U1RTS/ADC2_CH8/CLK_OUT2/USB_D-*%
%TO.N,unconnected-(U2-GPIO19{slash}U1RTS{slash}ADC2_CH8{slash}CLK_OUT2{slash}USB_D--Pad13)*%
X85750000Y-70740000D03*
%TO.P,U2,14,GPIO20/U1CTS/ADC2_CH9/CLK_OUT1/USB_D+*%
%TO.N,unconnected-(U2-GPIO20{slash}U1CTS{slash}ADC2_CH9{slash}CLK_OUT1{slash}USB_D+-Pad14)*%
X85750000Y-72010000D03*
D25*
%TO.P,U2,15,GPIO3/TOUCH3/ADC1_CH2*%
%TO.N,unconnected-(U2-GPIO3{slash}TOUCH3{slash}ADC1_CH2-Pad15)*%
X83985000Y-73260000D03*
%TO.P,U2,16,GPIO46*%
%TO.N,unconnected-(U2-GPIO46-Pad16)*%
X82715000Y-73260000D03*
%TO.P,U2,17,GPIO9/TOUCH9/ADC1_CH8/FSPIHD/SUBSPIHD*%
%TO.N,unconnected-(U2-GPIO9{slash}TOUCH9{slash}ADC1_CH8{slash}FSPIHD{slash}SUBSPIHD-Pad17)*%
X81445000Y-73260000D03*
%TO.P,U2,18,GPIO10/TOUCH10/ADC1_CH9/FSPICS0/FSPIIO4/SUBSPICS0*%
%TO.N,unconnected-(U2-GPIO10{slash}TOUCH10{slash}ADC1_CH9{slash}FSPICS0{slash}FSPIIO4{slash}SUBSPICS0-Pad18)*%
X80175000Y-73260000D03*
%TO.P,U2,19,GPIO11/TOUCH11/ADC2_CH0/FSPID/FSPIIO5/SUBSPID*%
%TO.N,unconnected-(U2-GPIO11{slash}TOUCH11{slash}ADC2_CH0{slash}FSPID{slash}FSPIIO5{slash}SUBSPID-Pad19)*%
X78905000Y-73260000D03*
%TO.P,U2,20,GPIO12/TOUCH12/ADC2_CH1/FSPICLK/FSPIIO6/SUBSPICLK*%
%TO.N,unconnected-(U2-GPIO12{slash}TOUCH12{slash}ADC2_CH1{slash}FSPICLK{slash}FSPIIO6{slash}SUBSPICLK-Pad20)*%
X77635000Y-73260000D03*
%TO.P,U2,21,GPIO13/TOUCH13/ADC2_CH2/FSPIQ/FSPIIO7/SUBSPIQ*%
%TO.N,unconnected-(U2-GPIO13{slash}TOUCH13{slash}ADC2_CH2{slash}FSPIQ{slash}FSPIIO7{slash}SUBSPIQ-Pad21)*%
X76365000Y-73260000D03*
%TO.P,U2,22,GPIO14/TOUCH14/ADC2_CH3/FSPIWP/FSPIDQS/SUBSPIWP*%
%TO.N,unconnected-(U2-GPIO14{slash}TOUCH14{slash}ADC2_CH3{slash}FSPIWP{slash}FSPIDQS{slash}SUBSPIWP-Pad22)*%
X75095000Y-73260000D03*
%TO.P,U2,23,GPIO21*%
%TO.N,unconnected-(U2-GPIO21-Pad23)*%
X73825000Y-73260000D03*
%TO.P,U2,24,GPIO47/SPICLK_P/SUBSPICLK_P_DIFF*%
%TO.N,unconnected-(U2-GPIO47{slash}SPICLK_P{slash}SUBSPICLK_P_DIFF-Pad24)*%
X72555000Y-73260000D03*
%TO.P,U2,25,GPIO48/SPICLK_N/SUBSPICLK_N_DIFF*%
%TO.N,unconnected-(U2-GPIO48{slash}SPICLK_N{slash}SUBSPICLK_N_DIFF-Pad25)*%
X71285000Y-73260000D03*
%TO.P,U2,26,GPIO45*%
%TO.N,unconnected-(U2-GPIO45-Pad26)*%
X70015000Y-73260000D03*
D24*
%TO.P,U2,27,GPIO0/BOOT*%
%TO.N,BOOT*%
X68250000Y-72010000D03*
%TO.P,U2,28,SPIIO6/GPIO35/FSPID/SUBSPID*%
%TO.N,unconnected-(U2-SPIIO6{slash}GPIO35{slash}FSPID{slash}SUBSPID-Pad28)*%
X68250000Y-70740000D03*
%TO.P,U2,29,SPIIO7/GPIO36/FSPICLK/SUBSPICLK*%
%TO.N,unconnected-(U2-SPIIO7{slash}GPIO36{slash}FSPICLK{slash}SUBSPICLK-Pad29)*%
X68250000Y-69470000D03*
%TO.P,U2,30,SPIDQS/GPIO37/FSPIQ/SUBSPIQ*%
%TO.N,unconnected-(U2-SPIDQS{slash}GPIO37{slash}FSPIQ{slash}SUBSPIQ-Pad30)*%
X68250000Y-68200000D03*
%TO.P,U2,31,GPIO38/FSPIWP/SUBSPIWP*%
%TO.N,unconnected-(U2-GPIO38{slash}FSPIWP{slash}SUBSPIWP-Pad31)*%
X68250000Y-66930000D03*
%TO.P,U2,32,MTCK/GPIO39/CLK_OUT3/SUBSPICS1*%
%TO.N,unconnected-(U2-MTCK{slash}GPIO39{slash}CLK_OUT3{slash}SUBSPICS1-Pad32)*%
X68250000Y-65660000D03*
%TO.P,U2,33,MTDO/GPIO40/CLK_OUT2*%
%TO.N,unconnected-(U2-MTDO{slash}GPIO40{slash}CLK_OUT2-Pad33)*%
X68250000Y-64390000D03*
%TO.P,U2,34,MTDI/GPIO41/CLK_OUT1*%
%TO.N,unconnected-(U2-MTDI{slash}GPIO41{slash}CLK_OUT1-Pad34)*%
X68250000Y-63120000D03*
%TO.P,U2,35,MTMS/GPIO42*%
%TO.N,unconnected-(U2-MTMS{slash}GPIO42-Pad35)*%
X68250000Y-61850000D03*
%TO.P,U2,36,U0RXD/GPIO44/CLK_OUT2*%
%TO.N,RX*%
X68250000Y-60580000D03*
%TO.P,U2,37,U0TXD/GPIO43/CLK_OUT1*%
%TO.N,TX*%
X68250000Y-59310000D03*
%TO.P,U2,38,GPIO2/TOUCH2/ADC1_CH1*%
%TO.N,unconnected-(U2-GPIO2{slash}TOUCH2{slash}ADC1_CH1-Pad38)*%
X68250000Y-58040000D03*
%TO.P,U2,39,GPIO1/TOUCH1/ADC1_CH0*%
%TO.N,unconnected-(U2-GPIO1{slash}TOUCH1{slash}ADC1_CH0-Pad39)*%
X68250000Y-56770000D03*
%TO.P,U2,40,GND*%
%TO.N,GND*%
X68250000Y-55500000D03*
D26*
%TO.P,U2,41,GND*%
X79900000Y-64620000D03*
X79900000Y-64620000D03*
X79900000Y-63220000D03*
X79900000Y-61820000D03*
X78500000Y-64620000D03*
X78500000Y-63220000D03*
X78500000Y-61820000D03*
X78500000Y-61820000D03*
X77100000Y-64620000D03*
X77100000Y-63220000D03*
X77100000Y-61820000D03*
%TD*%
D27*
%TO.P,P1,A1,GND*%
%TO.N,GND*%
X42430000Y-62200000D03*
%TO.P,P1,A4,VBUS*%
%TO.N,+5V*%
X42430000Y-61400000D03*
D28*
%TO.P,P1,A5,CC*%
%TO.N,unconnected-(P1-CC-PadA5)*%
X42430000Y-60250000D03*
%TO.P,P1,A6,D+*%
%TO.N,Net-(P1-D+)*%
X42430000Y-59250000D03*
%TO.P,P1,A7,D-*%
%TO.N,Net-(P1-D-)*%
X42430000Y-58750000D03*
%TO.P,P1,A8*%
%TO.N,N/C*%
X42430000Y-57750000D03*
D27*
%TO.P,P1,A9,VBUS*%
%TO.N,+5V*%
X42430000Y-56600000D03*
%TO.P,P1,A12,GND*%
%TO.N,GND*%
X42430000Y-55800000D03*
%TO.P,P1,B1,GND*%
X42430000Y-55800000D03*
%TO.P,P1,B4,VBUS*%
%TO.N,+5V*%
X42430000Y-56600000D03*
D28*
%TO.P,P1,B5,VCONN*%
%TO.N,unconnected-(P1-VCONN-PadB5)*%
X42430000Y-57250000D03*
%TO.P,P1,B6*%
%TO.N,N/C*%
X42430000Y-58250000D03*
%TO.P,P1,B7*%
X42430000Y-59750000D03*
%TO.P,P1,B8*%
X42430000Y-60750000D03*
D27*
%TO.P,P1,B9,VBUS*%
%TO.N,+5V*%
X42430000Y-61400000D03*
%TO.P,P1,B12,GND*%
%TO.N,GND*%
X42430000Y-62200000D03*
D29*
%TO.P,P1,S1,SHIELD*%
%TO.N,Net-(P1-SHIELD)*%
X37925000Y-64110000D03*
X41855000Y-64110000D03*
X37925000Y-53890000D03*
X41855000Y-53890000D03*
%TD*%
D12*
%TO.P,C10,1*%
%TO.N,+5V*%
X49650000Y-58400000D03*
%TO.P,C10,2*%
%TO.N,GND*%
X51550000Y-58400000D03*
%TD*%
D30*
%TO.P,RESET1,1,1*%
%TO.N,GND*%
X67375000Y-79250000D03*
%TO.P,RESET1,2,2*%
X75125000Y-79250000D03*
%TD*%
D31*
%TO.P,U1,1,DCD*%
%TO.N,unconnected-(U1-DCD-Pad1)*%
X48140000Y-64900000D03*
%TO.P,U1,2,~{RI}/CLK*%
%TO.N,unconnected-(U1-~{RI}{slash}CLK-Pad2)*%
X48140000Y-64400000D03*
%TO.P,U1,3,GND*%
%TO.N,GND*%
X48140000Y-63900000D03*
%TO.P,U1,4,D+*%
%TO.N,Net-(P1-D+)*%
X48140000Y-63400000D03*
%TO.P,U1,5,D-*%
%TO.N,Net-(P1-D-)*%
X48140000Y-62900000D03*
%TO.P,U1,6,VDD*%
%TO.N,Net-(U1-VDD)*%
X48140000Y-62400000D03*
%TO.P,U1,7,VREGIN*%
%TO.N,+5V*%
X48140000Y-61900000D03*
D32*
%TO.P,U1,8,VBUS*%
X49000000Y-61040000D03*
%TO.P,U1,9,~{RST}*%
%TO.N,unconnected-(U1-~{RST}-Pad9)*%
X49500000Y-61040000D03*
%TO.P,U1,10,NC*%
%TO.N,unconnected-(U1-NC-Pad10)*%
X50000000Y-61040000D03*
%TO.P,U1,11,~{SUSPEND}*%
%TO.N,unconnected-(U1-~{SUSPEND}-Pad11)*%
X50500000Y-61040000D03*
%TO.P,U1,12,SUSPEND*%
%TO.N,unconnected-(U1-SUSPEND-Pad12)*%
X51000000Y-61040000D03*
%TO.P,U1,13,CHREN*%
%TO.N,unconnected-(U1-CHREN-Pad13)*%
X51500000Y-61040000D03*
%TO.P,U1,14,CHR1*%
%TO.N,unconnected-(U1-CHR1-Pad14)*%
X52000000Y-61040000D03*
D31*
%TO.P,U1,15,CHR0*%
%TO.N,unconnected-(U1-CHR0-Pad15)*%
X52860000Y-61900000D03*
%TO.P,U1,16,GPIO.3/WAKEUP*%
%TO.N,unconnected-(U1-GPIO.3{slash}WAKEUP-Pad16)*%
X52860000Y-62400000D03*
%TO.P,U1,17,GPIO.2/RS485*%
%TO.N,unconnected-(U1-GPIO.2{slash}RS485-Pad17)*%
X52860000Y-62900000D03*
%TO.P,U1,18,GPIO.1/RXT*%
%TO.N,unconnected-(U1-GPIO.1{slash}RXT-Pad18)*%
X52860000Y-63400000D03*
%TO.P,U1,19,GPIO.0/TXT*%
%TO.N,unconnected-(U1-GPIO.0{slash}TXT-Pad19)*%
X52860000Y-63900000D03*
%TO.P,U1,20,GPIO.6*%
%TO.N,unconnected-(U1-GPIO.6-Pad20)*%
X52860000Y-64400000D03*
%TO.P,U1,21,GPIO.5*%
%TO.N,unconnected-(U1-GPIO.5-Pad21)*%
X52860000Y-64900000D03*
D32*
%TO.P,U1,22,GPIO.4*%
%TO.N,unconnected-(U1-GPIO.4-Pad22)*%
X52000000Y-65760000D03*
%TO.P,U1,23,CTS*%
%TO.N,unconnected-(U1-CTS-Pad23)*%
X51500000Y-65760000D03*
%TO.P,U1,24,RTS*%
%TO.N,Net-(Q2-E)*%
X51000000Y-65760000D03*
%TO.P,U1,25,RXD*%
%TO.N,TX*%
X50500000Y-65760000D03*
%TO.P,U1,26,TXD*%
%TO.N,RX*%
X50000000Y-65760000D03*
%TO.P,U1,27,DSR*%
%TO.N,unconnected-(U1-DSR-Pad27)*%
X49500000Y-65760000D03*
%TO.P,U1,28,DTR*%
%TO.N,Net-(Q1-E)*%
X49000000Y-65760000D03*
D33*
%TO.P,U1,29,GND*%
%TO.N,GND*%
X50500000Y-63400000D03*
%TD*%
D30*
%TO.P,BOOT1,1,1*%
%TO.N,GND*%
X77625000Y-79250000D03*
%TO.P,BOOT1,2,2*%
X85375000Y-79250000D03*
%TD*%
D34*
%TO.N,GND*%
X75075000Y-61050000D03*
X88500000Y-54675000D03*
X88550000Y-60200000D03*
X40000000Y-56000000D03*
X40500000Y-99125000D03*
X61900000Y-50950000D03*
X36000000Y-70250000D03*
X39075000Y-61050000D03*
X64900000Y-48000000D03*
X61000000Y-73200000D03*
X84075000Y-55050000D03*
X87700000Y-51000000D03*
X66150000Y-55050000D03*
X52000000Y-57219072D03*
X43000000Y-66100000D03*
X43915000Y-50115000D03*
X88500000Y-62000000D03*
X39075000Y-85075000D03*
X88900000Y-91800000D03*
X39075000Y-91075000D03*
X69100000Y-79000000D03*
X78934502Y-66217500D03*
X50000000Y-63000000D03*
X46000000Y-57000000D03*
%TO.N,+5V*%
X48100000Y-58025000D03*
X39100000Y-58000000D03*
X73900000Y-95900000D03*
X86275500Y-95000000D03*
X49000000Y-59950000D03*
X51975000Y-55375500D03*
X88975000Y-94975000D03*
X43900000Y-71900000D03*
%TO.N,RESET*%
X54950000Y-65699500D03*
X55225000Y-67975000D03*
%TO.N,GPIO18*%
X87525500Y-67200000D03*
%TD*%
D35*
%TO.N,GND*%
X88600000Y-54775000D02*
X88600000Y-54825000D01*
X88500000Y-54675000D02*
X88600000Y-54775000D01*
X88600000Y-54575000D02*
X88500000Y-54675000D01*
X88550000Y-60200000D02*
X88600000Y-59975000D01*
X89225000Y-59975000D02*
X88550000Y-60200000D01*
X89700000Y-55200000D02*
X89700000Y-59500000D01*
X89700000Y-59500000D02*
X89225000Y-59975000D01*
X89325000Y-54825000D02*
X89700000Y-55200000D01*
X88600000Y-54825000D02*
X89325000Y-54825000D01*
%TO.N,RX*%
X50820000Y-67325000D02*
X50000000Y-66505000D01*
X62950000Y-67325000D02*
X50820000Y-67325000D01*
X64625000Y-61525000D02*
X64625000Y-65650000D01*
X65570000Y-60580000D02*
X64625000Y-61525000D01*
X64625000Y-65650000D02*
X62950000Y-67325000D01*
X68250000Y-60580000D02*
X65570000Y-60580000D01*
X50000000Y-66505000D02*
X50000000Y-65760000D01*
%TO.N,TX*%
X63950000Y-61050000D02*
X65690000Y-59310000D01*
X62309314Y-66925000D02*
X63950000Y-65284314D01*
X65690000Y-59310000D02*
X68250000Y-59310000D01*
X50500000Y-65760000D02*
X50500000Y-66400000D01*
X50500000Y-66400000D02*
X51025000Y-66925000D01*
X51025000Y-66925000D02*
X62309314Y-66925000D01*
X63950000Y-65284314D02*
X63950000Y-61050000D01*
%TO.N,GND*%
X44900000Y-61587500D02*
X44287500Y-62200000D01*
X67375000Y-79250000D02*
X68850000Y-79250000D01*
X87700000Y-51000000D02*
X88600000Y-51900000D01*
X42430000Y-62200000D02*
X40225000Y-62200000D01*
X60737500Y-52038000D02*
X60737500Y-53000000D01*
X52150000Y-50950000D02*
X58687500Y-50950000D01*
X42430000Y-55800000D02*
X41855001Y-55800000D01*
X71975000Y-83000000D02*
X71975000Y-82400000D01*
X40225000Y-62200000D02*
X39075000Y-61050000D01*
X50000000Y-63900000D02*
X50500000Y-63400000D01*
X45650000Y-58400000D02*
X45650000Y-57350000D01*
X36100000Y-70350000D02*
X47400000Y-70350000D01*
X51550000Y-57669072D02*
X51550000Y-58400000D01*
X64775500Y-48000000D02*
X60737500Y-52038000D01*
X44287500Y-62200000D02*
X42430000Y-62200000D01*
X85375000Y-79250000D02*
X75125000Y-79250000D01*
X78934502Y-66217500D02*
X78934502Y-65054502D01*
X64775500Y-48000000D02*
X61900000Y-50875500D01*
X85750000Y-55500000D02*
X87925000Y-55500000D01*
X78934502Y-65054502D02*
X78500000Y-64620000D01*
X79900000Y-64620000D02*
X79900000Y-61820000D01*
X78500000Y-63220000D02*
X78500000Y-61820000D01*
X64900000Y-48000000D02*
X64775500Y-48000000D01*
X78825000Y-83400000D02*
X78825000Y-80450000D01*
X79900000Y-64620000D02*
X77100000Y-64620000D01*
X66150000Y-55050000D02*
X66600000Y-55500000D01*
X44350000Y-65600000D02*
X46050000Y-63900000D01*
X44350000Y-65600000D02*
X43500000Y-65600000D01*
X77100000Y-64620000D02*
X77100000Y-61820000D01*
X41655001Y-56000000D02*
X40000000Y-56000000D01*
X75125000Y-79250000D02*
X67375000Y-79250000D01*
X58850000Y-54887500D02*
X58850000Y-55400000D01*
X58687500Y-50950000D02*
X60737500Y-53000000D01*
X78825000Y-80450000D02*
X77625000Y-79250000D01*
X71975000Y-82400000D02*
X75125000Y-79250000D01*
X48140000Y-63900000D02*
X50000000Y-63900000D01*
X49800000Y-70350000D02*
X47400000Y-70350000D01*
X43915000Y-48215000D02*
X43400000Y-47700000D01*
X60400000Y-71350000D02*
X60400000Y-72600000D01*
X87925000Y-55500000D02*
X88600000Y-54825000D01*
X56950000Y-55400000D02*
X58850000Y-55400000D01*
X45650000Y-57350000D02*
X46000000Y-57000000D01*
X61900000Y-50875500D02*
X61900000Y-50950000D01*
X41855001Y-55800000D02*
X41655001Y-56000000D01*
X43400000Y-47700000D02*
X41865000Y-47700000D01*
X84525000Y-55500000D02*
X84075000Y-55050000D01*
X85750000Y-55500000D02*
X84525000Y-55500000D01*
X88600000Y-51900000D02*
X88600000Y-54575000D01*
X60737500Y-53000000D02*
X58850000Y-54887500D01*
X60400000Y-72600000D02*
X61000000Y-73200000D01*
X46050000Y-63900000D02*
X48140000Y-63900000D01*
X66600000Y-55500000D02*
X68250000Y-55500000D01*
X52000000Y-57219072D02*
X51550000Y-57669072D01*
X68850000Y-79250000D02*
X69100000Y-79000000D01*
X79900000Y-61820000D02*
X77100000Y-61820000D01*
X43500000Y-65600000D02*
X43000000Y-66100000D01*
X36000000Y-70250000D02*
X36100000Y-70350000D01*
X43915000Y-50115000D02*
X43915000Y-48215000D01*
%TO.N,+5V*%
X47550000Y-58400000D02*
X47725000Y-58400000D01*
X49000000Y-59050000D02*
X49000000Y-61040000D01*
X73900000Y-95900000D02*
X72900000Y-95900000D01*
X41800000Y-61400000D02*
X41000000Y-60600000D01*
X52150000Y-55550000D02*
X50250000Y-55550000D01*
X41000000Y-60600000D02*
X41000000Y-57400000D01*
X49800000Y-72250000D02*
X47400000Y-72250000D01*
X49800000Y-73400000D02*
X49800000Y-72250000D01*
X47400000Y-72250000D02*
X44250000Y-72250000D01*
X49650000Y-56150000D02*
X49650000Y-58400000D01*
X49650000Y-58400000D02*
X49000000Y-59050000D01*
X48140000Y-61900000D02*
X48140000Y-61260000D01*
X42430000Y-61400000D02*
X41800000Y-61400000D01*
X48360000Y-61040000D02*
X49000000Y-61040000D01*
X40500000Y-56600000D02*
X39100000Y-58000000D01*
X50250000Y-55550000D02*
X49650000Y-56150000D01*
X86275500Y-95000000D02*
X88950000Y-95000000D01*
X41000000Y-57400000D02*
X41800000Y-56600000D01*
X72630000Y-99250000D02*
X72630000Y-96230000D01*
X41800000Y-56600000D02*
X42430000Y-56600000D01*
X88950000Y-95000000D02*
X88975000Y-94975000D01*
X72600000Y-96200000D02*
X49800000Y-73400000D01*
X72630000Y-96230000D02*
X72600000Y-96200000D01*
X42430000Y-56600000D02*
X40500000Y-56600000D01*
X44250000Y-72250000D02*
X43900000Y-71900000D01*
X47550000Y-58400000D02*
X49650000Y-58400000D01*
X72900000Y-95900000D02*
X72600000Y-96200000D01*
X48140000Y-61260000D02*
X48360000Y-61040000D01*
X47725000Y-58400000D02*
X48100000Y-58025000D01*
%TO.N,+3V3*%
X85750000Y-56770000D02*
X75370000Y-56770000D01*
X46600000Y-52500000D02*
X51400000Y-52500000D01*
X55400000Y-57200000D02*
X55050000Y-56850000D01*
X37300000Y-50200000D02*
X42800000Y-50200000D01*
X70600000Y-52000000D02*
X65400000Y-52000000D01*
X51400000Y-52500000D02*
X52150000Y-53250000D01*
X54837500Y-53250000D02*
X55087500Y-53000000D01*
X55700000Y-69212500D02*
X57800000Y-71312500D01*
X55050000Y-56850000D02*
X55050000Y-55400000D01*
X55050000Y-55400000D02*
X55050000Y-53037500D01*
X84025000Y-83400000D02*
X82125000Y-85300000D01*
X45850000Y-53250000D02*
X46600000Y-52500000D01*
X55050000Y-53037500D02*
X55087500Y-53000000D01*
X75370000Y-56770000D02*
X70600000Y-52000000D01*
X55700000Y-69200000D02*
X55700000Y-69212500D01*
X88205000Y-56770000D02*
X88600000Y-56375000D01*
X82125000Y-85300000D02*
X66934314Y-85300000D01*
X60750000Y-55400000D02*
X60750000Y-56650000D01*
X88600000Y-56375000D02*
X88600000Y-58425000D01*
X35400000Y-67000000D02*
X35400000Y-52100000D01*
X57800000Y-71312500D02*
X57800000Y-76165686D01*
X66934314Y-85300000D02*
X57800000Y-76165686D01*
X60750000Y-56650000D02*
X60200000Y-57200000D01*
X85750000Y-56770000D02*
X88205000Y-56770000D01*
X55700000Y-69200000D02*
X37600000Y-69200000D01*
X60200000Y-57200000D02*
X55400000Y-57200000D01*
X65400000Y-52000000D02*
X62000000Y-55400000D01*
X37600000Y-69200000D02*
X35400000Y-67000000D01*
X42800000Y-50200000D02*
X45850000Y-53250000D01*
X52150000Y-53250000D02*
X54837500Y-53250000D01*
X35400000Y-52100000D02*
X37300000Y-50200000D01*
X62000000Y-55400000D02*
X60750000Y-55400000D01*
%TO.N,RESET*%
X83675000Y-82100000D02*
X82375000Y-83400000D01*
X63750000Y-69450000D02*
X64600000Y-70300000D01*
X84000000Y-71500000D02*
X84710000Y-72210000D01*
X85750000Y-58040000D02*
X84660000Y-58040000D01*
X60362500Y-69487500D02*
X60400000Y-69450000D01*
X64600000Y-70300000D02*
X64600000Y-82100000D01*
X64600000Y-82100000D02*
X67000000Y-84500000D01*
X57312500Y-66150000D02*
X59062500Y-64400000D01*
X67000000Y-84500000D02*
X79275000Y-84500000D01*
X55850000Y-68600000D02*
X56912500Y-68600000D01*
X84710000Y-74110000D02*
X87000000Y-76400000D01*
X55225000Y-67975000D02*
X55850000Y-68600000D01*
X79275000Y-84500000D02*
X80375000Y-83400000D01*
X60400000Y-69450000D02*
X63750000Y-69450000D01*
X84660000Y-58040000D02*
X84000000Y-58700000D01*
X54950000Y-65699500D02*
X55400500Y-66150000D01*
X84000000Y-58700000D02*
X84000000Y-71500000D01*
X84710000Y-72210000D02*
X84710000Y-74110000D01*
X57800000Y-69487500D02*
X60362500Y-69487500D01*
X55400500Y-66150000D02*
X57312500Y-66150000D01*
X87000000Y-76400000D02*
X87000000Y-81300000D01*
X82375000Y-83400000D02*
X80375000Y-83400000D01*
X86200000Y-82100000D02*
X83675000Y-82100000D01*
X56912500Y-68600000D02*
X57800000Y-69487500D01*
X87000000Y-81300000D02*
X86200000Y-82100000D01*
%TO.N,Net-(D1-A)*%
X58862500Y-53000000D02*
X56912500Y-53000000D01*
%TO.N,BOOT*%
X60937500Y-58962500D02*
X65900000Y-54000000D01*
X67600000Y-83000000D02*
X70425000Y-83000000D01*
X69690000Y-72010000D02*
X68250000Y-72010000D01*
X60937500Y-60150000D02*
X60937500Y-58962500D01*
X66000000Y-72320000D02*
X66000000Y-81400000D01*
X70600000Y-71100000D02*
X69690000Y-72010000D01*
X66310000Y-72010000D02*
X66000000Y-72320000D01*
X66000000Y-81400000D02*
X67600000Y-83000000D01*
X68250000Y-72010000D02*
X66310000Y-72010000D01*
X70600000Y-55665686D02*
X70600000Y-71100000D01*
X65900000Y-54000000D02*
X68934314Y-54000000D01*
X68934314Y-54000000D02*
X70600000Y-55665686D01*
%TO.N,Net-(U1-VDD)*%
X46250000Y-66950000D02*
X46250000Y-65600000D01*
X43700000Y-58200000D02*
X43700000Y-53000000D01*
X46900000Y-60468628D02*
X45931371Y-59500000D01*
X36900000Y-52300000D02*
X36500000Y-52700000D01*
X36500000Y-52700000D02*
X36500000Y-65800000D01*
X45000000Y-59500000D02*
X43700000Y-58200000D01*
X38100000Y-67400000D02*
X45800000Y-67400000D01*
X43700000Y-53000000D02*
X43000000Y-52300000D01*
X45931371Y-59500000D02*
X45000000Y-59500000D01*
X45800000Y-67400000D02*
X46250000Y-66950000D01*
X48140000Y-62400000D02*
X47300000Y-62400000D01*
X47300000Y-62400000D02*
X46900000Y-62000000D01*
X46900000Y-62000000D02*
X46900000Y-60468628D01*
X43000000Y-52300000D02*
X36900000Y-52300000D01*
X36500000Y-65800000D02*
X38100000Y-67400000D01*
%TO.N,GPIO18*%
X86525500Y-68200000D02*
X85750000Y-68200000D01*
X87525500Y-67200000D02*
X86525500Y-68200000D01*
%TO.N,Net-(P1-D+)*%
X45600000Y-60300000D02*
X46000000Y-60700000D01*
X46000000Y-62600000D02*
X46800000Y-63400000D01*
X42430000Y-59250000D02*
X43250000Y-59250000D01*
X44300000Y-60300000D02*
X45600000Y-60300000D01*
X46000000Y-60700000D02*
X46000000Y-62600000D01*
X46800000Y-63400000D02*
X48140000Y-63400000D01*
X43250000Y-59250000D02*
X44300000Y-60300000D01*
%TO.N,Net-(P1-D-)*%
X43315686Y-58750000D02*
X42430000Y-58750000D01*
X46865686Y-62900000D02*
X46500000Y-62534314D01*
X46500000Y-62534314D02*
X46500000Y-60634314D01*
X48140000Y-62900000D02*
X46865686Y-62900000D01*
X46500000Y-60634314D02*
X45765686Y-59900000D01*
X44465686Y-59900000D02*
X43315686Y-58750000D01*
X45765686Y-59900000D02*
X44465686Y-59900000D01*
%TO.N,Net-(P1-SHIELD)*%
X37925000Y-53890000D02*
X37925000Y-64110000D01*
X42552500Y-63412500D02*
X41855000Y-64110000D01*
X41855000Y-53890000D02*
X37925000Y-53890000D01*
X44900000Y-63412500D02*
X42552500Y-63412500D01*
X41855000Y-64110000D02*
X37925000Y-64110000D01*
%TO.N,Net-(Q1-B)*%
X57200000Y-59237500D02*
X59062500Y-61100000D01*
X56337500Y-59237500D02*
X57200000Y-59237500D01*
%TO.N,Net-(Q1-E)*%
X37900000Y-68000000D02*
X36100000Y-66200000D01*
X44100000Y-55300000D02*
X45000000Y-56200000D01*
X49000000Y-67200000D02*
X48200000Y-68000000D01*
X54200000Y-58250000D02*
X54200000Y-58125000D01*
X56337500Y-65262500D02*
X55637500Y-65262500D01*
X49000000Y-65760000D02*
X49000000Y-67200000D01*
X59062500Y-59200000D02*
X57762500Y-57900000D01*
X55637500Y-65262500D02*
X54200000Y-63825000D01*
X36100000Y-52605026D02*
X37005026Y-51700000D01*
X45000000Y-56200000D02*
X47200000Y-56200000D01*
X54200000Y-57850000D02*
X54200000Y-58125000D01*
X49000000Y-54400000D02*
X53500000Y-54400000D01*
X48200000Y-68000000D02*
X37900000Y-68000000D01*
X44100000Y-52752513D02*
X44100000Y-55300000D01*
X47200000Y-56200000D02*
X49000000Y-54400000D01*
X36100000Y-66200000D02*
X36100000Y-52605026D01*
X54500000Y-57850000D02*
X54200000Y-57850000D01*
X54200000Y-55100000D02*
X54200000Y-56400000D01*
X54200000Y-57550000D02*
X54200000Y-57075000D01*
X54550000Y-57900000D02*
X54200000Y-57550000D01*
X54200000Y-63825000D02*
X54200000Y-61500000D01*
X54200000Y-57075000D02*
X54200000Y-56800000D01*
X54200000Y-57075000D02*
X54200000Y-57850000D01*
X54550000Y-57900000D02*
X54200000Y-58250000D01*
X43047487Y-51700000D02*
X44100000Y-52752513D01*
X54550000Y-57900000D02*
X54500000Y-57850000D01*
X57762500Y-57900000D02*
X54550000Y-57900000D01*
X54200000Y-58125000D02*
X54200000Y-61500000D01*
X54200000Y-56800000D02*
X54200000Y-56400000D01*
X53500000Y-54400000D02*
X54200000Y-55100000D01*
X37005026Y-51700000D02*
X43047487Y-51700000D01*
%TO.N,Net-(Q2-B)*%
X56337500Y-63437500D02*
X56875000Y-62900000D01*
X56875000Y-62900000D02*
X60387500Y-62900000D01*
X60387500Y-62900000D02*
X60937500Y-63450000D01*
%TO.N,Net-(Q2-E)*%
X62250000Y-65350000D02*
X62600000Y-65000000D01*
X51190686Y-66525000D02*
X59762500Y-66525000D01*
X60937500Y-65350000D02*
X62250000Y-65350000D01*
X61900000Y-62300000D02*
X57800000Y-62300000D01*
X51000000Y-66334314D02*
X51190686Y-66525000D01*
X51000000Y-65760000D02*
X51000000Y-66334314D01*
X59762500Y-66525000D02*
X60937500Y-65350000D01*
X62600000Y-65000000D02*
X62600000Y-63000000D01*
X57800000Y-62300000D02*
X56562500Y-61062500D01*
X62600000Y-63000000D02*
X61900000Y-62300000D01*
X56562500Y-61062500D02*
X56337500Y-61062500D01*
%TO.N,IO5*%
X85330000Y-99250000D02*
X85330000Y-90470000D01*
X88554595Y-61100000D02*
X87900000Y-61100000D01*
X87900000Y-61100000D02*
X87380000Y-60580000D01*
X89400000Y-61945405D02*
X88554595Y-61100000D01*
X85330000Y-90470000D02*
X89400000Y-86400000D01*
X89400000Y-86400000D02*
X89400000Y-61945405D01*
X87380000Y-60580000D02*
X85750000Y-60580000D01*
%TO.N,IO6*%
X89000000Y-84400000D02*
X82790000Y-90610000D01*
X82790000Y-90610000D02*
X82790000Y-99250000D01*
X86750000Y-61850000D02*
X89000000Y-64100000D01*
X89000000Y-65800000D02*
X89000000Y-67800000D01*
X85750000Y-61850000D02*
X86750000Y-61850000D01*
X89000000Y-67800000D02*
X89000000Y-84400000D01*
X89000000Y-64100000D02*
X89000000Y-65800000D01*
X89000000Y-67800000D02*
X89000000Y-68000000D01*
X89000000Y-68000000D02*
X89000000Y-68100000D01*
%TO.N,IO7*%
X88600000Y-64970000D02*
X86750000Y-63120000D01*
X86750000Y-63120000D02*
X85750000Y-63120000D01*
X80250000Y-99250000D02*
X80250000Y-90950000D01*
X80250000Y-90950000D02*
X88600000Y-82600000D01*
X88600000Y-82600000D02*
X88600000Y-64970000D01*
%TO.N,IO8*%
X86970000Y-69470000D02*
X87600000Y-70100000D01*
X87600000Y-81800000D02*
X75170000Y-94230000D01*
X87600000Y-70100000D02*
X87600000Y-81800000D01*
X75170000Y-94230000D02*
X75170000Y-99250000D01*
X85750000Y-69470000D02*
X86970000Y-69470000D01*
%TO.N,IO15*%
X86390000Y-64390000D02*
X88200000Y-66200000D01*
X88200000Y-66200000D02*
X88200000Y-82000000D01*
X77710000Y-92490000D02*
X77710000Y-99250000D01*
X88200000Y-82000000D02*
X77710000Y-92490000D01*
X85750000Y-64390000D02*
X86390000Y-64390000D01*
%TD*%
%TA.AperFunction,Conductor*%
%TO.N,GND*%
G36*
X35205703Y-67690739D02*
G01*
X35212179Y-67696769D01*
X36176363Y-68660954D01*
X37099197Y-69583788D01*
X37109022Y-69596051D01*
X37109243Y-69595869D01*
X37114214Y-69601878D01*
X37140217Y-69626295D01*
X37164635Y-69649226D01*
X37185529Y-69670120D01*
X37191011Y-69674373D01*
X37195443Y-69678157D01*
X37229418Y-69710062D01*
X37246976Y-69719714D01*
X37263233Y-69730393D01*
X37279064Y-69742673D01*
X37298737Y-69751186D01*
X37321833Y-69761182D01*
X37327077Y-69763750D01*
X37367908Y-69786197D01*
X37380523Y-69789435D01*
X37387305Y-69791177D01*
X37405719Y-69797481D01*
X37424104Y-69805438D01*
X37470157Y-69812732D01*
X37475826Y-69813906D01*
X37520981Y-69825500D01*
X37541016Y-69825500D01*
X37560413Y-69827026D01*
X37580196Y-69830160D01*
X37626584Y-69825775D01*
X37632422Y-69825500D01*
X46060624Y-69825500D01*
X46127663Y-69845185D01*
X46173418Y-69897989D01*
X46183982Y-69962103D01*
X46175000Y-70050013D01*
X46175000Y-70100000D01*
X51024999Y-70100000D01*
X51024999Y-70050028D01*
X51024998Y-70050010D01*
X51016018Y-69962101D01*
X51028788Y-69893408D01*
X51076669Y-69842524D01*
X51139376Y-69825500D01*
X55377048Y-69825500D01*
X55444087Y-69845185D01*
X55464729Y-69861819D01*
X56563181Y-70960271D01*
X56596666Y-71021594D01*
X56599500Y-71047952D01*
X56599500Y-71625001D01*
X56599501Y-71625019D01*
X56610000Y-71727796D01*
X56610001Y-71727799D01*
X56665185Y-71894331D01*
X56665187Y-71894336D01*
X56688164Y-71931587D01*
X56757288Y-72043656D01*
X56881344Y-72167712D01*
X57000133Y-72240981D01*
X57030668Y-72259815D01*
X57051110Y-72266588D01*
X57089502Y-72279310D01*
X57146947Y-72319081D01*
X57173772Y-72383596D01*
X57174500Y-72397016D01*
X57174500Y-76082941D01*
X57172775Y-76098558D01*
X57173061Y-76098585D01*
X57172326Y-76106351D01*
X57174500Y-76175500D01*
X57174500Y-76205029D01*
X57174501Y-76205046D01*
X57175368Y-76211917D01*
X57175826Y-76217736D01*
X57177290Y-76264310D01*
X57177291Y-76264313D01*
X57182880Y-76283553D01*
X57186824Y-76302597D01*
X57189336Y-76322477D01*
X57206490Y-76365805D01*
X57208382Y-76371333D01*
X57221381Y-76416074D01*
X57231580Y-76433320D01*
X57240138Y-76450789D01*
X57247514Y-76469418D01*
X57274898Y-76507109D01*
X57278106Y-76511993D01*
X57301827Y-76552102D01*
X57301833Y-76552110D01*
X57315990Y-76566266D01*
X57328628Y-76581062D01*
X57340405Y-76597272D01*
X57340406Y-76597273D01*
X57376309Y-76626974D01*
X57380620Y-76630896D01*
X61926952Y-81177228D01*
X66433508Y-85683784D01*
X66443333Y-85696048D01*
X66443554Y-85695866D01*
X66448524Y-85701873D01*
X66448527Y-85701876D01*
X66448528Y-85701877D01*
X66498965Y-85749241D01*
X66519844Y-85770120D01*
X66525318Y-85774366D01*
X66529756Y-85778156D01*
X66563732Y-85810062D01*
X66563736Y-85810064D01*
X66581287Y-85819713D01*
X66597545Y-85830392D01*
X66613378Y-85842674D01*
X66635329Y-85852172D01*
X66656151Y-85861183D01*
X66661395Y-85863752D01*
X66702222Y-85886197D01*
X66721626Y-85891179D01*
X66740024Y-85897478D01*
X66758419Y-85905438D01*
X66804443Y-85912726D01*
X66810146Y-85913907D01*
X66855295Y-85925500D01*
X66875330Y-85925500D01*
X66894727Y-85927026D01*
X66914510Y-85930160D01*
X66960898Y-85925775D01*
X66966736Y-85925500D01*
X82042257Y-85925500D01*
X82057877Y-85927224D01*
X82057904Y-85926939D01*
X82065660Y-85927671D01*
X82065667Y-85927673D01*
X82134814Y-85925500D01*
X82164350Y-85925500D01*
X82171228Y-85924630D01*
X82177041Y-85924172D01*
X82223627Y-85922709D01*
X82242869Y-85917117D01*
X82261912Y-85913174D01*
X82281792Y-85910664D01*
X82281792Y-85910663D01*
X82289537Y-85909686D01*
X82289861Y-85912257D01*
X82347079Y-85914204D01*
X82404539Y-85953955D01*
X82431387Y-86018460D01*
X82419098Y-86087241D01*
X82395801Y-86119606D01*
X74786208Y-93729199D01*
X74773951Y-93739020D01*
X74774134Y-93739241D01*
X74768123Y-93744213D01*
X74720772Y-93794636D01*
X74699889Y-93815519D01*
X74699877Y-93815532D01*
X74695621Y-93821017D01*
X74691837Y-93825447D01*
X74659937Y-93859418D01*
X74659936Y-93859420D01*
X74650284Y-93876976D01*
X74639610Y-93893226D01*
X74627329Y-93909061D01*
X74627324Y-93909068D01*
X74608815Y-93951838D01*
X74606245Y-93957084D01*
X74583803Y-93997906D01*
X74578822Y-94017307D01*
X74572521Y-94035710D01*
X74564562Y-94054102D01*
X74564561Y-94054105D01*
X74557271Y-94100127D01*
X74556087Y-94105846D01*
X74544501Y-94150972D01*
X74544500Y-94150982D01*
X74544500Y-94171016D01*
X74542973Y-94190415D01*
X74539840Y-94210194D01*
X74539840Y-94210195D01*
X74544225Y-94256583D01*
X74544500Y-94262421D01*
X74544500Y-95011814D01*
X74524815Y-95078853D01*
X74472011Y-95124608D01*
X74402853Y-95134552D01*
X74359572Y-95117005D01*
X74358363Y-95119101D01*
X74352729Y-95115848D01*
X74179807Y-95038857D01*
X74179802Y-95038855D01*
X74034001Y-95007865D01*
X73994646Y-94999500D01*
X73805354Y-94999500D01*
X73772897Y-95006398D01*
X73620197Y-95038855D01*
X73620192Y-95038857D01*
X73447270Y-95115848D01*
X73447265Y-95115851D01*
X73294130Y-95227110D01*
X73294126Y-95227114D01*
X73288400Y-95233474D01*
X73228913Y-95270121D01*
X73196252Y-95274500D01*
X72982738Y-95274500D01*
X72967121Y-95272776D01*
X72967094Y-95273062D01*
X72959332Y-95272327D01*
X72890204Y-95274500D01*
X72860650Y-95274500D01*
X72859929Y-95274590D01*
X72853757Y-95275369D01*
X72847945Y-95275826D01*
X72801373Y-95277290D01*
X72801372Y-95277290D01*
X72782129Y-95282881D01*
X72763079Y-95286825D01*
X72743211Y-95289334D01*
X72743210Y-95289334D01*
X72699886Y-95306487D01*
X72694365Y-95308377D01*
X72686230Y-95310742D01*
X72616360Y-95310550D01*
X72563941Y-95279350D01*
X50627956Y-73343365D01*
X50594471Y-73282042D01*
X50599455Y-73212350D01*
X50641327Y-73156417D01*
X50650533Y-73150149D01*
X50743656Y-73092712D01*
X50867712Y-72968656D01*
X50959814Y-72819334D01*
X51014999Y-72652797D01*
X51025500Y-72550009D01*
X51025499Y-71949992D01*
X51025440Y-71949418D01*
X51014999Y-71847203D01*
X51014998Y-71847200D01*
X51010695Y-71834214D01*
X50959814Y-71680666D01*
X50867712Y-71531344D01*
X50743656Y-71407288D01*
X50740342Y-71405243D01*
X50738546Y-71403248D01*
X50737989Y-71402807D01*
X50738064Y-71402711D01*
X50693618Y-71353297D01*
X50682397Y-71284334D01*
X50710240Y-71220252D01*
X50740348Y-71194165D01*
X50743342Y-71192318D01*
X50867315Y-71068345D01*
X50959356Y-70919124D01*
X50959358Y-70919119D01*
X51014505Y-70752697D01*
X51014506Y-70752690D01*
X51024999Y-70649986D01*
X51025000Y-70649973D01*
X51025000Y-70600000D01*
X46175001Y-70600000D01*
X46175001Y-70649986D01*
X46185494Y-70752697D01*
X46240641Y-70919119D01*
X46240643Y-70919124D01*
X46332684Y-71068345D01*
X46456655Y-71192316D01*
X46456659Y-71192319D01*
X46459656Y-71194168D01*
X46461279Y-71195972D01*
X46462323Y-71196798D01*
X46462181Y-71196976D01*
X46506381Y-71246116D01*
X46517602Y-71315079D01*
X46489759Y-71379161D01*
X46459661Y-71405241D01*
X46456349Y-71407283D01*
X46456343Y-71407288D01*
X46332289Y-71531342D01*
X46332055Y-71531722D01*
X46319517Y-71552050D01*
X46311161Y-71565597D01*
X46259213Y-71612321D01*
X46205622Y-71624500D01*
X44847418Y-71624500D01*
X44780379Y-71604815D01*
X44734624Y-71552011D01*
X44729487Y-71538819D01*
X44727180Y-71531719D01*
X44727179Y-71531718D01*
X44727179Y-71531716D01*
X44632533Y-71367784D01*
X44505871Y-71227112D01*
X44505870Y-71227111D01*
X44352734Y-71115851D01*
X44352729Y-71115848D01*
X44179807Y-71038857D01*
X44179802Y-71038855D01*
X44034001Y-71007865D01*
X43994646Y-70999500D01*
X43805354Y-70999500D01*
X43772897Y-71006398D01*
X43620197Y-71038855D01*
X43620192Y-71038857D01*
X43447270Y-71115848D01*
X43447265Y-71115851D01*
X43294129Y-71227111D01*
X43167466Y-71367785D01*
X43072821Y-71531715D01*
X43072818Y-71531722D01*
X43024423Y-71680668D01*
X43014326Y-71711744D01*
X42994540Y-71900000D01*
X43014326Y-72088256D01*
X43014327Y-72088259D01*
X43072818Y-72268277D01*
X43072821Y-72268284D01*
X43167467Y-72432216D01*
X43273529Y-72550009D01*
X43294129Y-72572888D01*
X43447265Y-72684148D01*
X43447270Y-72684151D01*
X43620192Y-72761142D01*
X43620197Y-72761144D01*
X43805354Y-72800500D01*
X43921139Y-72800500D01*
X43980878Y-72815839D01*
X44017902Y-72836194D01*
X44017904Y-72836195D01*
X44017908Y-72836197D01*
X44037312Y-72841179D01*
X44055710Y-72847478D01*
X44074105Y-72855438D01*
X44120129Y-72862726D01*
X44125832Y-72863907D01*
X44170981Y-72875500D01*
X44191016Y-72875500D01*
X44210413Y-72877026D01*
X44230196Y-72880160D01*
X44276584Y-72875775D01*
X44282422Y-72875500D01*
X46205622Y-72875500D01*
X46272661Y-72895185D01*
X46311159Y-72934401D01*
X46332288Y-72968656D01*
X46456344Y-73092712D01*
X46605666Y-73184814D01*
X46772203Y-73239999D01*
X46874991Y-73250500D01*
X47925008Y-73250499D01*
X47925016Y-73250498D01*
X47925019Y-73250498D01*
X47981302Y-73244748D01*
X48027797Y-73239999D01*
X48194334Y-73184814D01*
X48343656Y-73092712D01*
X48467712Y-72968656D01*
X48488839Y-72934402D01*
X48540787Y-72887679D01*
X48594378Y-72875500D01*
X48605622Y-72875500D01*
X48672661Y-72895185D01*
X48711159Y-72934401D01*
X48732288Y-72968656D01*
X48856344Y-73092712D01*
X49005666Y-73184814D01*
X49087810Y-73212034D01*
X49145255Y-73251805D01*
X49172078Y-73316321D01*
X49172230Y-73337606D01*
X49174500Y-73409814D01*
X49174500Y-73439343D01*
X49174501Y-73439360D01*
X49175368Y-73446231D01*
X49175826Y-73452050D01*
X49177290Y-73498624D01*
X49177291Y-73498627D01*
X49182880Y-73517867D01*
X49186824Y-73536911D01*
X49189336Y-73556791D01*
X49206490Y-73600119D01*
X49208382Y-73605647D01*
X49221381Y-73650388D01*
X49231580Y-73667634D01*
X49240138Y-73685103D01*
X49247514Y-73703732D01*
X49274898Y-73741423D01*
X49278106Y-73746307D01*
X49301827Y-73786416D01*
X49301833Y-73786424D01*
X49315990Y-73800580D01*
X49328628Y-73815376D01*
X49340405Y-73831586D01*
X49340406Y-73831587D01*
X49376309Y-73861288D01*
X49380620Y-73865210D01*
X61025500Y-85510090D01*
X71968181Y-96452771D01*
X72001666Y-96514094D01*
X72004500Y-96540452D01*
X72004500Y-97974773D01*
X71984815Y-98041812D01*
X71951623Y-98076348D01*
X71758600Y-98211503D01*
X71636284Y-98333819D01*
X71574961Y-98367303D01*
X71505269Y-98362319D01*
X71449336Y-98320447D01*
X71432421Y-98289470D01*
X71383354Y-98157913D01*
X71383350Y-98157906D01*
X71297190Y-98042812D01*
X71297187Y-98042809D01*
X71182093Y-97956649D01*
X71182086Y-97956645D01*
X71047379Y-97906403D01*
X71047372Y-97906401D01*
X70987844Y-97900000D01*
X70340000Y-97900000D01*
X70340000Y-98814498D01*
X70232315Y-98765320D01*
X70125763Y-98750000D01*
X70054237Y-98750000D01*
X69947685Y-98765320D01*
X69840000Y-98814498D01*
X69840000Y-97900000D01*
X69192155Y-97900000D01*
X69132627Y-97906401D01*
X69132620Y-97906403D01*
X68997913Y-97956645D01*
X68997906Y-97956649D01*
X68882812Y-98042809D01*
X68882809Y-98042812D01*
X68796649Y-98157906D01*
X68796645Y-98157913D01*
X68746403Y-98292620D01*
X68746401Y-98292627D01*
X68740000Y-98352155D01*
X68740000Y-99000000D01*
X69656314Y-99000000D01*
X69630507Y-99040156D01*
X69590000Y-99178111D01*
X69590000Y-99321889D01*
X69630507Y-99459844D01*
X69656314Y-99500000D01*
X68740000Y-99500000D01*
X68740000Y-100147844D01*
X68746401Y-100207372D01*
X68746403Y-100207379D01*
X68796645Y-100342086D01*
X68796649Y-100342093D01*
X68882809Y-100457187D01*
X68882812Y-100457190D01*
X68997906Y-100543350D01*
X68997913Y-100543354D01*
X69132620Y-100593596D01*
X69132627Y-100593598D01*
X69192155Y-100599999D01*
X69192172Y-100600000D01*
X69840000Y-100600000D01*
X69840000Y-99685501D01*
X69947685Y-99734680D01*
X70054237Y-99750000D01*
X70125763Y-99750000D01*
X70232315Y-99734680D01*
X70340000Y-99685501D01*
X70340000Y-100600000D01*
X70987828Y-100600000D01*
X70987844Y-100599999D01*
X71047372Y-100593598D01*
X71047379Y-100593596D01*
X71182086Y-100543354D01*
X71182093Y-100543350D01*
X71297187Y-100457190D01*
X71297190Y-100457187D01*
X71383350Y-100342093D01*
X71383354Y-100342086D01*
X71432422Y-100210529D01*
X71474293Y-100154595D01*
X71539757Y-100130178D01*
X71608030Y-100145030D01*
X71636285Y-100166181D01*
X71758599Y-100288495D01*
X71835135Y-100342086D01*
X71952165Y-100424032D01*
X71952167Y-100424033D01*
X71952170Y-100424035D01*
X72166337Y-100523903D01*
X72394592Y-100585063D01*
X72565319Y-100600000D01*
X72629999Y-100605659D01*
X72630000Y-100605659D01*
X72630001Y-100605659D01*
X72694681Y-100600000D01*
X72865408Y-100585063D01*
X73093663Y-100523903D01*
X73307830Y-100424035D01*
X73501401Y-100288495D01*
X73668495Y-100121401D01*
X73798425Y-99935842D01*
X73853002Y-99892217D01*
X73922500Y-99885023D01*
X73984855Y-99916546D01*
X74001575Y-99935842D01*
X74131500Y-100121395D01*
X74131505Y-100121401D01*
X74298599Y-100288495D01*
X74375135Y-100342086D01*
X74492165Y-100424032D01*
X74492167Y-100424033D01*
X74492170Y-100424035D01*
X74706337Y-100523903D01*
X74934592Y-100585063D01*
X75105319Y-100600000D01*
X75169999Y-100605659D01*
X75170000Y-100605659D01*
X75170001Y-100605659D01*
X75234681Y-100600000D01*
X75405408Y-100585063D01*
X75633663Y-100523903D01*
X75847830Y-100424035D01*
X76041401Y-100288495D01*
X76208495Y-100121401D01*
X76338425Y-99935842D01*
X76393002Y-99892217D01*
X76462500Y-99885023D01*
X76524855Y-99916546D01*
X76541575Y-99935842D01*
X76671500Y-100121395D01*
X76671505Y-100121401D01*
X76838599Y-100288495D01*
X76915135Y-100342086D01*
X77032165Y-100424032D01*
X77032167Y-100424033D01*
X77032170Y-100424035D01*
X77246337Y-100523903D01*
X77474592Y-100585063D01*
X77645319Y-100600000D01*
X77709999Y-100605659D01*
X77710000Y-100605659D01*
X77710001Y-100605659D01*
X77774681Y-100600000D01*
X77945408Y-100585063D01*
X78173663Y-100523903D01*
X78387830Y-100424035D01*
X78581401Y-100288495D01*
X78748495Y-100121401D01*
X78878425Y-99935842D01*
X78933002Y-99892217D01*
X79002500Y-99885023D01*
X79064855Y-99916546D01*
X79081575Y-99935842D01*
X79211500Y-100121395D01*
X79211505Y-100121401D01*
X79378599Y-100288495D01*
X79455135Y-100342086D01*
X79572165Y-100424032D01*
X79572167Y-100424033D01*
X79572170Y-100424035D01*
X79786337Y-100523903D01*
X80014592Y-100585063D01*
X80185319Y-100600000D01*
X80249999Y-100605659D01*
X80250000Y-100605659D01*
X80250001Y-100605659D01*
X80314681Y-100600000D01*
X80485408Y-100585063D01*
X80713663Y-100523903D01*
X80927830Y-100424035D01*
X81121401Y-100288495D01*
X81288495Y-100121401D01*
X81418425Y-99935842D01*
X81473002Y-99892217D01*
X81542500Y-99885023D01*
X81604855Y-99916546D01*
X81621575Y-99935842D01*
X81751500Y-100121395D01*
X81751505Y-100121401D01*
X81918599Y-100288495D01*
X81995135Y-100342086D01*
X82112165Y-100424032D01*
X82112167Y-100424033D01*
X82112170Y-100424035D01*
X82326337Y-100523903D01*
X82554592Y-100585063D01*
X82725319Y-100600000D01*
X82789999Y-100605659D01*
X82790000Y-100605659D01*
X82790001Y-100605659D01*
X82854681Y-100600000D01*
X83025408Y-100585063D01*
X83253663Y-100523903D01*
X83467830Y-100424035D01*
X83661401Y-100288495D01*
X83828495Y-100121401D01*
X83958425Y-99935842D01*
X84013002Y-99892217D01*
X84082500Y-99885023D01*
X84144855Y-99916546D01*
X84161575Y-99935842D01*
X84291500Y-100121395D01*
X84291505Y-100121401D01*
X84458599Y-100288495D01*
X84535135Y-100342086D01*
X84652165Y-100424032D01*
X84652167Y-100424033D01*
X84652170Y-100424035D01*
X84866337Y-100523903D01*
X85094592Y-100585063D01*
X85265319Y-100600000D01*
X85329999Y-100605659D01*
X85330000Y-100605659D01*
X85330001Y-100605659D01*
X85394681Y-100600000D01*
X85565408Y-100585063D01*
X85793663Y-100523903D01*
X86007830Y-100424035D01*
X86201401Y-100288495D01*
X86368495Y-100121401D01*
X86504035Y-99927830D01*
X86603903Y-99713663D01*
X86665063Y-99485408D01*
X86685659Y-99250000D01*
X86665063Y-99014592D01*
X86603903Y-98786337D01*
X86504035Y-98572171D01*
X86498425Y-98564158D01*
X86368494Y-98378597D01*
X86201402Y-98211506D01*
X86201401Y-98211505D01*
X86008376Y-98076347D01*
X85964751Y-98021770D01*
X85955500Y-97974772D01*
X85955500Y-96005726D01*
X85975185Y-95938687D01*
X86027989Y-95892932D01*
X86097147Y-95882988D01*
X86105263Y-95884432D01*
X86180854Y-95900500D01*
X86180855Y-95900500D01*
X86370144Y-95900500D01*
X86370146Y-95900500D01*
X86555303Y-95861144D01*
X86728230Y-95784151D01*
X86881371Y-95672888D01*
X86884288Y-95669647D01*
X86887100Y-95666526D01*
X86946587Y-95629879D01*
X86979248Y-95625500D01*
X88298025Y-95625500D01*
X88365064Y-95645185D01*
X88370910Y-95649182D01*
X88522265Y-95759148D01*
X88522270Y-95759151D01*
X88695192Y-95836142D01*
X88695197Y-95836144D01*
X88880354Y-95875500D01*
X88880355Y-95875500D01*
X89069644Y-95875500D01*
X89069646Y-95875500D01*
X89254803Y-95836144D01*
X89427730Y-95759151D01*
X89580871Y-95647888D01*
X89707533Y-95507216D01*
X89768113Y-95402287D01*
X89818680Y-95354073D01*
X89887287Y-95340849D01*
X89952151Y-95366817D01*
X89992680Y-95423731D01*
X89999500Y-95464288D01*
X89999500Y-98997975D01*
X89999367Y-99002032D01*
X89994017Y-99083648D01*
X89981015Y-99265438D01*
X89979980Y-99273118D01*
X89956846Y-99389420D01*
X89925472Y-99533646D01*
X89923597Y-99540401D01*
X89889297Y-99641448D01*
X89883208Y-99659388D01*
X89883195Y-99659425D01*
X89833841Y-99791741D01*
X89831355Y-99797499D01*
X89774421Y-99912952D01*
X89707828Y-100034907D01*
X89704961Y-100039641D01*
X89633461Y-100146649D01*
X89631543Y-100149359D01*
X89549744Y-100258631D01*
X89546723Y-100262357D01*
X89461529Y-100359502D01*
X89458755Y-100362464D01*
X89362464Y-100458755D01*
X89359502Y-100461529D01*
X89262357Y-100546723D01*
X89258631Y-100549744D01*
X89149359Y-100631543D01*
X89146649Y-100633461D01*
X89039641Y-100704961D01*
X89034907Y-100707828D01*
X88912952Y-100774421D01*
X88797499Y-100831355D01*
X88791741Y-100833841D01*
X88670956Y-100878893D01*
X88659418Y-100883197D01*
X88540401Y-100923597D01*
X88533646Y-100925472D01*
X88389420Y-100956846D01*
X88273118Y-100979980D01*
X88265438Y-100981015D01*
X88083648Y-100994017D01*
X88032582Y-100997364D01*
X88002025Y-100999367D01*
X87997976Y-100999500D01*
X37002024Y-100999500D01*
X36997974Y-100999367D01*
X36959954Y-100996875D01*
X36916350Y-100994017D01*
X36734560Y-100981015D01*
X36726880Y-100979980D01*
X36610579Y-100956846D01*
X36466352Y-100925472D01*
X36459596Y-100923597D01*
X36427881Y-100912831D01*
X36340578Y-100883196D01*
X36305768Y-100870212D01*
X36208257Y-100833841D01*
X36202499Y-100831355D01*
X36087047Y-100774421D01*
X35965091Y-100707828D01*
X35960357Y-100704962D01*
X35853349Y-100633461D01*
X35850639Y-100631543D01*
X35799947Y-100593596D01*
X35741353Y-100549732D01*
X35737648Y-100546729D01*
X35640492Y-100461526D01*
X35637549Y-100458769D01*
X35541228Y-100362448D01*
X35538469Y-100359502D01*
X35505450Y-100321851D01*
X35453265Y-100262345D01*
X35450271Y-100258652D01*
X35368454Y-100149358D01*
X35366537Y-100146649D01*
X35365455Y-100145030D01*
X35295032Y-100039634D01*
X35292170Y-100034906D01*
X35225578Y-99912952D01*
X35168643Y-99797499D01*
X35166157Y-99791741D01*
X35137035Y-99713664D01*
X35116805Y-99659425D01*
X35076395Y-99540383D01*
X35074531Y-99533666D01*
X35043153Y-99389420D01*
X35038641Y-99366738D01*
X35020015Y-99273100D01*
X35018985Y-99265459D01*
X35005986Y-99083708D01*
X35001457Y-99014596D01*
X35000633Y-99002019D01*
X35000500Y-98997964D01*
X35000500Y-67784452D01*
X35020185Y-67717413D01*
X35072989Y-67671658D01*
X35142147Y-67661714D01*
X35205703Y-67690739D01*
G37*
%TD.AperFunction*%
%TA.AperFunction,Conductor*%
G36*
X89929524Y-86874198D02*
G01*
X89981290Y-86921124D01*
X89999500Y-86985811D01*
X89999500Y-94485711D01*
X89979815Y-94552750D01*
X89927011Y-94598505D01*
X89857853Y-94608449D01*
X89794297Y-94579424D01*
X89768113Y-94547711D01*
X89707534Y-94442785D01*
X89628325Y-94354815D01*
X89580871Y-94302112D01*
X89526241Y-94262421D01*
X89427734Y-94190851D01*
X89427729Y-94190848D01*
X89254807Y-94113857D01*
X89254802Y-94113855D01*
X89109001Y-94082865D01*
X89069646Y-94074500D01*
X88880354Y-94074500D01*
X88847897Y-94081398D01*
X88695197Y-94113855D01*
X88695192Y-94113857D01*
X88522270Y-94190848D01*
X88522265Y-94190851D01*
X88369135Y-94302106D01*
X88369128Y-94302112D01*
X88340891Y-94333473D01*
X88281405Y-94370121D01*
X88248742Y-94374500D01*
X86979248Y-94374500D01*
X86912209Y-94354815D01*
X86887100Y-94333474D01*
X86881373Y-94327114D01*
X86881369Y-94327110D01*
X86728234Y-94215851D01*
X86728229Y-94215848D01*
X86555307Y-94138857D01*
X86555302Y-94138855D01*
X86400002Y-94105846D01*
X86370146Y-94099500D01*
X86180854Y-94099500D01*
X86105278Y-94115563D01*
X86035613Y-94110247D01*
X85979880Y-94068109D01*
X85955775Y-94002529D01*
X85955500Y-93994273D01*
X85955500Y-90780452D01*
X85975185Y-90713413D01*
X85991819Y-90692771D01*
X86715391Y-89969199D01*
X89783788Y-86900801D01*
X89795999Y-86891020D01*
X89795817Y-86890800D01*
X89796416Y-86890304D01*
X89797448Y-86889860D01*
X89805047Y-86883774D01*
X89808484Y-86881594D01*
X89810239Y-86884361D01*
X89860605Y-86862709D01*
X89929524Y-86874198D01*
G37*
%TD.AperFunction*%
%TA.AperFunction,Conductor*%
G36*
X67013178Y-72655185D02*
G01*
X67050637Y-72695418D01*
X67050888Y-72695231D01*
X67052635Y-72697565D01*
X67054973Y-72700076D01*
X67056207Y-72702336D01*
X67142452Y-72817544D01*
X67142455Y-72817547D01*
X67257664Y-72903793D01*
X67257671Y-72903797D01*
X67392517Y-72954091D01*
X67392516Y-72954091D01*
X67399444Y-72954835D01*
X67452127Y-72960500D01*
X68940500Y-72960499D01*
X69007539Y-72980184D01*
X69053294Y-73032987D01*
X69064500Y-73084499D01*
X69064500Y-74057870D01*
X69064501Y-74057876D01*
X69070908Y-74117483D01*
X69121202Y-74252328D01*
X69121206Y-74252335D01*
X69207452Y-74367544D01*
X69207455Y-74367547D01*
X69322664Y-74453793D01*
X69322671Y-74453797D01*
X69457517Y-74504091D01*
X69457516Y-74504091D01*
X69464444Y-74504835D01*
X69517127Y-74510500D01*
X70512872Y-74510499D01*
X70572483Y-74504091D01*
X70606667Y-74491340D01*
X70676358Y-74486357D01*
X70693327Y-74491338D01*
X70727517Y-74504091D01*
X70787127Y-74510500D01*
X71782872Y-74510499D01*
X71842483Y-74504091D01*
X71876667Y-74491340D01*
X71946358Y-74486357D01*
X71963327Y-74491338D01*
X71997517Y-74504091D01*
X72057127Y-74510500D01*
X73052872Y-74510499D01*
X73112483Y-74504091D01*
X73146667Y-74491340D01*
X73216358Y-74486357D01*
X73233327Y-74491338D01*
X73267517Y-74504091D01*
X73327127Y-74510500D01*
X74322872Y-74510499D01*
X74382483Y-74504091D01*
X74416667Y-74491340D01*
X74486358Y-74486357D01*
X74503327Y-74491338D01*
X74537517Y-74504091D01*
X74597127Y-74510500D01*
X75592872Y-74510499D01*
X75652483Y-74504091D01*
X75686667Y-74491340D01*
X75756358Y-74486357D01*
X75773327Y-74491338D01*
X75807517Y-74504091D01*
X75867127Y-74510500D01*
X76862872Y-74510499D01*
X76922483Y-74504091D01*
X76956667Y-74491340D01*
X77026358Y-74486357D01*
X77043327Y-74491338D01*
X77077517Y-74504091D01*
X77137127Y-74510500D01*
X78132872Y-74510499D01*
X78192483Y-74504091D01*
X78226667Y-74491340D01*
X78296358Y-74486357D01*
X78313327Y-74491338D01*
X78347517Y-74504091D01*
X78407127Y-74510500D01*
X79402872Y-74510499D01*
X79462483Y-74504091D01*
X79496667Y-74491340D01*
X79566358Y-74486357D01*
X79583327Y-74491338D01*
X79617517Y-74504091D01*
X79677127Y-74510500D01*
X80672872Y-74510499D01*
X80732483Y-74504091D01*
X80766667Y-74491340D01*
X80836358Y-74486357D01*
X80853327Y-74491338D01*
X80887517Y-74504091D01*
X80947127Y-74510500D01*
X81942872Y-74510499D01*
X82002483Y-74504091D01*
X82036667Y-74491340D01*
X82106358Y-74486357D01*
X82123327Y-74491338D01*
X82157517Y-74504091D01*
X82217127Y-74510500D01*
X83212872Y-74510499D01*
X83272483Y-74504091D01*
X83306667Y-74491340D01*
X83376358Y-74486357D01*
X83393327Y-74491338D01*
X83427517Y-74504091D01*
X83487127Y-74510500D01*
X84168184Y-74510499D01*
X84235223Y-74530183D01*
X84247223Y-74538954D01*
X84286308Y-74571287D01*
X84290620Y-74575210D01*
X85570643Y-75855233D01*
X86338181Y-76622771D01*
X86371666Y-76684094D01*
X86374500Y-76710452D01*
X86374500Y-78177439D01*
X86354815Y-78244478D01*
X86302011Y-78290233D01*
X86232853Y-78300177D01*
X86207167Y-78293621D01*
X86107380Y-78256403D01*
X86107372Y-78256401D01*
X86047844Y-78250000D01*
X85625000Y-78250000D01*
X85625000Y-80250000D01*
X86047828Y-80250000D01*
X86047844Y-80249999D01*
X86107372Y-80243598D01*
X86107376Y-80243597D01*
X86207166Y-80206378D01*
X86276858Y-80201394D01*
X86338181Y-80234879D01*
X86371666Y-80296202D01*
X86374500Y-80322560D01*
X86374500Y-80989547D01*
X86354815Y-81056586D01*
X86338181Y-81077228D01*
X85977228Y-81438181D01*
X85915905Y-81471666D01*
X85889547Y-81474500D01*
X83757743Y-81474500D01*
X83742122Y-81472775D01*
X83742095Y-81473061D01*
X83734333Y-81472326D01*
X83665172Y-81474500D01*
X83635649Y-81474500D01*
X83628778Y-81475367D01*
X83622959Y-81475825D01*
X83576374Y-81477289D01*
X83576368Y-81477290D01*
X83557126Y-81482880D01*
X83538087Y-81486823D01*
X83518217Y-81489334D01*
X83518203Y-81489337D01*
X83474883Y-81506488D01*
X83469358Y-81508380D01*
X83424613Y-81521380D01*
X83424610Y-81521381D01*
X83407366Y-81531579D01*
X83389905Y-81540133D01*
X83371274Y-81547510D01*
X83371262Y-81547517D01*
X83333570Y-81574902D01*
X83328687Y-81578109D01*
X83288580Y-81601829D01*
X83274414Y-81615995D01*
X83259624Y-81628627D01*
X83243414Y-81640404D01*
X83243411Y-81640407D01*
X83213710Y-81676309D01*
X83209777Y-81680631D01*
X82724148Y-82166259D01*
X82662825Y-82199744D01*
X82623869Y-82201936D01*
X82600027Y-82199501D01*
X82600013Y-82199500D01*
X82600009Y-82199500D01*
X82600002Y-82199500D01*
X81974998Y-82199500D01*
X81974980Y-82199501D01*
X81872203Y-82210000D01*
X81872200Y-82210001D01*
X81705668Y-82265185D01*
X81705663Y-82265187D01*
X81556342Y-82357289D01*
X81512678Y-82400952D01*
X81451355Y-82434436D01*
X81381663Y-82429450D01*
X81337318Y-82400950D01*
X81268657Y-82332289D01*
X81268656Y-82332288D01*
X81119334Y-82240186D01*
X80952797Y-82185001D01*
X80952795Y-82185000D01*
X80850010Y-82174500D01*
X80249998Y-82174500D01*
X80249980Y-82174501D01*
X80147203Y-82185000D01*
X80147200Y-82185001D01*
X79980668Y-82240185D01*
X79980663Y-82240187D01*
X79831342Y-82332289D01*
X79707288Y-82456343D01*
X79707283Y-82456349D01*
X79705241Y-82459661D01*
X79703247Y-82461453D01*
X79702807Y-82462011D01*
X79702711Y-82461935D01*
X79653291Y-82506383D01*
X79584328Y-82517602D01*
X79520247Y-82489755D01*
X79494168Y-82459656D01*
X79492319Y-82456659D01*
X79492316Y-82456655D01*
X79368345Y-82332684D01*
X79219124Y-82240643D01*
X79219119Y-82240641D01*
X79052697Y-82185494D01*
X79052690Y-82185493D01*
X78949986Y-82175000D01*
X78900000Y-82175000D01*
X78900000Y-83526000D01*
X78880315Y-83593039D01*
X78827511Y-83638794D01*
X78776000Y-83650000D01*
X77650001Y-83650000D01*
X77650001Y-83750500D01*
X77630316Y-83817539D01*
X77577512Y-83863294D01*
X77526001Y-83874500D01*
X73229443Y-83874500D01*
X73162404Y-83854815D01*
X73116649Y-83802011D01*
X73106705Y-83732853D01*
X73111737Y-83711496D01*
X73139505Y-83627697D01*
X73139506Y-83627690D01*
X73149999Y-83524986D01*
X73150000Y-83524973D01*
X73150000Y-83250000D01*
X72024000Y-83250000D01*
X71956961Y-83230315D01*
X71911206Y-83177511D01*
X71905221Y-83150000D01*
X77650000Y-83150000D01*
X78400000Y-83150000D01*
X78400000Y-82175000D01*
X78399999Y-82174999D01*
X78350029Y-82175000D01*
X78350011Y-82175001D01*
X78247302Y-82185494D01*
X78080880Y-82240641D01*
X78080875Y-82240643D01*
X77931654Y-82332684D01*
X77807684Y-82456654D01*
X77715643Y-82605875D01*
X77715641Y-82605880D01*
X77660494Y-82772302D01*
X77660493Y-82772309D01*
X77650000Y-82875013D01*
X77650000Y-83150000D01*
X71905221Y-83150000D01*
X71900000Y-83126000D01*
X71900000Y-81775000D01*
X72400000Y-81775000D01*
X72400000Y-82750000D01*
X73149999Y-82750000D01*
X73149999Y-82475028D01*
X73149998Y-82475013D01*
X73139505Y-82372302D01*
X73084358Y-82205880D01*
X73084356Y-82205875D01*
X72992315Y-82056654D01*
X72868345Y-81932684D01*
X72719124Y-81840643D01*
X72719119Y-81840641D01*
X72552697Y-81785494D01*
X72552690Y-81785493D01*
X72449986Y-81775000D01*
X72400000Y-81775000D01*
X71900000Y-81775000D01*
X71899999Y-81774999D01*
X71850029Y-81775000D01*
X71850011Y-81775001D01*
X71747302Y-81785494D01*
X71580880Y-81840641D01*
X71580875Y-81840643D01*
X71431654Y-81932684D01*
X71307683Y-82056655D01*
X71307679Y-82056660D01*
X71305826Y-82059665D01*
X71304018Y-82061290D01*
X71303202Y-82062323D01*
X71303025Y-82062183D01*
X71253874Y-82106385D01*
X71184911Y-82117601D01*
X71120831Y-82089752D01*
X71094753Y-82059653D01*
X71094737Y-82059628D01*
X71092712Y-82056344D01*
X70968656Y-81932288D01*
X70856568Y-81863152D01*
X70819336Y-81840187D01*
X70819331Y-81840185D01*
X70793384Y-81831587D01*
X70652797Y-81785001D01*
X70652795Y-81785000D01*
X70550010Y-81774500D01*
X69949998Y-81774500D01*
X69949980Y-81774501D01*
X69847203Y-81785000D01*
X69847200Y-81785001D01*
X69680668Y-81840185D01*
X69680663Y-81840187D01*
X69531342Y-81932289D01*
X69407289Y-82056342D01*
X69315187Y-82205663D01*
X69315185Y-82205668D01*
X69287405Y-82289504D01*
X69247632Y-82346949D01*
X69183116Y-82373772D01*
X69169699Y-82374500D01*
X67910452Y-82374500D01*
X67843413Y-82354815D01*
X67822771Y-82338181D01*
X66661819Y-81177228D01*
X66628334Y-81115905D01*
X66625500Y-81089547D01*
X66625500Y-80374000D01*
X66645185Y-80306961D01*
X66697989Y-80261206D01*
X66749500Y-80250000D01*
X67125000Y-80250000D01*
X67125000Y-79500000D01*
X67625000Y-79500000D01*
X67625000Y-80250000D01*
X68047828Y-80250000D01*
X68047844Y-80249999D01*
X68107372Y-80243598D01*
X68107379Y-80243596D01*
X68242086Y-80193354D01*
X68242093Y-80193350D01*
X68357187Y-80107190D01*
X68357190Y-80107187D01*
X68443350Y-79992093D01*
X68443354Y-79992086D01*
X68493596Y-79857379D01*
X68493598Y-79857372D01*
X68499999Y-79797844D01*
X68500000Y-79797827D01*
X68500000Y-79500000D01*
X74000000Y-79500000D01*
X74000000Y-79797844D01*
X74006401Y-79857372D01*
X74006403Y-79857379D01*
X74056645Y-79992086D01*
X74056649Y-79992093D01*
X74142809Y-80107187D01*
X74142812Y-80107190D01*
X74257906Y-80193350D01*
X74257913Y-80193354D01*
X74392620Y-80243596D01*
X74392627Y-80243598D01*
X74452155Y-80249999D01*
X74452172Y-80250000D01*
X74875000Y-80250000D01*
X74875000Y-79500000D01*
X75375000Y-79500000D01*
X75375000Y-80250000D01*
X75797828Y-80250000D01*
X75797844Y-80249999D01*
X75857372Y-80243598D01*
X75857379Y-80243596D01*
X75992086Y-80193354D01*
X75992093Y-80193350D01*
X76107187Y-80107190D01*
X76107190Y-80107187D01*
X76193350Y-79992093D01*
X76193354Y-79992086D01*
X76243596Y-79857379D01*
X76243598Y-79857372D01*
X76249999Y-79797844D01*
X76250000Y-79797827D01*
X76250000Y-79500000D01*
X76500000Y-79500000D01*
X76500000Y-79797844D01*
X76506401Y-79857372D01*
X76506403Y-79857379D01*
X76556645Y-79992086D01*
X76556649Y-79992093D01*
X76642809Y-80107187D01*
X76642812Y-80107190D01*
X76757906Y-80193350D01*
X76757913Y-80193354D01*
X76892620Y-80243596D01*
X76892627Y-80243598D01*
X76952155Y-80249999D01*
X76952172Y-80250000D01*
X77375000Y-80250000D01*
X77375000Y-79500000D01*
X77875000Y-79500000D01*
X77875000Y-80250000D01*
X78297828Y-80250000D01*
X78297844Y-80249999D01*
X78357372Y-80243598D01*
X78357379Y-80243596D01*
X78492086Y-80193354D01*
X78492093Y-80193350D01*
X78607187Y-80107190D01*
X78607190Y-80107187D01*
X78693350Y-79992093D01*
X78693354Y-79992086D01*
X78743596Y-79857379D01*
X78743598Y-79857372D01*
X78749999Y-79797844D01*
X78750000Y-79797827D01*
X78750000Y-79500000D01*
X84250000Y-79500000D01*
X84250000Y-79797844D01*
X84256401Y-79857372D01*
X84256403Y-79857379D01*
X84306645Y-79992086D01*
X84306649Y-79992093D01*
X84392809Y-80107187D01*
X84392812Y-80107190D01*
X84507906Y-80193350D01*
X84507913Y-80193354D01*
X84642620Y-80243596D01*
X84642627Y-80243598D01*
X84702155Y-80249999D01*
X84702172Y-80250000D01*
X85125000Y-80250000D01*
X85125000Y-79500000D01*
X84250000Y-79500000D01*
X78750000Y-79500000D01*
X77875000Y-79500000D01*
X77375000Y-79500000D01*
X76500000Y-79500000D01*
X76250000Y-79500000D01*
X75375000Y-79500000D01*
X74875000Y-79500000D01*
X74000000Y-79500000D01*
X68500000Y-79500000D01*
X67625000Y-79500000D01*
X67125000Y-79500000D01*
X67125000Y-78250000D01*
X67625000Y-78250000D01*
X67625000Y-79000000D01*
X68500000Y-79000000D01*
X74000000Y-79000000D01*
X74875000Y-79000000D01*
X74875000Y-78250000D01*
X75375000Y-78250000D01*
X75375000Y-79000000D01*
X76250000Y-79000000D01*
X76500000Y-79000000D01*
X77375000Y-79000000D01*
X77375000Y-78250000D01*
X77875000Y-78250000D01*
X77875000Y-79000000D01*
X78750000Y-79000000D01*
X84250000Y-79000000D01*
X85125000Y-79000000D01*
X85125000Y-78250000D01*
X84702155Y-78250000D01*
X84642627Y-78256401D01*
X84642620Y-78256403D01*
X84507913Y-78306645D01*
X84507906Y-78306649D01*
X84392812Y-78392809D01*
X84392809Y-78392812D01*
X84306649Y-78507906D01*
X84306645Y-78507913D01*
X84256403Y-78642620D01*
X84256401Y-78642627D01*
X84250000Y-78702155D01*
X84250000Y-79000000D01*
X78750000Y-79000000D01*
X78750000Y-78702172D01*
X78749999Y-78702155D01*
X78743598Y-78642627D01*
X78743596Y-78642620D01*
X78693354Y-78507913D01*
X78693350Y-78507906D01*
X78607190Y-78392812D01*
X78607187Y-78392809D01*
X78492093Y-78306649D01*
X78492086Y-78306645D01*
X78357379Y-78256403D01*
X78357372Y-78256401D01*
X78297844Y-78250000D01*
X77875000Y-78250000D01*
X77375000Y-78250000D01*
X76952155Y-78250000D01*
X76892627Y-78256401D01*
X76892620Y-78256403D01*
X76757913Y-78306645D01*
X76757906Y-78306649D01*
X76642812Y-78392809D01*
X76642809Y-78392812D01*
X76556649Y-78507906D01*
X76556645Y-78507913D01*
X76506403Y-78642620D01*
X76506401Y-78642627D01*
X76500000Y-78702155D01*
X76500000Y-79000000D01*
X76250000Y-79000000D01*
X76250000Y-78702172D01*
X76249999Y-78702155D01*
X76243598Y-78642627D01*
X76243596Y-78642620D01*
X76193354Y-78507913D01*
X76193350Y-78507906D01*
X76107190Y-78392812D01*
X76107187Y-78392809D01*
X75992093Y-78306649D01*
X75992086Y-78306645D01*
X75857379Y-78256403D01*
X75857372Y-78256401D01*
X75797844Y-78250000D01*
X75375000Y-78250000D01*
X74875000Y-78250000D01*
X74452155Y-78250000D01*
X74392627Y-78256401D01*
X74392620Y-78256403D01*
X74257913Y-78306645D01*
X74257906Y-78306649D01*
X74142812Y-78392809D01*
X74142809Y-78392812D01*
X74056649Y-78507906D01*
X74056645Y-78507913D01*
X74006403Y-78642620D01*
X74006401Y-78642627D01*
X74000000Y-78702155D01*
X74000000Y-79000000D01*
X68500000Y-79000000D01*
X68500000Y-78702172D01*
X68499999Y-78702155D01*
X68493598Y-78642627D01*
X68493596Y-78642620D01*
X68443354Y-78507913D01*
X68443350Y-78507906D01*
X68357190Y-78392812D01*
X68357187Y-78392809D01*
X68242093Y-78306649D01*
X68242086Y-78306645D01*
X68107379Y-78256403D01*
X68107372Y-78256401D01*
X68047844Y-78250000D01*
X67625000Y-78250000D01*
X67125000Y-78250000D01*
X66749500Y-78250000D01*
X66682461Y-78230315D01*
X66636706Y-78177511D01*
X66625500Y-78126000D01*
X66625500Y-72759500D01*
X66645185Y-72692461D01*
X66697989Y-72646706D01*
X66749500Y-72635500D01*
X66946139Y-72635500D01*
X67013178Y-72655185D01*
G37*
%TD.AperFunction*%
%TA.AperFunction,Conductor*%
G36*
X63506587Y-70095185D02*
G01*
X63527229Y-70111819D01*
X63938181Y-70522771D01*
X63971666Y-70584094D01*
X63974500Y-70610452D01*
X63974500Y-81156233D01*
X63954815Y-81223272D01*
X63902011Y-81269027D01*
X63832853Y-81278971D01*
X63769297Y-81249946D01*
X63762819Y-81243914D01*
X58461819Y-75942914D01*
X58428334Y-75881591D01*
X58425500Y-75855233D01*
X58425500Y-72397016D01*
X58445185Y-72329977D01*
X58497989Y-72284222D01*
X58510488Y-72279313D01*
X58569334Y-72259814D01*
X58718656Y-72167712D01*
X58842712Y-72043656D01*
X58934814Y-71894334D01*
X58965916Y-71800473D01*
X59005686Y-71743032D01*
X59070201Y-71716208D01*
X59138977Y-71728522D01*
X59190178Y-71776065D01*
X59201326Y-71800475D01*
X59240642Y-71919121D01*
X59240643Y-71919124D01*
X59332684Y-72068345D01*
X59456654Y-72192315D01*
X59605875Y-72284356D01*
X59605880Y-72284358D01*
X59772302Y-72339505D01*
X59772309Y-72339506D01*
X59875019Y-72349999D01*
X60149999Y-72349999D01*
X60150000Y-72349998D01*
X60150000Y-71600000D01*
X60650000Y-71600000D01*
X60650000Y-72349999D01*
X60924972Y-72349999D01*
X60924986Y-72349998D01*
X61027697Y-72339505D01*
X61194119Y-72284358D01*
X61194124Y-72284356D01*
X61343345Y-72192315D01*
X61467315Y-72068345D01*
X61559356Y-71919124D01*
X61559358Y-71919119D01*
X61614505Y-71752697D01*
X61614506Y-71752690D01*
X61624999Y-71649986D01*
X61625000Y-71649973D01*
X61625000Y-71600000D01*
X60650000Y-71600000D01*
X60150000Y-71600000D01*
X60150000Y-71224000D01*
X60169685Y-71156961D01*
X60222489Y-71111206D01*
X60274000Y-71100000D01*
X61624999Y-71100000D01*
X61624999Y-71050028D01*
X61624998Y-71050013D01*
X61614505Y-70947302D01*
X61559358Y-70780880D01*
X61559356Y-70780875D01*
X61467315Y-70631654D01*
X61343344Y-70507683D01*
X61343341Y-70507681D01*
X61340339Y-70505829D01*
X61338713Y-70504021D01*
X61337677Y-70503202D01*
X61337817Y-70503024D01*
X61293617Y-70453880D01*
X61282397Y-70384917D01*
X61310243Y-70320836D01*
X61340344Y-70294754D01*
X61343656Y-70292712D01*
X61467712Y-70168656D01*
X61488839Y-70134402D01*
X61540787Y-70087679D01*
X61594378Y-70075500D01*
X63439548Y-70075500D01*
X63506587Y-70095185D01*
G37*
%TD.AperFunction*%
%TA.AperFunction,Conductor*%
G36*
X71731087Y-54019685D02*
G01*
X71751729Y-54036319D01*
X74869194Y-57153784D01*
X74879019Y-57166048D01*
X74879240Y-57165866D01*
X74884210Y-57171873D01*
X74884213Y-57171876D01*
X74884214Y-57171877D01*
X74934651Y-57219241D01*
X74955530Y-57240120D01*
X74961004Y-57244366D01*
X74965442Y-57248156D01*
X74999418Y-57280062D01*
X74999422Y-57280064D01*
X75016973Y-57289713D01*
X75033231Y-57300392D01*
X75049064Y-57312674D01*
X75071015Y-57322172D01*
X75091837Y-57331183D01*
X75097081Y-57333752D01*
X75137908Y-57356197D01*
X75157312Y-57361179D01*
X75175710Y-57367478D01*
X75194105Y-57375438D01*
X75240129Y-57382726D01*
X75245832Y-57383907D01*
X75290981Y-57395500D01*
X75311016Y-57395500D01*
X75330413Y-57397026D01*
X75350196Y-57400160D01*
X75396584Y-57395775D01*
X75402422Y-57395500D01*
X84117867Y-57395500D01*
X84184906Y-57415185D01*
X84230661Y-57467989D01*
X84240605Y-57537147D01*
X84213407Y-57598544D01*
X84198708Y-57616311D01*
X84194777Y-57620632D01*
X83616208Y-58199199D01*
X83603951Y-58209020D01*
X83604134Y-58209241D01*
X83598123Y-58214213D01*
X83550772Y-58264636D01*
X83529889Y-58285519D01*
X83529877Y-58285532D01*
X83525621Y-58291017D01*
X83521837Y-58295447D01*
X83489937Y-58329418D01*
X83489936Y-58329420D01*
X83480284Y-58346976D01*
X83469610Y-58363226D01*
X83457329Y-58379061D01*
X83457324Y-58379068D01*
X83438815Y-58421838D01*
X83436245Y-58427084D01*
X83413803Y-58467906D01*
X83408822Y-58487307D01*
X83402521Y-58505710D01*
X83394562Y-58524102D01*
X83394561Y-58524105D01*
X83387271Y-58570127D01*
X83386087Y-58575846D01*
X83374501Y-58620972D01*
X83374500Y-58620982D01*
X83374500Y-58641016D01*
X83372973Y-58660413D01*
X83369840Y-58680196D01*
X83370084Y-58682775D01*
X83374225Y-58726583D01*
X83374500Y-58732421D01*
X83374500Y-71417255D01*
X83372775Y-71432872D01*
X83373061Y-71432899D01*
X83372326Y-71440665D01*
X83374500Y-71509814D01*
X83374500Y-71539343D01*
X83374501Y-71539360D01*
X83375368Y-71546231D01*
X83375826Y-71552050D01*
X83377290Y-71598624D01*
X83377291Y-71598627D01*
X83382880Y-71617867D01*
X83386824Y-71636911D01*
X83389336Y-71656791D01*
X83406490Y-71700119D01*
X83408382Y-71705647D01*
X83414817Y-71727797D01*
X83421382Y-71750390D01*
X83422746Y-71752697D01*
X83431580Y-71767634D01*
X83440138Y-71785103D01*
X83447514Y-71803732D01*
X83468611Y-71832770D01*
X83492090Y-71898577D01*
X83476264Y-71966631D01*
X83426157Y-72015325D01*
X83411622Y-72021837D01*
X83393330Y-72028659D01*
X83323639Y-72033641D01*
X83306669Y-72028659D01*
X83272480Y-72015908D01*
X83272482Y-72015908D01*
X83212883Y-72009501D01*
X83212881Y-72009500D01*
X83212873Y-72009500D01*
X83212864Y-72009500D01*
X82217129Y-72009500D01*
X82217123Y-72009501D01*
X82157518Y-72015908D01*
X82123331Y-72028659D01*
X82053639Y-72033642D01*
X82036669Y-72028659D01*
X82002480Y-72015908D01*
X82002482Y-72015908D01*
X81942883Y-72009501D01*
X81942881Y-72009500D01*
X81942873Y-72009500D01*
X81942864Y-72009500D01*
X80947129Y-72009500D01*
X80947123Y-72009501D01*
X80887518Y-72015908D01*
X80853331Y-72028659D01*
X80783639Y-72033642D01*
X80766669Y-72028659D01*
X80732480Y-72015908D01*
X80732482Y-72015908D01*
X80672883Y-72009501D01*
X80672881Y-72009500D01*
X80672873Y-72009500D01*
X80672864Y-72009500D01*
X79677129Y-72009500D01*
X79677123Y-72009501D01*
X79617518Y-72015908D01*
X79583331Y-72028659D01*
X79513639Y-72033642D01*
X79496669Y-72028659D01*
X79462480Y-72015908D01*
X79462482Y-72015908D01*
X79402883Y-72009501D01*
X79402881Y-72009500D01*
X79402873Y-72009500D01*
X79402864Y-72009500D01*
X78407129Y-72009500D01*
X78407123Y-72009501D01*
X78347518Y-72015908D01*
X78313331Y-72028659D01*
X78243639Y-72033642D01*
X78226669Y-72028659D01*
X78192480Y-72015908D01*
X78192482Y-72015908D01*
X78132883Y-72009501D01*
X78132881Y-72009500D01*
X78132873Y-72009500D01*
X78132864Y-72009500D01*
X77137129Y-72009500D01*
X77137123Y-72009501D01*
X77077518Y-72015908D01*
X77043331Y-72028659D01*
X76973639Y-72033642D01*
X76956669Y-72028659D01*
X76922480Y-72015908D01*
X76922482Y-72015908D01*
X76862883Y-72009501D01*
X76862881Y-72009500D01*
X76862873Y-72009500D01*
X76862864Y-72009500D01*
X75867129Y-72009500D01*
X75867123Y-72009501D01*
X75807518Y-72015908D01*
X75773331Y-72028659D01*
X75703639Y-72033642D01*
X75686669Y-72028659D01*
X75652480Y-72015908D01*
X75652482Y-72015908D01*
X75592883Y-72009501D01*
X75592881Y-72009500D01*
X75592873Y-72009500D01*
X75592864Y-72009500D01*
X74597129Y-72009500D01*
X74597123Y-72009501D01*
X74537518Y-72015908D01*
X74503331Y-72028659D01*
X74433639Y-72033642D01*
X74416669Y-72028659D01*
X74382480Y-72015908D01*
X74382482Y-72015908D01*
X74322883Y-72009501D01*
X74322881Y-72009500D01*
X74322873Y-72009500D01*
X74322864Y-72009500D01*
X73327129Y-72009500D01*
X73327123Y-72009501D01*
X73267518Y-72015908D01*
X73233331Y-72028659D01*
X73163639Y-72033642D01*
X73146669Y-72028659D01*
X73112480Y-72015908D01*
X73112482Y-72015908D01*
X73052883Y-72009501D01*
X73052881Y-72009500D01*
X73052873Y-72009500D01*
X73052864Y-72009500D01*
X72057129Y-72009500D01*
X72057123Y-72009501D01*
X71997518Y-72015908D01*
X71963331Y-72028659D01*
X71893639Y-72033642D01*
X71876669Y-72028659D01*
X71842480Y-72015908D01*
X71842482Y-72015908D01*
X71782883Y-72009501D01*
X71782881Y-72009500D01*
X71782873Y-72009500D01*
X71782865Y-72009500D01*
X70874450Y-72009500D01*
X70807411Y-71989815D01*
X70761656Y-71937011D01*
X70751712Y-71867853D01*
X70780737Y-71804297D01*
X70786748Y-71797840D01*
X70983787Y-71600802D01*
X70996042Y-71590986D01*
X70995859Y-71590764D01*
X71001866Y-71585792D01*
X71001877Y-71585786D01*
X71036299Y-71549130D01*
X71049227Y-71535364D01*
X71059671Y-71524918D01*
X71070120Y-71514471D01*
X71074379Y-71508978D01*
X71078152Y-71504561D01*
X71110062Y-71470582D01*
X71119713Y-71453024D01*
X71130396Y-71436761D01*
X71142673Y-71420936D01*
X71161185Y-71378153D01*
X71163738Y-71372941D01*
X71186197Y-71332092D01*
X71191180Y-71312680D01*
X71197481Y-71294280D01*
X71205437Y-71275896D01*
X71212729Y-71229852D01*
X71213906Y-71224171D01*
X71225500Y-71179019D01*
X71225500Y-71158983D01*
X71227027Y-71139582D01*
X71230160Y-71119804D01*
X71225775Y-71073415D01*
X71225500Y-71067577D01*
X71225500Y-64870000D01*
X76150000Y-64870000D01*
X76150000Y-65117844D01*
X76156401Y-65177372D01*
X76156403Y-65177379D01*
X76206645Y-65312086D01*
X76206649Y-65312093D01*
X76292809Y-65427187D01*
X76292812Y-65427190D01*
X76407906Y-65513350D01*
X76407913Y-65513354D01*
X76542620Y-65563596D01*
X76542627Y-65563598D01*
X76602155Y-65569999D01*
X76602172Y-65570000D01*
X76850000Y-65570000D01*
X76850000Y-64870000D01*
X77350000Y-64870000D01*
X77350000Y-65570000D01*
X77597828Y-65570000D01*
X77597844Y-65569999D01*
X77657372Y-65563598D01*
X77657376Y-65563597D01*
X77756666Y-65526564D01*
X77826358Y-65521580D01*
X77843334Y-65526564D01*
X77942623Y-65563597D01*
X77942627Y-65563598D01*
X78002155Y-65569999D01*
X78002172Y-65570000D01*
X78250000Y-65570000D01*
X78250000Y-64870000D01*
X78750000Y-64870000D01*
X78750000Y-65570000D01*
X78997828Y-65570000D01*
X78997844Y-65569999D01*
X79057372Y-65563598D01*
X79057376Y-65563597D01*
X79156666Y-65526564D01*
X79226358Y-65521580D01*
X79243334Y-65526564D01*
X79342623Y-65563597D01*
X79342627Y-65563598D01*
X79402155Y-65569999D01*
X79402172Y-65570000D01*
X79650000Y-65570000D01*
X79650000Y-64870000D01*
X80150000Y-64870000D01*
X80150000Y-65570000D01*
X80397828Y-65570000D01*
X80397844Y-65569999D01*
X80457372Y-65563598D01*
X80457379Y-65563596D01*
X80592086Y-65513354D01*
X80592093Y-65513350D01*
X80707187Y-65427190D01*
X80707190Y-65427187D01*
X80793350Y-65312093D01*
X80793354Y-65312086D01*
X80843596Y-65177379D01*
X80843598Y-65177372D01*
X80849999Y-65117844D01*
X80850000Y-65117827D01*
X80850000Y-64870000D01*
X80150000Y-64870000D01*
X79650000Y-64870000D01*
X78750000Y-64870000D01*
X78250000Y-64870000D01*
X77350000Y-64870000D01*
X76850000Y-64870000D01*
X76150000Y-64870000D01*
X71225500Y-64870000D01*
X71225500Y-63470000D01*
X76150000Y-63470000D01*
X76150000Y-63717844D01*
X76156401Y-63777372D01*
X76156403Y-63777383D01*
X76193434Y-63876668D01*
X76198418Y-63946360D01*
X76193434Y-63963332D01*
X76156403Y-64062616D01*
X76156401Y-64062627D01*
X76150000Y-64122155D01*
X76150000Y-64370000D01*
X76850000Y-64370000D01*
X76850000Y-63470000D01*
X77350000Y-63470000D01*
X77350000Y-64370000D01*
X78250000Y-64370000D01*
X78250000Y-63470000D01*
X78750000Y-63470000D01*
X78750000Y-64370000D01*
X79650000Y-64370000D01*
X79650000Y-63470000D01*
X80150000Y-63470000D01*
X80150000Y-64370000D01*
X80850000Y-64370000D01*
X80850000Y-64122172D01*
X80849999Y-64122155D01*
X80843598Y-64062627D01*
X80843597Y-64062623D01*
X80806564Y-63963334D01*
X80801580Y-63893642D01*
X80806564Y-63876666D01*
X80843597Y-63777376D01*
X80843598Y-63777372D01*
X80849999Y-63717844D01*
X80850000Y-63717827D01*
X80850000Y-63470000D01*
X80150000Y-63470000D01*
X79650000Y-63470000D01*
X78750000Y-63470000D01*
X78250000Y-63470000D01*
X77350000Y-63470000D01*
X76850000Y-63470000D01*
X76150000Y-63470000D01*
X71225500Y-63470000D01*
X71225500Y-62070000D01*
X76150000Y-62070000D01*
X76150000Y-62317844D01*
X76156401Y-62377372D01*
X76156403Y-62377383D01*
X76193434Y-62476668D01*
X76198418Y-62546360D01*
X76193434Y-62563332D01*
X76156403Y-62662616D01*
X76156401Y-62662627D01*
X76150000Y-62722155D01*
X76150000Y-62970000D01*
X76850000Y-62970000D01*
X76850000Y-62070000D01*
X77350000Y-62070000D01*
X77350000Y-62970000D01*
X78250000Y-62970000D01*
X78250000Y-62070000D01*
X78750000Y-62070000D01*
X78750000Y-62970000D01*
X79650000Y-62970000D01*
X79650000Y-62070000D01*
X80150000Y-62070000D01*
X80150000Y-62970000D01*
X80850000Y-62970000D01*
X80850000Y-62722172D01*
X80849999Y-62722155D01*
X80843598Y-62662627D01*
X80843597Y-62662623D01*
X80806564Y-62563334D01*
X80801580Y-62493642D01*
X80806564Y-62476666D01*
X80843597Y-62377376D01*
X80843598Y-62377372D01*
X80849999Y-62317844D01*
X80850000Y-62317827D01*
X80850000Y-62070000D01*
X80150000Y-62070000D01*
X79650000Y-62070000D01*
X78750000Y-62070000D01*
X78250000Y-62070000D01*
X77350000Y-62070000D01*
X76850000Y-62070000D01*
X76150000Y-62070000D01*
X71225500Y-62070000D01*
X71225500Y-61570000D01*
X76150000Y-61570000D01*
X76850000Y-61570000D01*
X76850000Y-60870000D01*
X77350000Y-60870000D01*
X77350000Y-61570000D01*
X78250000Y-61570000D01*
X78250000Y-60870000D01*
X78750000Y-60870000D01*
X78750000Y-61570000D01*
X79650000Y-61570000D01*
X79650000Y-60870000D01*
X80150000Y-60870000D01*
X80150000Y-61570000D01*
X80850000Y-61570000D01*
X80850000Y-61322172D01*
X80849999Y-61322155D01*
X80843598Y-61262627D01*
X80843596Y-61262620D01*
X80793354Y-61127913D01*
X80793350Y-61127906D01*
X80707190Y-61012812D01*
X80707187Y-61012809D01*
X80592093Y-60926649D01*
X80592086Y-60926645D01*
X80457379Y-60876403D01*
X80457372Y-60876401D01*
X80397844Y-60870000D01*
X80150000Y-60870000D01*
X79650000Y-60870000D01*
X79402155Y-60870000D01*
X79342627Y-60876401D01*
X79342616Y-60876403D01*
X79243332Y-60913434D01*
X79173640Y-60918418D01*
X79156668Y-60913434D01*
X79057383Y-60876403D01*
X79057372Y-60876401D01*
X78997844Y-60870000D01*
X78750000Y-60870000D01*
X78250000Y-60870000D01*
X78002155Y-60870000D01*
X77942627Y-60876401D01*
X77942616Y-60876403D01*
X77843332Y-60913434D01*
X77773640Y-60918418D01*
X77756668Y-60913434D01*
X77657383Y-60876403D01*
X77657372Y-60876401D01*
X77597844Y-60870000D01*
X77350000Y-60870000D01*
X76850000Y-60870000D01*
X76602155Y-60870000D01*
X76542627Y-60876401D01*
X76542620Y-60876403D01*
X76407913Y-60926645D01*
X76407906Y-60926649D01*
X76292812Y-61012809D01*
X76292809Y-61012812D01*
X76206649Y-61127906D01*
X76206645Y-61127913D01*
X76156403Y-61262620D01*
X76156401Y-61262627D01*
X76150000Y-61322155D01*
X76150000Y-61570000D01*
X71225500Y-61570000D01*
X71225500Y-55748428D01*
X71227224Y-55732808D01*
X71226939Y-55732781D01*
X71227673Y-55725019D01*
X71225500Y-55655858D01*
X71225500Y-55626342D01*
X71225500Y-55626336D01*
X71224631Y-55619465D01*
X71224173Y-55613638D01*
X71223362Y-55587819D01*
X71222710Y-55567059D01*
X71217119Y-55547816D01*
X71213173Y-55528764D01*
X71210664Y-55508894D01*
X71193504Y-55465553D01*
X71191624Y-55460065D01*
X71178618Y-55415296D01*
X71168422Y-55398056D01*
X71159861Y-55380580D01*
X71152487Y-55361956D01*
X71152486Y-55361954D01*
X71125079Y-55324231D01*
X71121888Y-55319372D01*
X71098172Y-55279269D01*
X71098165Y-55279260D01*
X71084006Y-55265101D01*
X71071368Y-55250305D01*
X71059594Y-55234099D01*
X71041492Y-55219124D01*
X71023688Y-55204395D01*
X71019376Y-55200472D01*
X70278557Y-54459653D01*
X70030586Y-54211681D01*
X69997101Y-54150358D01*
X70002085Y-54080666D01*
X70043957Y-54024733D01*
X70109421Y-54000316D01*
X70118267Y-54000000D01*
X71664048Y-54000000D01*
X71731087Y-54019685D01*
G37*
%TD.AperFunction*%
%TA.AperFunction,Conductor*%
G36*
X40297540Y-64755185D02*
G01*
X40343295Y-64807989D01*
X40354501Y-64859500D01*
X40354501Y-65000018D01*
X40365000Y-65102796D01*
X40365001Y-65102799D01*
X40420185Y-65269331D01*
X40420187Y-65269336D01*
X40425121Y-65277335D01*
X40512288Y-65418656D01*
X40636344Y-65542712D01*
X40785666Y-65634814D01*
X40952203Y-65689999D01*
X41054991Y-65700500D01*
X42655008Y-65700499D01*
X42664798Y-65699499D01*
X42715722Y-65694297D01*
X42757797Y-65689999D01*
X42924334Y-65634814D01*
X43073656Y-65542712D01*
X43197712Y-65418656D01*
X43203727Y-65408903D01*
X43255674Y-65362179D01*
X43309266Y-65350000D01*
X44476000Y-65350000D01*
X44543039Y-65369685D01*
X44588794Y-65422489D01*
X44600000Y-65474000D01*
X44600000Y-65726000D01*
X44580315Y-65793039D01*
X44527511Y-65838794D01*
X44476000Y-65850000D01*
X43350001Y-65850000D01*
X43350001Y-66124986D01*
X43360494Y-66227697D01*
X43415641Y-66394119D01*
X43415643Y-66394124D01*
X43507684Y-66543345D01*
X43527158Y-66562819D01*
X43560643Y-66624142D01*
X43555659Y-66693834D01*
X43513787Y-66749767D01*
X43448323Y-66774184D01*
X43439477Y-66774500D01*
X38410452Y-66774500D01*
X38343413Y-66754815D01*
X38322771Y-66738181D01*
X37496771Y-65912180D01*
X37463286Y-65850857D01*
X37468270Y-65781165D01*
X37510142Y-65725232D01*
X37575606Y-65700815D01*
X37584452Y-65700499D01*
X38725002Y-65700499D01*
X38725008Y-65700499D01*
X38734798Y-65699499D01*
X38785722Y-65694297D01*
X38827797Y-65689999D01*
X38994334Y-65634814D01*
X39143656Y-65542712D01*
X39267712Y-65418656D01*
X39359814Y-65269334D01*
X39414999Y-65102797D01*
X39425500Y-65000009D01*
X39425500Y-64859500D01*
X39445185Y-64792461D01*
X39497989Y-64746706D01*
X39549500Y-64735500D01*
X40230501Y-64735500D01*
X40297540Y-64755185D01*
G37*
%TD.AperFunction*%
%TA.AperFunction,Conductor*%
G36*
X46262849Y-63756487D02*
G01*
X46295172Y-63779763D01*
X46299197Y-63783788D01*
X46309022Y-63796051D01*
X46309243Y-63795869D01*
X46314214Y-63801878D01*
X46340217Y-63826295D01*
X46364635Y-63849226D01*
X46385529Y-63870120D01*
X46391011Y-63874373D01*
X46395443Y-63878157D01*
X46429418Y-63910062D01*
X46446976Y-63919714D01*
X46463233Y-63930393D01*
X46479064Y-63942673D01*
X46498737Y-63951186D01*
X46521833Y-63961182D01*
X46527077Y-63963750D01*
X46567908Y-63986197D01*
X46580523Y-63989435D01*
X46587305Y-63991177D01*
X46605719Y-63997481D01*
X46624104Y-64005438D01*
X46670157Y-64012732D01*
X46675826Y-64013906D01*
X46720981Y-64025500D01*
X46741016Y-64025500D01*
X46760413Y-64027026D01*
X46780196Y-64030160D01*
X46826584Y-64025775D01*
X46832422Y-64025500D01*
X47027057Y-64025500D01*
X47094096Y-64045185D01*
X47139851Y-64097989D01*
X47150345Y-64162754D01*
X47148934Y-64175882D01*
X47144500Y-64217119D01*
X47144500Y-64418575D01*
X47124815Y-64485614D01*
X47072011Y-64531369D01*
X47002853Y-64541313D01*
X46955404Y-64524114D01*
X46819340Y-64440189D01*
X46819335Y-64440187D01*
X46819334Y-64440186D01*
X46652797Y-64385001D01*
X46652795Y-64385000D01*
X46550016Y-64374500D01*
X46011229Y-64374500D01*
X45944190Y-64354815D01*
X45898435Y-64302011D01*
X45888491Y-64232853D01*
X45917516Y-64169297D01*
X45923536Y-64162831D01*
X45942712Y-64143656D01*
X46034814Y-63994334D01*
X46089786Y-63828437D01*
X46129557Y-63770995D01*
X46194073Y-63744172D01*
X46262849Y-63756487D01*
G37*
%TD.AperFunction*%
%TA.AperFunction,Conductor*%
G36*
X40293834Y-57793270D02*
G01*
X40349767Y-57835142D01*
X40374184Y-57900606D01*
X40374500Y-57909452D01*
X40374500Y-60517255D01*
X40372775Y-60532872D01*
X40373061Y-60532899D01*
X40372326Y-60540665D01*
X40374500Y-60609814D01*
X40374500Y-60639343D01*
X40374501Y-60639360D01*
X40375368Y-60646231D01*
X40375826Y-60652050D01*
X40377290Y-60698624D01*
X40377737Y-60700161D01*
X40382880Y-60717867D01*
X40386824Y-60736911D01*
X40389336Y-60756792D01*
X40398924Y-60781008D01*
X40406490Y-60800119D01*
X40408382Y-60805647D01*
X40419969Y-60845529D01*
X40421382Y-60850390D01*
X40428669Y-60862713D01*
X40431580Y-60867634D01*
X40440138Y-60885103D01*
X40447514Y-60903732D01*
X40474898Y-60941423D01*
X40478106Y-60946307D01*
X40501827Y-60986416D01*
X40501833Y-60986424D01*
X40515990Y-61000580D01*
X40528628Y-61015376D01*
X40540405Y-61031586D01*
X40540406Y-61031587D01*
X40576309Y-61061288D01*
X40580620Y-61065210D01*
X41125471Y-61610062D01*
X41299197Y-61783788D01*
X41309022Y-61796051D01*
X41309243Y-61795869D01*
X41314209Y-61801873D01*
X41318207Y-61805627D01*
X41326383Y-61813305D01*
X41361779Y-61873544D01*
X41360579Y-61938288D01*
X41357899Y-61947511D01*
X41355000Y-61984356D01*
X41355000Y-62395500D01*
X41335315Y-62462539D01*
X41282511Y-62508294D01*
X41231001Y-62519500D01*
X41054999Y-62519500D01*
X41054980Y-62519501D01*
X40952203Y-62530000D01*
X40952200Y-62530001D01*
X40785668Y-62585185D01*
X40785663Y-62585187D01*
X40636342Y-62677289D01*
X40512289Y-62801342D01*
X40420187Y-62950663D01*
X40420185Y-62950668D01*
X40413779Y-62970000D01*
X40365001Y-63117203D01*
X40365001Y-63117204D01*
X40365000Y-63117204D01*
X40354500Y-63219983D01*
X40354500Y-63360500D01*
X40334815Y-63427539D01*
X40282011Y-63473294D01*
X40230500Y-63484500D01*
X39549499Y-63484500D01*
X39482460Y-63464815D01*
X39436705Y-63412011D01*
X39425499Y-63360500D01*
X39425499Y-63219998D01*
X39425498Y-63219981D01*
X39414999Y-63117203D01*
X39414998Y-63117200D01*
X39383519Y-63022203D01*
X39359814Y-62950666D01*
X39267712Y-62801344D01*
X39143656Y-62677288D01*
X38994334Y-62585186D01*
X38827797Y-62530001D01*
X38827795Y-62530000D01*
X38725016Y-62519500D01*
X38725009Y-62519500D01*
X38674500Y-62519500D01*
X38607461Y-62499815D01*
X38561706Y-62447011D01*
X38550500Y-62395500D01*
X38550500Y-58932010D01*
X38570185Y-58864971D01*
X38622989Y-58819216D01*
X38692147Y-58809272D01*
X38724936Y-58818731D01*
X38820192Y-58861142D01*
X38820197Y-58861144D01*
X39005354Y-58900500D01*
X39005355Y-58900500D01*
X39194644Y-58900500D01*
X39194646Y-58900500D01*
X39379803Y-58861144D01*
X39552730Y-58784151D01*
X39705871Y-58672888D01*
X39832533Y-58532216D01*
X39927179Y-58368284D01*
X39985674Y-58188256D01*
X40003321Y-58020344D01*
X40029904Y-57955734D01*
X40038942Y-57945647D01*
X40162821Y-57821768D01*
X40224142Y-57788286D01*
X40293834Y-57793270D01*
G37*
%TD.AperFunction*%
%TA.AperFunction,Conductor*%
G36*
X87813179Y-61725633D02*
G01*
X87813179Y-61725500D01*
X87820981Y-61725500D01*
X87841016Y-61725500D01*
X87860413Y-61727026D01*
X87880196Y-61730160D01*
X87926584Y-61725775D01*
X87932422Y-61725500D01*
X88244143Y-61725500D01*
X88311182Y-61745185D01*
X88331824Y-61761819D01*
X88738181Y-62168176D01*
X88771666Y-62229499D01*
X88774500Y-62255857D01*
X88774500Y-62690547D01*
X88754815Y-62757586D01*
X88702011Y-62803341D01*
X88632853Y-62813285D01*
X88569297Y-62784260D01*
X88562819Y-62778228D01*
X87721233Y-61936642D01*
X87687748Y-61875319D01*
X87692732Y-61805627D01*
X87734604Y-61749694D01*
X87800068Y-61725277D01*
X87813179Y-61725633D01*
G37*
%TD.AperFunction*%
%TA.AperFunction,Conductor*%
G36*
X43710203Y-62057267D02*
G01*
X43746706Y-62111976D01*
X43765641Y-62169119D01*
X43765643Y-62169124D01*
X43857684Y-62318345D01*
X43951304Y-62411965D01*
X43984789Y-62473288D01*
X43979805Y-62542980D01*
X43951305Y-62587327D01*
X43857287Y-62681345D01*
X43848083Y-62696268D01*
X43835217Y-62717128D01*
X43828451Y-62728097D01*
X43776503Y-62774821D01*
X43722912Y-62787000D01*
X43568545Y-62787000D01*
X43501506Y-62767315D01*
X43455751Y-62714511D01*
X43445807Y-62645353D01*
X43454744Y-62613752D01*
X43456283Y-62610193D01*
X43502099Y-62452495D01*
X43502100Y-62452489D01*
X43505000Y-62415644D01*
X43505000Y-62150980D01*
X43524685Y-62083941D01*
X43577489Y-62038186D01*
X43646647Y-62028242D01*
X43710203Y-62057267D01*
G37*
%TD.AperFunction*%
%TA.AperFunction,Conductor*%
G36*
X67014299Y-54645185D02*
G01*
X67060054Y-54697989D01*
X67069998Y-54767147D01*
X67059256Y-54799418D01*
X67059746Y-54799601D01*
X67006403Y-54942620D01*
X67006401Y-54942627D01*
X67000000Y-55002155D01*
X67000000Y-55250000D01*
X68376000Y-55250000D01*
X68443039Y-55269685D01*
X68488794Y-55322489D01*
X68500000Y-55374000D01*
X68500000Y-55626000D01*
X68480315Y-55693039D01*
X68427511Y-55738794D01*
X68376000Y-55750000D01*
X67000000Y-55750000D01*
X67000000Y-55997844D01*
X67006401Y-56057372D01*
X67006403Y-56057379D01*
X67018925Y-56090952D01*
X67023909Y-56160643D01*
X67018925Y-56177617D01*
X67005909Y-56212514D01*
X67005908Y-56212516D01*
X66999501Y-56272116D01*
X66999501Y-56272123D01*
X66999500Y-56272135D01*
X66999500Y-57267870D01*
X66999501Y-57267876D01*
X67005908Y-57327481D01*
X67018659Y-57361669D01*
X67023642Y-57431361D01*
X67018659Y-57448331D01*
X67005908Y-57482518D01*
X67000659Y-57531344D01*
X66999501Y-57542123D01*
X66999500Y-57542135D01*
X66999500Y-58537870D01*
X66999501Y-58537885D01*
X67000508Y-58547243D01*
X66988104Y-58616003D01*
X66940494Y-58667141D01*
X66877219Y-58684500D01*
X65772743Y-58684500D01*
X65757122Y-58682775D01*
X65757095Y-58683061D01*
X65749333Y-58682326D01*
X65680172Y-58684500D01*
X65650649Y-58684500D01*
X65643778Y-58685367D01*
X65637959Y-58685825D01*
X65591374Y-58687289D01*
X65591368Y-58687290D01*
X65572126Y-58692880D01*
X65553087Y-58696823D01*
X65533217Y-58699334D01*
X65533203Y-58699337D01*
X65489883Y-58716488D01*
X65484358Y-58718380D01*
X65439613Y-58731380D01*
X65439610Y-58731381D01*
X65422366Y-58741579D01*
X65404905Y-58750133D01*
X65386274Y-58757510D01*
X65386262Y-58757517D01*
X65348570Y-58784902D01*
X65343687Y-58788109D01*
X65303580Y-58811829D01*
X65289414Y-58825995D01*
X65274624Y-58838627D01*
X65258414Y-58850404D01*
X65258411Y-58850407D01*
X65228710Y-58886309D01*
X65224777Y-58890631D01*
X63566208Y-60549199D01*
X63553951Y-60559020D01*
X63554134Y-60559241D01*
X63548123Y-60564213D01*
X63500772Y-60614636D01*
X63479889Y-60635519D01*
X63479877Y-60635532D01*
X63475621Y-60641017D01*
X63471837Y-60645447D01*
X63439937Y-60679418D01*
X63439936Y-60679420D01*
X63430284Y-60696976D01*
X63419610Y-60713226D01*
X63407329Y-60729061D01*
X63407324Y-60729068D01*
X63388815Y-60771838D01*
X63386245Y-60777084D01*
X63363803Y-60817906D01*
X63358822Y-60837307D01*
X63352521Y-60855710D01*
X63344562Y-60874102D01*
X63344561Y-60874105D01*
X63337271Y-60920127D01*
X63336087Y-60925846D01*
X63324501Y-60970972D01*
X63324500Y-60970982D01*
X63324500Y-60991016D01*
X63322973Y-61010415D01*
X63319979Y-61029321D01*
X63319840Y-61030196D01*
X63321997Y-61053009D01*
X63324225Y-61076583D01*
X63324500Y-61082421D01*
X63324500Y-62543187D01*
X63304815Y-62610226D01*
X63252011Y-62655981D01*
X63182853Y-62665925D01*
X63119297Y-62636900D01*
X63102520Y-62619187D01*
X63098166Y-62613574D01*
X63084005Y-62599413D01*
X63071370Y-62584620D01*
X63059593Y-62568412D01*
X63023693Y-62538713D01*
X63019381Y-62534790D01*
X62400803Y-61916212D01*
X62390980Y-61903950D01*
X62390759Y-61904134D01*
X62385786Y-61898123D01*
X62362401Y-61876163D01*
X62335364Y-61850773D01*
X62320043Y-61835452D01*
X62314475Y-61829883D01*
X62308986Y-61825625D01*
X62304561Y-61821847D01*
X62270582Y-61789938D01*
X62270580Y-61789936D01*
X62270577Y-61789935D01*
X62253029Y-61780288D01*
X62236763Y-61769604D01*
X62235228Y-61768413D01*
X62220936Y-61757327D01*
X62220935Y-61757326D01*
X62220933Y-61757325D01*
X62178168Y-61738818D01*
X62172922Y-61736248D01*
X62132093Y-61713803D01*
X62132092Y-61713802D01*
X62112693Y-61708822D01*
X62094281Y-61702518D01*
X62075898Y-61694562D01*
X62075892Y-61694560D01*
X62029874Y-61687272D01*
X62024152Y-61686087D01*
X61979021Y-61674500D01*
X61979019Y-61674500D01*
X61958984Y-61674500D01*
X61939586Y-61672973D01*
X61932162Y-61671797D01*
X61919805Y-61669840D01*
X61919804Y-61669840D01*
X61873416Y-61674225D01*
X61867578Y-61674500D01*
X60369221Y-61674500D01*
X60302182Y-61654815D01*
X60256427Y-61602011D01*
X60246483Y-61532853D01*
X60250145Y-61515905D01*
X60297597Y-61352573D01*
X60297598Y-61352567D01*
X60297633Y-61352129D01*
X60300500Y-61315694D01*
X60300500Y-61074500D01*
X60320185Y-61007461D01*
X60372989Y-60961706D01*
X60424500Y-60950500D01*
X61590696Y-60950500D01*
X61609131Y-60949049D01*
X61627569Y-60947598D01*
X61627571Y-60947597D01*
X61627573Y-60947597D01*
X61712173Y-60923018D01*
X61785398Y-60901744D01*
X61926865Y-60818081D01*
X62043081Y-60701865D01*
X62126744Y-60560398D01*
X62172598Y-60402569D01*
X62175500Y-60365694D01*
X62175500Y-59934306D01*
X62175433Y-59933461D01*
X62172598Y-59897432D01*
X62172597Y-59897426D01*
X62126745Y-59739606D01*
X62126744Y-59739603D01*
X62126744Y-59739602D01*
X62043081Y-59598135D01*
X62043079Y-59598133D01*
X62043076Y-59598129D01*
X61926870Y-59481923D01*
X61926862Y-59481917D01*
X61785396Y-59398255D01*
X61785393Y-59398253D01*
X61677519Y-59366913D01*
X61618633Y-59329307D01*
X61589427Y-59265834D01*
X61599173Y-59196647D01*
X61624430Y-59160159D01*
X66122772Y-54661819D01*
X66184095Y-54628334D01*
X66210453Y-54625500D01*
X66947260Y-54625500D01*
X67014299Y-54645185D01*
G37*
%TD.AperFunction*%
%TA.AperFunction,Conductor*%
G36*
X50568835Y-56218269D02*
G01*
X50624768Y-56260141D01*
X50649185Y-56325605D01*
X50649501Y-56334451D01*
X50649501Y-56347876D01*
X50655908Y-56407483D01*
X50706202Y-56542328D01*
X50706206Y-56542335D01*
X50792452Y-56657544D01*
X50792455Y-56657547D01*
X50907664Y-56743793D01*
X50907671Y-56743797D01*
X51042517Y-56794091D01*
X51042516Y-56794091D01*
X51049444Y-56794835D01*
X51102127Y-56800500D01*
X53197872Y-56800499D01*
X53257483Y-56794091D01*
X53295577Y-56779883D01*
X53400641Y-56740697D01*
X53401229Y-56742275D01*
X53459338Y-56729630D01*
X53524804Y-56754043D01*
X53566679Y-56809974D01*
X53574500Y-56853315D01*
X53574500Y-57467255D01*
X53572775Y-57482872D01*
X53573061Y-57482899D01*
X53572326Y-57490665D01*
X53574500Y-57559814D01*
X53574500Y-57779152D01*
X53572305Y-57802379D01*
X53570773Y-57810412D01*
X53574378Y-57867724D01*
X53574500Y-57871595D01*
X53574500Y-58191016D01*
X53572973Y-58210415D01*
X53569840Y-58230194D01*
X53569840Y-58230195D01*
X53574225Y-58276583D01*
X53574500Y-58282421D01*
X53574500Y-61144906D01*
X53554815Y-61211945D01*
X53502011Y-61257700D01*
X53437247Y-61268195D01*
X53402873Y-61264500D01*
X53402867Y-61264500D01*
X52759499Y-61264500D01*
X52692460Y-61244815D01*
X52646705Y-61192011D01*
X52635499Y-61140500D01*
X52635499Y-60497129D01*
X52635498Y-60497123D01*
X52634465Y-60487517D01*
X52629091Y-60437517D01*
X52626020Y-60429284D01*
X52578797Y-60302671D01*
X52578793Y-60302664D01*
X52492547Y-60187455D01*
X52492544Y-60187452D01*
X52377335Y-60101206D01*
X52377328Y-60101202D01*
X52242486Y-60050910D01*
X52242485Y-60050909D01*
X52242483Y-60050909D01*
X52182873Y-60044500D01*
X52182863Y-60044500D01*
X51817130Y-60044500D01*
X51817123Y-60044501D01*
X51763253Y-60050292D01*
X51736747Y-60050292D01*
X51721723Y-60048676D01*
X51682873Y-60044500D01*
X51682866Y-60044500D01*
X51317130Y-60044500D01*
X51317123Y-60044501D01*
X51263253Y-60050292D01*
X51236747Y-60050292D01*
X51221723Y-60048676D01*
X51182873Y-60044500D01*
X51182866Y-60044500D01*
X50817130Y-60044500D01*
X50817123Y-60044501D01*
X50763253Y-60050292D01*
X50736747Y-60050292D01*
X50721723Y-60048676D01*
X50682873Y-60044500D01*
X50682866Y-60044500D01*
X50317130Y-60044500D01*
X50317123Y-60044501D01*
X50263253Y-60050292D01*
X50236747Y-60050292D01*
X50215003Y-60047954D01*
X50182873Y-60044500D01*
X50182869Y-60044500D01*
X50027042Y-60044500D01*
X49960003Y-60024815D01*
X49914248Y-59972011D01*
X49903722Y-59933465D01*
X49885674Y-59761744D01*
X49885672Y-59761737D01*
X49885188Y-59757129D01*
X49897758Y-59688400D01*
X49945490Y-59637376D01*
X49995906Y-59620810D01*
X50052797Y-59614999D01*
X50219334Y-59559814D01*
X50368656Y-59467712D01*
X50492712Y-59343656D01*
X50494752Y-59340347D01*
X50496745Y-59338555D01*
X50497193Y-59337989D01*
X50497289Y-59338065D01*
X50546694Y-59293623D01*
X50615656Y-59282395D01*
X50679740Y-59310234D01*
X50705829Y-59340339D01*
X50707681Y-59343341D01*
X50707683Y-59343344D01*
X50831654Y-59467315D01*
X50980875Y-59559356D01*
X50980880Y-59559358D01*
X51147302Y-59614505D01*
X51147309Y-59614506D01*
X51250019Y-59624999D01*
X51299999Y-59624998D01*
X51300000Y-59624998D01*
X51300000Y-58650000D01*
X51800000Y-58650000D01*
X51800000Y-59624999D01*
X51849972Y-59624999D01*
X51849986Y-59624998D01*
X51952697Y-59614505D01*
X52119119Y-59559358D01*
X52119124Y-59559356D01*
X52268345Y-59467315D01*
X52392315Y-59343345D01*
X52484356Y-59194124D01*
X52484358Y-59194119D01*
X52539505Y-59027697D01*
X52539506Y-59027690D01*
X52549999Y-58924986D01*
X52550000Y-58924973D01*
X52550000Y-58650000D01*
X51800000Y-58650000D01*
X51300000Y-58650000D01*
X51300000Y-57175000D01*
X51800000Y-57175000D01*
X51800000Y-58150000D01*
X52549999Y-58150000D01*
X52549999Y-57875028D01*
X52549998Y-57875013D01*
X52539505Y-57772302D01*
X52484358Y-57605880D01*
X52484356Y-57605875D01*
X52392315Y-57456654D01*
X52268345Y-57332684D01*
X52119124Y-57240643D01*
X52119119Y-57240641D01*
X51952697Y-57185494D01*
X51952690Y-57185493D01*
X51849986Y-57175000D01*
X51800000Y-57175000D01*
X51300000Y-57175000D01*
X51299999Y-57174999D01*
X51250029Y-57175000D01*
X51250011Y-57175001D01*
X51147302Y-57185494D01*
X50980880Y-57240641D01*
X50980875Y-57240643D01*
X50831654Y-57332684D01*
X50707683Y-57456655D01*
X50707679Y-57456660D01*
X50705826Y-57459665D01*
X50704018Y-57461290D01*
X50703202Y-57462323D01*
X50703025Y-57462183D01*
X50653874Y-57506385D01*
X50584911Y-57517601D01*
X50520831Y-57489752D01*
X50494753Y-57459653D01*
X50494737Y-57459628D01*
X50492712Y-57456344D01*
X50368656Y-57332288D01*
X50368653Y-57332285D01*
X50334401Y-57311158D01*
X50287678Y-57259210D01*
X50275500Y-57205621D01*
X50275500Y-56460452D01*
X50295185Y-56393413D01*
X50311819Y-56372771D01*
X50358985Y-56325605D01*
X50437821Y-56246769D01*
X50499143Y-56213285D01*
X50568835Y-56218269D01*
G37*
%TD.AperFunction*%
%TA.AperFunction,Conductor*%
G36*
X89930836Y-58753464D02*
G01*
X89982045Y-58800996D01*
X89999500Y-58864432D01*
X89999500Y-59537155D01*
X89979815Y-59604194D01*
X89927011Y-59649949D01*
X89857853Y-59659893D01*
X89794297Y-59630868D01*
X89764617Y-59586390D01*
X89762408Y-59587421D01*
X89759356Y-59580875D01*
X89667315Y-59431654D01*
X89543344Y-59307683D01*
X89543341Y-59307681D01*
X89540339Y-59305829D01*
X89538713Y-59304021D01*
X89537677Y-59303202D01*
X89537817Y-59303024D01*
X89493617Y-59253880D01*
X89482397Y-59184917D01*
X89510243Y-59120836D01*
X89540344Y-59094754D01*
X89543656Y-59092712D01*
X89667712Y-58968656D01*
X89759814Y-58819334D01*
X89759816Y-58819326D01*
X89762864Y-58812791D01*
X89765649Y-58814089D01*
X89797547Y-58767999D01*
X89862057Y-58741163D01*
X89930836Y-58753464D01*
G37*
%TD.AperFunction*%
%TA.AperFunction,Conductor*%
G36*
X49657585Y-55045185D02*
G01*
X49703340Y-55097989D01*
X49713284Y-55167147D01*
X49684259Y-55230703D01*
X49678227Y-55237181D01*
X49266208Y-55649199D01*
X49253951Y-55659020D01*
X49254134Y-55659241D01*
X49248123Y-55664213D01*
X49200772Y-55714636D01*
X49179889Y-55735519D01*
X49179877Y-55735532D01*
X49175621Y-55741017D01*
X49171837Y-55745447D01*
X49139937Y-55779418D01*
X49139936Y-55779420D01*
X49130284Y-55796976D01*
X49119610Y-55813226D01*
X49107329Y-55829061D01*
X49107324Y-55829068D01*
X49088815Y-55871838D01*
X49086245Y-55877084D01*
X49063803Y-55917906D01*
X49058822Y-55937307D01*
X49052521Y-55955710D01*
X49044562Y-55974102D01*
X49044561Y-55974105D01*
X49037271Y-56020127D01*
X49036087Y-56025846D01*
X49024501Y-56070972D01*
X49024500Y-56070982D01*
X49024500Y-56091016D01*
X49022973Y-56110415D01*
X49019840Y-56130194D01*
X49019840Y-56130195D01*
X49024225Y-56176583D01*
X49024500Y-56182421D01*
X49024500Y-57205621D01*
X49004815Y-57272660D01*
X48965599Y-57311158D01*
X48931346Y-57332285D01*
X48895702Y-57367929D01*
X48834379Y-57401414D01*
X48764687Y-57396428D01*
X48715873Y-57363220D01*
X48705871Y-57352112D01*
X48705864Y-57352106D01*
X48552734Y-57240851D01*
X48552729Y-57240848D01*
X48379807Y-57163857D01*
X48379802Y-57163855D01*
X48234001Y-57132865D01*
X48194646Y-57124500D01*
X48005354Y-57124500D01*
X47965999Y-57132865D01*
X47820198Y-57163855D01*
X47814014Y-57165865D01*
X47813790Y-57165178D01*
X47769933Y-57174500D01*
X47249998Y-57174500D01*
X47249980Y-57174501D01*
X47147203Y-57185000D01*
X47147200Y-57185001D01*
X46980668Y-57240185D01*
X46980663Y-57240187D01*
X46831342Y-57332289D01*
X46707288Y-57456343D01*
X46707283Y-57456349D01*
X46705241Y-57459661D01*
X46703247Y-57461453D01*
X46702807Y-57462011D01*
X46702711Y-57461935D01*
X46653291Y-57506383D01*
X46584328Y-57517602D01*
X46520247Y-57489755D01*
X46494168Y-57459656D01*
X46492319Y-57456659D01*
X46492316Y-57456655D01*
X46368345Y-57332684D01*
X46219124Y-57240643D01*
X46219119Y-57240641D01*
X46052697Y-57185494D01*
X46052690Y-57185493D01*
X45949986Y-57175000D01*
X45900000Y-57175000D01*
X45900000Y-58526000D01*
X45880315Y-58593039D01*
X45827511Y-58638794D01*
X45776000Y-58650000D01*
X45524000Y-58650000D01*
X45456961Y-58630315D01*
X45411206Y-58577511D01*
X45400000Y-58526000D01*
X45400000Y-57175000D01*
X45399999Y-57174999D01*
X45350029Y-57175000D01*
X45350011Y-57175001D01*
X45247302Y-57185494D01*
X45080880Y-57240641D01*
X45080875Y-57240643D01*
X44931654Y-57332684D01*
X44807684Y-57456654D01*
X44715643Y-57605875D01*
X44715641Y-57605880D01*
X44660494Y-57772302D01*
X44660493Y-57772309D01*
X44650000Y-57875013D01*
X44650000Y-57966047D01*
X44630315Y-58033086D01*
X44577511Y-58078841D01*
X44508353Y-58088785D01*
X44444797Y-58059760D01*
X44438319Y-58053728D01*
X44361819Y-57977228D01*
X44328334Y-57915905D01*
X44325500Y-57889547D01*
X44325500Y-56711210D01*
X44345185Y-56644171D01*
X44397989Y-56598416D01*
X44467147Y-56588472D01*
X44530703Y-56617497D01*
X44534381Y-56620815D01*
X44564635Y-56649226D01*
X44585529Y-56670120D01*
X44591011Y-56674373D01*
X44595443Y-56678157D01*
X44629418Y-56710062D01*
X44646976Y-56719714D01*
X44663235Y-56730395D01*
X44679064Y-56742673D01*
X44721838Y-56761182D01*
X44727056Y-56763738D01*
X44767908Y-56786197D01*
X44787316Y-56791180D01*
X44805717Y-56797480D01*
X44824104Y-56805437D01*
X44867488Y-56812308D01*
X44870119Y-56812725D01*
X44875839Y-56813909D01*
X44920981Y-56825500D01*
X44941016Y-56825500D01*
X44960414Y-56827026D01*
X44980194Y-56830159D01*
X44980195Y-56830160D01*
X44980195Y-56830159D01*
X44980196Y-56830160D01*
X45026584Y-56825775D01*
X45032422Y-56825500D01*
X47117257Y-56825500D01*
X47132877Y-56827224D01*
X47132904Y-56826939D01*
X47140660Y-56827671D01*
X47140667Y-56827673D01*
X47209814Y-56825500D01*
X47239350Y-56825500D01*
X47246228Y-56824630D01*
X47252041Y-56824172D01*
X47298627Y-56822709D01*
X47317869Y-56817117D01*
X47336912Y-56813174D01*
X47356792Y-56810664D01*
X47400122Y-56793507D01*
X47405646Y-56791617D01*
X47409396Y-56790527D01*
X47450390Y-56778618D01*
X47467629Y-56768422D01*
X47485103Y-56759862D01*
X47503727Y-56752488D01*
X47503727Y-56752487D01*
X47503732Y-56752486D01*
X47541449Y-56725082D01*
X47546305Y-56721892D01*
X47586420Y-56698170D01*
X47600589Y-56683999D01*
X47615379Y-56671368D01*
X47631587Y-56659594D01*
X47661299Y-56623676D01*
X47665212Y-56619376D01*
X49222772Y-55061819D01*
X49284095Y-55028334D01*
X49310453Y-55025500D01*
X49590546Y-55025500D01*
X49657585Y-55045185D01*
G37*
%TD.AperFunction*%
%TA.AperFunction,Conductor*%
G36*
X89930836Y-57053464D02*
G01*
X89982045Y-57100996D01*
X89999500Y-57164432D01*
X89999500Y-57635567D01*
X89979815Y-57702606D01*
X89927011Y-57748361D01*
X89857853Y-57758305D01*
X89794297Y-57729280D01*
X89765423Y-57686015D01*
X89762864Y-57687209D01*
X89759815Y-57680670D01*
X89759814Y-57680666D01*
X89667712Y-57531344D01*
X89624049Y-57487681D01*
X89590564Y-57426358D01*
X89595548Y-57356666D01*
X89624049Y-57312319D01*
X89641955Y-57294413D01*
X89667712Y-57268656D01*
X89759814Y-57119334D01*
X89759816Y-57119326D01*
X89762864Y-57112791D01*
X89765649Y-57114089D01*
X89797547Y-57067999D01*
X89862057Y-57041163D01*
X89930836Y-57053464D01*
G37*
%TD.AperFunction*%
%TA.AperFunction,Conductor*%
G36*
X40297540Y-54535185D02*
G01*
X40343295Y-54587989D01*
X40354501Y-54639500D01*
X40354501Y-54780018D01*
X40365000Y-54882796D01*
X40365001Y-54882799D01*
X40420185Y-55049331D01*
X40420187Y-55049336D01*
X40422260Y-55052697D01*
X40512288Y-55198656D01*
X40636344Y-55322712D01*
X40785666Y-55414814D01*
X40952203Y-55469999D01*
X41054991Y-55480500D01*
X41231002Y-55480499D01*
X41298039Y-55500183D01*
X41343794Y-55552987D01*
X41355000Y-55604499D01*
X41355000Y-55850500D01*
X41335315Y-55917539D01*
X41282511Y-55963294D01*
X41231000Y-55974500D01*
X40582743Y-55974500D01*
X40567122Y-55972775D01*
X40567096Y-55973061D01*
X40559334Y-55972327D01*
X40559333Y-55972327D01*
X40490186Y-55974500D01*
X40460649Y-55974500D01*
X40453766Y-55975369D01*
X40447949Y-55975826D01*
X40401373Y-55977290D01*
X40382129Y-55982881D01*
X40363079Y-55986825D01*
X40343211Y-55989334D01*
X40299884Y-56006488D01*
X40294358Y-56008379D01*
X40249614Y-56021379D01*
X40249610Y-56021381D01*
X40232366Y-56031579D01*
X40214905Y-56040133D01*
X40196274Y-56047510D01*
X40196262Y-56047517D01*
X40158570Y-56074902D01*
X40153687Y-56078109D01*
X40113580Y-56101829D01*
X40099414Y-56115995D01*
X40084624Y-56128627D01*
X40068414Y-56140404D01*
X40068411Y-56140407D01*
X40038710Y-56176309D01*
X40034777Y-56180631D01*
X39152228Y-57063181D01*
X39090905Y-57096666D01*
X39064547Y-57099500D01*
X39005354Y-57099500D01*
X38994576Y-57101791D01*
X38820197Y-57138855D01*
X38820192Y-57138857D01*
X38724936Y-57181269D01*
X38655686Y-57190554D01*
X38592409Y-57160926D01*
X38555196Y-57101791D01*
X38550500Y-57067990D01*
X38550500Y-55604499D01*
X38570185Y-55537460D01*
X38622989Y-55491705D01*
X38674500Y-55480499D01*
X38725002Y-55480499D01*
X38725008Y-55480499D01*
X38827797Y-55469999D01*
X38994334Y-55414814D01*
X39143656Y-55322712D01*
X39267712Y-55198656D01*
X39359814Y-55049334D01*
X39414999Y-54882797D01*
X39425500Y-54780009D01*
X39425500Y-54639500D01*
X39445185Y-54572461D01*
X39497989Y-54526706D01*
X39549500Y-54515500D01*
X40230501Y-54515500D01*
X40297540Y-54535185D01*
G37*
%TD.AperFunction*%
%TA.AperFunction,Conductor*%
G36*
X87362762Y-54019685D02*
G01*
X87408517Y-54072489D01*
X87418461Y-54141647D01*
X87413429Y-54163004D01*
X87385494Y-54247302D01*
X87385493Y-54247309D01*
X87375000Y-54350013D01*
X87375000Y-54400000D01*
X88726000Y-54400000D01*
X88793039Y-54419685D01*
X88838794Y-54472489D01*
X88850000Y-54524000D01*
X88850000Y-54776000D01*
X88830315Y-54843039D01*
X88777511Y-54888794D01*
X88726000Y-54900000D01*
X87375001Y-54900000D01*
X87375001Y-54949986D01*
X87385494Y-55052697D01*
X87440641Y-55219119D01*
X87440643Y-55219124D01*
X87532684Y-55368345D01*
X87656655Y-55492316D01*
X87656659Y-55492319D01*
X87659656Y-55494168D01*
X87661279Y-55495972D01*
X87662323Y-55496798D01*
X87662181Y-55496976D01*
X87706381Y-55546116D01*
X87717602Y-55615079D01*
X87689759Y-55679161D01*
X87659661Y-55705241D01*
X87656349Y-55707283D01*
X87656343Y-55707288D01*
X87532289Y-55831342D01*
X87440187Y-55980663D01*
X87440185Y-55980668D01*
X87414062Y-56059504D01*
X87374289Y-56116949D01*
X87309773Y-56143772D01*
X87296356Y-56144500D01*
X87122277Y-56144500D01*
X87055238Y-56124815D01*
X87009483Y-56072011D01*
X86998988Y-56007240D01*
X86999999Y-55997834D01*
X87000000Y-55997827D01*
X87000000Y-55750000D01*
X84500000Y-55750000D01*
X84500000Y-55997834D01*
X84501012Y-56007240D01*
X84488609Y-56076000D01*
X84441001Y-56127139D01*
X84377723Y-56144500D01*
X75680452Y-56144500D01*
X75613413Y-56124815D01*
X75592771Y-56108181D01*
X74734590Y-55250000D01*
X84500000Y-55250000D01*
X85500000Y-55250000D01*
X85500000Y-54550000D01*
X86000000Y-54550000D01*
X86000000Y-55250000D01*
X87000000Y-55250000D01*
X87000000Y-55002172D01*
X86999999Y-55002155D01*
X86993598Y-54942627D01*
X86993596Y-54942620D01*
X86943354Y-54807913D01*
X86943350Y-54807906D01*
X86857190Y-54692812D01*
X86857187Y-54692809D01*
X86742093Y-54606649D01*
X86742086Y-54606645D01*
X86607379Y-54556403D01*
X86607372Y-54556401D01*
X86547844Y-54550000D01*
X86000000Y-54550000D01*
X85500000Y-54550000D01*
X84952155Y-54550000D01*
X84892627Y-54556401D01*
X84892620Y-54556403D01*
X84757913Y-54606645D01*
X84757906Y-54606649D01*
X84642812Y-54692809D01*
X84642809Y-54692812D01*
X84556649Y-54807906D01*
X84556645Y-54807913D01*
X84506403Y-54942620D01*
X84506401Y-54942627D01*
X84500000Y-55002155D01*
X84500000Y-55250000D01*
X74734590Y-55250000D01*
X73696271Y-54211681D01*
X73662786Y-54150358D01*
X73667770Y-54080666D01*
X73709642Y-54024733D01*
X73775106Y-54000316D01*
X73783952Y-54000000D01*
X87295723Y-54000000D01*
X87362762Y-54019685D01*
G37*
%TD.AperFunction*%
%TA.AperFunction,Conductor*%
G36*
X89930852Y-55151884D02*
G01*
X89982055Y-55199424D01*
X89999500Y-55262844D01*
X89999500Y-55935567D01*
X89979815Y-56002606D01*
X89927011Y-56048361D01*
X89857853Y-56058305D01*
X89794297Y-56029280D01*
X89765423Y-55986015D01*
X89762864Y-55987209D01*
X89759815Y-55980670D01*
X89759814Y-55980666D01*
X89667712Y-55831344D01*
X89543656Y-55707288D01*
X89540342Y-55705243D01*
X89538546Y-55703248D01*
X89537989Y-55702807D01*
X89538064Y-55702711D01*
X89493618Y-55653297D01*
X89482397Y-55584334D01*
X89510240Y-55520252D01*
X89540348Y-55494165D01*
X89543342Y-55492318D01*
X89667315Y-55368345D01*
X89759356Y-55219124D01*
X89762408Y-55212579D01*
X89764815Y-55213701D01*
X89797561Y-55166400D01*
X89862076Y-55139573D01*
X89930852Y-55151884D01*
G37*
%TD.AperFunction*%
%TA.AperFunction,Conductor*%
G36*
X42479729Y-55500184D02*
G01*
X42500371Y-55516818D01*
X42571372Y-55587819D01*
X42604857Y-55649142D01*
X42599873Y-55718834D01*
X42558001Y-55774767D01*
X42492537Y-55799184D01*
X42483691Y-55799500D01*
X42127309Y-55799500D01*
X42060270Y-55779815D01*
X42039628Y-55763181D01*
X41968627Y-55692180D01*
X41935142Y-55630857D01*
X41940126Y-55561165D01*
X41981998Y-55505232D01*
X42047462Y-55480815D01*
X42056297Y-55480499D01*
X42412690Y-55480499D01*
X42479729Y-55500184D01*
G37*
%TD.AperFunction*%
%TA.AperFunction,Conductor*%
G36*
X59043039Y-55169685D02*
G01*
X59088794Y-55222489D01*
X59100000Y-55274000D01*
X59100000Y-55526000D01*
X59080315Y-55593039D01*
X59027511Y-55638794D01*
X58976000Y-55650000D01*
X56824000Y-55650000D01*
X56756961Y-55630315D01*
X56711206Y-55577511D01*
X56700000Y-55526000D01*
X56700000Y-55274000D01*
X56719685Y-55206961D01*
X56772489Y-55161206D01*
X56824000Y-55150000D01*
X58976000Y-55150000D01*
X59043039Y-55169685D01*
G37*
%TD.AperFunction*%
%TA.AperFunction,Conductor*%
G36*
X66943039Y-46020185D02*
G01*
X66988794Y-46072989D01*
X67000000Y-46124500D01*
X67000000Y-51250500D01*
X66980315Y-51317539D01*
X66927511Y-51363294D01*
X66876000Y-51374500D01*
X65482738Y-51374500D01*
X65467121Y-51372776D01*
X65467094Y-51373062D01*
X65459332Y-51372327D01*
X65390204Y-51374500D01*
X65360650Y-51374500D01*
X65359929Y-51374590D01*
X65353757Y-51375369D01*
X65347945Y-51375826D01*
X65301373Y-51377290D01*
X65301372Y-51377290D01*
X65282129Y-51382881D01*
X65263079Y-51386825D01*
X65243211Y-51389334D01*
X65243209Y-51389335D01*
X65199884Y-51406488D01*
X65194357Y-51408380D01*
X65149610Y-51421381D01*
X65149609Y-51421382D01*
X65132367Y-51431579D01*
X65114899Y-51440137D01*
X65096269Y-51447513D01*
X65096267Y-51447514D01*
X65058576Y-51474898D01*
X65053694Y-51478105D01*
X65013579Y-51501830D01*
X64999408Y-51516000D01*
X64984623Y-51528628D01*
X64968412Y-51540407D01*
X64938709Y-51576310D01*
X64934777Y-51580631D01*
X61881514Y-54633894D01*
X61820191Y-54667379D01*
X61750499Y-54662395D01*
X61694566Y-54620523D01*
X61688294Y-54611309D01*
X61684814Y-54605668D01*
X61684814Y-54605666D01*
X61592712Y-54456344D01*
X61468656Y-54332288D01*
X61468652Y-54332285D01*
X61394284Y-54286414D01*
X61347559Y-54234466D01*
X61336338Y-54165504D01*
X61364181Y-54101422D01*
X61394286Y-54075337D01*
X61445685Y-54043634D01*
X61445690Y-54043630D01*
X61568629Y-53920691D01*
X61659903Y-53772714D01*
X61659905Y-53772709D01*
X61714592Y-53607673D01*
X61724999Y-53505815D01*
X61725000Y-53505800D01*
X61725000Y-53250000D01*
X60611500Y-53250000D01*
X60544461Y-53230315D01*
X60498706Y-53177511D01*
X60487500Y-53126000D01*
X60487500Y-51800000D01*
X60987500Y-51800000D01*
X60987500Y-52750000D01*
X61725000Y-52750000D01*
X61725000Y-52494197D01*
X61724999Y-52494184D01*
X61714592Y-52392326D01*
X61659905Y-52227290D01*
X61659903Y-52227285D01*
X61568629Y-52079308D01*
X61445691Y-51956370D01*
X61297714Y-51865096D01*
X61297709Y-51865094D01*
X61132673Y-51810407D01*
X61030815Y-51800000D01*
X60987500Y-51800000D01*
X60487500Y-51800000D01*
X60444184Y-51800000D01*
X60342326Y-51810407D01*
X60177290Y-51865094D01*
X60177285Y-51865096D01*
X60029308Y-51956370D01*
X59906369Y-52079309D01*
X59906364Y-52079315D01*
X59905829Y-52080184D01*
X59905306Y-52080654D01*
X59901888Y-52084977D01*
X59901149Y-52084392D01*
X59853879Y-52126906D01*
X59784916Y-52138125D01*
X59720835Y-52110278D01*
X59698586Y-52084601D01*
X59698507Y-52084664D01*
X59697111Y-52082898D01*
X59694758Y-52080183D01*
X59694028Y-52078999D01*
X59571003Y-51955974D01*
X59570999Y-51955971D01*
X59422933Y-51864642D01*
X59422927Y-51864639D01*
X59422925Y-51864638D01*
X59393281Y-51854815D01*
X59257776Y-51809913D01*
X59155855Y-51799500D01*
X59155848Y-51799500D01*
X58569152Y-51799500D01*
X58569144Y-51799500D01*
X58467223Y-51809913D01*
X58302077Y-51864637D01*
X58302066Y-51864642D01*
X58154000Y-51955971D01*
X58153996Y-51955974D01*
X58030971Y-52078999D01*
X58004155Y-52122475D01*
X57952207Y-52169198D01*
X57883244Y-52180419D01*
X57819162Y-52152575D01*
X57793082Y-52122475D01*
X57767712Y-52081344D01*
X57643656Y-51957288D01*
X57529399Y-51886814D01*
X57494336Y-51865187D01*
X57494331Y-51865185D01*
X57463036Y-51854815D01*
X57327797Y-51810001D01*
X57327795Y-51810000D01*
X57225010Y-51799500D01*
X56599998Y-51799500D01*
X56599980Y-51799501D01*
X56497203Y-51810000D01*
X56497200Y-51810001D01*
X56330668Y-51865185D01*
X56330663Y-51865187D01*
X56181342Y-51957289D01*
X56087681Y-52050951D01*
X56026358Y-52084436D01*
X55956666Y-52079452D01*
X55912319Y-52050951D01*
X55818657Y-51957289D01*
X55818656Y-51957288D01*
X55704399Y-51886814D01*
X55669336Y-51865187D01*
X55669331Y-51865185D01*
X55638036Y-51854815D01*
X55502797Y-51810001D01*
X55502795Y-51810000D01*
X55400010Y-51799500D01*
X54774998Y-51799500D01*
X54774980Y-51799501D01*
X54672203Y-51810000D01*
X54672200Y-51810001D01*
X54505668Y-51865185D01*
X54505663Y-51865187D01*
X54356342Y-51957289D01*
X54232289Y-52081342D01*
X54140187Y-52230663D01*
X54140186Y-52230666D01*
X54085001Y-52397203D01*
X54085001Y-52397204D01*
X54085000Y-52397204D01*
X54074500Y-52499983D01*
X54074500Y-52500500D01*
X54074468Y-52500605D01*
X54074340Y-52503139D01*
X54074179Y-52503130D01*
X54074179Y-52503132D01*
X54074155Y-52503129D01*
X54073734Y-52503108D01*
X54054815Y-52567539D01*
X54002011Y-52613294D01*
X53950500Y-52624500D01*
X53774499Y-52624500D01*
X53707460Y-52604815D01*
X53661705Y-52552011D01*
X53650499Y-52500500D01*
X53650499Y-52452129D01*
X53650498Y-52452123D01*
X53644091Y-52392516D01*
X53593797Y-52257671D01*
X53593795Y-52257668D01*
X53573583Y-52230668D01*
X53531081Y-52173893D01*
X53506664Y-52108431D01*
X53521515Y-52040158D01*
X53531082Y-52025271D01*
X53593352Y-51942089D01*
X53593354Y-51942086D01*
X53643596Y-51807379D01*
X53643598Y-51807372D01*
X53649999Y-51747844D01*
X53650000Y-51747827D01*
X53650000Y-51200000D01*
X50650000Y-51200000D01*
X50650000Y-51750500D01*
X50630315Y-51817539D01*
X50577511Y-51863294D01*
X50526000Y-51874500D01*
X47474499Y-51874500D01*
X47407460Y-51854815D01*
X47361705Y-51802011D01*
X47350499Y-51750500D01*
X47350499Y-51302129D01*
X47350498Y-51302123D01*
X47344091Y-51242516D01*
X47293797Y-51107671D01*
X47293793Y-51107664D01*
X47207547Y-50992455D01*
X47207544Y-50992452D01*
X47092335Y-50906206D01*
X47092328Y-50906202D01*
X46957482Y-50855908D01*
X46957483Y-50855908D01*
X46897883Y-50849501D01*
X46897881Y-50849500D01*
X46897873Y-50849500D01*
X46897864Y-50849500D01*
X44802129Y-50849500D01*
X44802123Y-50849501D01*
X44742516Y-50855908D01*
X44607671Y-50906202D01*
X44607665Y-50906206D01*
X44569654Y-50934660D01*
X44504189Y-50959076D01*
X44435916Y-50944223D01*
X44407664Y-50923073D01*
X44184591Y-50700000D01*
X50650000Y-50700000D01*
X51900000Y-50700000D01*
X51900000Y-49700000D01*
X52400000Y-49700000D01*
X52400000Y-50700000D01*
X53650000Y-50700000D01*
X53650000Y-50152172D01*
X53649999Y-50152155D01*
X53643598Y-50092627D01*
X53643596Y-50092620D01*
X53593354Y-49957913D01*
X53593350Y-49957906D01*
X53507190Y-49842812D01*
X53507187Y-49842809D01*
X53392093Y-49756649D01*
X53392086Y-49756645D01*
X53257379Y-49706403D01*
X53257372Y-49706401D01*
X53197844Y-49700000D01*
X52400000Y-49700000D01*
X51900000Y-49700000D01*
X51102155Y-49700000D01*
X51042627Y-49706401D01*
X51042620Y-49706403D01*
X50907913Y-49756645D01*
X50907906Y-49756649D01*
X50792812Y-49842809D01*
X50792809Y-49842812D01*
X50706649Y-49957906D01*
X50706645Y-49957913D01*
X50656403Y-50092620D01*
X50656401Y-50092627D01*
X50650000Y-50152155D01*
X50650000Y-50700000D01*
X44184591Y-50700000D01*
X43300803Y-49816212D01*
X43290980Y-49803950D01*
X43290759Y-49804134D01*
X43285786Y-49798123D01*
X43267159Y-49780631D01*
X43235364Y-49750773D01*
X43224919Y-49740328D01*
X43214475Y-49729883D01*
X43208986Y-49725625D01*
X43204561Y-49721847D01*
X43170582Y-49689938D01*
X43170580Y-49689936D01*
X43170577Y-49689935D01*
X43153029Y-49680288D01*
X43136763Y-49669604D01*
X43120933Y-49657325D01*
X43078168Y-49638818D01*
X43072922Y-49636248D01*
X43032093Y-49613803D01*
X43032092Y-49613802D01*
X43012693Y-49608822D01*
X42994281Y-49602518D01*
X42975898Y-49594562D01*
X42975892Y-49594560D01*
X42929874Y-49587272D01*
X42924152Y-49586087D01*
X42879021Y-49574500D01*
X42879019Y-49574500D01*
X42858984Y-49574500D01*
X42839586Y-49572973D01*
X42832162Y-49571797D01*
X42819805Y-49569840D01*
X42819804Y-49569840D01*
X42773416Y-49574225D01*
X42767578Y-49574500D01*
X37382743Y-49574500D01*
X37367122Y-49572775D01*
X37367095Y-49573061D01*
X37359333Y-49572326D01*
X37290172Y-49574500D01*
X37260649Y-49574500D01*
X37253778Y-49575367D01*
X37247959Y-49575825D01*
X37201374Y-49577289D01*
X37201368Y-49577290D01*
X37182126Y-49582880D01*
X37163087Y-49586823D01*
X37143217Y-49589334D01*
X37143203Y-49589337D01*
X37099883Y-49606488D01*
X37094358Y-49608380D01*
X37049613Y-49621380D01*
X37049610Y-49621381D01*
X37032366Y-49631579D01*
X37014905Y-49640133D01*
X36996274Y-49647510D01*
X36996262Y-49647517D01*
X36958570Y-49674902D01*
X36953687Y-49678109D01*
X36913580Y-49701829D01*
X36899414Y-49715995D01*
X36884624Y-49728627D01*
X36868414Y-49740404D01*
X36868411Y-49740407D01*
X36838710Y-49776309D01*
X36834777Y-49780631D01*
X35212181Y-51403227D01*
X35150858Y-51436712D01*
X35081166Y-51431728D01*
X35025233Y-51389856D01*
X35000816Y-51324392D01*
X35000500Y-51315546D01*
X35000500Y-48597870D01*
X37974500Y-48597870D01*
X37974501Y-48597876D01*
X37980908Y-48657483D01*
X38031202Y-48792328D01*
X38031206Y-48792335D01*
X38117452Y-48907544D01*
X38117455Y-48907547D01*
X38232664Y-48993793D01*
X38232671Y-48993797D01*
X38367517Y-49044091D01*
X38367516Y-49044091D01*
X38374444Y-49044835D01*
X38427127Y-49050500D01*
X40222872Y-49050499D01*
X40282483Y-49044091D01*
X40417331Y-48993796D01*
X40532546Y-48907546D01*
X40618796Y-48792331D01*
X40668002Y-48660401D01*
X40709872Y-48604468D01*
X40775337Y-48580050D01*
X40843610Y-48594901D01*
X40871865Y-48616053D01*
X40993917Y-48738105D01*
X41187421Y-48873600D01*
X41401507Y-48973429D01*
X41401516Y-48973433D01*
X41615000Y-49030634D01*
X41615000Y-48135501D01*
X41722685Y-48184680D01*
X41829237Y-48200000D01*
X41900763Y-48200000D01*
X42007315Y-48184680D01*
X42115000Y-48135501D01*
X42115000Y-49030633D01*
X42328483Y-48973433D01*
X42328492Y-48973429D01*
X42542578Y-48873600D01*
X42736082Y-48738105D01*
X42903105Y-48571082D01*
X43038600Y-48377578D01*
X43138429Y-48163492D01*
X43138432Y-48163486D01*
X43195636Y-47950000D01*
X42298686Y-47950000D01*
X42324493Y-47909844D01*
X42365000Y-47771889D01*
X42365000Y-47628111D01*
X42324493Y-47490156D01*
X42298686Y-47450000D01*
X43195636Y-47450000D01*
X43195635Y-47449999D01*
X43138432Y-47236513D01*
X43138429Y-47236507D01*
X43038600Y-47022422D01*
X43038599Y-47022420D01*
X42903113Y-46828926D01*
X42903108Y-46828920D01*
X42736082Y-46661894D01*
X42542578Y-46526399D01*
X42328492Y-46426570D01*
X42328486Y-46426567D01*
X42115000Y-46369364D01*
X42115000Y-47264498D01*
X42007315Y-47215320D01*
X41900763Y-47200000D01*
X41829237Y-47200000D01*
X41722685Y-47215320D01*
X41615000Y-47264498D01*
X41615000Y-46369364D01*
X41614999Y-46369364D01*
X41401513Y-46426567D01*
X41401507Y-46426570D01*
X41187422Y-46526399D01*
X41187420Y-46526400D01*
X40993926Y-46661886D01*
X40871865Y-46783947D01*
X40810542Y-46817431D01*
X40740850Y-46812447D01*
X40684917Y-46770575D01*
X40668002Y-46739598D01*
X40618797Y-46607671D01*
X40618793Y-46607664D01*
X40532547Y-46492455D01*
X40532544Y-46492452D01*
X40417335Y-46406206D01*
X40417328Y-46406202D01*
X40282482Y-46355908D01*
X40282483Y-46355908D01*
X40222883Y-46349501D01*
X40222881Y-46349500D01*
X40222873Y-46349500D01*
X40222864Y-46349500D01*
X38427129Y-46349500D01*
X38427123Y-46349501D01*
X38367516Y-46355908D01*
X38232671Y-46406202D01*
X38232664Y-46406206D01*
X38117455Y-46492452D01*
X38117452Y-46492455D01*
X38031206Y-46607664D01*
X38031202Y-46607671D01*
X37980908Y-46742517D01*
X37974501Y-46802116D01*
X37974500Y-46802135D01*
X37974500Y-48597870D01*
X35000500Y-48597870D01*
X35000500Y-48002035D01*
X35000633Y-47997980D01*
X35003777Y-47950000D01*
X35005989Y-47916244D01*
X35018986Y-47734536D01*
X35020014Y-47726903D01*
X35043153Y-47610579D01*
X35044118Y-47606141D01*
X35074533Y-47466323D01*
X35076392Y-47459625D01*
X35116815Y-47340543D01*
X35166159Y-47208251D01*
X35168633Y-47202520D01*
X35225583Y-47087036D01*
X35292179Y-46965076D01*
X35295019Y-46960384D01*
X35366563Y-46853311D01*
X35368428Y-46850676D01*
X35450291Y-46741321D01*
X35453244Y-46737678D01*
X35538503Y-46640459D01*
X35541198Y-46637581D01*
X35637581Y-46541198D01*
X35640459Y-46538503D01*
X35737678Y-46453244D01*
X35741321Y-46450291D01*
X35850676Y-46368428D01*
X35853311Y-46366563D01*
X35960384Y-46295019D01*
X35965076Y-46292179D01*
X36087036Y-46225583D01*
X36202520Y-46168633D01*
X36208251Y-46166159D01*
X36340543Y-46116815D01*
X36459625Y-46076392D01*
X36466323Y-46074533D01*
X36610579Y-46043153D01*
X36616728Y-46041929D01*
X36726903Y-46020014D01*
X36734536Y-46018986D01*
X36916244Y-46005989D01*
X36969211Y-46002517D01*
X36997981Y-46000633D01*
X37002036Y-46000500D01*
X66876000Y-46000500D01*
X66943039Y-46020185D01*
G37*
%TD.AperFunction*%
%TA.AperFunction,Conductor*%
G36*
X59879746Y-53889715D02*
G01*
X59901761Y-53915123D01*
X59901888Y-53915023D01*
X59904113Y-53917838D01*
X59905833Y-53919822D01*
X59906365Y-53920685D01*
X59906369Y-53920690D01*
X60029309Y-54043630D01*
X60029313Y-54043633D01*
X60093215Y-54083049D01*
X60139940Y-54134997D01*
X60151161Y-54203959D01*
X60123318Y-54268041D01*
X60093215Y-54294126D01*
X60031342Y-54332289D01*
X59907288Y-54456343D01*
X59907283Y-54456349D01*
X59905241Y-54459661D01*
X59903247Y-54461453D01*
X59902807Y-54462011D01*
X59902711Y-54461935D01*
X59853291Y-54506383D01*
X59784328Y-54517602D01*
X59720247Y-54489755D01*
X59694168Y-54459656D01*
X59692319Y-54456659D01*
X59692316Y-54456655D01*
X59568344Y-54332683D01*
X59568340Y-54332680D01*
X59506785Y-54294712D01*
X59460060Y-54242764D01*
X59448839Y-54173801D01*
X59476682Y-54109719D01*
X59506783Y-54083637D01*
X59571003Y-54044026D01*
X59694026Y-53921003D01*
X59694755Y-53919821D01*
X59695466Y-53919181D01*
X59698507Y-53915336D01*
X59699163Y-53915855D01*
X59746701Y-53873097D01*
X59815664Y-53861873D01*
X59879746Y-53889715D01*
G37*
%TD.AperFunction*%
%TD*%
M02*
