%TF.GenerationSoftware,KiCad,Pcbnew,7.0.9*%
%TF.CreationDate,2024-04-10T17:12:20-05:00*%
%TF.ProjectId,Aniversario-PCBWAY,416e6976-6572-4736-9172-696f2d504342,rev?*%
%TF.SameCoordinates,Original*%
%TF.FileFunction,Soldermask,Bot*%
%TF.FilePolarity,Negative*%
%FSLAX46Y46*%
G04 Gerber Fmt 4.6, Leading zero omitted, Abs format (unit mm)*
G04 Created by KiCad (PCBNEW 7.0.9) date 2024-04-10 17:12:20*
%MOMM*%
%LPD*%
G01*
G04 APERTURE LIST*
G04 Aperture macros list*
%AMRoundRect*
0 Rectangle with rounded corners*
0 $1 Rounding radius*
0 $2 $3 $4 $5 $6 $7 $8 $9 X,Y pos of 4 corners*
0 Add a 4 corners polygon primitive as box body*
4,1,4,$2,$3,$4,$5,$6,$7,$8,$9,$2,$3,0*
0 Add four circle primitives for the rounded corners*
1,1,$1+$1,$2,$3*
1,1,$1+$1,$4,$5*
1,1,$1+$1,$6,$7*
1,1,$1+$1,$8,$9*
0 Add four rect primitives between the rounded corners*
20,1,$1+$1,$2,$3,$4,$5,0*
20,1,$1+$1,$4,$5,$6,$7,0*
20,1,$1+$1,$6,$7,$8,$9,0*
20,1,$1+$1,$8,$9,$2,$3,0*%
G04 Aperture macros list end*
%ADD10RoundRect,0.250000X-0.262500X-0.450000X0.262500X-0.450000X0.262500X0.450000X-0.262500X0.450000X0*%
%ADD11RoundRect,0.250000X0.250000X0.475000X-0.250000X0.475000X-0.250000X-0.475000X0.250000X-0.475000X0*%
%ADD12RoundRect,0.250000X-0.250000X-0.475000X0.250000X-0.475000X0.250000X0.475000X-0.250000X0.475000X0*%
%ADD13RoundRect,0.250000X-0.475000X0.250000X-0.475000X-0.250000X0.475000X-0.250000X0.475000X0.250000X0*%
%ADD14RoundRect,0.250000X0.475000X-0.250000X0.475000X0.250000X-0.475000X0.250000X-0.475000X-0.250000X0*%
%ADD15RoundRect,0.150000X-0.587500X-0.150000X0.587500X-0.150000X0.587500X0.150000X-0.587500X0.150000X0*%
%ADD16RoundRect,0.250000X0.450000X-0.262500X0.450000X0.262500X-0.450000X0.262500X-0.450000X-0.262500X0*%
%ADD17R,1.700000X1.700000*%
%ADD18O,1.700000X1.700000*%
%ADD19RoundRect,0.243750X0.243750X0.456250X-0.243750X0.456250X-0.243750X-0.456250X0.243750X-0.456250X0*%
%ADD20RoundRect,0.250000X-0.450000X0.262500X-0.450000X-0.262500X0.450000X-0.262500X0.450000X0.262500X0*%
%ADD21RoundRect,0.150000X0.587500X0.150000X-0.587500X0.150000X-0.587500X-0.150000X0.587500X-0.150000X0*%
%ADD22R,2.000000X1.500000*%
%ADD23R,2.000000X3.800000*%
%ADD24R,1.500000X0.900000*%
%ADD25R,0.900000X1.500000*%
%ADD26R,0.900000X0.900000*%
%ADD27RoundRect,0.150000X0.425000X-0.150000X0.425000X0.150000X-0.425000X0.150000X-0.425000X-0.150000X0*%
%ADD28RoundRect,0.075000X0.500000X-0.075000X0.500000X0.075000X-0.500000X0.075000X-0.500000X-0.075000X0*%
%ADD29RoundRect,0.250000X0.750000X-0.840000X0.750000X0.840000X-0.750000X0.840000X-0.750000X-0.840000X0*%
%ADD30R,1.250000X1.000000*%
%ADD31R,0.990000X0.270000*%
%ADD32R,0.270000X0.990000*%
%ADD33R,3.250000X3.250000*%
G04 APERTURE END LIST*
D10*
%TO.C,R5*%
X82287500Y-83400000D03*
X84112500Y-83400000D03*
%TD*%
D11*
%TO.C,C8*%
X80550000Y-83400000D03*
X78650000Y-83400000D03*
%TD*%
D12*
%TO.C,C7*%
X70250000Y-83000000D03*
X72150000Y-83000000D03*
%TD*%
D13*
%TO.C,C6*%
X88600000Y-58250000D03*
X88600000Y-60150000D03*
%TD*%
D14*
%TO.C,C5*%
X88600000Y-56550000D03*
X88600000Y-54650000D03*
%TD*%
D15*
%TO.C,Q1*%
X59062500Y-61100000D03*
X59062500Y-59200000D03*
X60937500Y-60150000D03*
%TD*%
D12*
%TO.C,C11*%
X55050000Y-55400000D03*
X56950000Y-55400000D03*
%TD*%
D14*
%TO.C,C2*%
X47400000Y-72250000D03*
X47400000Y-70350000D03*
%TD*%
%TO.C,C3*%
X49800000Y-72250000D03*
X49800000Y-70350000D03*
%TD*%
D10*
%TO.C,R6*%
X55087500Y-53000000D03*
X56912500Y-53000000D03*
%TD*%
D16*
%TO.C,R1*%
X44900000Y-63412500D03*
X44900000Y-61587500D03*
%TD*%
D17*
%TO.C,J1*%
X70090000Y-99250000D03*
D18*
X72630000Y-99250000D03*
X75170000Y-99250000D03*
X77710000Y-99250000D03*
X80250000Y-99250000D03*
X82790000Y-99250000D03*
X85330000Y-99250000D03*
%TD*%
D19*
%TO.C,D1*%
X60737500Y-53000000D03*
X58862500Y-53000000D03*
%TD*%
D16*
%TO.C,R3*%
X56337500Y-65262500D03*
X56337500Y-63437500D03*
%TD*%
D20*
%TO.C,R4*%
X57800000Y-69487500D03*
X57800000Y-71312500D03*
%TD*%
D16*
%TO.C,R2*%
X56337500Y-61062500D03*
X56337500Y-59237500D03*
%TD*%
D11*
%TO.C,C9*%
X47550000Y-58400000D03*
X45650000Y-58400000D03*
%TD*%
%TO.C,C12*%
X60750000Y-55400000D03*
X58850000Y-55400000D03*
%TD*%
D21*
%TO.C,Q2*%
X60937500Y-63450000D03*
X60937500Y-65350000D03*
X59062500Y-64400000D03*
%TD*%
D17*
%TO.C,J2*%
X39325000Y-47700000D03*
D18*
X41865000Y-47700000D03*
%TD*%
D13*
%TO.C,C4*%
X60400000Y-69450000D03*
X60400000Y-71350000D03*
%TD*%
D11*
%TO.C,C1*%
X46250000Y-65600000D03*
X44350000Y-65600000D03*
%TD*%
D22*
%TO.C,U3*%
X52150000Y-50950000D03*
X52150000Y-53250000D03*
D23*
X45850000Y-53250000D03*
D22*
X52150000Y-55550000D03*
%TD*%
D24*
%TO.C,U2*%
X85750000Y-55500000D03*
X85750000Y-56770000D03*
X85750000Y-58040000D03*
X85750000Y-59310000D03*
X85750000Y-60580000D03*
X85750000Y-61850000D03*
X85750000Y-63120000D03*
X85750000Y-64390000D03*
X85750000Y-65660000D03*
X85750000Y-66930000D03*
X85750000Y-68200000D03*
X85750000Y-69470000D03*
X85750000Y-70740000D03*
X85750000Y-72010000D03*
D25*
X83985000Y-73260000D03*
X82715000Y-73260000D03*
X81445000Y-73260000D03*
X80175000Y-73260000D03*
X78905000Y-73260000D03*
X77635000Y-73260000D03*
X76365000Y-73260000D03*
X75095000Y-73260000D03*
X73825000Y-73260000D03*
X72555000Y-73260000D03*
X71285000Y-73260000D03*
X70015000Y-73260000D03*
D24*
X68250000Y-72010000D03*
X68250000Y-70740000D03*
X68250000Y-69470000D03*
X68250000Y-68200000D03*
X68250000Y-66930000D03*
X68250000Y-65660000D03*
X68250000Y-64390000D03*
X68250000Y-63120000D03*
X68250000Y-61850000D03*
X68250000Y-60580000D03*
X68250000Y-59310000D03*
X68250000Y-58040000D03*
X68250000Y-56770000D03*
X68250000Y-55500000D03*
D26*
X79900000Y-64620000D03*
X79900000Y-64620000D03*
X79900000Y-63220000D03*
X79900000Y-61820000D03*
X78500000Y-64620000D03*
X78500000Y-63220000D03*
X78500000Y-61820000D03*
X78500000Y-61820000D03*
X77100000Y-64620000D03*
X77100000Y-63220000D03*
X77100000Y-61820000D03*
%TD*%
D27*
%TO.C,P1*%
X42430000Y-62200000D03*
X42430000Y-61400000D03*
D28*
X42430000Y-60250000D03*
X42430000Y-59250000D03*
X42430000Y-58750000D03*
X42430000Y-57750000D03*
D27*
X42430000Y-56600000D03*
X42430000Y-55800000D03*
X42430000Y-55800000D03*
X42430000Y-56600000D03*
D28*
X42430000Y-57250000D03*
X42430000Y-58250000D03*
X42430000Y-59750000D03*
X42430000Y-60750000D03*
D27*
X42430000Y-61400000D03*
X42430000Y-62200000D03*
D29*
X37925000Y-64110000D03*
X41855000Y-64110000D03*
X37925000Y-53890000D03*
X41855000Y-53890000D03*
%TD*%
D12*
%TO.C,C10*%
X49650000Y-58400000D03*
X51550000Y-58400000D03*
%TD*%
D30*
%TO.C,RESET1*%
X67375000Y-79250000D03*
X75125000Y-79250000D03*
%TD*%
D31*
%TO.C,U1*%
X48140000Y-64900000D03*
X48140000Y-64400000D03*
X48140000Y-63900000D03*
X48140000Y-63400000D03*
X48140000Y-62900000D03*
X48140000Y-62400000D03*
X48140000Y-61900000D03*
D32*
X49000000Y-61040000D03*
X49500000Y-61040000D03*
X50000000Y-61040000D03*
X50500000Y-61040000D03*
X51000000Y-61040000D03*
X51500000Y-61040000D03*
X52000000Y-61040000D03*
D31*
X52860000Y-61900000D03*
X52860000Y-62400000D03*
X52860000Y-62900000D03*
X52860000Y-63400000D03*
X52860000Y-63900000D03*
X52860000Y-64400000D03*
X52860000Y-64900000D03*
D32*
X52000000Y-65760000D03*
X51500000Y-65760000D03*
X51000000Y-65760000D03*
X50500000Y-65760000D03*
X50000000Y-65760000D03*
X49500000Y-65760000D03*
X49000000Y-65760000D03*
D33*
X50500000Y-63400000D03*
%TD*%
D30*
%TO.C,BOOT1*%
X77625000Y-79250000D03*
X85375000Y-79250000D03*
%TD*%
M02*
