%TF.GenerationSoftware,KiCad,Pcbnew,7.0.9*%
%TF.CreationDate,2024-04-10T17:12:23-05:00*%
%TF.ProjectId,Aniversario-PCBWAY,416e6976-6572-4736-9172-696f2d504342,rev?*%
%TF.SameCoordinates,Original*%
%TF.FileFunction,Drillmap*%
%TF.FilePolarity,Positive*%
%FSLAX45Y45*%
G04 Gerber Fmt 4.5, Leading zero omitted, Abs format (unit mm)*
G04 Created by KiCad (PCBNEW 7.0.9) date 2024-04-10 17:12:23*
%MOMM*%
%LPD*%
G01*
G04 APERTURE LIST*
%ADD10C,0.100000*%
%ADD11C,0.200000*%
G04 APERTURE END LIST*
D10*
X9000000Y-4800000D02*
G75*
G03*
X8800000Y-4600000I-200000J0D01*
G01*
X8800000Y-4600000D02*
X3700000Y-4600000D01*
X3700000Y-4600000D02*
G75*
G03*
X3500000Y-4800000I0J-200000D01*
G01*
X3700000Y-10100000D02*
X8800000Y-10100000D01*
X3500000Y-4800000D02*
X3500000Y-9900000D01*
X3500000Y-9900000D02*
G75*
G03*
X3700000Y-10100000I200000J0D01*
G01*
X9000000Y-9900000D02*
X9000000Y-4800000D01*
X8800000Y-10100000D02*
G75*
G03*
X9000000Y-9900000I0J200000D01*
G01*
D11*
X3755777Y-10416484D02*
X3755777Y-10216484D01*
X3755777Y-10216484D02*
X3803396Y-10216484D01*
X3803396Y-10216484D02*
X3831967Y-10226008D01*
X3831967Y-10226008D02*
X3851015Y-10245055D01*
X3851015Y-10245055D02*
X3860539Y-10264103D01*
X3860539Y-10264103D02*
X3870062Y-10302198D01*
X3870062Y-10302198D02*
X3870062Y-10330770D01*
X3870062Y-10330770D02*
X3860539Y-10368865D01*
X3860539Y-10368865D02*
X3851015Y-10387912D01*
X3851015Y-10387912D02*
X3831967Y-10406960D01*
X3831967Y-10406960D02*
X3803396Y-10416484D01*
X3803396Y-10416484D02*
X3755777Y-10416484D01*
X3955777Y-10416484D02*
X3955777Y-10283150D01*
X3955777Y-10321246D02*
X3965301Y-10302198D01*
X3965301Y-10302198D02*
X3974824Y-10292674D01*
X3974824Y-10292674D02*
X3993872Y-10283150D01*
X3993872Y-10283150D02*
X4012920Y-10283150D01*
X4079586Y-10416484D02*
X4079586Y-10283150D01*
X4079586Y-10216484D02*
X4070062Y-10226008D01*
X4070062Y-10226008D02*
X4079586Y-10235531D01*
X4079586Y-10235531D02*
X4089110Y-10226008D01*
X4089110Y-10226008D02*
X4079586Y-10216484D01*
X4079586Y-10216484D02*
X4079586Y-10235531D01*
X4203396Y-10416484D02*
X4184348Y-10406960D01*
X4184348Y-10406960D02*
X4174824Y-10387912D01*
X4174824Y-10387912D02*
X4174824Y-10216484D01*
X4308158Y-10416484D02*
X4289110Y-10406960D01*
X4289110Y-10406960D02*
X4279586Y-10387912D01*
X4279586Y-10387912D02*
X4279586Y-10216484D01*
X4536729Y-10416484D02*
X4536729Y-10216484D01*
X4536729Y-10216484D02*
X4603396Y-10359341D01*
X4603396Y-10359341D02*
X4670063Y-10216484D01*
X4670063Y-10216484D02*
X4670063Y-10416484D01*
X4851015Y-10416484D02*
X4851015Y-10311722D01*
X4851015Y-10311722D02*
X4841491Y-10292674D01*
X4841491Y-10292674D02*
X4822444Y-10283150D01*
X4822444Y-10283150D02*
X4784348Y-10283150D01*
X4784348Y-10283150D02*
X4765301Y-10292674D01*
X4851015Y-10406960D02*
X4831967Y-10416484D01*
X4831967Y-10416484D02*
X4784348Y-10416484D01*
X4784348Y-10416484D02*
X4765301Y-10406960D01*
X4765301Y-10406960D02*
X4755777Y-10387912D01*
X4755777Y-10387912D02*
X4755777Y-10368865D01*
X4755777Y-10368865D02*
X4765301Y-10349817D01*
X4765301Y-10349817D02*
X4784348Y-10340293D01*
X4784348Y-10340293D02*
X4831967Y-10340293D01*
X4831967Y-10340293D02*
X4851015Y-10330770D01*
X4946253Y-10283150D02*
X4946253Y-10483150D01*
X4946253Y-10292674D02*
X4965301Y-10283150D01*
X4965301Y-10283150D02*
X5003396Y-10283150D01*
X5003396Y-10283150D02*
X5022444Y-10292674D01*
X5022444Y-10292674D02*
X5031967Y-10302198D01*
X5031967Y-10302198D02*
X5041491Y-10321246D01*
X5041491Y-10321246D02*
X5041491Y-10378389D01*
X5041491Y-10378389D02*
X5031967Y-10397436D01*
X5031967Y-10397436D02*
X5022444Y-10406960D01*
X5022444Y-10406960D02*
X5003396Y-10416484D01*
X5003396Y-10416484D02*
X4965301Y-10416484D01*
X4965301Y-10416484D02*
X4946253Y-10406960D01*
X5127205Y-10397436D02*
X5136729Y-10406960D01*
X5136729Y-10406960D02*
X5127205Y-10416484D01*
X5127205Y-10416484D02*
X5117682Y-10406960D01*
X5117682Y-10406960D02*
X5127205Y-10397436D01*
X5127205Y-10397436D02*
X5127205Y-10416484D01*
X5127205Y-10292674D02*
X5136729Y-10302198D01*
X5136729Y-10302198D02*
X5127205Y-10311722D01*
X5127205Y-10311722D02*
X5117682Y-10302198D01*
X5117682Y-10302198D02*
X5127205Y-10292674D01*
X5127205Y-10292674D02*
X5127205Y-10311722D01*
M02*
